<?xml version="1.0" encoding="UTF-8" standalone="no"?>
<svg
   xmlns:dc="http://purl.org/dc/elements/1.1/"
   xmlns:cc="http://creativecommons.org/ns#"
   xmlns:rdf="http://www.w3.org/1999/02/22-rdf-syntax-ns#"
   xmlns:svg="http://www.w3.org/2000/svg"
   xmlns="http://www.w3.org/2000/svg"
   viewBox="0 0 160.41333 140.67999"
   height="140.67999"
   width="160.41333"
   xml:space="preserve"
   id="svg2"
   version="1.1"><metadata
     id="metadata8"><rdf:RDF><cc:Work
         rdf:about=""><dc:format>image/svg+xml</dc:format><dc:type
           rdf:resource="http://purl.org/dc/dcmitype/StillImage" /></cc:Work></rdf:RDF></metadata><defs
     id="defs6" /><g
     transform="matrix(1.3333333,0,0,-1.3333333,0,140.68)"
     id="g10"><g
       transform="scale(0.1)"
       id="g12"><path
         id="path14"
         style="fill:#ee2c30;fill-opacity:1;fill-rule:nonzero;stroke:none"
         d="M 49.6875,0 H 1153.45 v 0 c 38.19,0 62.06,41.3281 42.98,74.4141 v 0 L 644.516,1030.29 v 0 c -19.082,33.08 -66.817,33.08 -85.899,0 v 0 L 6.70313,74.4141 v 0 C -12.3711,41.3281 11.4922,0 49.6875,0 v 0" /><path
         id="path16"
         style="fill:#ffffff;fill-opacity:1;fill-rule:nonzero;stroke:none"
         d="M 135.586,99.2188 H 1067.55 L 601.566,906.262 135.586,99.2188" /><path
         id="path18"
         style="fill:#231f20;fill-opacity:1;fill-rule:nonzero;stroke:none"
         d="m 503.977,630.871 -63.942,-44.211 45.36,-59.109 v 0 c 12.242,-2.774 25.816,-6.125 38.089,-10.051 20.051,-5.937 39.567,-16.699 56.883,-28.621 23.035,-15.977 43.848,-35.676 60.008,-58.711 14.297,-20.449 25.09,-43.313 31.613,-67.461 5.535,-21.75 8.348,-45.91 8.711,-68.586 0.938,-40.32 0,-97.168 0,-138.242 v 0 l 51.66,47.023 51.836,-47.023 v 129.348 c 0,33.621 -2.773,68.367 -11.125,100.906 -8.172,31.574 -20.808,61.887 -37.91,89.758 -20.262,34.011 -47.012,64.109 -78.621,87.91 -34.375,25.984 -73.223,47.012 -114.297,57.957 -29.344,7.812 -38.265,9.113 -38.265,9.113 v 0" /></g></g></svg>