<?xml version="1.0" encoding="UTF-8" standalone="no"?>
<svg
   xmlns:dc="http://purl.org/dc/elements/1.1/"
   xmlns:cc="http://creativecommons.org/ns#"
   xmlns:rdf="http://www.w3.org/1999/02/22-rdf-syntax-ns#"
   xmlns:svg="http://www.w3.org/2000/svg"
   xmlns="http://www.w3.org/2000/svg"
   viewBox="0 0 160.41333 140.67999"
   height="140.67999"
   width="160.41333"
   xml:space="preserve"
   id="svg2"
   version="1.1"><metadata
     id="metadata8"><rdf:RDF><cc:Work
         rdf:about=""><dc:format>image/svg+xml</dc:format><dc:type
           rdf:resource="http://purl.org/dc/dcmitype/StillImage" /></cc:Work></rdf:RDF></metadata><defs
     id="defs6" /><g
     transform="matrix(1.3333333,0,0,-1.3333333,0,140.68)"
     id="g10"><g
       transform="scale(0.1)"
       id="g12"><path
         id="path14"
         style="fill:#ee2c30;fill-opacity:1;fill-rule:nonzero;stroke:none"
         d="M 49.6875,0 H 1153.45 v 0 c 38.19,0 62.06,41.3281 42.98,74.4102 v 0 L 644.512,1030.29 v 0 c -19.078,33.07 -66.817,33.07 -85.895,0 v 0 L 6.69922,74.4102 v 0 C -12.3789,41.3281 11.4883,0 49.6875,0 v 0" /><path
         id="path16"
         style="fill:#ffffff;fill-opacity:1;fill-rule:nonzero;stroke:none"
         d="M 135.582,99.2148 H 1067.55 L 601.566,906.266 135.582,99.2148" /><path
         id="path18"
         style="fill:#231f20;fill-opacity:1;fill-rule:nonzero;stroke:none"
         d="m 699.52,630.863 63.937,-44.207 -45.363,-59.113 v 0 c -12.235,-2.773 -25.809,-6.121 -38.082,-10.043 -20.055,-5.941 -39.567,-16.703 -56.883,-28.621 -23.039,-15.984 -43.848,-35.676 -60.016,-58.719 -14.289,-20.441 -25.086,-43.305 -31.605,-67.461 -5.539,-21.746 -8.348,-45.902 -8.711,-68.582 -0.938,-40.316 0,-97.164 0,-138.238 v 0 l -51.66,47.016 -51.84,-47.016 v 129.348 c 0,33.625 2.773,68.363 11.125,100.906 8.172,31.574 20.808,61.887 37.91,89.75 20.266,34.019 47.016,64.117 78.621,87.91 34.379,25.992 73.223,47.02 114.301,57.961 29.34,7.812 38.266,9.109 38.266,9.109 v 0" /></g></g></svg>