<?xml version="1.0" encoding="UTF-8" standalone="no"?>
<svg
   xmlns:dc="http://purl.org/dc/elements/1.1/"
   xmlns:cc="http://creativecommons.org/ns#"
   xmlns:rdf="http://www.w3.org/1999/02/22-rdf-syntax-ns#"
   xmlns:svg="http://www.w3.org/2000/svg"
   xmlns="http://www.w3.org/2000/svg"
   viewBox="0 0 160.41333 140.67999"
   height="140.67999"
   width="160.41333"
   xml:space="preserve"
   id="svg2"
   version="1.1"><metadata
     id="metadata8"><rdf:RDF><cc:Work
         rdf:about=""><dc:format>image/svg+xml</dc:format><dc:type
           rdf:resource="http://purl.org/dc/dcmitype/StillImage" /></cc:Work></rdf:RDF></metadata><defs
     id="defs6" /><g
     transform="matrix(1.3333333,0,0,-1.3333333,0,140.68)"
     id="g10"><g
       transform="scale(0.1)"
       id="g12"><path
         id="path14"
         style="fill:#ee2c30;fill-opacity:1;fill-rule:nonzero;stroke:none"
         d="M 49.6875,0 H 1153.45 v 0 c 38.19,0 62.06,41.3281 42.98,74.4141 v 0 L 644.516,1030.29 v 0 c -19.082,33.08 -66.817,33.08 -85.899,0 v 0 L 6.70313,74.4141 v 0 C -12.3711,41.3281 11.4922,0 49.6875,0 v 0" /><path
         id="path16"
         style="fill:#ffffff;fill-opacity:1;fill-rule:nonzero;stroke:none"
         d="M 135.586,99.2188 H 1067.55 L 601.566,906.262 135.586,99.2188" /><path
         id="path18"
         style="fill:#231f20;fill-opacity:1;fill-rule:nonzero;stroke:none"
         d="m 520.391,156.672 -0.403,235.586 v 0 c 0,1.66 0.942,2.949 2.414,3.711 1.297,0.535 2.774,0.176 3.891,-0.547 v 0 l 59.113,-45.606 v 0 c 31.317,-24.082 73.946,-27.257 108.399,-8.175 31.531,17.422 50.789,49.316 51.152,85.285 v 162 L 694.379,638.391 643.98,588.352 V 439.883 c 0,-1.649 -0.937,-3.309 -2.414,-4.063 -1.66,-0.761 -3.347,-0.359 -4.648,0.539 v 0 l -56.875,45.43 v 0 c -32.441,25.957 -77.836,28.906 -113.402,7.234 -29.485,-17.996 -47.625,-50.078 -47.625,-84.707 v -247.82 l 48.742,47.09 52.633,-46.914 v 0" /></g></g></svg>