<?xml version="1.0" encoding="UTF-8" standalone="no"?>
<svg
   xmlns:dc="http://purl.org/dc/elements/1.1/"
   xmlns:cc="http://creativecommons.org/ns#"
   xmlns:rdf="http://www.w3.org/1999/02/22-rdf-syntax-ns#"
   xmlns:svg="http://www.w3.org/2000/svg"
   xmlns="http://www.w3.org/2000/svg"
   viewBox="0 0 160.41333 140.67999"
   height="140.67999"
   width="160.41333"
   xml:space="preserve"
   id="svg2"
   version="1.1"><metadata
     id="metadata8"><rdf:RDF><cc:Work
         rdf:about=""><dc:format>image/svg+xml</dc:format><dc:type
           rdf:resource="http://purl.org/dc/dcmitype/StillImage" /></cc:Work></rdf:RDF></metadata><defs
     id="defs6" /><g
     transform="matrix(1.3333333,0,0,-1.3333333,0,140.68)"
     id="g10"><g
       transform="scale(0.1)"
       id="g12"><path
         id="path14"
         style="fill:#ee2c30;fill-opacity:1;fill-rule:nonzero;stroke:none"
         d="M 49.6875,0 H 1153.45 v 0 c 38.19,0 62.06,41.3281 42.98,74.4141 v 0 L 644.516,1030.29 v 0 c -19.082,33.08 -66.817,33.08 -85.899,0 v 0 L 6.70313,74.4141 v 0 C -12.3711,41.3281 11.4922,0 49.6875,0 v 0" /><path
         id="path16"
         style="fill:#ffffff;fill-opacity:1;fill-rule:nonzero;stroke:none"
         d="M 135.586,99.2188 H 1067.55 L 601.566,906.262 135.586,99.2188" /><path
         id="path18"
         style="fill:#231f20;fill-opacity:1;fill-rule:nonzero;stroke:none"
         d="m 438.707,156.027 -0.109,221.368 v 0 c 0,4.168 0.359,8.347 1.113,12.41 0.758,4.074 1.836,8.175 3.312,12.031 1.227,3.125 2.7,6.477 4.36,9.394 1.656,2.844 3.672,6.008 5.722,8.567 v 0 l 38.704,49.715 v 0 c 0.679,0.832 1.398,1.945 1.976,2.843 0.574,0.938 1.153,2.09 1.621,3.067 0.864,1.863 1.473,3.887 1.907,5.867 0.464,2.012 0.648,4.102 0.648,6.152 v 0 l 0.105,142.414 79.313,0.977 0.105,-151.672 v 0 c 0,-4.285 -0.214,-8.601 -0.722,-12.89 -0.391,-3.778 -1.004,-7.598 -1.903,-11.297 -0.793,-3.352 -1.945,-6.7 -3.457,-9.797 -1.582,-3.164 -3.527,-6.406 -5.722,-9.141 v 0 L 521,379.152 v 0 c -0.609,-0.754 -1.227,-1.73 -1.727,-2.558 -0.543,-0.86 -0.972,-1.867 -1.367,-2.805 -0.972,-2.449 -1.476,-5.254 -1.476,-7.851 v 0 l -0.219,-209.696 -77.504,-0.215 v 0" /><path
         id="path20"
         style="fill:#231f20;fill-opacity:1;fill-rule:nonzero;stroke:none"
         d="m 764.078,156.672 0.496,221.004 v 0 c 0,4.211 -0.32,8.39 -1.113,12.492 -0.762,4.07 -1.797,8.211 -3.309,12.059 -1.23,3.136 -2.707,6.484 -4.355,9.394 -1.66,2.852 -3.672,6.016 -5.723,8.606 v 0 l -38.351,49.218 v 0 c -0.711,0.899 -1.543,2.118 -2.157,3.094 -0.605,0.969 -1.261,2.227 -1.757,3.274 -1.153,2.304 -1.946,4.824 -2.52,7.312 -0.578,2.52 -0.832,5.109 -0.832,7.695 v 0 l 0.645,139.473 -79.52,0.246 0.145,-150.949 v 0 c 0,-4.317 0.214,-8.633 0.683,-12.957 0.43,-3.742 1.047,-7.559 1.906,-11.231 0.789,-3.351 1.903,-6.73 3.457,-9.797 1.582,-3.164 3.524,-6.445 5.723,-9.179 v 0 l 44.57,-56.699 v 0 c 0.614,-0.789 1.258,-1.758 1.797,-2.664 0.508,-0.86 1.004,-1.907 1.407,-2.883 1.113,-2.657 1.66,-5.75 1.66,-8.602 v 0 l 0.027,-208.937 77.121,0.031 v 0" /></g></g></svg>