<?xml version="1.0" encoding="UTF-8" standalone="no"?>
<svg
   xmlns:dc="http://purl.org/dc/elements/1.1/"
   xmlns:cc="http://creativecommons.org/ns#"
   xmlns:rdf="http://www.w3.org/1999/02/22-rdf-syntax-ns#"
   xmlns:svg="http://www.w3.org/2000/svg"
   xmlns="http://www.w3.org/2000/svg"
   viewBox="0 0 160.41333 140.67999"
   height="140.67999"
   width="160.41333"
   xml:space="preserve"
   id="svg2"
   version="1.1"><metadata
     id="metadata8"><rdf:RDF><cc:Work
         rdf:about=""><dc:format>image/svg+xml</dc:format><dc:type
           rdf:resource="http://purl.org/dc/dcmitype/StillImage" /></cc:Work></rdf:RDF></metadata><defs
     id="defs6" /><g
     transform="matrix(1.3333333,0,0,-1.3333333,0,140.68)"
     id="g10"><g
       transform="scale(0.1)"
       id="g12"><path
         id="path14"
         style="fill:#ee2c30;fill-opacity:1;fill-rule:nonzero;stroke:none"
         d="M 49.6875,0 H 1153.45 v 0 c 38.19,0 62.06,41.3281 42.98,74.4141 v 0 L 644.516,1030.29 v 0 c -19.082,33.08 -66.817,33.08 -85.899,0 v 0 L 6.70313,74.4141 v 0 C -12.3711,41.3281 11.4922,0 49.6875,0 v 0" /><path
         id="path16"
         style="fill:#ffffff;fill-opacity:1;fill-rule:nonzero;stroke:none"
         d="M 135.586,99.2188 H 1067.55 L 601.566,906.262 135.586,99.2188" /><path
         id="path18"
         style="fill:#231f20;fill-opacity:1;fill-rule:nonzero;stroke:none"
         d="m 465.348,573.984 60.406,-1.082 0.539,-278.242 45.754,10.875 v 0 c 2.734,0.649 5.652,-0.543 7.207,-2.847 1.609,-2.375 1.609,-5.434 0,-7.708 v 0 L 501.633,180.43 v 0 c -1.403,-2.09 -3.817,-3.27 -6.301,-3.27 -2.371,0.106 -4.57,1.297 -5.867,3.27 v 0 l -77.184,114.23 v 0 c -1.515,2.262 -1.621,5.332 -0.215,7.813 1.657,2.73 4.899,4.031 8.063,3.277 v 0 l 44.891,-11.305 0.328,279.539 v 0 M 676.195,191.336 676.52,470.52 631.234,459.395 v 0 c -3.066,-0.75 -6.23,0.429 -7.957,2.949 -1.875,2.636 -1.875,6.015 -0.109,8.644 v 0 l 77.578,113.946 v 0 c 1.301,1.941 3.606,3.269 6.016,3.269 2.519,0.11 4.894,-1.219 6.34,-3.269 v 0 l 77.793,-114.2 v 0 c 1.765,-2.589 1.648,-5.98 -0.11,-8.496 -1.726,-2.519 -4.902,-3.703 -7.851,-2.953 v 0 l -45.496,11.125 -1.016,-278.965 -60.227,-0.109 v 0" /></g></g></svg>