<?xml version="1.0" encoding="UTF-8" standalone="no"?>
<svg
   xmlns:dc="http://purl.org/dc/elements/1.1/"
   xmlns:cc="http://creativecommons.org/ns#"
   xmlns:rdf="http://www.w3.org/1999/02/22-rdf-syntax-ns#"
   xmlns:svg="http://www.w3.org/2000/svg"
   xmlns="http://www.w3.org/2000/svg"
   viewBox="0 0 160.41333 140.67999"
   height="140.67999"
   width="160.41333"
   xml:space="preserve"
   id="svg2"
   version="1.1"><metadata
     id="metadata8"><rdf:RDF><cc:Work
         rdf:about=""><dc:format>image/svg+xml</dc:format><dc:type
           rdf:resource="http://purl.org/dc/dcmitype/StillImage" /></cc:Work></rdf:RDF></metadata><defs
     id="defs6" /><g
     transform="matrix(1.3333333,0,0,-1.3333333,0,140.68)"
     id="g10"><g
       transform="scale(0.1)"
       id="g12"><path
         id="path14"
         style="fill:#ee2c30;fill-opacity:1;fill-rule:nonzero;stroke:none"
         d="M 49.6875,0 H 1153.45 v 0 c 38.19,0 62.06,41.3281 42.98,74.4141 v 0 L 644.516,1030.28 v 0 c -19.082,33.09 -66.817,33.09 -85.899,0 v 0 L 6.70313,74.4141 v 0 C -12.3789,41.3281 11.4922,0 49.6875,0 v 0" /><path
         id="path16"
         style="fill:#ffffff;fill-opacity:1;fill-rule:nonzero;stroke:none"
         d="M 135.586,99.2188 H 1067.55 L 601.566,906.262 135.586,99.2188" /><path
         id="path18"
         style="fill:#231f20;fill-opacity:1;fill-rule:nonzero;stroke:none"
         d="m 353.566,241.199 0.715,79.516 v 0 c 3.926,0.066 8.141,0.351 11.989,1.07 4.035,0.754 7.921,2.512 10.765,5.422 3.418,3.555 6.301,8.328 8.531,12.676 4.321,8.586 11.09,21.23 17.067,28.73 10.078,12.61 25.414,20.547 41.074,24.571 17.711,4.558 36.504,3.839 53.563,-2.735 14.621,-5.566 26.824,-15.047 36.398,-27.402 5.613,-7.285 12.344,-18.137 18.426,-25.059 8.859,-10.097 21.242,-16.562 34.386,-19.367 8.348,-1.758 16.993,-1.902 25.34,-0.137 10.832,2.258 21.164,7.258 28.762,15.293 7.313,7.661 14.188,19.758 20.449,28.266 8.242,11.25 19.004,20.437 31.532,26.543 15.05,7.359 31.972,9.844 48.527,7.613 14.512,-1.941 28.301,-7.508 39.89,-16.414 9.25,-7.109 16.887,-16.23 22.825,-26.316 2.304,-3.918 9.793,-16.633 12.422,-20.332 2.625,-3.664 6.406,-6.574 10.332,-8.735 3.562,-1.968 7.586,-3.406 11.66,-3.687 3.816,-0.188 7.703,0.105 11.414,0.39 v 0 l -0.223,-79.726 -495.844,-0.18 v 0" /></g></g></svg>