<?xml version="1.0" encoding="UTF-8" standalone="no"?>
<svg
   xmlns:dc="http://purl.org/dc/elements/1.1/"
   xmlns:cc="http://creativecommons.org/ns#"
   xmlns:rdf="http://www.w3.org/1999/02/22-rdf-syntax-ns#"
   xmlns:svg="http://www.w3.org/2000/svg"
   xmlns="http://www.w3.org/2000/svg"
   viewBox="0 0 160.41333 140.67999"
   height="140.67999"
   width="160.41333"
   xml:space="preserve"
   id="svg2"
   version="1.1"><metadata
     id="metadata8"><rdf:RDF><cc:Work
         rdf:about=""><dc:format>image/svg+xml</dc:format><dc:type
           rdf:resource="http://purl.org/dc/dcmitype/StillImage" /></cc:Work></rdf:RDF></metadata><defs
     id="defs6" /><g
     transform="matrix(1.3333333,0,0,-1.3333333,0,140.68)"
     id="g10"><g
       transform="scale(0.1)"
       id="g12"><path
         id="path14"
         style="fill:#ee2c30;fill-opacity:1;fill-rule:nonzero;stroke:none"
         d="M 49.6875,0 H 1153.45 v 0 c 38.19,0 62.06,41.3281 42.98,74.4102 v 0 L 644.512,1030.29 v 0 c -19.078,33.07 -66.817,33.07 -85.895,0 v 0 L 6.69922,74.4102 v 0 C -12.3789,41.3281 11.4883,0 49.6875,0 v 0" /><path
         id="path16"
         style="fill:#ffffff;fill-opacity:1;fill-rule:nonzero;stroke:none"
         d="M 135.582,99.2148 H 1067.55 L 601.566,906.266 135.582,99.2148" /><path
         id="path18"
         style="fill:#231f20;fill-opacity:1;fill-rule:nonzero;stroke:none"
         d="m 485.141,381.637 c 6.16,-0.649 14.367,-3.926 12.781,-10.047 -1.262,-4.93 -8.641,-6.301 -13.785,-6.731 -13.18,-1.187 -32.832,-2.882 -45.617,-6.086 -11.09,-2.699 -22.536,-5.976 -31.176,-13.285 -4.711,-4.027 -7.524,-10.941 -5.688,-16.879 2.739,-9.113 12.891,-14.511 21.352,-18.761 12.523,-6.118 26.637,-9.535 40.176,-12.563 6.836,5.113 18.031,12.602 25.629,16.598 v 0 l 7.738,2.914 v 0 c 13.609,5.617 43.418,13.32 55.66,15.519 5.578,1.004 23.762,3.672 29.59,4.247 13.75,1.441 43.812,5.613 45.179,-4.61 1.336,-9.969 -11.878,-9.648 -17.855,-10.332 -11.738,-1.441 -28.73,-3.781 -40.355,-5.902 -17.313,-3.239 -35.895,-7.27 -51.766,-15.52 -3.137,-1.656 -6.301,-3.672 -9.184,-5.508 -1.547,-1.039 -3.273,-2.191 -4.82,-3.203 v 0 l 252.535,-24.121 v 0 c 20.055,-1.871 42.055,-4.601 62.43,-8.562 32.18,-6.52 72.43,-24.305 69.223,-56.594 -0.934,-8.965 -6.086,-18.359 -12.094,-23.691 -30.348,-26.922 -85.137,-25.883 -127.836,-14.614 -2.086,0.543 -3.817,2.809 -3.633,5.078 0.395,6.547 15.047,4.86 22.027,5.114 17.821,0.465 37.192,3.054 51.696,8.347 10.191,3.567 20.558,12.203 18.254,27.399 -1.153,7.344 -12.747,20.09 -44.747,27.324 v 0 l -104.437,15.695 v 0 c -20.809,2.664 -45.434,5.793 -66.242,8.461 -34.563,4.356 -97.918,12.348 -132.481,16.664 v 0 l -2.984,-4.496 v 0 c -4.141,-6.265 1.328,-13.394 4.859,-16.777 2.555,-2.485 6.012,-4.754 9.071,-6.555 7.019,-4.066 26.859,-11.734 34.703,-13.824 v 0 l -3.887,1.156 v 0 c 56.773,-16.961 53.316,-52.238 30.996,-64.512 -7.558,-4.175 -15.805,-8.464 -24.047,-10.152 -16.273,-3.351 -34.199,-3.422 -50.836,-2.23 -4.89,0.355 -11.156,1.148 -15.765,1.836 -18.071,2.589 -50.508,18.57 -53.317,23.254 v 0 l -0.468,0.792 v 0 c -1.004,1.399 -1.622,3.309 -1.368,5.219 0.184,1.367 1.153,2.774 2.414,3.129 6.481,1.695 18.688,-7.738 26.856,-10.332 15.012,-4.601 33.84,-5.359 49.215,-1.836 8.168,1.836 16.918,6.125 19.148,14.113 1.942,7.204 -2.66,14.973 -9.574,17.641 -19.441,7.598 -44.711,8.387 -59.441,22.969 -6.477,6.371 -10.043,16.055 -8.926,24.984 0.937,6.696 2.304,13.86 6.769,19.043 -19.117,2.703 -45.359,8.422 -65.629,17.028 -14.543,6.085 -28.472,19.621 -26.566,35.316 1.402,10.695 8.715,19.875 17.781,25.738 32.617,20.555 80.426,25.528 118.442,22.145 v 0" /><path
         id="path20"
         style="fill:#231f20;fill-opacity:1;fill-rule:nonzero;stroke:none"
         d="m 514.266,560.699 15.949,34.813 v 0 c 1.293,2.414 3.308,5.937 5.004,8.062 8.097,10.008 28.801,29.809 119.121,-17.824 83.305,-43.953 92.23,-48.488 98.25,-82.113 3.449,-19.547 -13.434,-37.008 -23.727,-52.848 v 0 l 9.434,-6.262 v 0 c 3.558,-3.203 5.394,-8.242 3.738,-12.82 v 0 l -2.265,-6.406 -26.821,-56.77 v 0 c -2.379,-4.14 -5.254,-8.57 -10.761,-8.89 -3.028,-0.184 -6.157,0.14 -9.075,0.714 v 0 L 674.43,321.227 v 0 c -1.442,-2.914 -5.149,-3.352 -8.746,-1.622 v 0 l -20.918,10.157 v 0 c -1.547,0.75 -3.707,1.652 -4.215,3.886 -0.535,2.196 0.394,3.961 1.48,6.266 v 0 l 10.907,23.828 -163.118,81.828 -10.902,-22.715 v 0 c -1.012,-1.98 -2.527,-4.105 -4.469,-4.968 -2.375,-1.047 -5.222,-0.43 -7.484,0.722 v 0 l -18.508,9.141 v 0 c -2.41,1.152 -4.355,3.422 -4.465,6.156 -0.144,2.34 0.828,5.039 1.871,7.164 v 0 l 16.887,35.137 v 0 c -0.937,0.969 -1.98,2.016 -2.883,3.023 -1.219,1.438 -2.23,3.024 -2.914,4.79 -0.469,1.152 -0.824,2.519 -0.793,3.777 0.11,1.262 0.684,2.883 1.153,4.035 v 0 l 30.167,62.313 v 0 c 1.258,2.414 2.809,4.933 4.575,6.914 3.097,3.492 7.054,5.976 14.179,2.918 v 0 l 8.032,-3.278 v 0" /><path
         id="path22"
         style="fill:#ffffff;fill-opacity:1;fill-rule:nonzero;stroke:none"
         d="m 694.73,473.184 -142.125,72.754 v 0 c -6.046,6.41 -4.605,18.324 2.844,24.3 12.242,9.758 59.364,-14.543 82.871,-26.031 19.801,-9.715 81.793,-38.48 76.356,-61.34 -2.485,-10.297 -13.86,-12.82 -19.946,-9.683 v 0" /></g></g></svg>