<?xml version="1.0" encoding="UTF-8" standalone="no"?>
<svg
   xmlns:dc="http://purl.org/dc/elements/1.1/"
   xmlns:cc="http://creativecommons.org/ns#"
   xmlns:rdf="http://www.w3.org/1999/02/22-rdf-syntax-ns#"
   xmlns:svg="http://www.w3.org/2000/svg"
   xmlns="http://www.w3.org/2000/svg"
   viewBox="0 0 160.41333 140.67999"
   height="140.67999"
   width="160.41333"
   xml:space="preserve"
   id="svg2"
   version="1.1"><metadata
     id="metadata8"><rdf:RDF><cc:Work
         rdf:about=""><dc:format>image/svg+xml</dc:format><dc:type
           rdf:resource="http://purl.org/dc/dcmitype/StillImage" /></cc:Work></rdf:RDF></metadata><defs
     id="defs6" /><g
     transform="matrix(1.3333333,0,0,-1.3333333,0,140.68)"
     id="g10"><g
       transform="scale(0.1)"
       id="g12"><path
         id="path14"
         style="fill:#ee2c30;fill-opacity:1;fill-rule:nonzero;stroke:none"
         d="M 49.6875,0 H 1153.45 v 0 c 38.19,0 62.06,41.3281 42.98,74.4102 v 0 L 644.512,1030.29 v 0 c -19.078,33.07 -66.817,33.07 -85.895,0 v 0 L 6.69922,74.4102 v 0 C -12.3789,41.3281 11.4883,0 49.6875,0 v 0" /><path
         id="path16"
         style="fill:#ffffff;fill-opacity:1;fill-rule:nonzero;stroke:none"
         d="M 1067.55,99.2148 H 135.582 L 601.566,906.266 1067.55,99.2148" /><path
         id="path18"
         style="fill:#231f20;fill-opacity:1;fill-rule:nonzero;stroke:none"
         d="m 402.09,531.363 c 7.344,0.18 15.973,0 23.129,-1.808 4.59,-1.082 8.808,-3.614 11.75,-7.41 v 0 L 519.008,414.77 v 0 c 5.324,0 12.668,-0.18 17.805,-1.625 8.074,-2.168 15.417,-8.497 20.742,-15.004 8.074,-9.762 13.949,-22.051 14.316,-34.707 0.184,-5.422 -0.918,-10.848 -2.937,-15.911 -0.371,-1.445 -1.282,-3.433 -1.836,-4.875 -0.364,-0.726 -1.653,-3.8 -2.02,-4.703 -2.933,-8.675 -5.504,-23.496 -6.973,-32.715 -0.367,-2.894 -2.937,-18.625 -2.937,-21.695 0,-3.613 0.184,-26.933 -2.387,-29.461 -2.937,-3.078 -15.597,-2.176 -19.82,-1.633 v 0 l -0.188,-88.394 v 0 c 0,-4.516 -1.097,-11.387 -5.324,-13.371 -0.179,0 -4.554,-1.832 -0.062,-1.852 h 493.263 l 21.8,-35.433 -880.985,0.047 20.648,35.207 h 315.266 v 0 c -3.356,0.003 -6.266,3.113 -7.184,4.738 -1.289,2.168 -1.289,9.219 -1.289,11.75 v 0 l -0.179,58.207 v 0 c -9.914,-1.625 -24.414,-3.973 -34.325,-5.418 -23.129,-3.258 -51.211,-5.969 -74.699,-7.774 -21.476,-1.812 -45.156,-3.257 -66.812,-3.8 -15.422,-0.18 -35.61,0.543 -51.028,1.086 -7.894,0.359 -19.457,1.082 -27.347,2.351 -4.77,0.723 -11.746,2.348 -16.516,3.613 v 0 l 34.137,59.473 77.273,0.363 0.363,75.192 -30.648,0.187 36.891,66.52 151.793,0.539 -47.356,73.215 v 0 c -2.566,2.527 -8.629,8.316 -11.746,9.761 -11.195,5.418 -29.187,4.516 -41.48,2.891 v 0 l 14.863,29.824 v 0" /><path
         id="path20"
         style="fill:#231f20;fill-opacity:1;fill-rule:nonzero;stroke:none"
         d="m 686.672,431.602 25.305,-14.829 -158.758,-233.714 -2.844,5.976 136.297,242.567" /><path
         id="path22"
         style="fill:#231f20;fill-opacity:1;fill-rule:nonzero;stroke:none"
         d="m 783.297,337.426 14.144,-22.391 -227.445,-141.012 -5.328,5.434 218.629,157.969" /><path
         id="path24"
         style="fill:#231f20;fill-opacity:1;fill-rule:nonzero;stroke:none"
         d="m 841.352,215.59 3.898,-27.113 -272.203,-22.528 -1.817,2.176 270.122,47.465" /><path
         id="path26"
         style="fill:#231f20;fill-opacity:1;fill-rule:nonzero;stroke:none"
         d="m 742.543,525.238 c 3.203,0.364 6.73,-0.722 8.496,-3.636 1.078,-1.622 0.356,-4.68 0,-6.481 -0.539,-1.656 -1.043,-4.172 -1.226,-5.613 -0.18,-2.699 0.867,-7.598 1.402,-10.301 0.543,-2.191 1.226,-6.512 -0.356,-8.312 -5.836,-6.332 -16.273,-5.075 -20.16,2.699 -0.898,1.984 0.684,8.136 1.227,10.117 1.219,4.535 6.008,21.168 10.617,21.527 v 0" /><path
         id="path28"
         style="fill:#231f20;fill-opacity:1;fill-rule:nonzero;stroke:none"
         d="m 731.059,368.676 c 1.796,-0.36 3.382,-1.438 4.605,-2.879 1.262,-1.442 1.941,-3.242 2.305,-5.078 0.543,-4.496 -1.043,-8.281 -4.43,-11.016 v 0 l -3.703,-1.621 -4.07,0.723 v 0 c -3.028,1.258 -4.969,3.812 -5.836,7.054 -0.899,3.782 0,7.418 2.453,10.293 v 0 l 4.101,2.524 h 4.575 v 0" /><path
         id="path30"
         style="fill:#231f20;fill-opacity:1;fill-rule:nonzero;stroke:none"
         d="m 781.676,415.367 c 6.726,-0.578 12.383,-5.078 14.144,-11.41 2.305,-7.781 -4.066,-15.914 -10.8,-20.234 -5.29,-3.453 -13.786,-6.696 -18.575,-2.555 -3.707,2.914 -4.066,9.25 -3.523,13.93 1.398,10.297 8.672,20.984 18.754,20.269 v 0" /><path
         id="path32"
         style="fill:#231f20;fill-opacity:1;fill-rule:nonzero;stroke:none"
         d="m 841.863,366.152 c 0.543,0.364 2.668,0.18 3.352,0.18 1.078,0 3.203,0 4.25,0 1.621,0.184 6.371,1.441 7.992,1.801 1.762,0.578 4.75,0.941 6.191,-0.36 2.84,-2.699 2.297,-7.378 0.356,-10.652 v 0 l -10.977,-17.715 -0.543,-0.718 -0.898,-0.184 h -0.863 L 850,339.047 v 0 c -2.988,2.883 -5.289,6.516 -7.055,10.476 -1.797,3.997 -2.843,8.313 -3.203,12.668 v 0 l 0.539,2.164 1.582,1.797 v 0" /><path
         id="path34"
         style="fill:#231f20;fill-opacity:1;fill-rule:nonzero;stroke:none"
         d="m 772.852,268.199 c 1.586,0.36 9.003,-0.758 10.8,-0.937 0.864,-0.18 8.825,-1.262 9.36,-1.977 v 0 l 0.363,-0.543 -0.184,-0.539 -2.121,-3.058 v 0 c -1.765,-2.2 -6.734,-7.418 -7.957,-9.938 -1.258,-2.734 -1.586,-8.137 -1.765,-11.051 -0.176,-1.801 -0.539,-4.683 -1.797,-5.761 -5.113,-4.536 -13.071,0 -17.172,5.582 -7.598,10.293 -1.945,25.125 10.473,28.222 v 0" /><path
         id="path36"
         style="fill:#231f20;fill-opacity:1;fill-rule:nonzero;stroke:none"
         d="m 849.137,278.496 c 1.043,0.356 3.347,-0.18 4.609,-0.359 1.762,-0.543 4.93,-1.262 6.914,-1.262 2.445,0 7.235,1.801 9.715,2.914 1.086,0.363 3.352,1.262 4.609,0.899 v 0 l 1.946,-0.715 1.406,-1.657 0.715,-2.164 -0.18,-2.156 v 0 c -1.941,-7.058 -5.469,-13.57 -10.801,-18.797 -3.164,-3.269 -8.496,-5.793 -12.562,-3.633 -6.371,3.457 -10.621,9.036 -12.383,16.09 -0.535,2.344 -0.18,4.535 0.863,6.699 1.262,1.977 2.848,3.418 5.149,4.141 v 0" /><path
         id="path38"
         style="fill:#231f20;fill-opacity:1;fill-rule:nonzero;stroke:none"
         d="m 922.613,218.629 c 5.473,-2.164 11.664,-6.84 11.664,-12.816 -0.14,-5.797 -8.636,-10.301 -13.968,-12.098 -6.911,-2.559 -18.938,-4.535 -22.825,1.797 -2.839,4.863 -1.257,11.558 1.766,16.457 4.969,7.773 14.867,10.113 23.363,6.66 v 0" /><path
         id="path40"
         style="fill:#ffffff;fill-opacity:1;fill-rule:nonzero;stroke:none"
         d="m 394.172,273.059 -47.738,-0.184 v 75.566 l 75.421,0.18 v 0 c 2.231,0 4.606,-1.437 6.258,-2.879 2.379,-2.015 4.215,-4.898 4.938,-7.953 v 0 l 12.851,-49.898 v 0 c 1.114,-3.993 1.836,-9.575 -0.179,-13.211 -1.078,-1.621 -3.317,-2.16 -5.328,-2.16 v 0 l -46.223,0.539 v 0" /><path
         id="path42"
         style="fill:#ffffff;fill-opacity:1;fill-rule:nonzero;stroke:none"
         d="m 506.094,394.883 c 30.273,-0.723 48.996,-32.692 34.488,-58.895 -4.035,-7.238 -9.898,-12.855 -17.242,-16.633 -7.524,-3.636 -15.59,-4.898 -23.871,-3.816 -8.242,1.078 -15.77,4.715 -21.817,10.117 -6.086,5.614 -10.293,12.668 -12.129,20.629 -5.687,25.305 14.325,49.356 40.571,48.598 v 0" /></g></g></svg>