<?xml version="1.0" encoding="UTF-8" standalone="no"?>
<svg
   xmlns:dc="http://purl.org/dc/elements/1.1/"
   xmlns:cc="http://creativecommons.org/ns#"
   xmlns:rdf="http://www.w3.org/1999/02/22-rdf-syntax-ns#"
   xmlns:svg="http://www.w3.org/2000/svg"
   xmlns="http://www.w3.org/2000/svg"
   viewBox="0 0 160.41333 140.67999"
   height="140.67999"
   width="160.41333"
   xml:space="preserve"
   id="svg2"
   version="1.1"><metadata
     id="metadata8"><rdf:RDF><cc:Work
         rdf:about=""><dc:format>image/svg+xml</dc:format><dc:type
           rdf:resource="http://purl.org/dc/dcmitype/StillImage" /></cc:Work></rdf:RDF></metadata><defs
     id="defs6" /><g
     transform="matrix(1.3333333,0,0,-1.3333333,0,140.68)"
     id="g10"><g
       transform="scale(0.1)"
       id="g12"><path
         id="path14"
         style="fill:#ee2c30;fill-opacity:1;fill-rule:nonzero;stroke:none"
         d="M 49.6875,0 H 1153.45 v 0 c 38.19,0 62.06,41.3281 42.98,74.4141 v 0 L 644.516,1030.29 v 0 c -19.082,33.08 -66.817,33.08 -85.899,0 v 0 L 6.70313,74.4141 v 0 C -12.3711,41.3281 11.4922,0 49.6875,0 v 0" /><path
         id="path16"
         style="fill:#ffffff;fill-opacity:1;fill-rule:nonzero;stroke:none"
         d="M 135.586,99.2188 H 1067.55 L 601.566,906.262 135.586,99.2188" /><path
         id="path18"
         style="fill:#231f20;fill-opacity:1;fill-rule:nonzero;stroke:none"
         d="m 171.84,113.43 21.015,35.222 h 165.25 l -20.824,24.543 -12.883,-0.547 -13.8,37.911 38.828,35.879 19.504,-5.704 27.972,13.614 42.141,-13.43 v 0 c 2.945,-1.102 5.523,-3.133 6.992,-5.703 1.477,-2.578 2.028,-5.34 1.656,-8.281 v 0 l -5.519,-38.653 -39.863,-39.531 h 145.429 v 0 c 3.133,4.602 5.215,9.914 8.16,14.512 6.625,10.117 12.875,20.422 18.95,30.91 2.031,3.68 5.89,10.496 7.363,14.539 1.105,2.949 6.992,25.031 7.91,28.34 0.742,2.394 1.66,5.89 2.395,8.281 v 0 l -14.532,22.824 37.723,91.453 0.363,35.704 -48.398,50.05 14.91,90.172 14.531,23.371 15.098,69.192 66.066,70.664 13.243,24.656 351.24,-610.105 -870.92,0.117 v 0" /><path
         id="path20"
         style="fill:#231f20;fill-opacity:1;fill-rule:nonzero;stroke:none"
         d="m 525.883,661.746 24.472,11.234 19.329,-16.75 10.671,5.887 9.934,-18.765 -18.769,-41.778 -34.411,-5.519 -20.429,25.574 9.019,16.566 0.184,23.551" /><path
         id="path22"
         style="fill:#231f20;fill-opacity:1;fill-rule:nonzero;stroke:none"
         d="m 469.758,581.121 24.289,-9.566 3.496,-22.453 -27.602,-11.223 -19.328,14.348 -1.468,18.039 20.613,10.855" /><path
         id="path24"
         style="fill:#231f20;fill-opacity:1;fill-rule:nonzero;stroke:none"
         d="m 500.664,501.836 35.149,-3.496 0.55,-27.235 6.992,-9.386 -27.789,-34.414 -12.695,-4.602 -12.516,-19.5 -29.07,11.777 -13.437,28.887 52.816,57.969" /><path
         id="path26"
         style="fill:#231f20;fill-opacity:1;fill-rule:nonzero;stroke:none"
         d="m 400.738,394.512 20.059,-8.653 22.633,8.84 26.867,-16.75 -13.988,-40.301 -46.004,-31.464 -26.68,9.57 -11.414,59.988 28.527,18.77" /></g></g></svg>