<?xml version="1.0" encoding="UTF-8" standalone="no"?>
<svg
   xmlns:dc="http://purl.org/dc/elements/1.1/"
   xmlns:cc="http://creativecommons.org/ns#"
   xmlns:rdf="http://www.w3.org/1999/02/22-rdf-syntax-ns#"
   xmlns:svg="http://www.w3.org/2000/svg"
   xmlns="http://www.w3.org/2000/svg"
   viewBox="0 0 160.41333 140.67999"
   height="140.67999"
   width="160.41333"
   xml:space="preserve"
   id="svg2"
   version="1.1"><metadata
     id="metadata8"><rdf:RDF><cc:Work
         rdf:about=""><dc:format>image/svg+xml</dc:format><dc:type
           rdf:resource="http://purl.org/dc/dcmitype/StillImage" /></cc:Work></rdf:RDF></metadata><defs
     id="defs6" /><g
     transform="matrix(1.3333333,0,0,-1.3333333,0,140.68)"
     id="g10"><g
       transform="scale(0.1)"
       id="g12"><path
         id="path14"
         style="fill:#ee2c30;fill-opacity:1;fill-rule:nonzero;stroke:none"
         d="M 1153.45,0 H 49.6875 V 0 C 11.4922,0 -12.3789,41.3281 6.70313,74.4141 v 0 L 558.617,1030.29 v 0 c 19.082,33.08 66.817,33.08 85.899,0 v 0 L 1196.43,74.4141 v 0 C 1215.51,41.3281 1191.64,0 1153.45,0 v 0" /><path
         id="path16"
         style="fill:#ffffff;fill-opacity:1;fill-rule:nonzero;stroke:none"
         d="M 1067.55,99.2188 H 135.586 L 601.566,906.262 1067.55,99.2188" /><path
         id="path18"
         style="fill:#231f20;fill-opacity:1;fill-rule:nonzero;stroke:none"
         d="M 135.59,99.1992 834.594,502.734 1067.55,99.1992 H 135.59 v 0" /><path
         id="path20"
         style="fill:#231f20;fill-opacity:1;fill-rule:nonzero;stroke:none"
         d="m 466.891,331.164 21.461,12.422 -81.504,141.121 -18.828,-10.879 -14.942,-46.902 19.258,-9.113 7.523,29.453 67.032,-116.102 v 0" /><path
         id="path22"
         style="fill:#231f20;fill-opacity:1;fill-rule:nonzero;stroke:none"
         d="m 511.855,382.461 c 7.204,-4.461 14.547,-6.981 22.106,-7.449 7.598,-0.469 15.047,1.472 22.934,6.015 7.921,4.571 13.535,10.184 16.773,17.168 3.348,6.805 4.898,14.442 4.609,22.899 -0.289,8.457 -2.304,17.57 -5.902,27.07 -3.641,9.504 -8.281,19.445 -14.258,29.777 v 0 c -5.937,10.332 -12.277,19.364 -18.789,27.43 -6.414,7.883 -13.289,14.18 -20.488,18.645 -7.164,4.5 -14.543,6.98 -22.215,7.664 -7.559,0.468 -15.262,-1.543 -23.184,-6.114 -7.878,-4.539 -13.496,-10.222 -16.843,-16.992 -3.243,-6.98 -4.571,-14.511 -4.282,-22.969 0.282,-8.457 2.297,-17.527 5.938,-27.07 3.672,-9.687 8.387,-19.656 14.363,-29.988 5.938,-10.293 12.203,-19.336 18.649,-27.219 6.55,-8.094 13.425,-14.363 20.589,-18.867 v 0" /><path
         id="path24"
         style="fill:#231f20;fill-opacity:1;fill-rule:nonzero;stroke:none"
         d="m 636.559,503.215 c 7.918,4.57 12.461,10.937 13.504,19.285 1.074,8.359 -1.727,18.008 -8.321,29.453 v 0 c -6.59,11.414 -13.855,18.723 -21.601,21.965 -7.735,3.27 -15.512,2.52 -23.289,-1.945 -7.883,-4.578 -12.239,-10.84 -13.282,-19.16 -1.047,-8.348 1.657,-18.282 8.243,-29.696 6.625,-11.445 13.753,-18.574 21.492,-21.855 7.734,-3.274 15.519,-2.52 23.254,1.953 v 0" /><path
         id="path26"
         style="fill:#231f20;fill-opacity:1;fill-rule:nonzero;stroke:none"
         d="m 676.02,444.211 12.519,7.195 -22.273,166.465 -12.461,-7.207 22.215,-166.453 v 0" /><path
         id="path28"
         style="fill:#231f20;fill-opacity:1;fill-rule:nonzero;stroke:none"
         d="m 700.316,509.758 c 6.582,-11.406 13.75,-18.535 21.497,-21.778 7.734,-3.273 15.546,-2.519 23.25,1.942 7.921,4.57 12.46,10.91 13.496,19.258 1.046,8.359 -1.688,18.039 -8.27,29.453 v 0 c -6.633,11.418 -13.898,18.683 -21.641,21.965 -7.773,3.269 -15.546,2.547 -23.253,-1.914 -7.918,-4.571 -12.274,-10.832 -13.321,-19.219 -1.043,-8.32 1.653,-18.254 8.242,-29.707 v 0" /><path
         id="path30"
         style="fill:#ffffff;fill-opacity:1;fill-rule:nonzero;stroke:none"
         d="m 522.262,402.766 c -8.532,7.742 -18.071,20.554 -28.223,38.164 -10.191,17.605 -16.488,32.293 -19.082,43.738 -2.519,11.445 0.289,19.582 8.172,24.121 8.137,4.719 16.559,3.098 25.09,-4.648 8.64,-7.95 18.219,-20.774 28.476,-38.582 v 0 c 10.157,-17.571 16.489,-32.258 18.934,-43.528 2.379,-11.562 -0.5,-19.695 -8.383,-24.265 -7.887,-4.532 -16.348,-2.95 -24.984,5 v 0" /><path
         id="path32"
         style="fill:#ffffff;fill-opacity:1;fill-rule:nonzero;stroke:none"
         d="m 629.977,514.617 c -3.672,-2.117 -7.637,-1.765 -11.524,0.871 -3.887,2.696 -7.988,7.844 -12.562,15.762 -8.821,15.266 -9.649,25.129 -2.45,29.309 7.239,4.179 15.411,-1.477 24.231,-16.739 v 0 c 4.57,-7.922 6.941,-14.082 7.344,-18.761 0.32,-4.715 -1.34,-8.282 -5.039,-10.442 v 0" /><path
         id="path34"
         style="fill:#ffffff;fill-opacity:1;fill-rule:nonzero;stroke:none"
         d="m 726.988,502.168 c -3.918,2.695 -8.027,7.812 -12.597,15.734 -8.86,15.293 -9.61,25.157 -2.414,29.336 7.207,4.141 15.371,-1.437 24.23,-16.738 v 0 c 4.57,-7.922 6.914,-14.082 7.313,-18.789 0.351,-4.688 -1.336,-8.254 -5.047,-10.371 -3.672,-2.16 -7.629,-1.836 -11.485,0.828 v 0" /></g></g></svg>