<?xml version="1.0" encoding="UTF-8" standalone="no"?>
<svg
   xmlns:dc="http://purl.org/dc/elements/1.1/"
   xmlns:cc="http://creativecommons.org/ns#"
   xmlns:rdf="http://www.w3.org/1999/02/22-rdf-syntax-ns#"
   xmlns:svg="http://www.w3.org/2000/svg"
   xmlns="http://www.w3.org/2000/svg"
   viewBox="0 0 160.41333 140.67999"
   height="140.67999"
   width="160.41333"
   xml:space="preserve"
   id="svg2"
   version="1.1"><metadata
     id="metadata8"><rdf:RDF><cc:Work
         rdf:about=""><dc:format>image/svg+xml</dc:format><dc:type
           rdf:resource="http://purl.org/dc/dcmitype/StillImage" /></cc:Work></rdf:RDF></metadata><defs
     id="defs6" /><g
     transform="matrix(1.3333333,0,0,-1.3333333,0,140.68)"
     id="g10"><g
       transform="scale(0.1)"
       id="g12"><path
         id="path14"
         style="fill:#ee2c30;fill-opacity:1;fill-rule:nonzero;stroke:none"
         d="M 49.6875,0 H 1153.44 v 0 c 38.2,0 62.07,41.3281 42.99,74.4141 v 0 L 644.516,1030.29 v 0 c -19.082,33.08 -66.817,33.08 -85.899,0 v 0 L 6.70313,74.4141 v 0 C -12.3789,41.3281 11.4883,0 49.6875,0 v 0" /><path
         id="path16"
         style="fill:#ffffff;fill-opacity:1;fill-rule:nonzero;stroke:none"
         d="M 135.582,99.2188 H 1067.55 L 601.566,906.262 135.582,99.2188" /><path
         id="path18"
         style="fill:#231f20;fill-opacity:1;fill-rule:nonzero;stroke:none"
         d="M 1067.54,99.1992 368.539,502.734 135.582,99.1992 h 931.958 v 0" /><path
         id="path20"
         style="fill:#231f20;fill-opacity:1;fill-rule:nonzero;stroke:none"
         d="m 464.41,488.125 21.453,-12.383 81.465,141.153 -18.828,10.871 -48.094,-10.508 1.727,-21.242 29.269,8.214 -66.992,-116.105 v 0" /><path
         id="path22"
         style="fill:#231f20;fill-opacity:1;fill-rule:nonzero;stroke:none"
         d="m 531.293,474.844 c -0.246,-8.465 1.227,-16.094 4.609,-22.86 3.383,-6.808 8.786,-12.316 16.672,-16.886 7.918,-4.539 15.586,-6.621 23.25,-5.938 7.563,0.5 14.942,2.988 22.145,7.481 7.164,4.464 14.039,10.773 20.484,18.652 6.406,7.883 12.703,16.887 18.641,27.219 v 0 c 5.976,10.293 10.664,20.301 14.367,29.988 3.641,9.504 5.652,18.605 5.906,27.07 0.324,8.457 -1.219,16.094 -4.461,23.078 -3.351,6.766 -8.965,12.45 -16.886,16.993 -7.891,4.57 -15.586,6.582 -23.153,6.113 -7.664,-0.684 -14.832,-3.313 -22.027,-7.774 -7.164,-4.503 -14.043,-10.761 -20.449,-18.683 -6.586,-8.027 -12.852,-17.098 -18.793,-27.43 -5.973,-10.293 -10.657,-20.234 -14.254,-29.777 -3.746,-9.715 -5.723,-18.789 -6.051,-27.246 v 0" /><path
         id="path24"
         style="fill:#231f20;fill-opacity:1;fill-rule:nonzero;stroke:none"
         d="m 698.227,427.219 c 7.921,-4.582 15.695,-5.332 23.437,-2.063 7.774,3.242 14.719,10.52 21.348,21.926 v 0 c 6.582,11.414 9.289,21.387 8.242,29.707 -1.043,8.348 -5.574,14.688 -13.359,19.188 -7.879,4.531 -15.477,5.175 -23.211,1.945 -7.746,-3.281 -15.02,-10.586 -21.602,-22.004 -6.594,-11.445 -9.219,-21.199 -8.176,-29.551 1.047,-8.32 5.578,-14.687 13.321,-19.148 v 0" /><path
         id="path26"
         style="fill:#231f20;fill-opacity:1;fill-rule:nonzero;stroke:none"
         d="m 666.832,363.527 12.527,-7.238 133.02,102.531 -12.492,7.196 -133.055,-102.489 v 0" /><path
         id="path28"
         style="fill:#231f20;fill-opacity:1;fill-rule:nonzero;stroke:none"
         d="m 735.777,375.266 c -6.593,-11.418 -9.179,-21.172 -8.136,-29.485 1.047,-8.347 5.617,-14.726 13.32,-19.187 7.922,-4.571 15.695,-5.332 23.437,-2.051 7.735,3.27 14.758,10.477 21.348,21.883 v 0 c 6.582,11.457 9.25,21.387 8.203,29.738 -1.043,8.348 -5.547,14.727 -13.281,19.188 -7.918,4.57 -15.516,5.226 -23.289,1.906 -7.746,-3.235 -14.981,-10.547 -21.602,-21.992 v 0" /><path
         id="path30"
         style="fill:#ffffff;fill-opacity:1;fill-rule:nonzero;stroke:none"
         d="m 554.082,475.996 c 2.449,11.231 8.785,25.918 18.934,43.516 10.152,17.605 19.734,30.422 28.336,38.379 8.671,7.922 17.101,9.543 24.98,4.972 8.137,-4.679 10.949,-12.785 8.535,-24.054 -2.597,-11.446 -8.894,-26.133 -19.187,-43.954 v 0 c -10.153,-17.57 -19.696,-30.382 -28.223,-38.156 -8.824,-7.812 -17.32,-9.394 -25.199,-4.863 -7.887,4.57 -10.731,12.676 -8.176,24.16 v 0" /><path
         id="path32"
         style="fill:#ffffff;fill-opacity:1;fill-rule:nonzero;stroke:none"
         d="m 704.82,438.625 c -3.672,2.129 -5.371,5.723 -5.011,10.41 0.363,4.707 2.773,10.828 7.343,18.75 8.821,15.301 16.953,20.918 24.161,16.778 7.238,-4.18 6.445,-14.075 -2.383,-29.336 v 0 c -4.571,-7.922 -8.711,-13.079 -12.559,-15.735 -3.926,-2.664 -7.851,-2.988 -11.551,-0.867 v 0" /><path
         id="path34"
         style="fill:#ffffff;fill-opacity:1;fill-rule:nonzero;stroke:none"
         d="m 742.543,348.367 c 0.363,4.758 2.734,10.883 7.305,18.801 8.82,15.293 16.992,20.879 24.191,16.738 7.207,-4.179 6.445,-14.043 -2.375,-29.343 v 0 c -4.57,-7.922 -8.711,-13.028 -12.598,-15.735 -3.886,-2.656 -7.812,-2.949 -11.523,-0.82 -3.699,2.121 -5.398,5.683 -5,10.359 v 0" /></g></g></svg>