<?xml version="1.0" encoding="UTF-8" standalone="no"?>
<svg
   xmlns:dc="http://purl.org/dc/elements/1.1/"
   xmlns:cc="http://creativecommons.org/ns#"
   xmlns:rdf="http://www.w3.org/1999/02/22-rdf-syntax-ns#"
   xmlns:svg="http://www.w3.org/2000/svg"
   xmlns="http://www.w3.org/2000/svg"
   viewBox="0 0 160.41333 140.67999"
   height="140.67999"
   width="160.41333"
   xml:space="preserve"
   id="svg2"
   version="1.1"><metadata
     id="metadata8"><rdf:RDF><cc:Work
         rdf:about=""><dc:format>image/svg+xml</dc:format><dc:type
           rdf:resource="http://purl.org/dc/dcmitype/StillImage" /></cc:Work></rdf:RDF></metadata><defs
     id="defs6" /><g
     transform="matrix(1.3333333,0,0,-1.3333333,0,140.68)"
     id="g10"><g
       transform="scale(0.1)"
       id="g12"><path
         id="path14"
         style="fill:#ee2c30;fill-opacity:1;fill-rule:nonzero;stroke:none"
         d="M 49.6875,0 H 1153.45 v 0 c 38.19,0 62.06,41.3281 42.98,74.4102 v 0 L 644.512,1030.29 v 0 c -19.078,33.07 -66.817,33.07 -85.895,0 v 0 L 6.69922,74.4102 v 0 C -12.3789,41.3281 11.4883,0 49.6875,0 v 0" /><path
         id="path16"
         style="fill:#ffffff;fill-opacity:1;fill-rule:nonzero;stroke:none"
         d="M 135.582,99.2148 H 1067.55 L 601.566,906.266 135.582,99.2148" /><path
         id="path18"
         style="fill:#231f20;fill-opacity:1;fill-rule:nonzero;stroke:none"
         d="m 451.766,447.656 c -0.969,0 -1.977,0 -2.989,0 0,0 -3.957,0 -2.98,3.961 0,1.981 2.98,2.988 3.992,2.988 h 1.977 c 2.019,3.961 4.972,7.918 6.988,9.903 2.988,2.988 5.976,4.965 8.965,6.949 10.941,4.965 16.918,4.965 21.886,4.965 0,0 0,8.93 4.969,14.867 1.008,1.984 2.989,4.969 9.973,7.918 1.976,1.012 7.953,1.012 7.953,1.012 v 0 l 2.988,7.922 v 0 c 1.981,5.976 8.965,15.875 15.914,17.855 5.004,1.977 9.969,2.988 10.942,2.988 0,0.973 -1.977,6.95 -1.977,10.911 0,4.964 1.004,8.925 1.977,11.878 2.015,3.993 5.976,9.93 9.976,12.918 3.993,2.957 9.938,4.934 14.938,3.961 3.957,-1.004 6.945,-1.976 9.933,-2.988 0,0 0,7.957 1.012,10.91 1.977,7.957 6.949,15.879 15.906,20.844 6.989,3.957 20.918,6.949 31.864,4.93 11.953,-1.977 19.91,-7.918 26.894,-16.844 2.988,-4.973 5.977,-10.91 6.946,-15.879 1.007,-4.934 1.98,-9.898 1.007,-14.863 0,-2.989 -2.988,-11.887 -3.996,-12.891 0,0 4.969,-2.988 6.985,-8.926 2.988,-12.89 -4.965,-20.812 -8.965,-24.804 -2.989,-1.985 -7.953,-4.934 -14.938,-4.934 -0.972,0 -4.968,0.973 -5.976,0.973 0,-0.973 -1.981,-3.961 -2.989,-4.973 -2.988,-2.949 -8.964,-4.93 -13.929,-4.93 -2.989,0.973 -4.969,0.973 -7.961,3.961 0,-3.961 -12.922,-9.937 -20.91,-5.937 v 0 l -5.977,2.949 v 0 c 0,-0.973 -5.945,-4.965 -9.937,-5.937 -4.969,-1.012 -15.914,2.988 -16.918,2.988 0,-1.012 -2.989,-5.977 -4.973,-8.93 -5.004,-6.949 -10.981,-12.887 -18.934,-19.836 -8.964,-7.957 -19.91,-12.89 -28.875,-16.883 v 0 l -12.922,-3.961 V 396.07 h 44.786 v 20.844 c 0,11.914 8.964,21.816 20.918,21.816 10.941,0 21.882,-9.902 21.882,-21.816 V 396.07 h 50.762 v 6.95 h -5.976 v 13.894 h 5.976 v 7.918 h 13.934 v -7.918 h 6.98 V 403.02 h -6.98 v -6.95 h 50.793 v 58.535 h 46.761 V 442.691 H 705.605 V 396.07 h 27.868 v -68.398 h 32.867 v 51.551 h -13.934 v 16.847 h 30.852 v -68.398 h 9.933 v -19.84 h 10.985 v -8.926 h 10.941 v 0 c 0,0 0,3.961 0,5.942 0,1.98 0,2.984 -1.008,4.968 -1.007,2.954 -2.984,5.942 -2.984,6.946 1.004,-1.004 6.98,-3.992 9.969,-8.93 1.976,-3.992 3.961,-10.902 3.961,-16.879 0,-6.949 -2.989,-11.879 -5.977,-14.867 -2.988,-2.988 -6.949,-4.973 -8.965,-5.945 0,0 1.012,1.984 2.016,3.961 0.973,1.984 1.98,3.961 1.98,4.972 1.008,2.949 1.008,6.946 1.008,7.918 h -10.941 v -10.906 h -26.895 v 0 c 1.012,-2.988 2.989,-6.949 2.989,-9.902 1.007,-3.996 0,-8.926 -1.008,-13.899 -1.981,-5.937 -4.969,-11.914 -8.965,-15.875 -3.957,-4.969 -7.953,-9.902 -13.93,-9.902 h 82.617 V 212.613 H 364.18 v 13.895 h 82.621 v 0 c -3.992,0 -9.969,4.933 -13.93,8.933 -4,3.957 -5.976,7.918 -7.961,13.856 -2.015,5.976 -2.984,16.887 -1.004,22.828 0,1.977 1.004,2.988 1.004,3.961 h -25.883 v 10.906 h -9.968 v 0 c 0,-2.988 0,-4.969 0,-6.949 0,-1.98 0,-2.953 1.004,-5.941 1.011,-1.977 1.984,-3.961 1.984,-3.961 0,0 -4.973,1.984 -6.949,3.961 -2.016,1.984 -3.996,4.972 -5.004,7.921 -0.973,2.989 -1.981,9.934 -1.981,13.895 0,2.988 1.008,7.922 1.981,9.937 1.008,1.977 4,5.938 5.976,6.915 2.016,1.976 3.993,1.976 6.981,2.988 0,0 -1.004,-1.012 -1.977,-2.988 -1.011,-0.977 -2.015,-3.961 -2.015,-5.942 0,-1.98 0,-4.969 0,-7.922 h 9.968 v 8.926 h 18.903 v 88.238 h 33.836 v 51.586" /><path
         id="path20"
         style="fill:#ffffff;fill-opacity:1;fill-rule:nonzero;stroke:none"
         d="m 518.402,277.055 c 0,-1.008 -4.964,-6.946 -4.964,-16.848 0,-7.957 5.976,-18.863 11.953,-24.805 3.961,-3.961 8.925,-8.925 13.929,-8.925 h -60.73 v 0 c 1.98,0 11.953,6.945 13.93,9.894 2.988,2.988 5.976,6.949 7.957,10.949 2.992,5.938 5.007,15.84 2.992,22.789 0,1.977 -1.985,4.965 -2.992,6.946 h 17.925 v 0" /><path
         id="path22"
         style="fill:#ffffff;fill-opacity:1;fill-rule:nonzero;stroke:none"
         d="m 610.996,277.055 c -1.008,-1.008 -3.992,-8.93 -3.992,-13.895 0,-4.933 1.004,-9.902 2.984,-13.863 1.008,-3.992 5.008,-10.906 7.996,-13.895 2.989,-2.988 9.938,-8.925 12.918,-8.925 H 571.18 v 0 c 6.984,0 13.933,7.918 17.929,13.894 0.973,2.949 2.989,5.938 3.961,9.899 2.02,3.96 2.02,8.929 2.02,12.89 0,7.953 -2.02,10.906 -2.02,13.895 h 17.926 v 0" /><path
         id="path24"
         style="fill:#ffffff;fill-opacity:1;fill-rule:nonzero;stroke:none"
         d="m 702.582,277.055 c 0,-1.008 -1.012,-2.989 -2.016,-4.969 -0.972,-4.965 -0.972,-11.879 0,-16.848 1.004,-4.968 2.989,-9.933 5.977,-14.867 3.992,-5.976 11.949,-13.894 17.926,-13.894 h -59.723 v 0 c 1.008,1.003 9.973,5.937 12.926,8.925 3.992,4.969 7.988,11.918 8.965,17.856 2.011,5.941 2.011,12.89 0,18.828 0,1.012 -0.977,3.961 -1.985,4.969 h 17.93 v 0" /></g></g></svg>