<?xml version="1.0" encoding="UTF-8" standalone="no"?>
<svg
   xmlns:dc="http://purl.org/dc/elements/1.1/"
   xmlns:cc="http://creativecommons.org/ns#"
   xmlns:rdf="http://www.w3.org/1999/02/22-rdf-syntax-ns#"
   xmlns:svg="http://www.w3.org/2000/svg"
   xmlns="http://www.w3.org/2000/svg"
   viewBox="0 0 160.41333 140.67999"
   height="140.67999"
   width="160.41333"
   xml:space="preserve"
   id="svg2"
   version="1.1"><metadata
     id="metadata8"><rdf:RDF><cc:Work
         rdf:about=""><dc:format>image/svg+xml</dc:format><dc:type
           rdf:resource="http://purl.org/dc/dcmitype/StillImage" /></cc:Work></rdf:RDF></metadata><defs
     id="defs6" /><g
     transform="matrix(1.3333333,0,0,-1.3333333,0,140.68)"
     id="g10"><g
       transform="scale(0.1)"
       id="g12"><path
         id="path14"
         style="fill:#ee2c30;fill-opacity:1;fill-rule:nonzero;stroke:none"
         d="M 49.6875,0 H 1153.45 v 0 c 38.19,0 62.06,41.3281 42.98,74.4102 v 0 L 644.512,1030.29 v 0 c -19.078,33.07 -66.817,33.07 -85.895,0 v 0 L 6.69922,74.4102 v 0 C -12.3789,41.3281 11.4883,0 49.6875,0 v 0" /><path
         id="path16"
         style="fill:#ffffff;fill-opacity:1;fill-rule:nonzero;stroke:none"
         d="M 135.582,99.2148 H 1067.55 L 601.566,906.266 135.582,99.2148" /><path
         id="path18"
         style="fill:#231f20;fill-opacity:1;fill-rule:nonzero;stroke:none"
         d="m 407.309,212.652 v 35.426 h -25.414 v 49.602 h 25.414 v 85.035 h -25.414 v 49.605 h 25.414 v 28.368 l 23.652,42.515 25.812,-42.515 V 432.32 h 35.317 v 28.368 l 23.793,42.515 25.668,-42.515 V 432.32 h 35.32 v 28.368 l 24.047,42.515 25.375,-42.515 V 432.32 h 35.316 v 28.368 l 24.157,42.515 25.308,-42.515 V 432.32 h 35.317 v 28.368 l 24.3,42.515 25.129,-42.515 V 432.32 h 25.45 V 382.715 H 795.82 V 297.68 h 25.45 v -49.602 h -25.45 v -35.426 h -49.429 v 35.426 h -35.317 v -35.426 h -49.465 v 35.426 h -35.316 v -35.426 h -49.422 v 35.426 h -35.32 V 212.652 H 492.09 v 35.426 h -35.317 v -35.426 h -49.464 v 0" /><path
         id="path20"
         style="fill:#ffffff;fill-opacity:1;fill-rule:nonzero;stroke:none"
         d="m 456.738,297.648 v 85.028 h 35.317 v -85.028 h -35.317 v 0" /><path
         id="path22"
         style="fill:#ffffff;fill-opacity:1;fill-rule:nonzero;stroke:none"
         d="m 541.52,297.648 v 85.028 h 35.312 V 297.648 H 541.52 v 0" /><path
         id="path24"
         style="fill:#ffffff;fill-opacity:1;fill-rule:nonzero;stroke:none"
         d="m 626.262,297.648 v 85.028 h 35.316 v -85.028 h -35.316 v 0" /><path
         id="path26"
         style="fill:#ffffff;fill-opacity:1;fill-rule:nonzero;stroke:none"
         d="m 711.039,297.648 v 85.028 h 35.316 v -85.028 h -35.316 v 0" /></g></g></svg>