<?xml version="1.0" encoding="UTF-8" standalone="no"?>
<svg
   xmlns:dc="http://purl.org/dc/elements/1.1/"
   xmlns:cc="http://creativecommons.org/ns#"
   xmlns:rdf="http://www.w3.org/1999/02/22-rdf-syntax-ns#"
   xmlns:svg="http://www.w3.org/2000/svg"
   xmlns="http://www.w3.org/2000/svg"
   viewBox="0 0 160.41333 140.67999"
   height="140.67999"
   width="160.41333"
   xml:space="preserve"
   id="svg2"
   version="1.1"><metadata
     id="metadata8"><rdf:RDF><cc:Work
         rdf:about=""><dc:format>image/svg+xml</dc:format><dc:type
           rdf:resource="http://purl.org/dc/dcmitype/StillImage" /></cc:Work></rdf:RDF></metadata><defs
     id="defs6" /><g
     transform="matrix(1.3333333,0,0,-1.3333333,0,140.68)"
     id="g10"><g
       transform="scale(0.1)"
       id="g12"><path
         id="path14"
         style="fill:#ee2c30;fill-opacity:1;fill-rule:nonzero;stroke:none"
         d="M 49.6875,0 H 1153.45 v 0 c 38.19,0 62.06,41.3281 42.98,74.4102 v 0 L 644.516,1030.29 v 0 c -19.082,33.07 -66.817,33.07 -85.895,0 v 0 L 6.70313,74.4102 v 0 C -12.3711,41.3281 11.4922,0 49.6875,0 v 0" /><path
         id="path16"
         style="fill:#ffffff;fill-opacity:1;fill-rule:nonzero;stroke:none"
         d="M 135.586,99.2148 H 1067.55 L 601.566,906.266 135.586,99.2148" /><path
         id="path18"
         style="fill:#231f20;fill-opacity:1;fill-rule:nonzero;stroke:none"
         d="m 246.57,245.016 2.489,-3.961 h 63.144 l -2.519,3.961 H 246.57" /><path
         id="path20"
         style="fill:#231f20;fill-opacity:1;fill-rule:nonzero;stroke:none"
         d="m 826.641,202.395 c 8.355,0.824 16.093,6.257 16.093,15.726 0,0.793 0,1.586 0,2.375 h 22.426 v 0 c 2.485,0 3.313,0.793 4.141,1.586 0.828,0.793 0.828,4.754 0.828,4.754 h 43.199 l 4.145,-3.168 v 0 c 0,0 0.824,0 1.652,0 v 8.711 h -1.652 L 913.328,230 H 899.18 l -4.965,2.379 h -24.086 v 3.961 l 19.113,2.375 v 6.301 l 4.973,1.582 v 11.09 l -5.797,1.585 -5.836,104.508 H 331.098 l -3.309,-14.258 h 9.145 l -12.496,-44.316 v 0 c 0,-0.793 -0.825,-4.754 -0.825,-4.754 v 0 l -1.656,-41.18 -6.625,-1.585 v -11.09 l 5.797,-1.582 v -4.75 l 14.941,-3.137 v 0 c 2.52,-0.789 2.52,-1.582 2.52,-1.582 0,-0.789 0,-1.582 0,-1.582 0,-1.586 0,-1.586 -0.832,-1.586 h -16.629 l -5.797,-3.168 h -14.977 l -3.308,3.168 h -1.656 v -8.711 h 1.656 l 3.308,3.168 h 48.204 v 0 c 0,0 0,-3.168 1.656,-4.754 1.66,-1.586 3.316,-1.586 4.14,-1.586 h 11.629 v 0 c 0,-0.789 0,-6.336 1.657,-9.5 2.23,-4.285 7.882,-7.957 13.246,-8.601 H 271.305 l 2.484,-3.961 h 716.758 l -2.481,3.961 H 826.641 v 0" /><path
         id="path22"
         style="fill:#231f20;fill-opacity:1;fill-rule:nonzero;stroke:none"
         d="m 545.445,399.348 h 282.383 v 0 c 0,0.789 0,1.586 0,2.375 0,3.961 -0.824,7.922 -2.48,10.293 -2.489,3.172 -6.66,5.547 -14.942,5.547 H 562.043 v 0 c -5.797,0 -9.938,-2.375 -12.457,-4.75 -2.488,-2.379 -4.141,-7.129 -4.141,-11.09 0,-0.789 0,-1.586 0,-2.375 v 0" /><path
         id="path24"
         style="fill:#231f20;fill-opacity:1;fill-rule:nonzero;stroke:none"
         d="m 962.324,245.016 h -60.625 l -2.48,-3.961 h 65.625 l -2.52,3.961" /><path
         id="path26"
         style="fill:#231f20;fill-opacity:1;fill-rule:nonzero;stroke:none"
         d="m 846.078,396.25 h -326.41 v 8.711 l 70.594,45.109 -100.512,41.942 v 14.254 h 8.32 v 0 c 0.825,0 0.825,-2.375 0.825,-2.375 v -0.789 h 2.488 v 3.961 c 0,1.582 -0.832,2.371 -0.832,2.371 -0.824,0.793 -2.481,0.793 -2.481,0.793 h -17.461 v 0 c 0,0 -2.484,0 -3.312,-0.793 -0.828,-0.789 -0.828,-1.582 -0.828,-2.371 v 0 c 0,-0.797 0,-0.797 0,-0.797 v -3.164 h 2.484 v 1.582 c 0,0.789 0,0 0,0.789 0,0 0,0 0.828,0.793 h 0.828 5.832 v -14.254 l -103.824,-43.524 69.766,-43.527 v -8.711 h -78.082 v 0 c -3.309,0 -5.793,-0.793 -9.11,-1.582 v 0 l -8.316,-2.379 -0.824,3.961 h -13.289 v 0 c 0,0 -1.653,0 -2.52,-0.793 -0.824,-0.789 -0.824,-2.375 -0.824,-2.375 v -14.254 l -3.316,-3.168 v 0 c -0.825,-0.793 -0.825,-0.793 -1.653,-1.586 0,-0.793 0,-1.582 0,-2.375 h 546.52 v 0 c -0.867,0.793 -9.149,24.551 -34.891,24.551 v 0" /><path
         id="path28"
         style="fill:#ffffff;fill-opacity:1;fill-rule:nonzero;stroke:none"
         d="m 850.184,300.422 h 26.601 v 0 c 0.832,0 0.832,0 1.66,0 0.828,0 1.657,0 2.485,0.789 0.828,0.793 0.828,1.582 0.828,2.375 0,0.793 0,1.586 0,2.375 v 0 l -4.141,49.07 v 0.789 c 0,0.797 0,2.379 -0.832,3.168 0,0 -0.824,0.793 -1.687,0.793 -0.832,0 -0.832,0 -1.657,0 h -22.429 -1.657 c -1.656,0 -2.48,-0.793 -2.48,-0.793 -0.828,-0.789 -0.828,-1.582 -0.828,-2.371 0,-0.797 0,-0.797 0,-1.586 v -50.652 c 0,-0.793 0,-2.375 0.828,-3.168 0.824,-0.789 3.309,-0.789 3.309,-0.789 v 0" /><path
         id="path30"
         style="fill:#ffffff;fill-opacity:1;fill-rule:nonzero;stroke:none"
         d="m 795.43,241.055 h 40.679 V 359.781 H 795.43 V 241.055" /><path
         id="path32"
         style="fill:#ffffff;fill-opacity:1;fill-rule:nonzero;stroke:none"
         d="m 746.43,241.055 h 40.683 V 359.781 H 746.43 V 241.055" /><path
         id="path34"
         style="fill:#ffffff;fill-opacity:1;fill-rule:nonzero;stroke:none"
         d="m 478.09,300.422 h 71.461 v 0 c 0,0 2.48,0 4.137,1.582 0.828,0.789 0.828,3.168 0.828,3.957 v 48.277 c 0,0.793 0,3.168 -0.828,3.961 -1.657,2.379 -5.833,1.582 -5.833,1.582 H 476.43 v 0 c 0,0 -1.657,0 -2.481,-0.793 -1.652,-0.789 -0.828,-3.957 -0.828,-4.75 v -47.484 c 0,0 0,-3.961 0.828,-4.75 1.656,-1.582 3.313,-1.582 4.141,-1.582 v 0" /><path
         id="path36"
         style="fill:#ffffff;fill-opacity:1;fill-rule:nonzero;stroke:none"
         d="m 392.59,241.055 h 57.312 V 359.781 H 392.59 V 241.055" /><path
         id="path38"
         style="fill:#ffffff;fill-opacity:1;fill-rule:nonzero;stroke:none"
         d="m 336.934,300.422 h 42.371 v 0 c 0,0 1.656,0 3.312,0.789 1.688,0.793 1.688,3.168 1.688,3.961 v 29.301 c 0,4.718 -0.864,8.675 -4.172,11.847 -3.313,3.168 -9.141,3.957 -13.281,3.957 h -17.426 v 0 c -0.867,0 -3.348,0 -5.008,-1.582 -1.656,-1.586 -2.48,-3.957 -2.48,-3.957 v 0 l -9.973,-35.605 v 0 c 0,-0.793 -1.656,-3.172 0,-6.34 0,-0.789 1.656,-2.371 4.969,-2.371 v 0" /><path
         id="path40"
         style="fill:#ffffff;fill-opacity:1;fill-rule:nonzero;stroke:none"
         d="m 461.492,395.457 h 49.824 v 9.504 h -49.824 v -9.504" /><path
         id="path42"
         style="fill:#ffffff;fill-opacity:1;fill-rule:nonzero;stroke:none"
         d="m 395.898,448.488 62.282,-37.222 h 58.144 l 62.313,37.976 -90.539,40.391 -92.2,-41.145 v 0" /><path
         id="path44"
         style="fill:#ffffff;fill-opacity:1;fill-rule:nonzero;stroke:none"
         d="m 458.324,202.395 h -73.402 v 0 c 4.57,0.429 9.789,2.05 12.637,5.433 3.308,3.168 4.964,7.918 4.964,12.668 h 40.719 v 0 c 0,-1.512 0,-16.668 15.082,-18.101 v 0" /><path
         id="path46"
         style="fill:#ffffff;fill-opacity:1;fill-rule:nonzero;stroke:none"
         d="M 743.984,202.395 H 463.363 v 0 c 17.246,1.433 17.246,16.589 17.246,18.101 h 13.282 0.832 c 1.656,0.793 4.14,2.379 4.14,3.172 0.825,0.789 1.653,3.168 1.653,3.168 H 714 v -3.168 c 0.824,-0.793 0.824,-1.586 1.652,-1.586 0,-0.793 0.828,-0.793 1.657,-1.586 0.828,0 1.656,0 2.488,0 h 8.312 v 0 c 0,-8.172 4.356,-17.023 15.875,-18.101 v 0" /><path
         id="path48"
         style="fill:#ffffff;fill-opacity:1;fill-rule:nonzero;stroke:none"
         d="m 821.852,202.395 h -72.829 v 0 c 17.965,1.507 16.454,18.101 16.454,18.101 h 40.714 v 0 c 0,-0.789 0,-0.789 0,-1.582 0,-8.137 4.321,-15.551 15.661,-16.519 v 0" /><path
         id="path50"
         style="fill:#ffffff;fill-opacity:1;fill-rule:nonzero;stroke:none"
         d="m 566.504,300.133 h 71.461 v 0 c 0,0 2.484,0 4.14,1.582 0.829,0.789 0.829,3.168 0.829,3.961 v 48.273 c 0,0.793 0,3.172 -0.829,3.961 -1.656,2.379 -5.832,1.582 -5.832,1.582 h -71.425 v 0 c 0,0 -1.657,0 -2.485,-0.789 -1.656,-0.793 -0.824,-3.961 -0.824,-4.754 v -47.484 c 0,0 0,-3.961 0.824,-4.75 1.657,-1.582 3.317,-1.582 4.141,-1.582 v 0" /><path
         id="path52"
         style="fill:#ffffff;fill-opacity:1;fill-rule:nonzero;stroke:none"
         d="m 654.633,300.348 h 71.461 v 0 c 0,0 2.484,0 4.14,1.582 0.825,0.797 0.825,3.168 0.825,3.961 v 48.273 c 0,0.793 0,3.172 -0.825,3.961 -1.656,2.379 -5.836,1.586 -5.836,1.586 h -71.421 v 0 c 0,0 -1.653,0 -2.485,-0.797 -1.652,-0.789 -0.828,-3.957 -0.828,-4.75 v -47.48 c 0,0 0,-3.957 0.828,-4.754 1.656,-1.582 3.313,-1.582 4.141,-1.582 v 0" /></g></g></svg>