<?xml version="1.0" encoding="UTF-8" standalone="no"?>
<svg
   xmlns:dc="http://purl.org/dc/elements/1.1/"
   xmlns:cc="http://creativecommons.org/ns#"
   xmlns:rdf="http://www.w3.org/1999/02/22-rdf-syntax-ns#"
   xmlns:svg="http://www.w3.org/2000/svg"
   xmlns="http://www.w3.org/2000/svg"
   viewBox="0 0 160.41333 140.67999"
   height="140.67999"
   width="160.41333"
   xml:space="preserve"
   id="svg2"
   version="1.1"><metadata
     id="metadata8"><rdf:RDF><cc:Work
         rdf:about=""><dc:format>image/svg+xml</dc:format><dc:type
           rdf:resource="http://purl.org/dc/dcmitype/StillImage" /></cc:Work></rdf:RDF></metadata><defs
     id="defs6" /><g
     transform="matrix(1.3333333,0,0,-1.3333333,0,140.68)"
     id="g10"><g
       transform="scale(0.1)"
       id="g12"><path
         id="path14"
         style="fill:#ee2c30;fill-opacity:1;fill-rule:nonzero;stroke:none"
         d="M 49.6875,0 H 1153.45 v 0 c 38.19,0 62.06,41.3281 42.98,74.4102 v 0 L 644.516,1030.29 v 0 c -19.082,33.07 -66.817,33.07 -85.895,0 v 0 L 6.70313,74.4102 v 0 C -12.3711,41.3281 11.4922,0 49.6875,0 v 0" /><path
         id="path16"
         style="fill:#ffffff;fill-opacity:1;fill-rule:nonzero;stroke:none"
         d="M 135.586,99.2148 H 1067.55 L 601.566,906.266 135.586,99.2148" /><path
         id="path18"
         style="fill:#231f20;fill-opacity:1;fill-rule:nonzero;stroke:none"
         d="m 747.273,439.586 c -1.043,-0.449 -1.136,-0.109 -1.738,0.789 -0.023,0.039 -0.301,0.703 -0.808,1.945 -0.918,2.227 -2.211,3.809 -3.918,4.813 v 0 l -1.457,0.836 -0.196,1.5 v 0 c -0.312,1.601 -4.043,12.148 -6.953,21.281 -4.18,13.035 -8.363,21.824 -12.406,25.633 -1.969,1.84 -2.906,2.719 -10.867,5.972 v 0 l -23.414,8.34 v 0 c -1.653,0.473 -10.961,1.305 -12.328,1.606 v 0 l -3.856,0.941 v 0 c -0.148,0.192 -1.422,5.047 -1.699,7.27 -0.684,5.437 0.262,8.515 1.941,12.476 2.953,6.883 3.469,8.813 3.324,16.559 -0.136,7.824 -6.16,20.644 -13.41,24.086 -7.902,3.746 -18.586,1.48 -28.023,-4.188 -4.379,-2.632 -7.934,-5.265 -11.168,-9.269 -2.852,-3.485 -4.008,-7.098 -3.512,-10.801 0.172,-1.242 0.973,-4.344 2.399,-9.305 0.726,-2.57 0.984,-5.031 0.718,-7.382 -0.437,-3.875 -0.5,-6.356 -0.152,-7.379 0.223,-0.133 0.859,-0.368 1.934,-0.774 1.265,-0.449 2.121,-1.004 2.562,-1.644 v 0 l 0.578,-0.899 v 0 c 0.141,-0.195 0.418,-0.41 0.824,-0.644 v 0 l 1.575,-1.239 v 0 c -0.196,-0.75 -0.012,-1.777 0.57,-3.058 0.371,-0.836 0.785,-2.184 1.234,-4.067 0.606,-2.543 1.485,-3.957 2.621,-4.257 0.188,-0.043 1.227,-0.02 3.118,0.043 1.757,0.062 2.964,-0.407 3.621,-1.411 -0.297,-0.132 -0.598,-0.257 -0.922,-0.343 -3.711,-1.157 -7.012,-2.996 -9.906,-5.477 -4.305,-3.746 -8.493,-8.215 -12.907,-23.879 -2.5,-8.875 -4.297,-17.582 -5.359,-26.14 -0.082,-0.684 -1.531,-0.661 -20.195,8.128 -1.715,0.793 -3.118,1.797 -4.207,3.016 v 0 l -2.082,2.356 v 0 c -0.129,0.152 -4.543,4.921 -5.032,5.371 -1.156,1.07 -2.683,1.816 -4.593,2.203 -1.625,0.34 -3.235,0.918 -4.844,1.777 v 0 l -1.84,0.961 v 0 c -0.793,0.469 -1.82,0.215 -2.02,0.02 v 0 l -1.597,-1.325 -1.031,0.063 v 0 c -0.973,0.039 -1.59,-0.168 -1.84,-0.664 v 0 l -0.989,-1.883 -1.351,-1.559 v 0 c -0.059,-0.152 -0.051,-0.859 0.043,-2.144 v 0 l -0.07,-2.074 v 0 c -0.125,-0.918 1.148,-2.543 3.824,-4.852 2.64,-2.269 2.777,-4.066 3.883,-4.836 1.214,-0.859 3.308,-2.035 6.265,-3.508 4.75,-2.375 8.379,-4.988 10.91,-7.832 4.871,-5.457 7.684,-8.535 8.457,-9.285 1.047,-1.004 2.34,-2.164 3.918,-3.441 12,-9.844 13.911,-10.785 18.246,-11.383 4.309,-0.598 7.715,1.305 10.231,5.707 2.566,4.539 4.363,10.98 5.605,13.672 0.211,-0.32 1.032,-2.262 2.481,-5.856 1.598,-3.98 8.398,-12.964 8.164,-14.742 0,-0.129 -9.859,-24.195 -21.836,-48.476 -1.992,-4.067 -1.852,-6.891 -1.375,-9.332 0.445,-2.309 4.32,-4.403 4.758,-5.368 0.355,-0.789 -0.547,-2.843 -1.063,-3.761 -5.633,-9.996 -8.437,-18.317 -8.425,-24.993 0,-2.093 0.187,-3.871 0.558,-5.281 0.625,-2.375 2.559,-8.086 5.801,-17.179 2.933,-8.239 10.246,-31.09 10.785,-40.137 0.27,-4.34 0.305,-7.188 0.086,-8.535 -0.805,-4.879 -5.113,-10.934 -12.617,-14.121 -8.922,-3.786 -10.703,-5.411 -11.633,-9.219 -0.219,-0.793 -0.543,-3.102 -0.543,-3.145 -1.937,-0.492 -149.141,-1.582 -149.477,-0.75 -0.023,0.024 0.094,4.172 -0.195,10.571 -0.187,4.277 1.184,8.191 4.008,12.98 15.625,26.465 16.207,25.953 18.184,32.332 0.828,2.586 1.496,4.211 2.043,4.852 1.839,0.664 7.945,-0.727 16.484,-0.426 11.976,0.426 23.699,2.609 25.844,2.547 0.117,-0.02 0.871,-0.774 2.246,-2.141 3.988,-4.023 7.461,-4.598 13.023,-5.476 5.965,-0.918 13.227,-1.071 21.778,-0.469 5.261,0.359 10.437,0.043 15.535,-0.988 1.504,-0.297 2.492,-0.575 2.965,-0.832 4.253,-2.27 7.519,-7.254 8.421,-12.75 0.145,-0.813 0.5,-4 1.079,-9.563 0.281,-2.566 0.742,-4.258 1.386,-5.074 0.758,-0.942 2.008,-1.41 3.746,-1.43 5.293,-0.023 6.289,0.793 6.672,4.43 0.164,1.558 0.535,4.019 1.078,7.379 0.602,3.656 0.243,10.246 -0.996,15.039 v 0 l 3.36,0.152 v 0 c 0.683,0.258 1.636,10.246 0.8,12.942 -0.476,1.519 -1.879,2.265 -4.226,2.265 v 0 l -7.254,0.129 v 0 c -6.93,1.434 -9.672,2.566 -17.598,5.945 v 0 l -15.535,5.739 v 0 c -2.793,0.855 -2.922,1.492 -3.234,3.461 -0.067,0.539 -0.684,2.441 -3.477,16.753 -2.996,15.172 -11.445,34.958 -16.629,41.184 v 0 l -0.633,3.957 v 0 c 0.743,6.184 0.633,15.086 -0.332,26.676 -0.105,1.266 -0.14,3.402 -0.117,6.422 0.383,0.062 10.68,-6.098 15.27,-7.188 v 0 l 0.82,-2.164 v 0 c 1.613,-4.832 5.445,-11.148 11.527,-18.89 v 0 l 5.864,-7.485 v 0 c 2.363,-2.824 4.097,-6.269 5.222,-10.332 0.926,-3.316 2.575,-4.797 4.961,-4.387 0.254,-0.214 0.672,-0.75 1.25,-1.605 0.801,-1.176 1.543,-1.906 2.211,-2.121 0.918,-0.32 1.938,-0.254 3.039,0.152 1.762,0.684 2.719,1.071 2.871,1.176 0.547,0.387 1.231,0.793 1.973,2.418 0.75,1.625 -0.559,5.965 -0.793,7.078 -0.574,2.895 -1.652,5.051 -3.195,6.57 v 0 l -0.754,0.727 v 0 c -2,1.969 -3.656,3.637 -6.5,10.781 -0.067,0.196 -0.785,2.207 -2.152,6.016 -3.2,8.898 -5.016,10.844 -9.047,19.207 -1.649,3.426 -4.129,6.828 -7.414,10.187 -5.157,5.305 -4.774,4.512 -14.598,13.434 -3.024,2.719 -10.82,9.691 -15.906,11.617 -2.118,0.813 -4.481,1.328 -7.063,1.543 -3.222,0.277 -5.578,0.727 -7.09,1.344 -0.109,0.363 -0.277,1.391 -0.523,3.164 0.937,0.621 1.933,1.394 6.836,4.73 3.765,2.547 6.019,4.364 6.98,6.223 2.196,4.285 -5.468,11.211 -5.484,11.578 v 0 l -0.246,2.266 v 0 c -1.68,6.207 -5.293,11.039 -12.238,15.148 -9.911,5.821 -23.59,4.211 -31.551,-5.176 -3.129,-3.683 -5.367,-12.859 -1.309,-22.378 2.094,-4.985 1.606,-5.309 1.25,-8.348 -0.347,-2.973 0.137,-4.488 1.504,-4.574 v 0 l 2.953,-0.106 0.684,-1.347 v 0 c 0.582,-0.688 1.961,-0.731 1.926,-1.586 -0.047,-0.856 -1.25,-1.477 0.285,-4.043 0.668,-1.153 1.293,-2.266 2.609,-3.211 0.059,-0.387 0.313,-0.492 -1.808,-2.117 -2.235,-1.692 -4.692,-3.766 -7.899,-6.805 -9.453,-8.938 -10.113,-14.777 -10.16,-24.516 v 0 l -0.371,-10.59 v 0 c -0.078,-0.125 -0.668,-0.492 -1.774,-1.07 v 0 l -16.687,-12.281 v 0 c -3.133,-2.309 -5.055,-3.781 -5.774,-4.445 -3,-2.653 -4.05,-3.512 -6.152,-3.575 v 0 l -6.777,-2.183 v 0 c -1.563,-0.621 -2.953,-1.602 -4.156,-2.973 -1.02,-1.109 -1.879,-3.766 -3.825,-6.289 -0.89,-1.176 -1.414,-2.078 -1.543,-2.742 -0.59,-3.141 0.965,-7.528 5.539,-7.035 4.832,0.515 8.887,2.246 12.153,5.222 v 0 l 7.773,5.668 v 0 c 2.422,0.852 30.664,12.899 34.371,15.828 0.684,0.539 1.231,0.86 1.621,0.942 0.075,-0.188 7.383,-19.914 7.383,-19.914 -26.105,-21.606 -38.738,-51.047 -38.453,-51.645 0.328,-0.621 5.492,-3.875 6.594,-5.008 -0.071,-0.703 -2.164,-6.289 -3.832,-10.203 -3.766,-8.816 -4.449,-13.222 -12.817,-38.121 -1.261,-3.808 -2.8,-6.078 -5.304,-7.574 -2.004,-1.199 -5.547,-2.547 -10.645,-3.977 -6.941,-1.992 -10.586,-3.836 -11.562,-7.898 v 0 l -0.879,-3.617 -32.032,-0.106 v 0 c -0.312,-1.242 -0.457,-16.535 -0.382,-16.515 v 0 l 451.019,0.109 -0.047,16.406 h -201.8 v 0 c 0.066,0.625 0.777,2.61 1.921,3.321 v 0 l 6.211,2.992 2.493,-1.844 v 0 c 0.648,-0.664 1.957,-0.68 3.933,-0.043 2.192,0.707 7.352,2.977 8.703,3.406 3.649,1.196 4.461,1.543 2.77,7.184 -0.172,0.582 -0.746,2.273 -1.684,5.074 -4.051,11.961 -4.043,16.172 -4.437,29.395 -0.785,26.144 -2.231,28.066 -7.41,42.828 -0.508,1.476 -0.696,2.504 -0.567,3.062 0.031,0.145 -1.172,2.461 8.313,14.715 0.863,1.113 1.308,1.777 2.195,2.094 3.449,1.223 6.484,6.207 6.855,7.512 2.875,9.972 16.52,32.285 17.539,33.265 0.208,0.196 2.489,-2.605 5.477,-6.523 v 0 l 11.715,-14.93 9.058,-9.973 v 0 c 2.606,-5.625 10.43,-17.476 12.489,-19.636 1.414,-1.5 3.476,-2.739 6.187,-3.703 10.621,-3.809 34.895,-14.246 42.504,-16.645 7.875,-2.543 13.828,-6.523 17.871,-11.976 2.125,-2.868 3.258,-5.821 3.41,-8.84 0.321,-6.414 0.067,-8.77 -0.878,-15.981 -0.911,-6.992 -0.93,-7.23 -0.633,-9.586 0.515,-3.89 2.761,-6.496 5.562,-6.883 1.856,-0.257 4.973,0.235 5.899,1.286 0.406,0.445 1.168,2.414 2.316,5.902 0.023,0.082 0.766,2.094 2.215,6.012 2.719,7.398 3.984,13.285 3.766,17.648 -0.11,2.184 0.007,3.531 0.355,4.063 1.59,-0.082 2.746,0.492 3.453,1.734 0.895,1.582 4.254,10.762 4.356,12.023 0.175,1.903 -0.254,3.168 -1.25,3.789 -0.024,0 -1.68,0.422 -4.997,1.301 -3.468,0.899 -8.652,3.574 -15.531,8.024 -6.734,4.386 -18.441,14.91 -22.949,17.867 -0.836,0.617 -16.406,10.117 -22.449,13.07 -1.785,0.875 -5.496,2.973 -6.039,3.91 -0.082,0.133 -5.121,21.848 -5.141,22.918 1.438,-1.199 8.641,-12.793 12.383,-13.757 1.59,-0.411 3.254,-0.149 5.008,0.812 v 0 l 51.418,36.922 v 0 c 6.211,5.094 5.148,8.066 0.648,14.293 -6.031,8.344 -12.383,19.125 -20.66,29.312 -4.906,6.055 -7.176,5.453 -16.5,-1.777 -4.473,-3.469 -7.031,-5.266 -7.672,-5.371 -0.254,-0.039 -6.113,3.809 -9.973,2.207 v 0" /><path
         id="path20"
         style="fill:#ffffff;fill-opacity:1;fill-rule:nonzero;stroke:none"
         d="m 732.887,421.059 -0.074,2.14 v 0 c -0.016,0.453 0.308,3.696 1.285,5.258 v 0 l 0.558,0.266 v 0 c 1.711,0.765 1.793,1.386 3.098,1.379 1.969,-0.016 1.992,1.738 3.68,1.82 2.187,0.09 1.375,1.652 3.046,1.914 2.458,0.359 1.493,1.273 2.688,2.156 0.336,0.266 4.102,-0.703 5.16,-1.789 -1.027,-1.008 -19.09,-13.64 -19.285,-13.637 -0.098,0.145 -0.152,0.309 -0.156,0.493 v 0" /><path
         id="path22"
         style="fill:#ffffff;fill-opacity:1;fill-rule:nonzero;stroke:none"
         d="m 694.492,480.57 c 3.61,-0.117 11.094,0.512 12.028,-0.062 0.335,-0.207 1.535,-2.387 3.597,-6.539 1.289,-2.586 6.145,-10.453 14.563,-23.582 0.886,-1.391 1.691,-2.559 2.414,-3.508 0.703,-0.926 1.109,-1.508 1.203,-1.754 0.023,-0.051 0.137,-1.125 0.336,-3.219 0.144,-1.511 0.844,-3.922 2.094,-7.242 0.574,-1.523 0.8,-2.574 0.695,-3.144 -0.027,-0.137 -0.383,-0.809 -1.067,-2.008 -2.078,-3.649 -2.113,-8.578 -1.406,-9.805 v 0 l 0.461,-0.797 v 0 c 0.324,-0.57 0.481,-0.953 0.461,-1.144 -0.469,-0.477 -2.863,-2.2 -7.191,-5.18 -2.45,-1.691 -3.75,-2.512 -3.879,-2.461 -0.199,0.07 2.797,-0.789 -16.156,22.176 -1.559,1.894 -2.719,2.465 -2.723,3.156 -0.645,23.871 -5.457,43.316 -4.938,42.438 v 0 l -0.492,2.675 v 0" /></g></g></svg>