<?xml version="1.0" encoding="UTF-8" standalone="no"?>
<svg
   xmlns:dc="http://purl.org/dc/elements/1.1/"
   xmlns:cc="http://creativecommons.org/ns#"
   xmlns:rdf="http://www.w3.org/1999/02/22-rdf-syntax-ns#"
   xmlns:svg="http://www.w3.org/2000/svg"
   xmlns="http://www.w3.org/2000/svg"
   viewBox="0 0 160.25333 140.78667"
   height="140.78667"
   width="160.25333"
   xml:space="preserve"
   id="svg2"
   version="1.1"><metadata
     id="metadata8"><rdf:RDF><cc:Work
         rdf:about=""><dc:format>image/svg+xml</dc:format><dc:type
           rdf:resource="http://purl.org/dc/dcmitype/StillImage" /></cc:Work></rdf:RDF></metadata><defs
     id="defs6" /><g
     transform="matrix(1.3333333,0,0,-1.3333333,0,140.78667)"
     id="g10"><g
       transform="scale(0.1)"
       id="g12"><path
         id="path14"
         style="fill:#ee2c30;fill-opacity:1;fill-rule:nonzero;stroke:none"
         d="M 135.383,99.293 600.879,906.961 1066.38,99.293 Z M 1195.2,74.4688 643.855,1031.07 c -19.058,33.12 -66.746,33.12 -85.808,0 L 6.70313,74.4688 C -12.3516,41.3594 11.4883,0 49.6445,0 H 1152.26 c 38.16,0 62,41.3594 42.94,74.4688" /><path
         id="path16"
         style="fill:#ffffff;fill-opacity:1;fill-rule:nonzero;stroke:none"
         d="M 135.586,99.2148 H 1067.55 L 601.566,906.266 135.586,99.2148" /><path
         id="path18"
         style="fill:#231f20;fill-opacity:1;fill-rule:nonzero;stroke:none"
         d="m 740.234,253.637 c -32.546,0 -59.953,22.551 -67.425,52.886 l 55.882,0.075 c 6.797,0 17.122,-0.469 21.368,6.199 3.488,5.687 -0.911,14.441 -2.344,18.48 l -23.875,59.442 c 5.215,1.301 10.711,1.984 16.394,1.984 38.301,0 69.414,-31.164 69.414,-69.531 0,-38.371 -31.113,-69.535 -69.414,-69.535 z m -32.683,130.886 23.554,-60.058 h -59.953 c 0,26.484 14.567,48.277 36.399,60.058 z M 652.09,324.465 h -15.102 l 42.438,128.98 21.433,-50.836 C 672.34,388.16 652.594,358.586 652.09,324.465 Z m -31.86,3.855 -116.304,117.668 5.355,18.735 h 155.438 z m -89.8,-4.144 c 0,-38.367 -31.11,-69.461 -69.41,-69.461 -38.301,0 -69.411,31.094 -69.411,69.461 0,38.371 31.11,69.465 69.411,69.465 2.875,0 5.828,-0.145 8.593,-0.543 L 450.914,326.52 c -1.008,-3.243 -1.691,-9.547 5.504,-11.567 7.082,-2.051 10.645,2.953 11.687,6.559 l 18.594,67.191 c 25.606,-10.195 43.731,-35.234 43.731,-64.527 z m 210.234,87.586 c -8.019,0 -15.859,-1.512 -23.34,-3.457 l -29.812,73.062 5.789,16.141 h 13.379 v 17.472 h -55.602 v -11.527 l 24.781,-5.945 -5.504,-16.141 H 513.953 l 5.793,18.985 c 1.363,4.722 2.516,8.648 5.969,11.75 3.488,2.878 9.961,2.878 15.105,2.878 h 26.145 v 17.333 h -32.617 c -10,0 -18.524,-3.352 -23.664,-8.649 -4.461,-4.469 -6.946,-12.105 -8.743,-18.375 l -26.683,-93.742 c -4.676,0.754 -9.063,1.371 -13.879,1.371 -48.945,0 -88.649,-39.816 -88.649,-88.777 0,-48.922 39.704,-88.805 88.649,-88.805 48.871,0 88.57,39.883 88.57,88.805 0,38.156 -24.668,70.074 -58.293,82.793 l 6.117,19.457 108.825,-109.129 c 3.629,-3.535 7.8,-7.098 12.687,-8.68 4.606,-1.914 10.434,-1.914 15.11,-1.914 l 19.277,-0.07 c 7.695,-41.075 43.801,-72.168 86.992,-72.168 48.879,0 88.508,39.703 88.508,88.668 0,48.961 -39.629,88.664 -88.508,88.664" /></g></g></svg>