<?xml version="1.0" encoding="UTF-8" standalone="no"?>
<svg
   xmlns:dc="http://purl.org/dc/elements/1.1/"
   xmlns:cc="http://creativecommons.org/ns#"
   xmlns:rdf="http://www.w3.org/1999/02/22-rdf-syntax-ns#"
   xmlns:svg="http://www.w3.org/2000/svg"
   xmlns="http://www.w3.org/2000/svg"
   viewBox="0 0 160.41333 140.67999"
   height="140.67999"
   width="160.41333"
   xml:space="preserve"
   id="svg2"
   version="1.1"><metadata
     id="metadata8"><rdf:RDF><cc:Work
         rdf:about=""><dc:format>image/svg+xml</dc:format><dc:type
           rdf:resource="http://purl.org/dc/dcmitype/StillImage" /></cc:Work></rdf:RDF></metadata><defs
     id="defs6" /><g
     transform="matrix(1.3333333,0,0,-1.3333333,0,140.68)"
     id="g10"><g
       transform="scale(0.1)"
       id="g12"><path
         id="path14"
         style="fill:#ee2c30;fill-opacity:1;fill-rule:nonzero;stroke:none"
         d="M 49.6875,0 H 1153.45 v 0 c 38.19,0 62.06,41.3281 42.98,74.4102 v 0 L 644.512,1030.29 v 0 c -19.078,33.07 -66.817,33.07 -85.895,0 v 0 L 6.69922,74.4102 v 0 C -12.3789,41.3281 11.4883,0 49.6875,0 v 0" /><path
         id="path16"
         style="fill:#ffffff;fill-opacity:1;fill-rule:nonzero;stroke:none"
         d="M 135.582,99.2148 H 1067.55 L 601.566,906.266 135.582,99.2148" /><path
         id="path18"
         style="fill:#231f20;fill-opacity:1;fill-rule:nonzero;stroke:none"
         d="m 427.469,488.984 17.636,-20.156 10.446,6.949 v 0 c 1.082,0.75 3.383,2.157 4.605,1.657 0.684,-0.258 1.301,-1.153 1.657,-1.77 v 0 l 2.015,-16.738 v 0 c 6.082,-3.168 15.156,-10.473 21.059,-13.715 3.672,-1.977 7.746,-3.566 11.707,-4.785 6.691,-2.164 16.629,-2.988 23.578,-2.988 12.058,0 35.637,-2.7 47.519,-3.352 8.133,-0.469 22.715,-1.043 30.887,-1.367 13.57,-0.614 34.629,0.07 48.098,1.871 v 0 l 53.207,9.144 v 0 c 12.308,2.231 26.207,4.969 38.265,2.34 5.079,-1.043 9.864,-3.277 13.864,-6.586 7.379,-6.011 10.976,-15.804 11.765,-25.273 0.758,-8.965 0.114,-24.805 1.086,-33.731 v 0 l 7.196,-37.582 7.453,-27.257 v 0 c 1.441,-3.524 2.238,-7.344 2.484,-11.157 0.289,-3.781 0.035,-7.777 -1.078,-11.379 -0.648,-2.265 -3.418,-12.527 -9.828,1.911 v 0 l -11.953,54.289 v 0 c -0.719,3.886 -3.633,18.57 -4.785,22.316 -0.395,-17.062 -5.797,-46.113 -2.489,-63.215 0.578,-2.703 4.684,-8.027 6.555,-10.152 2.484,-2.77 8.176,-9.973 9.359,-13.43 1.008,-3.129 1.008,-7.773 0.075,-11.015 -0.145,-0.536 -1.442,-3.672 -1.696,-4.172 -1.511,-3.707 -2.41,-7.782 -2.773,-11.914 -0.106,-1.442 -0.535,-6.844 -0.973,-8.211 -0.824,-2.664 -2.984,-5.473 -4.75,-7.598 v 0 l 2.848,-12.891 h 69.945 V 212.613 H 372.676 v 16.414 h 146.703 v 0 c 1.723,1.95 5.254,5.508 6.801,7.813 1.008,1.515 1.871,3.137 2.488,4.863 2.34,6.621 1.547,15.481 1.078,22.5 -0.574,8.856 -1.152,18.543 -2.699,27.395 -1.008,5.902 -2.199,12.851 -5.797,17.5 -3.707,4.711 -11.195,8.382 -15.52,12.343 -12.808,11.524 -22.679,44.571 -36.574,54.508 -6.375,4.461 -14.468,6.332 -22.215,5.867 -6.836,-0.468 -14.035,-2.699 -20.589,-5.152 -2.411,-0.93 -5.293,-2.84 -6.911,-4.824 v 0 l -6.55,-7.27 v 0 c -1.657,-1.187 -3.887,-1.761 -5.977,-1.406 v 0 l -17.75,11.375 v 0 c -0.789,0.941 -1.512,1.984 -1.941,3.063 -0.543,1.336 -0.793,2.843 -0.399,4.175 0.219,0.758 0.828,1.727 1.262,2.379 v 0 l 13.246,16.129 v 0 c 4.754,5.688 13.609,17.961 17.066,24.547 v 0 l 5.149,10.121 4.351,7.235 3.387,8.71 4.285,7.633 -4.789,11.375 v 0 c -2.519,5.797 -3.812,12.782 -3.312,19.078 v 0" /><path
         id="path20"
         style="fill:#ffffff;fill-opacity:1;fill-rule:nonzero;stroke:none"
         d="m 547.563,229.027 c -0.067,0.723 -0.141,1.805 -0.25,2.559 -0.325,2.809 -1.079,6.121 -2.161,8.785 1.481,3.203 3.133,7.309 3.996,10.695 0.868,3.45 1.188,7.555 1.336,11.157 0.215,4.57 -1.046,12.601 -0.796,17.172 v 0 l 3.132,11.593 v 0 c 2.2,8.172 3.313,18.539 3.782,23.938 7.738,-1.406 17.855,-2.305 25.703,-2.375 7.269,-0.071 15.336,0 22.574,0.539 8.242,0.652 16.488,1.836 24.59,3.492 6.082,1.227 13.715,3.137 19.726,4.684 5.325,1.367 12.887,3.523 17.676,5.937 0.395,-1.008 0.938,-2.305 1.332,-3.277 1.078,-2.555 2.481,-5.473 4.067,-7.774 1.546,-2.238 4.21,-4.968 6.085,-6.988 1.762,-1.902 7.09,-5.687 7.09,-5.687 0,-1.258 0.973,-7.848 1.118,-8.278 0.363,-1.008 1.078,-2.23 2.125,-2.449 0.898,-0.215 1.835,0.219 2.519,0.828 0.359,0.324 1.113,1.766 1.367,2.16 v 0 l 3.348,6.297 v 0 c 0,0 6.375,-0.066 6.406,-0.105 v 0 l 1.262,-7.239 v 0 c 0.504,-2.699 2.23,-3.886 3.672,-3.777 0.722,0.039 1.656,0.5 2.23,1.152 2.27,2.27 0.684,7.524 1.942,10.512 1.336,-0.254 5.402,0.758 6.843,1.367 2.161,-2.593 4.211,-5.687 6.805,-7.847 2.844,-2.305 6.086,-4.5 9.215,-6.407 2.305,-1.406 6.48,-4.105 8.281,-6.156 2.09,-2.414 3.063,-5.797 4.215,-8.64 4.066,-10.153 1.723,-15.735 0.684,-22.899 -0.254,-1.836 -0.907,-4.785 -1.301,-6.586 -0.36,-1.801 -1.473,-4.101 -2.59,-5.508 v 0 l -8.68,-10.875 H 547.563 v 0" /></g></g></svg>