<?xml version="1.0" encoding="UTF-8" standalone="no"?>
<svg
   xmlns:dc="http://purl.org/dc/elements/1.1/"
   xmlns:cc="http://creativecommons.org/ns#"
   xmlns:rdf="http://www.w3.org/1999/02/22-rdf-syntax-ns#"
   xmlns:svg="http://www.w3.org/2000/svg"
   xmlns="http://www.w3.org/2000/svg"
   viewBox="0 0 160.41333 140.67999"
   height="140.67999"
   width="160.41333"
   xml:space="preserve"
   id="svg2"
   version="1.1"><metadata
     id="metadata8"><rdf:RDF><cc:Work
         rdf:about=""><dc:format>image/svg+xml</dc:format><dc:type
           rdf:resource="http://purl.org/dc/dcmitype/StillImage" /></cc:Work></rdf:RDF></metadata><defs
     id="defs6" /><g
     transform="matrix(1.3333333,0,0,-1.3333333,0,140.68)"
     id="g10"><g
       transform="scale(0.1)"
       id="g12"><path
         id="path14"
         style="fill:#ee2c30;fill-opacity:1;fill-rule:nonzero;stroke:none"
         d="M 49.6875,0 H 1153.45 v 0 c 38.19,0 62.06,41.3281 42.98,74.4141 v 0 L 644.516,1030.29 v 0 c -19.082,33.08 -66.817,33.08 -85.899,0 v 0 L 6.70313,74.4141 v 0 C -12.3711,41.3281 11.4922,0 49.6875,0 v 0" /><path
         id="path16"
         style="fill:#ffffff;fill-opacity:1;fill-rule:nonzero;stroke:none"
         d="M 135.586,99.2188 H 1067.55 L 601.566,906.266 135.586,99.2188" /><path
         id="path18"
         style="fill:#231f20;fill-opacity:1;fill-rule:nonzero;stroke:none"
         d="m 623.648,719.512 c 41.036,-12.086 64.657,-54.989 52.86,-96.133 -13.016,-45.461 -63.184,-68.906 -106.414,-49.734 -18.563,8.195 -32.227,22.078 -40.137,40.777 -7.949,18.703 -8.414,38.16 -1.402,57.223 6.976,19.058 19.922,33.589 38.082,42.726 18.133,9.133 37.519,10.895 57.011,5.141 v 0" /><path
         id="path20"
         style="fill:#231f20;fill-opacity:1;fill-rule:nonzero;stroke:none"
         d="m 624.684,528.203 c 41.035,-12.082 64.668,-55.019 52.871,-96.16 -13.02,-45.422 -63.184,-68.906 -106.418,-49.738 -18.559,8.195 -32.227,22.082 -40.137,40.781 -7.949,18.699 -8.418,38.156 -1.398,57.219 6.968,19.062 19.918,33.593 38.078,42.722 18.125,9.141 37.511,10.899 57.004,5.176 v 0" /><path
         id="path22"
         style="fill:#231f20;fill-opacity:1;fill-rule:nonzero;stroke:none"
         d="m 624.684,336.867 c 41.035,-12.082 64.668,-55.019 52.871,-96.164 -13.02,-45.43 -63.184,-68.906 -106.418,-49.734 -18.559,8.191 -32.227,22.078 -40.137,40.781 -7.949,18.699 -8.418,38.152 -1.398,57.215 6.968,19.062 19.918,33.594 38.078,42.726 18.125,9.129 37.511,10.899 57.004,5.176 v 0" /><path
         id="path24"
         style="fill:#ee2c30;fill-opacity:1;fill-rule:nonzero;stroke:none"
         d="m 601.527,705.781 c 33.594,0 60.879,-27.289 60.879,-60.875 0,-33.586 -27.285,-60.879 -60.879,-60.879 -33.582,0 -60.875,27.293 -60.875,60.879 0,33.586 27.293,60.875 60.875,60.875 v 0" /><path
         id="path26"
         style="fill:#fcd213;fill-opacity:1;fill-rule:nonzero;stroke:none"
         d="m 602.574,514.406 c 33.594,0 60.879,-27.289 60.879,-60.879 0,-33.586 -27.285,-60.871 -60.879,-60.871 -33.586,0 -60.875,27.285 -60.875,60.871 0,33.59 27.289,60.879 60.875,60.879 v 0" /><path
         id="path28"
         style="fill:#007f46;fill-opacity:1;fill-rule:nonzero;stroke:none"
         d="m 602.574,323.066 c 33.594,0 60.879,-27.285 60.879,-60.878 0,-33.583 -27.285,-60.879 -60.879,-60.879 -33.586,0 -60.875,27.296 -60.875,60.879 0,33.593 27.289,60.878 60.875,60.878 v 0" /></g></g></svg>