<?xml version="1.0" encoding="UTF-8" standalone="no"?>
<svg
   xmlns:dc="http://purl.org/dc/elements/1.1/"
   xmlns:cc="http://creativecommons.org/ns#"
   xmlns:rdf="http://www.w3.org/1999/02/22-rdf-syntax-ns#"
   xmlns:svg="http://www.w3.org/2000/svg"
   xmlns="http://www.w3.org/2000/svg"
   viewBox="0 0 160.41333 140.67999"
   height="140.67999"
   width="160.41333"
   xml:space="preserve"
   id="svg2"
   version="1.1"><metadata
     id="metadata8"><rdf:RDF><cc:Work
         rdf:about=""><dc:format>image/svg+xml</dc:format><dc:type
           rdf:resource="http://purl.org/dc/dcmitype/StillImage" /></cc:Work></rdf:RDF></metadata><defs
     id="defs6" /><g
     transform="matrix(1.3333333,0,0,-1.3333333,0,140.68)"
     id="g10"><g
       transform="scale(0.1)"
       id="g12"><path
         id="path14"
         style="fill:#ee2c30;fill-opacity:1;fill-rule:nonzero;stroke:none"
         d="M 49.6875,0 H 1153.45 v 0 c 38.19,0 62.06,41.3281 42.98,74.4102 v 0 L 644.512,1030.29 v 0 c -19.078,33.07 -66.817,33.07 -85.895,0 v 0 L 6.69922,74.4102 v 0 C -12.3789,41.3281 11.4883,0 49.6875,0 v 0" /><path
         id="path16"
         style="fill:#ffffff;fill-opacity:1;fill-rule:nonzero;stroke:none"
         d="M 135.582,99.2148 H 1067.55 L 601.566,906.266 135.582,99.2148" /><path
         id="path18"
         style="fill:#231f20;fill-opacity:1;fill-rule:nonzero;stroke:none"
         d="m 979.395,171.563 c -7.165,1.046 -16.45,4.894 -21.528,10.148 -4.679,4.816 -8.781,10.535 -11.012,16.941 -0.578,1.762 -1.226,4.457 -1.621,6.262 l -10.367,28.309 c -1.117,2.695 -2.808,5.179 -4.929,7.23 -4.825,4.676 -14.833,7.516 -19.872,12.012 l -11.195,15.437 c -0.937,1.473 -4.75,7.411 -6.226,8.383 -4.5,2.985 -14.54,4.531 -18.969,7.735 -6.735,4.851 -12.598,15.07 -18.176,21.796 -4.391,5.106 -9.824,9.497 -15.516,12.989 -6.66,4.207 -13.714,9.175 -21.273,11.511 -3.168,1.008 -6.66,1.114 -9.973,0.793 -8.742,-0.793 -23.465,-1.476 -30.519,-6.875 l -10.512,-17.48 c -4.391,-8.781 -12.098,-18.527 -19.477,-25.149 -1.292,-1.152 -2.988,-3.128 -4.097,-4.421 -4.973,1.796 -10.012,4.207 -14.367,6.941 -4.211,2.629 -8.606,5.719 -12.524,8.777 -4.793,3.813 -9.937,8.524 -14.219,12.914 l -9.832,10.614 c -3.738,3.527 -8.132,6.656 -12.523,9.531 l -63.102,41.332 c 1.477,3.922 3.961,9.359 5.727,12.809 1.547,3.097 4.172,8.847 5.398,11.804 1.227,3.055 2.411,6.328 3.493,9.422 l 12.742,33.313 c 1.871,3.597 3.887,7.304 6.012,10.754 2.339,3.847 5.402,8.347 7.988,11.73 1.726,3.453 8.316,10.934 10.437,14.063 3.641,5.433 6.16,11.691 7.492,18.132 1.547,7.301 0.504,15.141 -1.511,22.301 -1.477,5.649 -3.781,11.227 -6.121,16.512 -1.153,2.629 -2.485,5.578 -3.746,8.133 l -3.094,6.511 c 0.543,0.575 1.367,1.364 2.051,1.653 1.011,0.468 4.5,4.066 5.546,3.742 2.915,-0.902 3.993,-7.231 7.016,-6.586 l 5.582,2.555 c 1.078,0.863 1.902,0.797 5.113,2.699 2.336,1.402 7.7,-0.684 11.118,2.086 1.043,0.722 4.14,-0.535 5.004,0.328 1.332,1.254 6.66,7.117 8.605,8.309 l 5.359,2.949 4.289,3.742 c 0.75,0.824 4.786,3.023 5.649,3.773 2.953,2.668 5.039,4.93 5.832,8.063 0.789,3.418 1.078,7.082 0.969,10.574 -0.141,4.785 -1.184,9.68 -3.418,13.922 -2.379,4.531 -5.688,8.598 -9.539,11.945 -4.532,3.918 -10.403,6.399 -15.836,8.778 -6.481,2.804 -16.664,3.304 -26.387,0.355 -3.781,-1.152 -6.406,-2.949 -9.898,-6.152 -3.813,-3.485 -6.801,-8.27 -8.563,-12.555 -2.305,-5.285 -3.961,-11.508 -7.098,-16.367 -1.867,-2.945 -5.144,-4.926 -8.242,-6.258 -1.004,-0.43 -2.051,-0.898 -3.055,-1.258 -1.765,1.582 -4.394,4.172 -6.085,5.754 -2.625,2.735 -5.653,6.152 -8.602,8.238 -4.395,2.95 -10.621,4.391 -15.875,5.075 -8.027,1.078 -15.91,1.472 -24.008,1.257 -8.859,-0.214 -17.742,-0.609 -26.601,-1.293 -7.633,-0.613 -15.407,-1.296 -23.004,-2.05 -9.172,-0.903 -22.711,-3.278 -31.707,-4.496 -5.004,-0.684 -13.391,-2.125 -17.785,-4.536 -2.52,-1.367 -4.965,-4.316 -6.696,-6.617 -3.703,-5.074 -7.195,-11.078 -8.965,-16.836 l -16.589,-55.507 c -1.473,-5 -2.629,-12.485 -2.305,-18.168 0.074,-1.692 1.875,-5.504 2.519,-7.055 -2.339,-0.969 -6.695,-4.711 -7.23,-4.383 l -7.567,4.531 c -2.335,1.442 -5.359,0.973 -7.195,-1.117 -2.195,-2.555 -1.691,-6.508 1.117,-8.379 l 9.036,-6.976 c 0.285,-0.289 -2.34,-2.809 -0.579,-4.145 6.407,-5.031 7.594,-6.902 15.012,-9.387 0.145,-0.07 -2.699,-6.726 -2.883,-7.16 -2.371,-5.394 -4.57,-11.867 -6.117,-17.445 -1.691,-5.824 -2.66,-12.086 -2.519,-18.164 l 6.371,-33.637 c 2.086,-9.07 4.07,-20 5.254,-29.465 0.468,-3.558 0.793,-7.156 1.078,-10.754 0.289,-4.031 0.508,-8.023 0.652,-12.05 0.32,-9.715 0.215,-19.786 -0.184,-29.5 -0.246,-5.969 -0.648,-13.344 -1.398,-19.246 l -10.656,-85.219 3.597,-11.91 c -1.691,0.039 -4.211,0.105 -5.902,0.433 -2.269,0.356 -5.539,1.656 -7.918,2.266 l -18.394,-1.227 c -4.676,-1.183 -7.02,-1.472 -10.442,-1.761 -6.551,-0.61 -12.957,1.726 -19.578,2.882 -3.961,0.93 -10.727,-1.515 -13.461,1.399 l -10.621,19.539 c -0.898,2.765 -3.168,5.246 -5.508,7.051 l -7.633,5.175 -8.711,7.336 c -1.367,1.911 -2.585,5.832 -3.671,8.024 -1.145,2.414 -2.95,4.644 -5.289,5.972 -5.219,2.879 -13.856,3.493 -19.364,5.864 -1.406,0.578 -4.789,1.976 -6.301,1.871 -2.664,-0.176 -7.128,-3.488 -9.25,-5.141 -5.906,-4.465 -15.441,-10.437 -20.41,-15.793 -3.886,-4.176 -6.515,-9.965 -8.242,-15.359 -1.047,-3.527 -2.594,-9.465 -4.316,-12.957 -2.703,-5.645 -7.528,-10.75 -12.383,-14.785 -1.547,-1.293 -5.977,-3.129 -7.672,-4.207 l -26.273,-0.973 0.105,-18.129 758.172,0.074 -0.109,15.575" /><path
         id="path20"
         style="fill:#000000;fill-opacity:1;fill-rule:nonzero;stroke:none"
         d="m 584.469,429.922 c 1.039,5.433 0.32,12.664 2.875,17.625 1.191,2.234 2.914,4.25 4.859,5.906 l 23.543,18.024 c 1.402,1.078 3.813,3.773 5.254,4.89 l -7.309,-15.144 c -4.425,-6.442 -6.875,-14.86 -8.597,-22.309 l -2.742,-12.805 c -0.969,-4.855 -1.903,-12.66 -3.055,-17.589 -0.684,-3.235 -1.192,-7.411 -1.516,-10.723 l -15.187,26.047 c 0.648,1.687 1.547,4.281 1.875,6.078" /><path
         id="path22"
         style="fill:#000000;fill-opacity:1;fill-rule:nonzero;stroke:none"
         d="m 491.621,506.004 c 4.899,9.035 3.961,18.312 8.176,25.652 l 12.449,21.875 39.742,0.864 -16.738,-14.461 -27.285,-26.082 -17.891,-17.09 c 0.071,2.414 0.36,7.086 1.547,9.242" /><path
         id="path24"
         style="fill:#000000;fill-opacity:1;fill-rule:nonzero;stroke:none"
         d="m 529.387,173.664 -0.289,8.164 8.461,-3.777 7.05,2.949 3.457,-5.031 -18.679,-2.305" /><path
         id="path26"
         style="fill:#000000;fill-opacity:1;fill-rule:nonzero;stroke:none"
         d="M 541.621,254.328 528.77,224.395 c -2.735,-5.899 5.113,-5.719 3.277,-10.106 -2.051,-4.859 -8.207,-10.184 -10.262,-14.969 -0.754,-1.797 -2.699,-10.824 -1.801,-12.304 0.438,-0.715 -15.691,4.933 -20.586,6.152 1.079,1.227 2.446,2.949 3.165,4.426 1.441,2.879 0.832,8.308 1.191,11.297 l 12.887,53.886 6.226,24.43 4.356,15.539 c 0.937,3.418 1.941,6.942 2.445,10.359 1.656,10.543 0.574,24.965 0.574,35.758 0.039,6.223 0,15.075 -0.5,21.117 -0.183,2.52 -0.398,5.145 -0.609,7.661 1.547,-1.145 3.344,-2.586 4.824,-3.774 3.844,-2.914 6.762,-7.265 9.68,-10.972 l 21.847,-26.907 c 1.692,-2.05 5.653,-7.234 6.008,-10.148 0.758,-5.719 -6.363,-18.738 -8.637,-23.492 l -21.234,-48.02" /><path
         id="path28"
         style="fill:#000000;fill-opacity:1;fill-rule:nonzero;stroke:none"
         d="m 699.324,238.273 c -2.336,-2.195 -0.902,-6.367 -1.906,-8.886 -0.363,-0.899 -1.117,-2.196 -1.656,-3.024 -3.129,-5.07 -0.434,-15.14 -2.735,-20.504 -1.547,-3.632 -6.519,-6.441 -9.828,-8.558 l -14.543,-8.528 c -4.105,-2.23 -9,-5.433 -13.281,-7.16 -3.133,-1.222 -8.355,-2.265 -11.664,-2.879 L 626,175.352 l -27.574,-0.61 c 0.074,3.309 0.508,7.879 -1.399,10.574 -1.621,2.2 -5.976,4.032 -8.496,5.11 l -13.605,6.332 c -0.863,0.324 -2.914,1.187 -3.492,1.871 -0.969,1.117 -1.223,3.707 -1.258,5.18 2.23,-0.18 6.586,-0.36 8.308,1.078 1.301,1.082 2.239,4.605 2.633,6.297 1.367,6.043 4.606,11.765 7.485,17.375 2.703,5.429 5.98,12.843 8.457,18.492 l 17.316,35.469 12.383,24.605 c 2.629,5.18 6.875,12.41 7.668,18.309 0.719,5.289 -1.512,11.226 -3.418,16.515 l 8.816,-5.652 42.039,-28.813 c 2.703,-1.941 5.039,-4.351 6.985,-6.976 4.066,-5.434 9.648,-12.231 13.5,-18.168 l 22.785,-21.008 c 0.504,-0.434 -9.141,-7.664 -25.809,-23.059" /><path
         id="path30"
         style="fill:#ffffff;fill-opacity:1;fill-rule:nonzero;stroke:none"
         d="m 537.559,178.051 -8.461,3.777 0.289,-8.164 18.679,2.305 -3.457,5.031 -7.05,-2.949" /><path
         id="path32"
         style="fill:#ffffff;fill-opacity:1;fill-rule:nonzero;stroke:none"
         d="m 702.348,282.34 c -3.852,5.937 -9.434,12.734 -13.5,18.168 -1.946,2.625 -4.282,5.035 -6.985,6.976 l -42.039,28.813 -8.816,5.652 c 1.906,-5.289 4.137,-11.226 3.418,-16.515 -0.793,-5.899 -5.039,-13.129 -7.668,-18.309 L 614.375,282.52 597.059,247.051 c -2.477,-5.649 -5.754,-13.063 -8.457,-18.492 -2.879,-5.61 -6.118,-11.332 -7.485,-17.375 -0.394,-1.692 -1.332,-5.215 -2.633,-6.297 -1.722,-1.438 -6.078,-1.258 -8.308,-1.078 0.035,-1.473 0.289,-4.063 1.258,-5.18 0.578,-0.684 2.629,-1.547 3.492,-1.871 l 13.605,-6.332 c 2.52,-1.078 6.875,-2.91 8.496,-5.11 1.907,-2.695 1.473,-7.265 1.399,-10.574 l 27.574,0.61 17.711,3.382 c 3.309,0.614 8.531,1.657 11.664,2.879 4.281,1.727 9.176,4.93 13.281,7.16 l 14.543,8.528 c 3.309,2.117 8.281,4.926 9.828,8.558 2.301,5.364 -0.394,15.434 2.735,20.504 0.539,0.828 1.293,2.125 1.656,3.024 1.004,2.519 -0.43,6.691 1.906,8.886 16.668,15.395 26.313,22.625 25.809,23.059 l -22.785,21.008" /><path
         id="path34"
         style="fill:#ffffff;fill-opacity:1;fill-rule:nonzero;stroke:none"
         d="m 571.492,325.84 c -0.355,2.914 -4.316,8.098 -6.008,10.148 l -21.847,26.907 c -2.918,3.707 -5.836,8.058 -9.68,10.972 -1.48,1.188 -3.277,2.629 -4.824,3.774 0.211,-2.516 0.426,-5.141 0.609,-7.661 0.5,-6.042 0.539,-14.894 0.5,-21.117 0,-10.793 1.082,-25.215 -0.574,-35.758 -0.504,-3.417 -1.508,-6.941 -2.445,-10.359 l -4.356,-15.539 -6.226,-24.43 -12.887,-53.886 c -0.359,-2.989 0.25,-8.418 -1.191,-11.297 -0.719,-1.477 -2.086,-3.199 -3.165,-4.426 4.895,-1.219 21.024,-6.867 20.586,-6.152 -0.898,1.48 1.047,10.507 1.801,12.304 2.055,4.785 8.211,10.11 10.262,14.969 1.836,4.387 -6.012,4.207 -3.277,10.106 l 12.851,29.933 21.234,48.02 c 2.274,4.754 9.395,17.773 8.637,23.492" /><path
         id="path36"
         style="fill:#ffffff;fill-opacity:1;fill-rule:nonzero;stroke:none"
         d="m 535.25,539.934 16.738,14.461 -39.742,-0.864 -12.449,-21.875 c -4.215,-7.34 -3.277,-16.617 -8.176,-25.652 -1.187,-2.156 -1.476,-6.828 -1.547,-9.242 l 17.891,17.09 27.285,26.082" /><path
         id="path38"
         style="fill:#ffffff;fill-opacity:1;fill-rule:nonzero;stroke:none"
         d="m 599.297,408.52 c 1.152,4.929 2.086,12.734 3.055,17.589 l 2.742,12.805 c 1.722,7.449 4.172,15.867 8.597,22.309 L 621,476.367 c -1.441,-1.117 -3.852,-3.812 -5.254,-4.89 l -23.543,-18.024 c -1.945,-1.656 -3.668,-3.672 -4.859,-5.906 -2.555,-4.961 -1.836,-12.192 -2.875,-17.625 -0.328,-1.797 -1.227,-4.391 -1.875,-6.078 l 15.187,-26.047 c 0.324,3.312 0.832,7.488 1.516,10.723" /></g></g></svg>