<?xml version="1.0" encoding="UTF-8" standalone="no"?>
<svg
   xmlns:dc="http://purl.org/dc/elements/1.1/"
   xmlns:cc="http://creativecommons.org/ns#"
   xmlns:rdf="http://www.w3.org/1999/02/22-rdf-syntax-ns#"
   xmlns:svg="http://www.w3.org/2000/svg"
   xmlns="http://www.w3.org/2000/svg"
   viewBox="0 0 160.41333 140.67999"
   height="140.67999"
   width="160.41333"
   xml:space="preserve"
   id="svg2"
   version="1.1"><metadata
     id="metadata8"><rdf:RDF><cc:Work
         rdf:about=""><dc:format>image/svg+xml</dc:format><dc:type
           rdf:resource="http://purl.org/dc/dcmitype/StillImage" /></cc:Work></rdf:RDF></metadata><defs
     id="defs6" /><g
     transform="matrix(1.3333333,0,0,-1.3333333,0,140.68)"
     id="g10"><g
       transform="scale(0.1)"
       id="g12"><path
         id="path14"
         style="fill:#ee2c30;fill-opacity:1;fill-rule:nonzero;stroke:none"
         d="M 49.6875,0 H 1153.45 v 0 c 38.19,0 62.06,41.3281 42.98,74.4102 v 0 L 644.516,1030.29 v 0 c -19.082,33.07 -66.817,33.07 -85.895,0 v 0 L 6.70313,74.4102 v 0 C -12.3711,41.3281 11.4922,0 49.6875,0 v 0" /><path
         id="path16"
         style="fill:#ffffff;fill-opacity:1;fill-rule:nonzero;stroke:none"
         d="M 135.586,99.2148 H 1067.55 L 601.566,906.266 135.586,99.2148" /><path
         id="path18"
         style="fill:#231f20;fill-opacity:1;fill-rule:nonzero;stroke:none"
         d="m 567.836,241.09 v -56.66 l -32.039,0.175 -0.184,59.403 h -9.465 l -0.355,43.703 v 0 c -1.66,2.269 -3.277,4.684 -4.578,7.094 -2.555,4.316 -3.813,9.32 -3.813,14.508 -0.179,7.269 2.192,14.507 7.27,19.871 2.918,3.273 6.734,5.722 10.762,7.273 1.8,0.863 4,1.547 5.836,2.047 v 0 l 4.898,9.508 -50.797,0.359 0.356,-42.336 -20.954,0.18 0.184,43.348 -9.109,-0.512 0.539,31.433 v 0 c -1.258,1.219 -2.914,3.129 -3.813,4.496 -2.199,3.637 -2.199,8.825 -1.441,12.786 0.543,3.812 2.34,7.269 4.898,10.183 2.192,2.594 4.93,4.684 8.028,5.903 1.257,0.507 2.914,0.863 4.171,1.191 v 0 l 5.833,9 h -37.149 l -0.18,-28.871 h -15.125 l -0.179,29.051 -4.93,-0.18 0.18,22.285 v 0 c -1.078,1.039 -2.34,2.77 -2.879,4.141 -1.656,3.097 -1.117,7.269 0,10.687 0.539,2.09 1.621,4.684 3.457,6.231 1.621,1.222 4.715,2.265 6.73,2.769 v 0 l 25.852,41.797 v 0 c 1.293,1.91 2.914,4 5.109,4.684 1.797,0.683 5.289,0.683 7.094,0.683 v 0 l 91.258,-0.179 v 0 c 2.195,0 6.191,-0.149 7.992,-1.188 1.836,-1.047 3.098,-3.637 3.852,-5.367 v 0 l 13.464,-30.422 72.864,-0.32 v 0 c 3.453,0 7.09,-0.864 10.007,-2.594 2.915,-1.727 5.293,-4.32 6.735,-7.449 v 0 l 16.957,-38.34 h 101.625 v 0 c 4.176,0 8.176,-1.367 11.625,-3.637 3.098,-1.871 5.836,-4.644 7.308,-7.922 v 0 l 38.415,-84.996 v 0 c 2.914,-0.722 5.832,-1.406 8.57,-2.09 4.535,-1.367 8.562,-3.812 11.84,-7.089 4,-3.778 6.375,-9.145 7.812,-14.504 1.301,-5.008 1.477,-10.192 0.363,-15.196 -0.722,-2.593 -1.8,-5.183 -3.457,-7.453 -1.261,-1.367 -3.097,-2.914 -4.355,-4.281 v 0 l 0.18,-44.246 -13.106,0.18 0.18,-55.622 -32.973,-0.359 v 56.305 l -93.242,-0.324 v 0 c -7.664,-10.551 -20.41,-16.774 -33.879,-16.594 -13.5,0.355 -25.699,6.91 -32.973,17.637 v 0 l -101.269,-0.18 v 0" /><path
         id="path20"
         style="fill:#ffffff;fill-opacity:1;fill-rule:nonzero;stroke:none"
         d="m 510.488,469.652 -64.652,-0.179 20.227,35.242 v 0 c 0.902,1.73 2.339,3.457 3.996,4.324 1.257,0.684 2.918,0.863 4.179,0.863 h 84.348 v 0 c 1.801,0 3.637,-0.363 5.258,-1.226 1.652,-0.863 2.914,-2.051 3.453,-3.598 v 0 l 9.683,-23.687 -48.273,0.355 v 0 c -1.656,0 -5.477,0 -7.672,-0.355 -2.699,-0.684 -5.254,-2.051 -6.555,-4.5 v 0 l -3.812,-7.059 v -0.18 h -0.18 v 0" /><path
         id="path22"
         style="fill:#ffffff;fill-opacity:1;fill-rule:nonzero;stroke:none"
         d="m 585.191,414.863 h -90.328 l 27.504,49.571 v 0 c 0.899,1.546 2.199,3.457 4,4.32 1.477,0.867 4.207,0.867 5.828,0.867 v 0 l 120.926,0.18 v 0 c 2.914,0 6.192,-0.684 8.567,-2.414 1.476,-1.223 2.554,-3.133 3.277,-4.68 v 0 l 13.105,-29.195 h -67.175 v 0 c -2.735,0.179 -6.95,0 -9.649,-0.864 -3.492,-1.187 -6.406,-3.457 -8.57,-6.191 -2.735,-3.641 -5.293,-7.633 -7.485,-11.594 v 0" /><path
         id="path24"
         style="fill:#ffffff;fill-opacity:1;fill-rule:nonzero;stroke:none"
         d="m 829.77,336.637 -266.649,0.355 40.43,72.035 v 0 c 1.472,2.594 3.812,5.008 6.73,6.2 2.555,1.218 5.832,1.398 8.567,1.398 v 0 l 168.3,-0.543 v 0 c 3.094,0 7.27,-0.5 9.286,-2.586 0.906,-0.863 2.742,-5.152 3.277,-6.371 v 0 l 30.059,-70.488 v 0" /></g></g></svg>