<?xml version="1.0" encoding="UTF-8" standalone="no"?>
<svg
   xmlns:dc="http://purl.org/dc/elements/1.1/"
   xmlns:cc="http://creativecommons.org/ns#"
   xmlns:rdf="http://www.w3.org/1999/02/22-rdf-syntax-ns#"
   xmlns:svg="http://www.w3.org/2000/svg"
   xmlns="http://www.w3.org/2000/svg"
   viewBox="0 0 113.4 113.4"
   height="113.4"
   width="113.4"
   xml:space="preserve"
   id="svg2"
   version="1.1"><metadata
     id="metadata8"><rdf:RDF><cc:Work
         rdf:about=""><dc:format>image/svg+xml</dc:format><dc:type
           rdf:resource="http://purl.org/dc/dcmitype/StillImage" /></cc:Work></rdf:RDF></metadata><defs
     id="defs6" /><g
     transform="matrix(1.3333333,0,0,-1.3333333,0,113.4)"
     id="g10"><g
       transform="scale(0.1)"
       id="g12"><path
         id="path14"
         style="fill:#ee2c30;fill-opacity:1;fill-rule:nonzero;stroke:none"
         d="m 726.086,726.098 c 165.859,-166.063 165.859,-435.629 0,-601.703 -166.066,-165.8481 -435.633,-165.8481 -601.699,0 -165.8518,166.074 -165.8518,435.64 0,601.703 166.066,165.855 435.633,165.855 601.699,0 v 0" /><path
         id="path16"
         style="fill:#ffffff;fill-opacity:1;fill-rule:nonzero;stroke:none"
         d="m 210.93,689.707 478.73,-478.73 v 0 c 21.199,26.027 38.125,54.757 50.828,86.113 16.594,41.008 24.953,83.66 24.981,128.16 -0.028,44.496 -8.387,87.191 -24.981,128.16 -17.136,42.371 -42.011,79.848 -74.668,112.5 -32.605,32.617 -70.086,57.488 -112.461,74.66 -40.964,16.598 -83.66,24.914 -128.121,24.914 -44.535,0 -87.191,-8.316 -128.195,-24.914 -31.359,-12.742 -60.086,-29.695 -86.113,-50.863 v 0" /><path
         id="path18"
         style="fill:#ffffff;fill-opacity:1;fill-rule:nonzero;stroke:none"
         d="M 639.582,160.832 160.891,639.594 v 0 c -21.243,-26.102 -38.2,-54.793 -50.907,-86.153 -16.5934,-41 -24.9098,-83.66 -24.9098,-128.191 0,-44.5 8.3164,-87.152 24.9098,-128.16 17.137,-42.332 42.012,-79.813 74.664,-112.461 32.618,-32.617 70.129,-57.527 112.465,-74.668 41.004,-16.5938 83.664,-24.9102 128.196,-24.9493 44.457,0.0391 87.152,8.3555 128.129,24.9493 31.386,12.707 60.078,29.668 86.144,50.871 v 0" /><path
         id="path20"
         style="fill:#231f20;fill-opacity:1;fill-rule:nonzero;stroke:none"
         d="m 588.32,212.09 -97.703,97.703 V 163.137 h 97.703 v 48.953" /><path
         id="path22"
         style="fill:#231f20;fill-opacity:1;fill-rule:nonzero;stroke:none"
         d="m 399.352,501.281 h 20.488 v 0 c 19.476,0 38.59,-7.668 51.801,-22.105 12.168,-12.852 18.976,-31.211 18.976,-49.067 V 410.02 L 588.32,312.316 V 432.09 c -0.183,37.078 -12.5,72.933 -35.39,102.203 -32.149,41.004 -80.926,63.145 -133.09,62.426 v 0 l -100.192,0.355 v 62.067 L 271.984,628.648 399.352,501.281 v 0" /><path
         id="path24"
         style="fill:#231f20;fill-opacity:1;fill-rule:nonzero;stroke:none"
         d="M 319.434,480.977 210.82,589.59 163.121,559.063 319.434,446.598 v 34.379" /></g></g></svg>