<?xml version="1.0" encoding="UTF-8" standalone="no"?>
<svg
   xmlns:dc="http://purl.org/dc/elements/1.1/"
   xmlns:cc="http://creativecommons.org/ns#"
   xmlns:rdf="http://www.w3.org/1999/02/22-rdf-syntax-ns#"
   xmlns:svg="http://www.w3.org/2000/svg"
   xmlns="http://www.w3.org/2000/svg"
   viewBox="0 0 113.4 113.4"
   height="113.4"
   width="113.4"
   xml:space="preserve"
   id="svg2"
   version="1.1"><metadata
     id="metadata8"><rdf:RDF><cc:Work
         rdf:about=""><dc:format>image/svg+xml</dc:format><dc:type
           rdf:resource="http://purl.org/dc/dcmitype/StillImage" /></cc:Work></rdf:RDF></metadata><defs
     id="defs6" /><g
     transform="matrix(1.3333333,0,0,-1.3333333,0,113.4)"
     id="g10"><g
       transform="scale(0.1)"
       id="g12"><path
         id="path14"
         style="fill:#ee2c30;fill-opacity:1;fill-rule:nonzero;stroke:none"
         d="m 726.086,726.094 c 165.855,-166.071 165.855,-435.633 0,-601.699 -166.066,-165.8598 -435.637,-165.8598 -601.699,0 -165.8518,166.066 -165.8518,435.628 0,601.699 166.062,165.847 435.633,165.847 601.699,0 v 0" /><path
         id="path16"
         style="fill:#ffffff;fill-opacity:1;fill-rule:nonzero;stroke:none"
         d="M 210.93,689.695 689.656,210.969 v 0 c 21.203,26.023 38.125,54.754 50.832,86.113 16.594,41.004 24.95,83.66 24.981,128.156 -0.031,44.496 -8.387,87.196 -24.981,128.16 -17.14,42.372 -42.011,79.848 -74.668,112.5 -32.605,32.618 -70.09,57.497 -112.461,74.668 -40.968,16.594 -83.664,24.911 -128.125,24.911 -44.531,0 -87.187,-8.317 -128.191,-24.911 -31.359,-12.746 -60.09,-29.703 -86.113,-50.871 v 0" /><path
         id="path18"
         style="fill:#ffffff;fill-opacity:1;fill-rule:nonzero;stroke:none"
         d="M 639.582,160.82 160.887,639.586 v 0 C 139.648,613.484 122.695,584.797 109.98,553.438 93.3867,512.434 85.0664,469.77 85.0664,425.238 c 0,-44.496 8.3203,-87.152 24.9136,-128.156 17.137,-42.336 42.012,-79.816 74.668,-112.473 32.618,-32.605 70.125,-57.519 112.461,-74.656 C 338.113,93.3594 380.781,85.0391 425.313,85 c 44.453,0.0391 87.148,8.3594 128.117,24.953 31.394,12.703 60.086,29.656 86.152,50.867 v 0" /><path
         id="path20"
         style="fill:#231f20;fill-opacity:1;fill-rule:nonzero;stroke:none"
         d="m 602.461,197.898 -93.098,93.098 0.039,-93.098 h 93.059" /><path
         id="path22"
         style="fill:#231f20;fill-opacity:1;fill-rule:nonzero;stroke:none"
         d="m 359.719,540.875 c 15.691,12.637 35.672,20.227 57.449,20.336 50.73,0.219 92.02,-40.645 92.168,-91.113 v 0 l 0.027,-78.875 93.067,-93.059 -0.039,174.02 v 0 c -1.297,100.043 -82.801,180.722 -183.348,181.66 -48.137,0.429 -92.117,-17.426 -125.281,-47.016 v 0 l 65.957,-65.953 v 0" /><path
         id="path24"
         style="fill:#231f20;fill-opacity:1;fill-rule:nonzero;stroke:none"
         d="m 325.801,474.559 -75.235,75.242 v 0 c -11.847,-24.371 -18.468,-51.77 -18.359,-80.715 v 0 l 0.215,-141.008 -41.113,9.617 v 0 c -1.985,0.715 -4.211,0.215 -5.579,-1.308 -1.445,-1.543 -1.726,-3.848 -0.718,-5.723 v 0 l 89.812,-131.035 v 0 c 0.938,-1.289 2.449,-2.156 4.031,-2.156 1.594,0 3.176,0.711 4.114,2.007 v 0 l 89.453,130.754 v 0 c 1.297,1.661 1.445,4.032 0.215,5.723 -1.153,1.66 -3.203,2.453 -5.149,2.02 v 0 l -42.156,-9.403 0.359,140.735 v 0 c 0,1.761 0.039,3.488 0.11,5.25 v 0" /></g></g></svg>