<?xml version="1.0" encoding="UTF-8" standalone="no"?>
<svg
   xmlns:dc="http://purl.org/dc/elements/1.1/"
   xmlns:cc="http://creativecommons.org/ns#"
   xmlns:rdf="http://www.w3.org/1999/02/22-rdf-syntax-ns#"
   xmlns:svg="http://www.w3.org/2000/svg"
   xmlns="http://www.w3.org/2000/svg"
   viewBox="0 0 113.38667 113.38667"
   height="113.38667"
   width="113.38667"
   xml:space="preserve"
   id="svg2"
   version="1.1"><metadata
     id="metadata8"><rdf:RDF><cc:Work
         rdf:about=""><dc:format>image/svg+xml</dc:format><dc:type
           rdf:resource="http://purl.org/dc/dcmitype/StillImage" /></cc:Work></rdf:RDF></metadata><defs
     id="defs6" /><g
     transform="matrix(1.3333333,0,0,-1.3333333,0,113.38667)"
     id="g10"><g
       transform="scale(0.1)"
       id="g12"><path
         id="path14"
         style="fill:#ee2c30;fill-opacity:1;fill-rule:nonzero;stroke:none"
         d="m 850.391,425.195 c 0,234.828 -190.36,425.196 -425.192,425.196 C 190.371,850.391 0,660.023 0,425.195 0,190.371 190.371,0 425.199,0 660.031,0 850.391,190.371 850.391,425.195 v 0" /><path
         id="path16"
         style="fill:#ffffff;fill-opacity:1;fill-rule:nonzero;stroke:none"
         d="m 708.664,425.195 c 0,156.563 -126.906,283.461 -283.465,283.461 -156.566,0 -283.465,-126.898 -283.465,-283.461 0,-156.562 126.899,-283.465 283.465,-283.465 156.559,0 283.465,126.903 283.465,283.465 v 0" /><path
         id="path18"
         style="fill:#231f20;fill-opacity:1;fill-rule:nonzero;stroke:none"
         d="m 467.48,411.34 c -4.316,5.316 -6.867,12.062 -6.867,19.426 0,11.992 6.828,22.375 16.848,27.472 v 0 l 22.336,39.969 v 0 c 2.625,4.668 7.578,7.793 13.25,7.793 h 92.793 v 0 c 5.676,0 10.664,-3.125 13.254,-7.793 v 0 l 22.371,-39.969 v 0 c 9.98,-5.097 16.848,-15.48 16.848,-27.472 0,-7.364 -2.59,-14.11 -6.895,-19.426 v 0 l -2.055,-16.445 h -3.336 v -26.434 h 20.868 v 0 c 3.878,0 7.031,-3.156 7.031,-7.074 0,-3.875 -3.153,-7.039 -7.031,-7.039 H 452.004 v 0 c -3.879,0 -7.043,3.164 -7.043,7.039 0,3.918 3.164,7.074 7.043,7.074 h 20.859 v 26.434 h -3.3 l -2.083,16.445 v 0" /><path
         id="path20"
         style="fill:#ee2c30;fill-opacity:1;fill-rule:nonzero;stroke:none"
         d="m 198.988,411.34 c -4.304,5.316 -6.859,12.062 -6.859,19.426 0,11.992 6.828,22.375 16.848,27.472 v 0 l 22.332,39.969 v 0 c 2.621,4.668 7.578,7.793 13.254,7.793 h 92.792 v 0 c 5.672,0 10.668,-3.125 13.25,-7.793 v 0 l 22.375,-39.969 v 0 c 9.985,-5.097 16.84,-15.48 16.84,-27.472 0,-7.364 -2.582,-14.11 -6.894,-19.426 v 0 l -2.047,-16.445 h -3.34 v -26.434 h 20.863 v 0 c 3.879,0 7.043,-3.156 7.043,-7.074 0,-3.875 -3.164,-7.039 -7.043,-7.039 h -214.89 v 0 c -3.879,0 -7.035,3.164 -7.035,7.039 0,3.918 3.156,7.074 7.035,7.074 h 20.863 v 26.434 h -3.301 l -2.086,16.445 v 0" /><path
         id="path22"
         style="fill:#ffffff;fill-opacity:1;fill-rule:nonzero;stroke:none"
         d="m 622.422,459.285 c -20.359,1.043 -41.551,1.692 -62.988,1.867 -21.446,-0.175 -42.625,-0.824 -62.989,-1.867 v 0 l 14.758,26.399 v 0 c 1.649,2.945 4.813,4.957 8.438,4.957 h 79.578 v 0 c 3.625,0 6.789,-2.012 8.437,-4.957 v 0 l 14.766,-26.399 v 0" /><path
         id="path24"
         style="fill:#ffffff;fill-opacity:1;fill-rule:nonzero;stroke:none"
         d="m 493.738,394.887 h 46.653 v 0 c 4.453,-5.602 11.308,-9.188 19.035,-9.188 7.722,0 14.578,3.586 19.031,9.188 h 46.652 v -26.43 H 493.738 v 26.43" /><path
         id="path26"
         style="fill:#ffffff;fill-opacity:1;fill-rule:nonzero;stroke:none"
         d="m 353.93,459.285 c -20.36,1.043 -41.547,1.692 -62.989,1.867 -21.437,-0.175 -42.625,-0.824 -62.988,-1.867 v 0 l 14.762,26.399 v 0 c 1.648,2.945 4.808,4.957 8.437,4.957 h 79.582 v 0 c 3.625,0 6.786,-2.012 8.438,-4.957 v 0 l 14.758,-26.399 v 0" /><path
         id="path28"
         style="fill:#ffffff;fill-opacity:1;fill-rule:nonzero;stroke:none"
         d="m 225.254,394.887 h 46.652 v 0 c 4.453,-5.602 11.309,-9.188 19.028,-9.188 7.722,0 14.578,3.586 19.031,9.188 h 46.652 v -26.43 H 225.254 v 26.43" /></g></g></svg>