<?xml version="1.0" encoding="UTF-8" standalone="no"?>
<svg
   xmlns:dc="http://purl.org/dc/elements/1.1/"
   xmlns:cc="http://creativecommons.org/ns#"
   xmlns:rdf="http://www.w3.org/1999/02/22-rdf-syntax-ns#"
   xmlns:svg="http://www.w3.org/2000/svg"
   xmlns="http://www.w3.org/2000/svg"
   viewBox="0 0 113.38667 113.38667"
   height="113.38667"
   width="113.38667"
   xml:space="preserve"
   id="svg2"
   version="1.1"><metadata
     id="metadata8"><rdf:RDF><cc:Work
         rdf:about=""><dc:format>image/svg+xml</dc:format><dc:type
           rdf:resource="http://purl.org/dc/dcmitype/StillImage" /></cc:Work></rdf:RDF></metadata><defs
     id="defs6" /><g
     transform="matrix(1.3333333,0,0,-1.3333333,0,113.38667)"
     id="g10"><g
       transform="scale(0.1)"
       id="g12"><path
         id="path14"
         style="fill:#ee2c30;fill-opacity:1;fill-rule:nonzero;stroke:none"
         d="m 850.391,425.195 c 0,234.828 -190.36,425.196 -425.192,425.196 C 190.371,850.391 0,660.023 0,425.195 0,190.371 190.371,0 425.199,0 660.031,0 850.391,190.371 850.391,425.195 v 0" /><path
         id="path16"
         style="fill:#ffffff;fill-opacity:1;fill-rule:nonzero;stroke:none"
         d="m 708.664,425.195 c 0,156.563 -126.906,283.461 -283.465,283.461 -156.566,0 -283.465,-126.898 -283.465,-283.461 0,-156.562 126.899,-283.465 283.465,-283.465 156.559,0 283.465,126.903 283.465,283.465 v 0" /><path
         id="path18"
         style="fill:#231f20;fill-opacity:1;fill-rule:nonzero;stroke:none"
         d="m 467.48,361.73 c -4.316,5.317 -6.867,12.063 -6.867,19.426 0,11.996 6.828,22.375 16.848,27.473 v 0 l 22.336,39.969 v 0 c 2.625,4.668 7.578,7.793 13.25,7.793 h 92.793 v 0 c 5.676,0 10.664,-3.125 13.254,-7.793 v 0 l 22.371,-39.969 v 0 c 9.98,-5.098 16.848,-15.477 16.848,-27.473 0,-7.363 -2.59,-14.109 -6.895,-19.426 v 0 l -2.055,-16.449 h -3.336 v -26.433 h 20.868 v 0 c 3.878,0 7.031,-3.153 7.031,-7.071 0,-3.875 -3.153,-7.039 -7.031,-7.039 H 452.004 v 0 c -3.879,0 -7.043,3.164 -7.043,7.039 0,3.918 3.164,7.071 7.043,7.071 h 20.859 v 26.433 h -3.3 l -2.083,16.449 v 0" /><path
         id="path20"
         style="fill:#ee2c30;fill-opacity:1;fill-rule:nonzero;stroke:none"
         d="m 308.273,304.738 h -95.187 v 0 c -3.992,0 -7.27,3.282 -7.27,7.274 0,4.035 3.278,7.304 7.27,7.304 h 4.719 v 33.664 h -6.629 v 0 c -3.094,0 -5.649,2.516 -5.649,5.653 v 191.305 c 0,9.394 7.633,16.992 16.993,16.992 h 171.503 v 0 c 9.395,0 17.028,-7.598 17.028,-16.992 V 358.633 c 0,-3.137 -2.555,-5.653 -5.688,-5.653 h -6.59 v -33.664 h 4.68 v 0 c 4.031,0 7.309,-3.269 7.309,-7.304 0,-3.992 -3.278,-7.274 -7.309,-7.274 h -95.18 v 0" /><path
         id="path22"
         style="fill:#ffffff;fill-opacity:1;fill-rule:nonzero;stroke:none"
         d="m 622.422,409.68 c -20.359,1.043 -41.551,1.687 -62.988,1.867 -21.446,-0.18 -42.625,-0.824 -62.989,-1.867 v 0 l 14.758,26.394 v 0 c 1.649,2.946 4.813,4.957 8.438,4.957 h 79.578 v 0 c 3.625,0 6.789,-2.011 8.437,-4.957 v 0 l 14.766,-26.394 v 0" /><path
         id="path24"
         style="fill:#ffffff;fill-opacity:1;fill-rule:nonzero;stroke:none"
         d="m 493.738,345.281 h 46.653 v 0 c 4.453,-5.601 11.308,-9.199 19.035,-9.199 7.722,0 14.578,3.598 19.031,9.199 h 46.652 V 318.848 H 493.738 v 26.433" /><path
         id="path26"
         style="fill:#ffffff;fill-opacity:1;fill-rule:nonzero;stroke:none"
         d="M 256.574,319.316 H 359.965 V 352.98 H 332.32 v 0 c -4,-9.359 -13.254,-15.949 -24.047,-16.054 -10.8,0.105 -20.054,6.695 -24.05,16.054 h -27.649 v -33.664" /></g></g></svg>