<?xml version="1.0" encoding="UTF-8" standalone="no"?>
<svg
   xmlns:dc="http://purl.org/dc/elements/1.1/"
   xmlns:cc="http://creativecommons.org/ns#"
   xmlns:rdf="http://www.w3.org/1999/02/22-rdf-syntax-ns#"
   xmlns:svg="http://www.w3.org/2000/svg"
   xmlns="http://www.w3.org/2000/svg"
   viewBox="0 0 113.16 112.68"
   height="112.68"
   width="113.16"
   xml:space="preserve"
   id="svg2"
   version="1.1"><metadata
     id="metadata8"><rdf:RDF><cc:Work
         rdf:about=""><dc:format>image/svg+xml</dc:format><dc:type
           rdf:resource="http://purl.org/dc/dcmitype/StillImage" /></cc:Work></rdf:RDF></metadata><defs
     id="defs6" /><g
     transform="matrix(1.3333333,0,0,-1.3333333,0,112.68)"
     id="g10"><g
       transform="scale(0.1)"
       id="g12"><path
         id="path14"
         style="fill:#ee2c30;fill-opacity:1;fill-rule:nonzero;stroke:none"
         d="M 135.129,109.16 C 197.938,51.0234 274.082,14.2656 358.613,0.984375 443.172,-12.1172 526.805,-0.273438 604.383,36.1523 681.922,72.375 744.57,128.895 788.703,202.297 832.695,275.664 853.184,357.461 848.68,443.066 833.055,742.082 521.086,931.727 248.203,807.746 -28.3906,682.176 -87.8242,315.477 135.129,109.16 v 0" /><path
         id="path16"
         style="fill:#ffffff;fill-opacity:1;fill-rule:nonzero;stroke:none"
         d="M 370.313,142.391 C 566.152,105.246 738.086,276.563 701.297,472.508 663.777,672.676 433.309,768.867 264.543,654.746 217.488,622.988 182.176,579.582 160.793,527.051 139.441,474.453 134.402,418.84 145.887,363.254 c 11.301,-55.441 38.047,-104.621 78.625,-144.438 40.39,-39.851 89.961,-65.839 145.801,-76.425 v 0" /><path
         id="path18"
         style="fill:#231f20;fill-opacity:1;fill-rule:nonzero;stroke:none"
         d="m 258.242,306.301 c 17.754,0 32.004,-14.399 31.719,-32.113 -0.363,-17.059 -14.512,-30.418 -31.535,-30.458 -17.071,-0.031 -31.356,13.399 -31.649,30.528 -0.359,17.676 13.938,32.043 31.465,32.043 v 0" /><path
         id="path20"
         style="fill:#231f20;fill-opacity:1;fill-rule:nonzero;stroke:none"
         d="m 666.125,275.41 -73.52,0.106 v 0 c 0.04,0.507 0.04,1.234 0.079,1.73 0.285,20.703 -17.782,36.504 -38.739,36.504 -20.586,0 -37.578,-16.094 -38.625,-36.504 0,-0.605 -0.074,-1.476 -0.074,-2.051 h -18.644 l 0.39,4.539 v 0 c -0.39,0.11 -0.929,0.356 -1.289,0.539 -1.23,0.645 -2.051,2.012 -2.051,3.528 v 0 l 0.106,3.855 v 0 c 0,1.008 0.215,2.266 1.047,3.098 0.82,0.75 2.078,0.965 3.203,1.109 v 0 l 3.34,0.071 4.5,43.605 v 0 c 0.215,2.012 1.41,3.992 2.843,5.32 1.407,1.368 3.606,2.704 5.442,2.704 v 0 l 5.437,0.136 13.535,29.094 v 0 c 1.477,3.242 4.141,5.937 7.196,7.812 3.39,2.012 8.578,3.711 12.461,3.711 v 0 l 44.172,0.137 -0.254,-79.308 84.89,-0.321 v 0 c -4.578,-10.039 -9.793,-20.019 -15.445,-29.414 v 0" /><path
         id="path22"
         style="fill:#231f20;fill-opacity:1;fill-rule:nonzero;stroke:none"
         d="m 684.414,311.27 -82.656,0.039 0.578,109.257 103.894,0.176 v 0 c 0,-0.496 0.028,-1.113 0.028,-1.621 0,-38.125 -7.813,-74.551 -21.844,-107.851 v 0" /><path
         id="path24"
         style="fill:#231f20;fill-opacity:1;fill-rule:nonzero;stroke:none"
         d="M 140.059,420.848 H 338.484 V 311.23 h -49.746 v 0 c 0.539,-0.578 1.731,-2.265 2.227,-2.882 0.109,-0.067 0.293,-0.254 0.363,-0.387 0.36,-0.363 0.86,-0.941 1.152,-1.262 0.43,-0.574 0.899,-1.152 1.297,-1.769 0.18,-0.321 0.434,-0.828 0.606,-1.114 h 39.601 l 0.293,-11.121 -29.453,-10.984 v 0 c 0.078,-0.434 0.223,-1.117 0.293,-1.582 0.145,-0.793 0.215,-1.582 0.281,-2.375 0,-0.656 0,-1.336 -0.066,-1.984 -0.039,-0.469 -0.109,-1.075 -0.215,-1.512 v 0 l -7.664,0.078 v 0 c -0.078,0.43 -0.109,0.965 -0.109,1.394 -1.621,20.891 -17.715,38.34 -38.594,38.567 -20.742,0.176 -37.187,-16.817 -39.168,-37.547 -0.07,-0.687 -0.039,-2.168 -0.07,-2.816 h -38.887 v 0 c -5.977,9.906 -11.23,20.156 -15.949,30.742 v 0 l 56.957,-0.899 v 0 c 0.144,0.219 0.465,0.578 0.652,0.793 v 0 l 1.504,1.809 v 0 c 0.508,0.601 1.152,1.328 1.727,1.902 0.324,0.391 2.922,2.59 3.203,2.949 h -66.922 v 0 c -6.836,16.602 -11.914,33.915 -15.586,51.875 -3.953,19.297 -6.121,38.594 -6.152,57.743 v 0" /><path
         id="path26"
         style="fill:#231f20;fill-opacity:1;fill-rule:nonzero;stroke:none"
         d="m 554.023,307.273 c 17.489,0 31.571,-14.003 31.786,-31.316 0.254,-17.609 -13.895,-32.258 -31.676,-32.332 -17.785,-0.039 -32.004,14.578 -31.867,32.215 0.187,17.351 14.257,31.433 31.757,31.433 v 0" /><path
         id="path28"
         style="fill:#231f20;fill-opacity:1;fill-rule:nonzero;stroke:none"
         d="m 295.793,487.852 c 2.945,-1.262 6.336,-2.559 10.371,-3.457 3.844,-1.086 8.172,-1.622 12.664,-1.622 11.418,0 20.235,3.993 26.426,11.848 6.164,8.024 9.258,18.824 9.258,32.535 v 0 c 0,6.192 -0.762,11.887 -2.305,16.633 -1.699,4.93 -3.887,8.965 -6.523,12.246 -2.59,3.27 -5.86,5.645 -9.395,7.305 -3.699,1.66 -7.586,2.558 -11.594,2.558 -2.48,0 -4.781,-0.183 -6.797,-0.546 -2.168,-0.176 -4.031,-0.715 -5.398,-1.262 v 32.148 h 36.895 v 15.559 h -52.051 v -65.086 c 2.625,0.894 5.402,1.836 8.203,2.73 2.773,0.942 6.016,1.301 9.582,1.301 7.41,0 12.957,-2.371 16.844,-6.953 3.711,-4.57 5.547,-10.801 5.547,-18.281 0,-7.852 -1.836,-14.258 -5.723,-19.192 -3.859,-5.117 -9.113,-7.664 -15.734,-7.664 -3.895,0 -7.422,0.711 -10.692,2.012 -3.242,1.262 -6.16,2.734 -8.644,4.356 v 0 l -0.934,-17.168 v 0" /><path
         id="path30"
         style="fill:#231f20;fill-opacity:1;fill-rule:nonzero;stroke:none"
         d="m 371.063,501.387 c 2.64,-5.871 6.019,-10.442 10.195,-13.719 4.172,-3.273 9.101,-4.895 15.16,-4.895 6.004,0 11.121,1.622 15.293,5.079 4.137,3.273 7.555,7.839 10.191,13.711 2.629,5.828 4.465,12.781 5.539,20.664 1.082,7.851 1.7,16.453 1.7,25.781 v 0 c 0,9.316 -0.618,17.89 -1.7,25.957 -1.074,7.84 -2.91,14.793 -5.539,20.625 -2.636,5.871 -6.054,10.437 -10.191,13.894 -4.172,3.313 -9.289,4.973 -15.293,4.973 -6.059,0 -11.125,-1.66 -15.305,-4.973 -4.179,-3.457 -7.41,-8.023 -10.05,-13.894 -2.625,-5.832 -4.493,-12.785 -5.575,-20.625 -1.086,-8.067 -1.691,-16.641 -1.691,-25.957 0,-9.328 0.605,-17.93 1.691,-25.781 1.082,-8.067 2.95,-15.012 5.575,-20.84 v 0" /><path
         id="path32"
         style="fill:#231f20;fill-opacity:1;fill-rule:nonzero;stroke:none"
         d="m 466.797,484.211 h 16.055 v 57.379 c 0,6.957 1.257,12.25 3.566,16.094 2.301,3.82 5.855,5.656 10.359,5.656 7.422,0 11.121,-5.832 11.121,-17.356 v -61.773 h 16.067 v 57.379 c 0,6.957 1.219,12.25 3.555,16.094 2.304,3.82 5.867,5.656 10.332,5.656 7.421,0 11.132,-5.832 11.132,-17.356 v -61.773 h 16.055 v 61.414 c 0,10.945 -1.836,19.375 -5.547,25.02 -3.847,5.695 -9.578,8.605 -17.316,8.605 -5.078,0 -9.254,-1.477 -12.488,-4.387 -3.243,-3.097 -5.723,-6.593 -7.747,-10.41 -0.75,1.805 -1.687,3.641 -2.769,5.477 -1.078,1.652 -2.484,3.273 -4.035,4.746 -1.543,1.301 -3.379,2.383 -5.403,3.285 -2.011,0.934 -4.461,1.289 -7.089,1.289 -4.969,0 -8.965,-1.477 -12.207,-4.387 -3.231,-3.097 -5.856,-6.769 -7.586,-11.347 h -0.293 v 0 c 0,0.574 0,1.66 0,3.132 -0.145,1.262 -0.145,2.735 -0.145,4.184 -0.18,1.473 -0.18,2.945 -0.18,4.207 -0.144,1.301 -0.144,2.375 -0.144,2.922 h -15.91 v 0 c 0.148,-2.563 0.324,-5.293 0.468,-8.215 0.149,-2.91 0.149,-6.047 0.149,-9.5 v -76.035" /><path
         id="path34"
         style="fill:#ffffff;fill-opacity:1;fill-rule:nonzero;stroke:none"
         d="m 258.641,288.262 c 7.375,-0.11 12.961,-6.582 12.531,-14.004 -0.293,-6.731 -5.84,-12.024 -12.531,-12.168 -6.914,-0.07 -12.715,5.144 -13.172,11.992 -0.547,7.734 5.469,14.219 13.172,14.18 v 0" /><path
         id="path36"
         style="fill:#ffffff;fill-opacity:1;fill-rule:nonzero;stroke:none"
         d="m 554.023,288.77 c 7.157,-0.071 12.879,-5.832 13.067,-12.891 0.176,-7.266 -5.586,-13.352 -12.93,-13.496 -7.48,-0.149 -13.566,5.898 -13.566,13.32 0.031,7.266 6.086,13.067 13.429,13.067 v 0" /><path
         id="path38"
         style="fill:#ffffff;fill-opacity:1;fill-rule:nonzero;stroke:none"
         d="m 538.105,372.176 9.688,-0.133 -12.996,-28.52 -9.289,0.04 12.597,28.613 v 0" /><path
         id="path40"
         style="fill:#ffffff;fill-opacity:1;fill-rule:nonzero;stroke:none"
         d="m 556.543,372.004 23.437,-0.215 v -28.266 l -36.867,0.149 13.43,28.332 v 0" /><path
         id="path42"
         style="fill:#ffffff;fill-opacity:1;fill-rule:nonzero;stroke:none"
         d="m 383.738,511.063 c -2.343,8.605 -3.562,21.027 -3.562,36.945 0,15.871 1.219,28.332 3.562,37.082 2.309,8.777 6.621,13.172 12.68,13.172 6.148,0 10.504,-4.395 12.809,-12.961 2.308,-8.789 3.566,-21.211 3.566,-37.293 v 0 c 0,-15.918 -1.258,-28.34 -3.566,-36.945 -2.477,-8.778 -6.805,-13.172 -12.809,-13.172 -6.059,0 -10.371,4.394 -12.68,13.172 v 0" /></g></g></svg>