<?xml version="1.0" encoding="UTF-8" standalone="no"?>
<svg
   xmlns:dc="http://purl.org/dc/elements/1.1/"
   xmlns:cc="http://creativecommons.org/ns#"
   xmlns:rdf="http://www.w3.org/1999/02/22-rdf-syntax-ns#"
   xmlns:svg="http://www.w3.org/2000/svg"
   xmlns="http://www.w3.org/2000/svg"
   viewBox="0 0 113.38667 113.38667"
   height="113.38667"
   width="113.38667"
   xml:space="preserve"
   id="svg2"
   version="1.1"><metadata
     id="metadata8"><rdf:RDF><cc:Work
         rdf:about=""><dc:format>image/svg+xml</dc:format><dc:type
           rdf:resource="http://purl.org/dc/dcmitype/StillImage" /></cc:Work></rdf:RDF></metadata><defs
     id="defs6" /><g
     transform="matrix(1.3333333,0,0,-1.3333333,0,113.38667)"
     id="g10"><g
       transform="scale(0.1)"
       id="g12"><path
         id="path14"
         style="fill:#ee2c30;fill-opacity:1;fill-rule:nonzero;stroke:none"
         d="M 425.199,850.391 C 190.371,850.391 0,660.023 0,425.195 0,190.371 190.371,0 425.199,0 c 234.832,0 425.192,190.371 425.192,425.195 0,234.828 -190.36,425.196 -425.192,425.196 v 0" /><path
         id="path16"
         style="fill:#ffffff;fill-opacity:1;fill-rule:nonzero;stroke:none"
         d="m 425.199,708.656 c -156.527,0 -283.465,-126.933 -283.465,-283.461 0,-156.523 126.938,-283.465 283.465,-283.465 156.531,0 283.465,126.942 283.465,283.465 0,156.528 -126.934,283.461 -283.465,283.461 v 0" /><path
         id="path18"
         style="fill:#231f20;fill-opacity:1;fill-rule:nonzero;stroke:none"
         d="m 365.188,581.113 21.203,-34.558 v 0 c -0.938,-0.578 -2.09,-1.262 -2.989,-1.836 -5.043,-3.098 -9.933,-6.555 -14.578,-10.301 -4.972,-4.031 -9.687,-8.496 -14.113,-13.105 -4.359,-4.461 -8.676,-9.465 -12.637,-14.219 -4.32,-5.145 -9.324,-11.52 -12.922,-17.207 -2.882,-4.535 -6.734,-11.985 -9.179,-16.778 v 0 l -1.407,-2.699 v 0 c 1.512,0.074 3.743,0.289 5.258,0.363 6.586,0.286 13.141,-0.214 19.512,-1.515 6.266,-1.332 12.348,-3.457 17.891,-6.516 11.773,-6.586 20.953,-17.461 27.359,-29.375 6.156,-11.449 9.793,-24.16 11.34,-37.117 1.476,-11.879 1.152,-24.336 -0.18,-36.211 -1.367,-11.992 -4.031,-24.988 -9.07,-35.926 -6.16,-13.293 -15.809,-25.058 -28.512,-32.375 -10.91,-6.258 -23.473,-8.957 -36,-8.054 -11.453,0.828 -22.469,4.675 -32.004,11.082 -9.539,6.379 -17.281,15.156 -23.074,25.019 -6.125,10.332 -10.117,22.07 -12.637,33.77 -2.453,11.847 -3.531,23.941 -3.277,36 0.215,13.429 2.156,27 5.074,40.14 2.09,9.469 4.715,18.899 7.957,28.078 3.852,11.016 8.676,21.676 14.145,32.008 6.3,11.949 13.648,23.473 21.57,34.34 7.988,11.016 16.992,21.961 26.855,31.285 8.852,8.461 18.606,15.946 29.086,22.43 1.621,1.043 3.707,2.301 5.329,3.277 v 0" /><path
         id="path20"
         style="fill:#231f20;fill-opacity:1;fill-rule:nonzero;stroke:none"
         d="m 521.133,566.891 c 5.91,0 11.992,-1.188 17.648,-2.914 12.383,-3.707 22.93,-12.493 30.742,-22.754 6.805,-8.961 11.766,-19.731 15.301,-30.422 3.418,-10.258 5.789,-20.953 7.414,-31.641 1.582,-10.98 2.45,-22.43 2.84,-33.555 0.442,-12.812 0.254,-25.703 -0.574,-38.554 -0.859,-12.024 -2.336,-23.977 -4.492,-35.785 -2.453,-13.571 -5.977,-27.289 -11.016,-40.106 -4.543,-11.519 -11.133,-24.012 -20.234,-32.359 -10.188,-9.356 -23.371,-14.836 -37.227,-15.305 -13.027,-0.5 -25.957,3.457 -36.25,11.594 -11.055,8.711 -18.762,23.289 -23.652,36.543 -4.68,12.637 -7.883,26.062 -10.012,39.418 -1.875,11.629 -3.055,24.121 -3.926,35.859 -0.832,11.551 -1.367,24.551 -0.859,36.176 0.5,11.879 2.051,24.23 4.062,35.969 1.836,10.293 4.18,21.164 7.344,31.211 3.391,10.726 8.215,21.742 14.981,30.742 8.066,10.801 19.113,19.691 32.07,23.328 5.012,1.402 10.625,2.555 15.84,2.555 v 0" /><path
         id="path22"
         style="fill:#ffffff;fill-opacity:1;fill-rule:nonzero;stroke:none"
         d="m 328,433.477 c 6.586,0.035 12.922,-2.633 17.961,-6.84 4.215,-3.457 7.059,-9.11 8.82,-14.293 1.875,-5.473 3.063,-12.672 3.852,-18.399 0.722,-5.218 1.476,-11.773 1.547,-17.027 0.074,-5.434 0.074,-12.309 -0.864,-17.641 -2.988,-16.914 -11.699,-36.211 -31.605,-35.164 -17.75,0.926 -25.523,17.594 -29.125,33.043 -1.152,4.895 -2.051,12.024 -2.52,17.028 -0.613,6.589 -0.359,13.14 0.649,19.656 0.973,6.297 2.699,12.527 5.113,18.465 2.121,5.367 5.508,11.664 10.117,15.156 4.602,3.496 10.258,5.941 16.055,6.016 v 0" /><path
         id="path24"
         style="fill:#ffffff;fill-opacity:1;fill-rule:nonzero;stroke:none"
         d="m 521.426,526.137 c 3.203,0.109 6.301,-0.61 9.074,-2.121 2.734,-1.403 4.93,-3.961 6.59,-6.481 2.734,-4.25 4.64,-10.226 5.898,-15.117 2.16,-8.281 3.821,-16.816 5.149,-25.313 1.297,-8.746 2.273,-17.675 2.851,-26.531 0.606,-9.109 0.965,-18.215 0.899,-27.32 -0.039,-10.301 -0.469,-20.594 -1.407,-30.891 -0.898,-10.297 -2.343,-21.023 -4.57,-31.101 -1.555,-6.985 -3.644,-14.114 -6.34,-20.735 -1.406,-3.425 -3.242,-7.058 -5.398,-10.086 -1.438,-2.011 -3.274,-3.957 -5.363,-5.363 -2.274,-1.473 -4.93,-2.375 -7.704,-2.519 -3.242,-0.215 -6.554,0.539 -9.218,2.414 -1.907,1.297 -3.672,3.457 -5,5.437 -2.051,3.098 -3.821,6.555 -5.293,10.039 -2.707,6.516 -4.571,13.977 -5.871,20.852 -1.836,9.82 -3.028,21.668 -3.817,31.566 -0.754,9.793 -1.476,21.098 -1.476,30.887 0,9 0.539,18.144 1.476,27.18 0.899,8.894 2.196,17.855 3.75,26.714 1.434,8.067 3.203,16.524 5.36,24.368 1.406,5.152 3.566,11.269 6.515,15.625 1.727,2.453 3.965,4.933 6.621,6.339 2.196,1.153 4.715,2.016 7.274,2.157 v 0" /></g></g></svg>