<?xml version="1.0" encoding="UTF-8" standalone="no"?>
<svg
   xmlns:dc="http://purl.org/dc/elements/1.1/"
   xmlns:cc="http://creativecommons.org/ns#"
   xmlns:rdf="http://www.w3.org/1999/02/22-rdf-syntax-ns#"
   xmlns:svg="http://www.w3.org/2000/svg"
   xmlns="http://www.w3.org/2000/svg"
   viewBox="0 0 113.38667 113.38667"
   height="113.38667"
   width="113.38667"
   xml:space="preserve"
   id="svg2"
   version="1.1"><metadata
     id="metadata8"><rdf:RDF><cc:Work
         rdf:about=""><dc:format>image/svg+xml</dc:format><dc:type
           rdf:resource="http://purl.org/dc/dcmitype/StillImage" /></cc:Work></rdf:RDF></metadata><defs
     id="defs6" /><g
     transform="matrix(1.3333333,0,0,-1.3333333,0,113.38667)"
     id="g10"><g
       transform="scale(0.1)"
       id="g12"><path
         id="path14"
         style="fill:#ee2c30;fill-opacity:1;fill-rule:nonzero;stroke:none"
         d="m 425.195,850.395 c 234.832,0 425.196,-190.368 425.196,-425.2 C 850.391,190.371 660.027,0 425.195,0 190.367,0 0,190.371 0,425.195 c 0,234.832 190.367,425.2 425.195,425.2 v 0" /><path
         id="path16"
         style="fill:#ffffff;fill-opacity:1;fill-rule:nonzero;stroke:none"
         d="m 425.195,708.664 c 38.504,0 75.274,-7.41 110.293,-22.219 33.899,-14.336 63.946,-34.609 90.149,-60.804 26.199,-26.203 46.472,-56.25 60.808,-90.149 14.805,-35.019 22.215,-71.785 22.215,-110.297 0,-38.507 -7.41,-75.273 -22.215,-110.293 -14.336,-33.894 -34.609,-63.945 -60.808,-90.144 -26.203,-26.203 -56.25,-46.465 -90.149,-60.801 -35.019,-14.816 -71.789,-22.227 -110.293,-22.227 -38.511,0 -75.273,7.411 -110.293,22.227 -33.894,14.336 -63.945,34.598 -90.144,60.801 -26.203,26.199 -46.473,56.25 -60.809,90.144 -14.812,35.02 -22.222,71.786 -22.222,110.293 0,38.512 7.41,75.278 22.222,110.297 14.336,33.899 34.606,63.946 60.809,90.149 26.199,26.195 56.25,46.468 90.144,60.804 35.02,14.809 71.782,22.219 110.293,22.219 v 0" /><path
         id="path18"
         style="fill:#231f20;fill-opacity:1;fill-rule:nonzero;stroke:none"
         d="m 305.02,359.316 v -25.312 l 93.168,3.926 v 0 c 0.398,0.793 0.937,1.945 1.406,2.668 0.828,1.394 1.91,2.656 3.058,3.804 1.153,1.196 2.524,2.348 3.926,3.176 0.899,0.496 2.121,1.152 3.02,1.516 h 31.465 v 0 c 0.832,-0.547 1.835,-1.196 2.628,-1.731 1.368,-0.937 3.028,-2.195 4.18,-3.425 1.008,-1.079 1.981,-2.415 2.734,-3.704 0.403,-0.652 0.938,-1.55 1.297,-2.195 v 0 l 94.145,-4.785 v 26.062 h 7.879 v 32.215 c 0,0.578 0,1.692 0.039,2.309 0.176,2.191 0.937,4.387 2.305,6.148 1.257,1.657 3.054,2.848 5.07,3.457 0.973,0.254 2.051,0.473 3.062,0.473 h 21.203 v 0 c 0.977,0 1.946,-0.148 2.879,-0.363 1.985,-0.43 3.782,-1.473 5.149,-2.914 1.512,-1.657 2.344,-3.926 2.773,-6.121 0.11,-0.575 0.254,-1.727 0.254,-2.375 V 344.48 c 0.469,-0.828 1.113,-2.046 1.543,-2.839 1.477,-3.067 2.625,-6.309 3.313,-9.621 0.613,-3.165 0.828,-6.832 0.828,-10.118 0,-3.418 -0.176,-7.234 -0.828,-10.613 -0.578,-3.059 -1.586,-6.191 -3.168,-8.855 -0.426,-0.754 -1.192,-1.875 -1.688,-2.629 v -46.043 c 0,-0.793 -0.254,-2.344 -0.359,-3.098 -0.324,-1.836 -0.942,-3.738 -2.024,-5.254 -1.074,-1.555 -2.656,-2.734 -4.464,-3.562 -0.602,-0.215 -2.157,-0.903 -2.801,-0.903 h -20.918 v 0 c -0.254,0 -3.457,0 -3.742,0.032 -2.168,0.332 -4.176,1.367 -5.653,3.027 -1.191,1.406 -1.98,3.351 -2.344,5.105 -0.109,0.547 -0.429,1.914 -0.429,2.454 v 34.414 h -7.879 v 26.613 l -94.074,-6.02 v 0 c -0.43,-0.718 -1.043,-1.765 -1.477,-2.476 -2.305,-3.535 -5.398,-6.555 -9.031,-8.75 -4.973,-2.949 -10.774,-4.25 -16.563,-4.035 -5.433,0.214 -10.726,1.945 -15.476,4.504 -3.746,2.007 -7.641,4.851 -9.723,8.457 -0.363,0.574 -0.793,1.472 -1.082,2.125 v 0 l -93.601,6.437 v -26.855 h -8.602 l 0.105,-34.559 v 0 c 0,-1.008 -0.289,-2.082 -0.644,-3.059 -0.649,-1.765 -2.09,-3.269 -3.606,-4.394 -1.582,-1.184 -3.382,-2.051 -5.285,-2.481 -1.226,-0.293 -2.558,-0.539 -3.781,-0.539 h -18.363 v 0 c -0.899,0 -1.871,0.219 -2.735,0.434 -1.687,0.469 -3.203,1.434 -4.464,2.625 -1.223,1.113 -2.196,2.48 -2.739,3.957 -0.429,1.082 -0.824,2.383 -0.824,3.562 v 50.227 c -0.469,0.938 -1.262,2.41 -1.695,3.348 -1.403,2.882 -2.481,5.871 -3.278,8.996 -0.679,2.957 -1.078,5.945 -1.078,8.965 0,3.171 0.504,6.375 1.192,9.429 0.683,2.95 1.691,5.981 3.129,8.606 0.468,0.871 1.261,2.051 1.73,2.844 v 47.308 c 0,1.113 0.18,2.41 0.395,3.563 0.363,1.98 1.187,4.07 2.554,5.578 1.481,1.586 3.606,2.558 5.797,3.058 1.297,0.254 2.699,0.473 4.07,0.473 h 15.512 v 0 c 1.442,0 2.883,-0.148 4.356,-0.438 2.125,-0.429 4.25,-1.328 5.836,-2.765 1.621,-1.481 2.734,-3.387 3.277,-5.508 0.32,-1.227 0.539,-2.519 0.539,-3.746 v -32.145 h 8.602 v 0" /><path
         id="path20"
         style="fill:#231f20;fill-opacity:1;fill-rule:nonzero;stroke:none"
         d="M 439.695,487.223 H 410.57 l 3.746,-55.407 -30.382,7.704 v 0 c -0.254,0.035 -0.938,0.214 -1.192,0.214 -1.437,0.11 -2.765,-0.539 -3.597,-1.691 -0.864,-1.262 -1.043,-2.949 -0.29,-4.391 0.184,-0.32 0.43,-0.648 0.653,-0.898 v 0 l 42.117,-51.305 v 0 c 0.18,-0.215 0.43,-0.535 0.609,-0.683 0.653,-0.61 1.59,-0.864 2.454,-0.93 0.972,0 1.906,0.285 2.66,0.855 0.215,0.223 0.504,0.508 0.722,0.758 v 0 l 42.582,50.582 v 0 c 0.293,0.289 0.618,0.723 0.766,1.043 0.895,1.477 0.895,3.387 -0.109,4.785 -0.684,1.086 -1.914,1.77 -3.133,1.77 -0.473,0 -0.903,-0.074 -1.328,-0.18 v 0 l -30.864,-7.523 3.711,55.297 v 0" /><path
         id="path22"
         style="fill:#231f20;fill-opacity:1;fill-rule:nonzero;stroke:none"
         d="m 282.055,527.219 h 69.625 v 16.234 h -47.879 l 4.75,5.11 v 0 c 5.687,6.226 11.16,12.636 16.269,19.191 4.938,6.406 9.325,12.992 13.176,19.398 3.817,6.371 6.734,12.606 8.93,18.793 2.195,6.051 3.312,11.883 3.312,17.391 0,4.57 -0.758,8.75 -2.015,12.777 -1.481,4.032 -3.672,7.492 -6.41,10.586 -2.918,2.953 -6.59,5.328 -10.762,7.129 -4.395,1.656 -9.504,2.555 -15.371,2.555 -6.012,0 -11.7,-0.719 -16.633,-1.981 -5.113,-1.472 -9.867,-3.308 -14.074,-5.507 v 0 l 2.015,-18.614 v 0 c 2.914,2.379 6.586,4.754 10.793,6.735 4.215,2.015 8.965,3.129 14.262,3.129 5.652,0 10.223,-1.832 13.316,-5.688 3.133,-3.812 4.754,-8.562 4.754,-14.613 0,-4.215 -0.898,-8.75 -2.734,-13.715 -2.02,-4.934 -4.57,-10.227 -8.027,-15.52 -3.493,-5.468 -7.493,-11.156 -12.063,-17.171 -4.75,-6.043 -9.863,-12.239 -15.551,-18.649 v 0 l -9.683,-11.156 v -16.414" /><path
         id="path24"
         style="fill:#231f20;fill-opacity:1;fill-rule:nonzero;stroke:none"
         d="m 371.766,505.293 h 15.73 l 12.965,43.848 H 381.09 l -9.324,-43.848 v 0" /><path
         id="path26"
         style="fill:#231f20;fill-opacity:1;fill-rule:nonzero;stroke:none"
         d="m 412.117,553.137 h 46.008 v -25.918 h 17.07 v 25.918 h 13.133 v 14.148 h -13.133 v 78.985 h -21.132 l -41.946,-76.102 v -17.031" /><path
         id="path28"
         style="fill:#231f20;fill-opacity:1;fill-rule:nonzero;stroke:none"
         d="m 568.359,528.656 v 14.254 c -1.261,-0.535 -2.558,-1.078 -3.996,-1.472 -1.472,-0.543 -3.133,-0.719 -5.105,-0.719 -3.496,0 -5.867,1.113 -7.531,3.094 -1.622,2.019 -2.372,5.507 -2.372,10.621 v 51.91 h 19.004 v 14.617 h -19.004 v 24.84 l -19.011,-5.656 v -19.184 h -14.973 v -14.617 h 14.973 v -55.762 c 0,-8.934 2.019,-15.336 6.226,-19.012 4.211,-3.816 10.051,-5.613 17.715,-5.613 2.774,0 5.512,0.18 7.883,0.719 2.375,0.722 4.57,1.258 6.191,1.98 v 0" /><path
         id="path30"
         style="fill:#ffffff;fill-opacity:1;fill-rule:nonzero;stroke:none"
         d="m 426.234,567.285 31.571,60.551 h 0.32 v -60.551 h -31.891 v 0" /></g></g></svg>