<?xml version="1.0" encoding="UTF-8" standalone="no"?>
<svg
   xmlns:dc="http://purl.org/dc/elements/1.1/"
   xmlns:cc="http://creativecommons.org/ns#"
   xmlns:rdf="http://www.w3.org/1999/02/22-rdf-syntax-ns#"
   xmlns:svg="http://www.w3.org/2000/svg"
   xmlns="http://www.w3.org/2000/svg"
   viewBox="0 0 113.38667 113.38667"
   height="113.38667"
   width="113.38667"
   xml:space="preserve"
   id="svg2"
   version="1.1"><metadata
     id="metadata8"><rdf:RDF><cc:Work
         rdf:about=""><dc:format>image/svg+xml</dc:format><dc:type
           rdf:resource="http://purl.org/dc/dcmitype/StillImage" /></cc:Work></rdf:RDF></metadata><defs
     id="defs6" /><g
     transform="matrix(1.3333333,0,0,-1.3333333,0,113.38667)"
     id="g10"><g
       transform="scale(0.1)"
       id="g12"><path
         id="path14"
         style="fill:#ee2c30;fill-opacity:1;fill-rule:nonzero;stroke:none"
         d="m 425.195,850.395 c 234.832,0 425.196,-190.368 425.196,-425.2 C 850.391,190.371 660.027,0 425.195,0 190.367,0 0,190.371 0,425.195 c 0,234.832 190.367,425.2 425.195,425.2 v 0" /><path
         id="path16"
         style="fill:#ffffff;fill-opacity:1;fill-rule:nonzero;stroke:none"
         d="m 425.195,708.664 c 38.504,0 75.274,-7.41 110.293,-22.219 33.899,-14.336 63.946,-34.609 90.149,-60.804 26.199,-26.203 46.472,-56.25 60.808,-90.149 14.805,-35.019 22.215,-71.785 22.215,-110.297 0,-38.507 -7.41,-75.273 -22.215,-110.293 -14.336,-33.894 -34.609,-63.945 -60.808,-90.144 -26.203,-26.203 -56.25,-46.465 -90.149,-60.801 -35.019,-14.816 -71.789,-22.227 -110.293,-22.227 -38.511,0 -75.273,7.411 -110.293,22.227 -33.894,14.336 -63.945,34.598 -90.144,60.801 -26.203,26.199 -46.473,56.25 -60.809,90.144 -14.812,35.02 -22.222,71.786 -22.222,110.293 0,38.512 7.41,75.278 22.222,110.297 14.336,33.899 34.606,63.946 60.809,90.149 26.199,26.195 56.25,46.468 90.144,60.804 35.02,14.809 71.782,22.219 110.293,22.219 v 0" /><path
         id="path18"
         style="fill:#231f20;fill-opacity:1;fill-rule:nonzero;stroke:none"
         d="m 159.547,524.41 c -11.879,-31.68 -17.824,-64.73 -17.824,-99.219 0,-34.453 5.945,-67.535 17.824,-99.214 v 0 l 88.484,99.543 -88.484,98.89 v 0" /><path
         id="path20"
         style="fill:#231f20;fill-opacity:1;fill-rule:nonzero;stroke:none"
         d="m 690.867,325.977 c 11.848,31.679 17.785,64.761 17.785,99.214 0,34.489 -5.937,67.539 -17.785,99.219 v 0 l -88.523,-98.89 88.523,-99.543 v 0" /><path
         id="path22"
         style="fill:#231f20;fill-opacity:1;fill-rule:nonzero;stroke:none"
         d="m 311.43,339.914 h 97.453 v 22.742 h -66.996 l 6.66,7.168 v 0 c 7.918,8.711 15.551,17.641 22.715,26.856 6.914,8.965 13.07,18.179 18.429,27.144 5.368,8.93 9.469,17.641 12.532,26.352 3.093,8.422 4.609,16.633 4.609,24.301 0,6.375 -1.012,12.277 -2.809,17.89 -2.054,5.653 -5.113,10.516 -8.964,14.836 -4.067,4.102 -9.219,7.449 -15.082,10.004 -6.161,2.305 -13.321,3.563 -21.461,3.563 -8.422,0 -16.375,-1.004 -23.293,-2.805 -7.16,-2.051 -13.789,-4.61 -19.692,-7.668 v 0 l 2.809,-26.102 v 0 c 4.105,3.317 9.219,6.66 15.121,9.469 5.871,2.805 12.531,4.356 19.941,4.356 7.887,0 14.293,-2.555 18.653,-7.957 4.355,-5.36 6.66,-12.02 6.66,-20.45 0,-5.902 -1.297,-12.273 -3.852,-19.183 -2.808,-6.914 -6.41,-14.332 -11.269,-21.746 -4.824,-7.704 -10.442,-15.621 -16.852,-24.051 -6.652,-8.457 -13.82,-17.168 -21.742,-26.098 v 0 L 311.43,362.91 v -22.996" /><path
         id="path24"
         style="fill:#231f20;fill-opacity:1;fill-rule:nonzero;stroke:none"
         d="m 446.504,437.25 h 15.945 v 48.203 c 0,5.836 1.223,10.301 3.528,13.543 2.304,3.199 5.828,4.75 10.293,4.75 7.382,0 11.054,-4.933 11.054,-14.582 V 437.25 h 15.946 v 48.203 c 0,5.836 1.234,10.301 3.527,13.543 2.305,3.199 5.84,4.75 10.262,4.75 7.382,0 11.054,-4.933 11.054,-14.582 V 437.25 h 15.989 v 51.59 c 0,9.219 -1.836,16.273 -5.547,21.023 -3.821,4.789 -9.5,7.239 -17.176,7.239 -5.07,0 -9.211,-1.227 -12.453,-3.672 -3.203,-2.629 -5.656,-5.543 -7.664,-8.785 -0.766,1.546 -1.692,3.093 -2.778,4.609 -1.082,1.398 -2.449,2.766 -3.964,3.992 -1.504,1.078 -3.34,2.02 -5.36,2.774 -1.98,0.757 -4.426,1.082 -7.051,1.082 -4.902,0 -8.894,-1.227 -12.136,-3.672 -3.207,-2.629 -5.832,-5.692 -7.524,-9.543 h -0.293 v 0 c 0,0.468 0,1.406 0,2.629 -0.176,1.043 -0.176,2.3 -0.176,3.527 -0.144,1.227 -0.144,2.445 -0.144,3.527 -0.148,1.082 -0.148,1.981 -0.148,2.45 h -15.797 v 0 c 0.144,-2.165 0.289,-4.461 0.464,-6.915 0.149,-2.445 0.149,-5.074 0.149,-7.988 V 437.25" /></g></g></svg>