<?xml version="1.0" encoding="UTF-8" standalone="no"?>
<svg
   xmlns:dc="http://purl.org/dc/elements/1.1/"
   xmlns:cc="http://creativecommons.org/ns#"
   xmlns:rdf="http://www.w3.org/1999/02/22-rdf-syntax-ns#"
   xmlns:svg="http://www.w3.org/2000/svg"
   xmlns="http://www.w3.org/2000/svg"
   viewBox="0 0 113.38667 113.38667"
   height="113.38667"
   width="113.38667"
   xml:space="preserve"
   id="svg2"
   version="1.1"><metadata
     id="metadata8"><rdf:RDF><cc:Work
         rdf:about=""><dc:format>image/svg+xml</dc:format><dc:type
           rdf:resource="http://purl.org/dc/dcmitype/StillImage" /></cc:Work></rdf:RDF></metadata><defs
     id="defs6" /><g
     transform="matrix(1.3333333,0,0,-1.3333333,0,113.38667)"
     id="g10"><g
       transform="scale(0.1)"
       id="g12"><path
         id="path14"
         style="fill:#ee2c30;fill-opacity:1;fill-rule:nonzero;stroke:none"
         d="m 425.195,850.395 c 234.836,0 425.196,-190.364 425.196,-425.196 C 850.391,190.371 660.031,0 425.195,0 190.367,0 0,190.371 0,425.199 0,660.031 190.367,850.395 425.195,850.395 v 0" /><path
         id="path16"
         style="fill:#ffffff;fill-opacity:1;fill-rule:nonzero;stroke:none"
         d="m 425.055,708.66 c 38.511,0 75.277,-7.398 110.297,-22.215 33.898,-14.336 63.945,-34.605 90.148,-60.804 26.199,-26.203 46.465,-56.25 60.801,-90.149 14.812,-35.019 22.215,-71.781 22.215,-110.293 0,-38.508 -7.403,-75.277 -22.215,-110.297 -14.336,-33.898 -34.602,-63.945 -60.801,-90.144 -26.203,-26.203 -56.25,-46.465 -90.148,-60.801 -35.02,-14.816 -71.786,-22.219 -110.297,-22.219 -38.512,0 -75.274,7.403 -110.293,22.219 -33.899,14.336 -63.946,34.598 -90.149,60.801 -26.199,26.199 -46.468,56.246 -60.804,90.144 -14.813,35.02 -22.223,71.789 -22.223,110.297 0,38.512 7.41,75.274 22.223,110.293 14.336,33.899 34.605,63.946 60.804,90.149 26.203,26.199 56.25,46.468 90.149,60.804 35.019,14.817 71.781,22.215 110.293,22.215 v 0" /><path
         id="path18"
         style="fill:#231f20;fill-opacity:1;fill-rule:nonzero;stroke:none"
         d="m 259.395,453.41 c 17.66,0 31.906,-14.023 32.164,-31.32 0.218,-17.621 -14.063,-32.258 -32.09,-32.328 -17.989,-0.035 -32.383,14.562 -32.239,32.183 0.188,17.368 14.43,31.465 32.165,31.465 v 0" /><path
         id="path20"
         style="fill:#231f20;fill-opacity:1;fill-rule:nonzero;stroke:none"
         d="m 522.57,453.551 c 18.321,0 33.231,-14.637 32.86,-32.578 -0.371,-17.328 -15.059,-30.852 -32.715,-30.922 -17.774,-0.035 -32.637,13.594 -32.969,30.992 -0.332,17.906 14.504,32.508 32.824,32.508 v 0" /><path
         id="path22"
         style="fill:#231f20;fill-opacity:1;fill-rule:nonzero;stroke:none"
         d="m 286.969,310.031 v -22.035 l -40.25,2.883 5.617,-22.969 v 0 c 0.039,-0.222 0.144,-0.722 0.144,-0.937 0.11,-1.004 -0.328,-2.09 -1.191,-2.735 -0.934,-0.652 -2.156,-0.761 -3.129,-0.222 -0.289,0.183 -0.543,0.332 -0.722,0.547 v 0 l -37.188,31.824 v 0 c -0.176,0.105 -0.43,0.32 -0.539,0.461 -0.469,0.507 -0.684,1.187 -0.684,1.836 0,0.761 0.215,1.441 0.614,1.98 0.179,0.215 0.394,0.402 0.539,0.547 v 0 l 36.718,32.258 v 0 c 0.254,0.215 0.54,0.429 0.758,0.605 1.114,0.68 2.481,0.68 3.528,-0.109 0.754,-0.535 1.191,-1.406 1.257,-2.371 0,-0.324 -0.066,-0.656 -0.105,-1.008 v 0 l -5.508,-23.367 40.141,2.812 v 0" /><path
         id="path24"
         style="fill:#231f20;fill-opacity:1;fill-rule:nonzero;stroke:none"
         d="m 219.043,489.652 c -1.871,0 -4.109,-1.293 -5.504,-2.66 -1.434,-1.332 -2.68,-3.308 -2.898,-5.324 v 0 l -4.516,-43.578 -3.418,-0.106 v 0 c -1.141,-0.148 -2.383,-0.363 -3.23,-1.078 -0.844,-0.832 -1.063,-2.125 -1.063,-3.133 v 0 l -0.113,-3.847 v 0 c 0,-1.508 0.844,-2.875 2.094,-3.524 0.328,-0.179 0.878,-0.398 1.285,-0.539 v 0 l -0.407,-4.531 h 18.915 v 0 c 0,0.578 0.031,1.438 0.031,2.051 1.066,20.426 18.25,36.496 39.14,36.496 21.184,0 39.43,-15.785 39.176,-36.496 -0.039,-0.504 -0.039,-1.223 -0.113,-1.727 v 0 l 183.543,-0.074 v 0 c 0.039,0.648 -0.039,1.117 0.039,1.762 2.051,21.035 19.16,38.297 40.75,38.117 21.66,-0.215 38.398,-17.981 40.09,-39.121 0.039,-0.43 0.039,-0.973 0.078,-1.367 h 27.461 v 0 c 0.222,2.086 2.273,12.152 2.129,12.152 v 0 l 38.074,8.199 v 9.637 l -70.789,-0.141 v 0 c -0.547,1.039 -1.32,2.086 -2.012,2.91 -0.812,1.008 -2.394,2.629 -3.422,3.848 v 0 l 76.117,0.035 V 566.93 L 324.746,566.82 V 456.785 h 164.777 v 0 c -0.988,-0.93 -2.238,-2.297 -3.156,-3.375 v 0 l -2.234,-2.59 -164.305,0.071 0.035,79.433 h -55.218 v 0 c -3.926,0 -8.04,-1.656 -11.457,-3.668 -3.118,-1.871 -5.801,-4.57 -7.305,-7.769 v 0 l -13.695,-29.094 -13.145,-0.141 v 0" /><path
         id="path26"
         style="fill:#231f20;fill-opacity:1;fill-rule:nonzero;stroke:none"
         d="m 563.379,310.059 v -22.032 l 40.246,2.883 -5.617,-22.969 v 0 c -0.039,-0.214 -0.145,-0.714 -0.145,-0.937 -0.109,-1.008 0.321,-2.082 1.192,-2.734 0.933,-0.645 2.156,-0.754 3.133,-0.215 0.285,0.183 0.539,0.32 0.714,0.535 v 0 l 37.188,31.824 v 0 c 0.183,0.109 0.437,0.324 0.547,0.473 0.468,0.508 0.683,1.187 0.683,1.836 0,0.761 -0.215,1.441 -0.617,1.98 -0.176,0.215 -0.398,0.391 -0.535,0.539 v 0 l -36.719,32.254 v 0 c -0.254,0.215 -0.547,0.43 -0.761,0.617 -1.114,0.68 -2.481,0.68 -3.528,-0.109 -0.762,-0.535 -1.191,-1.406 -1.258,-2.375 0,-0.328 0.067,-0.652 0.106,-1.012 v 0 l 5.508,-23.363 -40.137,2.805 v 0" /><path
         id="path28"
         style="fill:#231f20;fill-opacity:1;fill-rule:nonzero;stroke:none"
         d="m 321.957,235.293 h 15.371 v 127.551 h -13.496 l -22.68,-25.957 7.559,-13.723 13.246,16.992 V 235.293" /><path
         id="path30"
         style="fill:#231f20;fill-opacity:1;fill-rule:nonzero;stroke:none"
         d="m 356.305,252.461 c 2.484,-5.867 5.687,-10.438 9.609,-13.711 3.926,-3.281 8.57,-4.902 14.223,-4.902 5.687,0 10.472,1.621 14.398,5.078 3.922,3.281 7.09,7.851 9.578,13.722 2.485,5.829 4.211,12.774 5.219,20.625 1.043,7.879 1.621,16.454 1.621,25.77 v 0 c 0,9.324 -0.578,17.93 -1.621,25.957 -1.008,7.852 -2.734,14.793 -5.219,20.664 -2.488,5.828 -5.656,10.41 -9.578,13.859 -3.926,3.321 -8.711,4.938 -14.398,4.938 -5.653,0 -10.438,-1.617 -14.364,-4.938 -3.925,-3.449 -6.984,-8.031 -9.468,-13.859 -2.453,-5.871 -4.215,-12.812 -5.219,-20.664 -1.012,-8.027 -1.59,-16.633 -1.59,-25.957 0,-9.316 0.578,-17.891 1.59,-25.77 1.004,-8.027 2.766,-14.98 5.219,-20.812 v 0" /><path
         id="path32"
         style="fill:#231f20;fill-opacity:1;fill-rule:nonzero;stroke:none"
         d="m 442.598,235.293 h 15.117 v 57.344 c 0,6.953 1.152,12.273 3.312,16.093 2.196,3.848 5.547,5.684 9.754,5.684 6.985,0 10.442,-5.859 10.442,-17.383 v -61.738 h 15.125 v 57.344 c 0,6.953 1.183,12.273 3.34,16.093 2.199,3.848 5.507,5.684 9.726,5.684 6.984,0 10.469,-5.859 10.469,-17.383 v -61.738 h 15.129 v 61.375 c 0,10.98 -1.77,19.367 -5.227,25.062 -3.633,5.653 -9.031,8.563 -16.308,8.563 -4.786,0 -8.711,-1.434 -11.739,-4.395 -3.054,-3.093 -5.39,-6.55 -7.265,-10.402 -0.723,1.836 -1.621,3.672 -2.625,5.473 -1.016,1.656 -2.305,3.316 -3.782,4.754 -1.445,1.3 -3.203,2.375 -5.078,3.312 -1.914,0.899 -4.207,1.258 -6.699,1.258 -4.637,0 -8.418,-1.434 -11.484,-4.395 -3.016,-3.093 -5.508,-6.73 -7.09,-11.296 h -0.281 v 0 c 0,0.535 0,1.621 0,3.093 -0.149,1.258 -0.149,2.735 -0.149,4.211 -0.144,1.446 -0.144,2.918 -0.144,4.176 -0.176,1.301 -0.176,2.375 -0.176,2.953 h -14.942 v 0 c 0.137,-2.558 0.282,-5.324 0.43,-8.246 0.145,-2.918 0.145,-6.012 0.145,-9.5 v -75.996" /><path
         id="path34"
         style="fill:#ffffff;fill-opacity:1;fill-rule:nonzero;stroke:none"
         d="m 259.434,434.855 c 7.23,-0.039 13.031,-5.828 13.218,-12.878 0.18,-7.258 -5.656,-13.34 -13.109,-13.481 -7.566,-0.144 -13.73,5.899 -13.73,13.305 0.039,7.301 6.164,13.054 13.621,13.054 v 0" /><path
         id="path36"
         style="fill:#ffffff;fill-opacity:1;fill-rule:nonzero;stroke:none"
         d="m 522.824,435.102 c 7.676,-0.067 13.438,-6.649 13.074,-14.164 -0.332,-6.872 -6.093,-12.227 -13.105,-12.333 -7.09,-0.109 -13.184,5.141 -13.699,12.153 -0.508,7.801 5.769,14.418 13.73,14.344 v 0" /><path
         id="path38"
         style="fill:#ffffff;fill-opacity:1;fill-rule:nonzero;stroke:none"
         d="m 255.578,522.266 h 10.574 l -15.238,-32.649 h -10.57 l 15.234,32.649 v 0" /><path
         id="path40"
         style="fill:#ffffff;fill-opacity:1;fill-rule:nonzero;stroke:none"
         d="m 275.035,522.266 h 28.344 v -32.434 h -43.473 l 15.129,32.434 v 0" /><path
         id="path42"
         style="fill:#ffffff;fill-opacity:1;fill-rule:nonzero;stroke:none"
         d="m 368.219,262.148 c -2.16,8.567 -3.344,21.028 -3.344,36.895 0,15.918 1.184,28.34 3.344,37.117 2.195,8.75 6.265,13.149 11.918,13.149 5.832,0 9.898,-4.399 12.062,-12.973 2.192,-8.777 3.344,-21.199 3.344,-37.293 v 0 c 0,-15.867 -1.152,-28.328 -3.344,-36.895 -2.304,-8.789 -6.375,-13.171 -12.062,-13.171 -5.653,0 -9.723,4.382 -11.918,13.171 v 0" /></g></g></svg>