<?xml version="1.0" encoding="UTF-8" standalone="no"?>
<svg
   xmlns:dc="http://purl.org/dc/elements/1.1/"
   xmlns:cc="http://creativecommons.org/ns#"
   xmlns:rdf="http://www.w3.org/1999/02/22-rdf-syntax-ns#"
   xmlns:svg="http://www.w3.org/2000/svg"
   xmlns="http://www.w3.org/2000/svg"
   viewBox="0 0 113.76 113.76"
   height="113.76"
   width="113.76"
   xml:space="preserve"
   id="svg2"
   version="1.1"><metadata
     id="metadata8"><rdf:RDF><cc:Work
         rdf:about=""><dc:format>image/svg+xml</dc:format><dc:type
           rdf:resource="http://purl.org/dc/dcmitype/StillImage" /></cc:Work></rdf:RDF></metadata><defs
     id="defs6" /><g
     transform="matrix(1.3333333,0,0,-1.3333333,0,113.76)"
     id="g10"><g
       transform="scale(0.1)"
       id="g12"><path
         id="path14"
         style="fill:#ffffff;fill-opacity:1;fill-rule:nonzero;stroke:none"
         d="m 426.617,851.809 c 234.828,0 425.192,-190.368 425.192,-425.2 C 851.809,191.777 661.445,1.41797 426.617,1.41797 191.781,1.41797 1.41797,191.777 1.41797,426.609 c 0,234.832 190.36303,425.2 425.19903,425.2 v 0" /><path
         id="path16"
         style="fill:none;stroke:#231f20;stroke-width:2.83500004;stroke-linecap:butt;stroke-linejoin:miter;stroke-miterlimit:4;stroke-dasharray:none;stroke-opacity:1"
         d="m 426.617,851.809 c 234.828,0 425.192,-190.368 425.192,-425.2 C 851.809,191.777 661.445,1.41797 426.617,1.41797 191.781,1.41797 1.41797,191.777 1.41797,426.609 c 0,234.832 190.36303,425.2 425.19903,425.2 v 0" /><path
         id="path18"
         style="fill:#231f20;fill-opacity:1;fill-rule:nonzero;stroke:none"
         d="m 332.113,667.594 c -2.484,-1.508 -5.652,-3.418 -8.097,-5 -15.985,-9.867 -30.817,-21.317 -44.321,-34.164 -15.047,-14.219 -28.761,-30.891 -40.929,-47.668 -12.063,-16.598 -23.258,-34.164 -32.868,-52.344 -8.355,-15.73 -15.66,-32.004 -21.527,-48.777 -4.933,-13.973 -9,-28.371 -12.168,-42.805 -4.43,-20.016 -7.379,-40.68 -7.707,-61.168 -0.394,-18.352 1.262,-36.789 5.008,-54.828 3.812,-17.852 9.934,-35.742 19.223,-51.445 8.816,-15.008 20.664,-28.438 35.211,-38.153 14.503,-9.758 31.281,-15.625 48.738,-16.887 19.082,-1.367 38.234,2.774 54.828,12.317 19.371,11.082 34.059,29.051 43.453,49.312 7.707,16.672 11.738,36.465 13.824,54.719 2.055,18.117 2.52,37.078 0.328,55.231 -2.414,19.691 -7.961,39.054 -17.32,56.55 -9.789,18.114 -23.762,34.707 -41.723,44.711 -8.425,4.684 -17.711,7.922 -27.253,9.938 -9.68,1.984 -19.692,2.773 -29.696,2.305 -2.304,-0.106 -5.726,-0.395 -8.031,-0.575 v 0 l 2.16,4.141 v 0 c 3.707,7.309 9.609,18.648 13.965,25.562 5.477,8.676 13.105,18.36 19.695,26.239 6.047,7.203 12.637,14.836 19.223,21.675 6.766,6.981 14.004,13.825 21.527,19.942 7.094,5.726 14.547,10.945 22.25,15.73 1.367,0.868 3.098,1.911 4.539,2.774 v 0 l -32.332,52.668 v 0" /><path
         id="path20"
         style="fill:#231f20;fill-opacity:1;fill-rule:nonzero;stroke:none"
         d="m 577.559,639.23 c -7.84,0 -16.231,-1.73 -23.758,-3.855 -19.434,-5.437 -36.035,-18.793 -48.125,-34.953 -10.117,-13.535 -17.356,-30.063 -22.434,-46.152 -4.754,-15.051 -8.32,-31.36 -11.015,-46.836 -3.028,-17.606 -5.36,-36.11 -6.122,-53.934 -0.753,-17.422 0.079,-36.934 1.297,-54.285 1.262,-17.606 3.098,-36.324 5.871,-53.785 3.165,-20.008 8.028,-40.176 15.047,-59.11 7.305,-19.875 18.86,-41.797 35.5,-54.863 15.399,-12.129 34.805,-18.105 54.356,-17.355 20.769,0.683 40.574,8.925 55.84,22.968 13.64,12.532 23.535,31.25 30.339,48.567 7.559,19.187 12.852,39.785 16.524,60.117 3.281,17.754 5.441,35.644 6.738,53.676 1.289,19.261 1.504,38.593 0.899,57.855 -0.614,16.703 -1.875,33.836 -4.286,50.289 -2.414,16.094 -5.976,32.114 -11.125,47.52 -5.292,16.019 -12.742,32.187 -22.968,45.613 -11.699,15.406 -27.539,28.547 -46.114,34.129 -8.457,2.59 -17.605,4.394 -26.464,4.394 v 0" /><path
         id="path22"
         style="fill:#231f20;fill-opacity:1;fill-rule:nonzero;stroke:none"
         d="m 231.207,217.168 c -4.105,2.051 -8.102,4.387 -12.027,7.012 -1.797,1.23 -3.559,2.453 -5.289,3.75 v 0 l -84.887,-84.891 v 0 c 2.266,-2.375 4.605,-4.746 6.949,-7.09 2.34,-2.344 4.711,-4.679 7.09,-6.945 v 0 l 88.164,88.164 v 0" /><path
         id="path24"
         style="fill:#231f20;fill-opacity:1;fill-rule:nonzero;stroke:none"
         d="m 266.523,206.398 c -7.812,0.938 -15.41,2.735 -22.718,5.332 v 0 l -91.403,-91.371 v 0 c 4.934,-4.461 9.973,-8.785 15.118,-12.957 v 0 l 99.003,98.996 v 0" /><path
         id="path26"
         style="fill:#231f20;fill-opacity:1;fill-rule:nonzero;stroke:none"
         d="m 319.445,213.242 c -11.238,-4.609 -23.117,-7.168 -35.679,-7.597 v 0 L 177.563,99.4453 v 0 c 5.332,-4.0742 10.769,-7.9883 16.277,-11.8086 v 0 L 319.445,213.242 v 0" /><path
         id="path28"
         style="fill:#231f20;fill-opacity:1;fill-rule:nonzero;stroke:none"
         d="m 168.566,292.766 c -2.449,6.875 -4.57,14.109 -6.336,21.746 v 0 L 69.8555,222.129 v 0 c 3.3828,-5.899 6.914,-11.738 10.6172,-17.461 v 0 l 88.0933,88.098 v 0" /><path
         id="path30"
         style="fill:#231f20;fill-opacity:1;fill-rule:nonzero;stroke:none"
         d="m 337.695,489.973 c 5.434,-3.672 10.512,-7.922 15.297,-12.782 v 0 L 648.488,772.68 v 0 c -5.734,3.672 -11.523,7.199 -17.461,10.621 v 0 L 337.695,489.973 v 0" /><path
         id="path32"
         style="fill:#231f20;fill-opacity:1;fill-rule:nonzero;stroke:none"
         d="m 183.508,261.621 c -0.719,1.113 -1.406,2.266 -2.09,3.457 -2.809,4.719 -5.363,9.649 -7.668,14.832 v 0 L 87.6367,193.84 v 0 c 3.8203,-5.508 7.7383,-10.949 11.8086,-16.281 v 0 l 84.0627,84.062 v 0" /><path
         id="path34"
         style="fill:#231f20;fill-opacity:1;fill-rule:nonzero;stroke:none"
         d="M 473.594,551.711 372.793,450.914 v 0 c -3.492,6.043 -7.27,11.625 -11.336,16.738 v 0 l 136.152,136.114 v 0 c -9.074,-12.598 -16.562,-28.258 -22.461,-46.946 -0.546,-1.687 -1.046,-3.382 -1.554,-5.109 v 0" /><path
         id="path36"
         style="fill:#231f20;fill-opacity:1;fill-rule:nonzero;stroke:none"
         d="m 524.895,631.055 c 8.242,5.687 17.136,9.863 26.601,12.492 6.375,1.801 12.246,3.023 17.567,3.637 v 0 l 106.523,106.523 v 0 c -5.32,4.066 -10.762,7.992 -16.27,11.773 v 0 L 524.895,631.055 v 0" /><path
         id="path38"
         style="fill:#231f20;fill-opacity:1;fill-rule:nonzero;stroke:none"
         d="m 204.172,236.211 c -4.754,4.465 -9.18,9.394 -13.32,14.758 v 0 l -83.45,-83.449 v 0 c 4.176,-5.145 8.496,-10.184 12.961,-15.118 v 0 l 83.809,83.809 v 0" /><path
         id="path40"
         style="fill:#231f20;fill-opacity:1;fill-rule:nonzero;stroke:none"
         d="m 461.387,493.43 -74.59,-74.598 v 0 c -2.156,7.023 -4.785,13.789 -7.813,20.27 v 0 l 88.489,88.453 v 0 c -1.289,-5.938 -2.52,-12.168 -3.633,-18.649 -0.899,-5.254 -1.731,-10.437 -2.453,-15.476 v 0" /><path
         id="path42"
         style="fill:#231f20;fill-opacity:1;fill-rule:nonzero;stroke:none"
         d="m 587.07,647.148 c 6.114,-0.722 12.559,-2.089 19.395,-4.179 1.152,-0.321 2.277,-0.684 3.39,-1.078 v 0 l 90.899,90.902 v 0 c -4.934,4.465 -9.973,8.785 -15.078,12.961 v 0 L 587.07,647.148 v 0" /><path
         id="path44"
         style="fill:#231f20;fill-opacity:1;fill-rule:nonzero;stroke:none"
         d="M 457.324,443.281 394.25,380.203 v 0 c -0.215,2.274 -0.43,4.504 -0.719,6.735 -0.722,6.05 -1.73,11.953 -2.988,17.64 v 0 l 68.402,68.402 v 0 c -0.613,-6.554 -1.082,-12.925 -1.336,-19.117 -0.148,-3.351 -0.254,-6.875 -0.285,-10.582 v 0" /><path
         id="path46"
         style="fill:#231f20;fill-opacity:1;fill-rule:nonzero;stroke:none"
         d="m 622.383,636.422 c 5.793,-3.137 11.34,-6.949 16.633,-11.449 v 0 l 85.136,85.14 v 0 c -2.265,2.371 -4.609,4.75 -6.945,7.09 -2.344,2.336 -4.676,4.645 -7.09,6.949 v 0 l -87.734,-87.73 v 0" /><path
         id="path48"
         style="fill:#231f20;fill-opacity:1;fill-rule:nonzero;stroke:none"
         d="m 395.043,362.996 62.457,62.465 v 0 c 0.254,-8.316 0.723,-17.207 1.406,-26.676 v 0 l -65.269,-65.269 v 0 c 0.937,9.355 1.406,18.507 1.406,27.324 0,0.723 0,1.437 0,2.156 v 0" /><path
         id="path50"
         style="fill:#231f20;fill-opacity:1;fill-rule:nonzero;stroke:none"
         d="m 648.234,616.188 c 2.989,-3.204 5.899,-6.661 8.711,-10.333 1.297,-1.691 2.559,-3.457 3.778,-5.253 v 0 l 85.031,85.027 v 0 c -4.172,5.152 -8.496,10.152 -12.922,15.125 v 0 l -84.598,-84.566 v 0" /><path
         id="path52"
         style="fill:#231f20;fill-opacity:1;fill-rule:nonzero;stroke:none"
         d="m 390.723,312.598 69.511,69.515 v 0 c 0.832,-8.925 1.77,-17.347 2.813,-25.265 v 0 l -84.313,-84.317 v 0 c 5.223,11.309 9.215,24.657 11.989,40.067 v 0" /><path
         id="path54"
         style="fill:#231f20;fill-opacity:1;fill-rule:nonzero;stroke:none"
         d="m 667.559,589.402 c 3.281,-5.867 6.269,-12.238 9.004,-19.043 v 0 l 88.957,88.957 v 0 c -3.821,5.508 -7.747,10.911 -11.809,16.235 v 0 l -86.152,-86.149 v 0" /><path
         id="path56"
         style="fill:#231f20;fill-opacity:1;fill-rule:nonzero;stroke:none"
         d="m 470.031,317.781 c -1.769,7.563 -3.312,15.332 -4.679,23.403 v 0 L 204.641,80.4688 v 0 c 5.722,-3.6719 11.55,-7.1954 17.461,-10.6133 v 0 L 470.031,317.781 v 0" /><path
         id="path58"
         style="fill:#231f20;fill-opacity:1;fill-rule:nonzero;stroke:none"
         d="m 681.387,557.184 c 2.304,-7.055 4.355,-14.329 6.152,-21.891 v 0 l 95.762,95.762 v 0 c -3.418,5.902 -6.942,11.699 -10.613,17.422 v 0 l -91.301,-91.293 v 0" /><path
         id="path60"
         style="fill:#ffffff;fill-opacity:1;fill-rule:nonzero;stroke:none"
         d="m 275.414,442.594 c 10.078,0.109 19.695,-3.961 27.395,-10.403 6.445,-5.218 10.73,-13.894 13.433,-21.742 2.84,-8.355 4.676,-19.297 5.863,-28.047 1.118,-7.953 2.231,-17.957 2.411,-25.988 0.074,-8.25 0.074,-18.719 -1.368,-26.824 -4.535,-25.813 -17.781,-55.227 -48.128,-53.645 -27.11,1.45 -38.915,26.86 -44.422,50.375 -1.731,7.481 -3.098,18.36 -3.821,25.985 -0.937,10.011 -0.535,20.019 0.973,29.957 1.512,9.609 4.141,19.043 7.777,28.113 3.278,8.172 8.422,17.785 15.407,23.109 7.093,5.329 15.66,9.039 24.48,9.11 v 0" /><path
         id="path62"
         style="fill:#ffffff;fill-opacity:1;fill-rule:nonzero;stroke:none"
         d="m 578,578.137 c 4.746,0.144 9.461,-0.903 13.602,-3.172 4.074,-2.121 7.382,-5.977 9.902,-9.715 4.062,-6.371 6.941,-15.34 8.816,-22.68 3.246,-12.457 5.766,-25.242 7.707,-37.984 1.985,-13.141 3.418,-26.496 4.317,-39.816 0.898,-13.641 1.445,-27.325 1.367,-41.004 -0.106,-15.407 -0.75,-30.883 -2.117,-46.293 -1.367,-15.481 -3.567,-31.575 -6.875,-46.66 -2.344,-10.508 -5.442,-21.165 -9.512,-31.133 -2.121,-5.117 -4.855,-10.547 -8.098,-15.09 -2.195,-3.027 -4.89,-5.977 -8.066,-8.098 -3.418,-2.195 -7.41,-3.531 -11.551,-3.777 -4.863,-0.293 -9.824,0.82 -13.828,3.633 -2.883,1.98 -5.508,5.215 -7.48,8.175 -3.098,4.676 -5.735,9.786 -7.922,15.079 -4.11,9.753 -6.883,20.918 -8.856,31.289 -2.707,14.722 -4.543,32.468 -5.722,47.336 -1.153,14.656 -2.2,31.644 -2.2,46.296 0,13.536 0.832,27.25 2.2,40.79 1.367,13.355 3.308,26.816 5.644,40.101 2.129,12.098 4.754,24.766 8.027,36.539 2.09,7.703 5.372,16.926 9.793,23.438 2.598,3.672 5.911,7.379 9.903,9.504 3.312,1.726 7.09,3.027 10.949,3.242 v 0" /><path
         id="path64"
         style="fill:#231f20;fill-opacity:1;fill-rule:nonzero;stroke:none"
         d="m 281.32,433.594 -43.312,-43.305 v 0 c -0.75,-3.137 -1.367,-6.23 -1.871,-9.359 -0.899,-5.907 -1.367,-11.774 -1.367,-17.571 0,-1.433 0.035,-2.879 0.109,-4.289 v 0 l 64.617,64.625 v 0 c -0.683,0.719 -1.367,1.332 -2.051,1.907 v 0 l -0.031,0.039 -0.039,0.035 v 0 c -5.074,4.246 -10.441,6.875 -16.055,7.918 v 0" /><path
         id="path66"
         style="fill:#231f20;fill-opacity:1;fill-rule:nonzero;stroke:none"
         d="m 306.34,412.535 -69.914,-69.906 v 0 c 0.719,-5.656 1.547,-10.441 2.445,-14.367 0.758,-3.133 1.551,-6.082 2.414,-8.86 v 0 l 70.992,70.993 v 0 c -1.222,7.199 -2.589,12.96 -4.07,17.281 -0.609,1.726 -1.219,3.344 -1.867,4.859 v 0" /><path
         id="path68"
         style="fill:#231f20;fill-opacity:1;fill-rule:nonzero;stroke:none"
         d="m 258.605,290.637 57.383,57.39 v 0 c 0.032,1.153 0.032,2.332 0.032,3.528 0,1.367 0,2.91 -0.032,4.746 -0.074,5.008 -0.578,11.133 -1.441,18.363 v 0 l -68.184,-68.187 v 0 c 3.418,-6.907 7.485,-12.168 12.242,-15.84 v 0" /><path
         id="path70"
         style="fill:#231f20;fill-opacity:1;fill-rule:nonzero;stroke:none"
         d="m 314.258,328.289 -43.305,-43.301 v 0 c 1.473,-0.293 2.949,-0.465 4.496,-0.543 0.649,-0.031 1.301,-0.031 1.91,-0.031 10.153,0 18.5,4.609 25.055,13.82 5.438,7.633 9.399,17.672 11.844,30.055 v 0" /><path
         id="path72"
         style="fill:#231f20;fill-opacity:1;fill-rule:nonzero;stroke:none"
         d="m 556.25,542.207 26.965,26.965 v 0 c -1.406,0.324 -2.805,0.469 -4.317,0.469 -0.187,0 -0.324,0 -0.507,0 -2.344,-0.145 -4.786,-0.903 -7.383,-2.27 -2.266,-1.187 -4.531,-3.457 -6.836,-6.805 -2.922,-4.246 -5.547,-10.332 -7.922,-18.359 v 0" /><path
         id="path74"
         style="fill:#231f20;fill-opacity:1;fill-rule:nonzero;stroke:none"
         d="m 593.691,561.609 -43.242,-43.195 v 0 c -0.926,-4.609 -1.863,-9.434 -2.734,-14.473 -1.18,-6.734 -2.227,-13.214 -3.125,-19.476 v 0 l 57.199,57.199 v 0 c -2.305,8.535 -4.785,14.836 -7.414,18.938 -0.254,0.359 -0.469,0.687 -0.684,1.007 v 0" /><path
         id="path76"
         style="fill:#231f20;fill-opacity:1;fill-rule:nonzero;stroke:none"
         d="m 605.285,527.125 -63.215,-63.18 v 0 c -1.043,-10.476 -1.699,-20.488 -1.953,-30.023 v 0 l 69.485,69.476 v 0 c -1.223,8.172 -2.668,16.055 -4.317,23.727 v 0" /><path
         id="path78"
         style="fill:#231f20;fill-opacity:1;fill-rule:nonzero;stroke:none"
         d="m 611.73,487.523 -71.64,-71.605 v 0 c 0.176,-7.922 0.605,-16.848 1.289,-26.781 v 0 l 72.617,72.609 v 0 c -0.039,0.828 -0.07,1.656 -0.148,2.449 -0.535,7.918 -1.219,15.7 -2.118,23.328 v 0" /></g></g></svg>