<?xml version="1.0" encoding="UTF-8" standalone="no"?>
<svg
   xmlns:dc="http://purl.org/dc/elements/1.1/"
   xmlns:cc="http://creativecommons.org/ns#"
   xmlns:rdf="http://www.w3.org/1999/02/22-rdf-syntax-ns#"
   xmlns:svg="http://www.w3.org/2000/svg"
   xmlns="http://www.w3.org/2000/svg"
   viewBox="0 0 113.21333 113.17333"
   height="113.17333"
   width="113.21333"
   xml:space="preserve"
   id="svg2"
   version="1.1"><metadata
     id="metadata8"><rdf:RDF><cc:Work
         rdf:about=""><dc:format>image/svg+xml</dc:format><dc:type
           rdf:resource="http://purl.org/dc/dcmitype/StillImage" /></cc:Work></rdf:RDF></metadata><defs
     id="defs6" /><g
     transform="matrix(1.3333333,0,0,-1.3333333,0,113.17333)"
     id="g10"><g
       transform="scale(0.1)"
       id="g12"><path
         id="path14"
         style="fill:#918f90;fill-opacity:1;fill-rule:nonzero;stroke:none"
         d="M 545.461,832.359 C 439.184,863.711 333.453,854.172 234.453,804.313 135.527,754.527 64.8242,675.254 26.6992,571.25 -11.5,467.172 -8.87109,361.078 34.4063,259.059 77.6367,157.105 152.125,81.3945 253.391,36.5039 c 235.8,-104.4336 509.511,23.5469 580.5,271.4411 64.257,224.352 -64.551,458.567 -288.43,524.414 v 0" /><path
         id="path16"
         style="fill:#ffffff;fill-opacity:1;fill-rule:nonzero;stroke:none"
         d="m 195.973,647.461 c -0.399,-1.547 -1.047,-3.203 -2.09,-5.113 -1.047,-1.875 -2.231,-3.532 -3.598,-5.145 -3.203,-3.785 -6.844,-6.519 -10.695,-8.25 -3.926,-1.762 -7.992,-2.41 -12.133,-2.051 -4.281,0.254 -8.637,1.516 -13.246,3.746 -4.5,2.125 -9.109,5.075 -13.68,8.926 -4.211,3.567 -7.668,7.418 -10.117,11.52 -2.484,4.179 -4.031,8.246 -4.789,12.422 -0.648,4.105 -0.469,8.027 0.504,12.027 1.043,3.961 3.062,7.664 5.906,11.016 2.629,3.129 5.758,5.937 9.11,8.347 3.308,2.199 6.906,4 10.437,5.328 v 0 l -10.727,9.579 v 0 c -2.699,-1.262 -5.761,-3.098 -9,-5.618 -3.167,-2.703 -6.445,-5.902 -9.648,-9.683 -4.684,-5.543 -7.812,-11.27 -9.648,-17.172 -1.911,-6.012 -2.305,-11.988 -1.547,-17.891 0.824,-5.871 3.023,-11.629 6.445,-17.281 3.383,-5.656 7.848,-10.941 13.641,-15.805 5.293,-4.5 11.05,-8.027 16.886,-10.547 5.977,-2.664 12.02,-3.851 17.996,-3.851 6.051,-0.11 12.028,1.402 17.825,4.105 5.797,2.7 11.265,7.27 16.308,13.211 3.559,4.25 6.332,8.422 8.348,12.457 2.051,4.028 3.566,7.633 4.355,10.508 v 0 l -39.093,32.977 -19.621,-23.219 9.433,-7.992 10.258,12.168 22.18,-18.719 v 0" /><path
         id="path18"
         style="fill:#ffffff;fill-opacity:1;fill-rule:nonzero;stroke:none"
         d="m 232.906,662.578 42.266,28.082 -7.024,10.547 -29.449,-19.621 -17.855,26.894 26.789,17.786 -7.024,10.547 -26.781,-17.786 -16.058,24.121 28.187,18.723 -6.98,10.547 -40.969,-27.219 54.898,-82.621" /><path
         id="path20"
         style="fill:#ffffff;fill-opacity:1;fill-rule:nonzero;stroke:none"
         d="m 293.316,701.031 13.387,4.75 -26.527,74.735 0.25,0.07 59.652,-62.965 17.535,6.231 -33.234,93.457 -13.387,-4.754 26.746,-75.274 -0.254,-0.109 -59.828,63.543 -17.535,-6.235 33.195,-93.449" /><path
         id="path22"
         style="fill:#ffffff;fill-opacity:1;fill-rule:nonzero;stroke:none"
         d="m 380.617,727.418 50.578,3.094 -0.754,12.597 -35.32,-2.156 -1.941,32.223 32.039,1.941 -0.793,12.672 -32.039,-1.984 -1.766,28.945 33.734,2.051 -0.796,12.601 -49.028,-2.984 6.086,-99" /><path
         id="path24"
         style="fill:#ffffff;fill-opacity:1;fill-rule:nonzero;stroke:none"
         d="m 452.074,729.723 15.051,-2.957 8.496,42.914 4.75,-0.934 v 0 c 4.035,-0.793 6.984,-2.09 8.891,-4.109 1.765,-1.903 3.062,-5.071 3.492,-9.36 v 0 l 4.066,-34.414 16.024,-3.168 -5.582,40.645 v 0 c -0.504,3.851 -1.547,6.695 -2.914,8.57 -1.516,1.727 -3.457,3.129 -5.723,4.031 v 0 l 0.031,0.25 v 0 c 6.696,0 11.953,1.696 15.989,5.258 4.027,3.563 6.55,8.278 7.699,14.114 0.902,4.46 0.937,8.386 0.179,11.878 -0.753,3.457 -2.191,6.481 -4.281,9.106 -2.09,2.558 -4.715,4.683 -8.027,6.34 -3.242,1.687 -7.094,2.84 -11.27,3.672 v 0 l -27.613,5.468 -19.258,-97.304 v 0" /><path
         id="path26"
         style="fill:#ffffff;fill-opacity:1;fill-rule:nonzero;stroke:none"
         d="m 531.242,711.141 46.113,-21.164 5.258,11.484 -32.148,14.762 13.426,29.34 29.23,-13.43 5.293,11.519 -29.234,13.426 12.101,26.32 30.774,-14.117 5.261,11.485 -44.679,20.523 -41.395,-90.148" /><path
         id="path28"
         style="fill:#ffffff;fill-opacity:1;fill-rule:nonzero;stroke:none"
         d="m 595.031,679.031 37.547,-29.773 7.848,9.902 -25.524,20.231 53.711,67.859 -12.019,9.508 -61.563,-77.727" /><path
         id="path30"
         style="fill:#ffffff;fill-opacity:1;fill-rule:nonzero;stroke:none"
         d="m 644.063,637.848 30.453,-36.973 9.757,8.031 -20.699,25.16 66.781,55.012 -9.757,11.84 -76.535,-63.07" /><path
         id="path32"
         style="fill:#ffffff;fill-opacity:1;fill-rule:nonzero;stroke:none"
         d="M 505.211,696.238 C 654.43,652.32 740.289,496.227 697.449,346.68 650.113,181.512 467.734,96.1563 310.559,165.816 c -67.461,29.883 -117.106,80.317 -145.977,148.286 -28.805,68.035 -30.535,138.781 -5.113,208.078 25.449,69.332 72.539,122.144 138.492,155.375 65.949,33.191 136.437,39.562 207.25,18.683 v 0" /><path
         id="path34"
         style="fill:#918f90;fill-opacity:1;fill-rule:nonzero;stroke:none"
         d="m 477.887,781.234 6.156,30.961 8.496,-1.652 v 0 c 5.149,-1.047 9.141,-2.988 11.774,-5.836 2.48,-2.809 3.238,-7.016 2.156,-12.457 v 0 c -0.899,-4.605 -3.094,-8.242 -6.477,-10.578 -3.492,-2.488 -7.996,-3.211 -13.719,-2.094 v 0 l -8.386,1.656 v 0" /><path
         id="path36"
         style="fill:#231f20;fill-opacity:1;fill-rule:nonzero;stroke:none"
         d="M 399.145,563.941 H 266.527 V 417.637 l 39.016,-9.274 v 0 c 0.277,0.856 0.723,2.188 1.062,3.047 0.547,1.301 1.301,2.598 2.051,3.766 2.571,3.73 5.856,6.91 9.688,9.273 4.929,3.012 10.578,4.653 16.359,4.617 6.707,-0.035 13.246,-2.253 18.309,-6.539 4.551,-3.828 7.871,-9.714 10.129,-15.156 1.882,-4.519 3.386,-9.207 4.382,-14.066 1.266,-5.817 1.915,-11.805 1.915,-17.867 0.07,-5.575 -0.442,-11.219 -1.504,-16.7 -0.996,-5.508 -2.637,-11.019 -5.137,-16.015 -2.527,-5.028 -5.984,-9.68 -10.535,-13.035 -5.071,-3.731 -11.157,-5.786 -17.457,-5.958 -6.196,-0.101 -12.285,1.68 -17.485,5.098 -4.828,3.184 -8.664,7.563 -11.019,12.805 -0.653,1.398 -1.406,3.523 -1.922,4.961 v 0 l -37.852,-10.989 v 0 c 0.309,-1.503 0.723,-3.664 1.102,-5.132 1.262,-4.551 3.73,-9.203 6.293,-13.172 4.141,-6.403 9.141,-12.43 14.957,-17.321 6.094,-5.097 13.144,-8.964 20.535,-11.738 8.727,-3.285 18,-5.027 27.242,-4.722 7.871,0.242 15.672,2.015 22.965,4.894 7.387,2.84 14.336,6.777 20.395,11.875 6.504,5.441 11.875,12.012 16.05,19.367 4.481,7.977 7.664,17.219 9.926,26.082 2.461,9.715 4.141,19.95 4.242,29.981 0.102,9.34 -1.269,19.16 -3.183,28.367 -1.918,9.137 -4.789,18.926 -9.102,27.207 -4.078,7.906 -9.586,14.957 -16.226,20.84 -6.602,5.89 -14.231,10.472 -22.52,13.59 -7.973,3.007 -16.492,4.586 -25.047,4.586 -8.109,0 -16.254,-1.407 -23.785,-4.621 -0.855,-0.415 -2.262,-1.032 -3.113,-1.442 v 61.945 h 91.887 v 37.75" /><path
         id="path38"
         style="fill:#231f20;fill-opacity:1;fill-rule:nonzero;stroke:none"
         d="m 174.66,293.148 c 2.305,-4.394 4.676,-8.71 7.16,-12.925 v 0 L 303.215,401.617 287.012,405.504 174.66,293.148 v 0" /><path
         id="path40"
         style="fill:#231f20;fill-opacity:1;fill-rule:nonzero;stroke:none"
         d="m 187.906,270.289 c 2.594,-4.066 5.328,-8.066 8.102,-11.988 v 0 l 66.164,66.168 v 0 c -0.574,1.406 -1.004,2.804 -1.367,4.14 -0.254,0.899 -0.575,2.375 -0.969,4.387 -0.109,0.578 -0.215,0.973 -0.254,1.192 v 0 l -1.297,6.41 28.192,8.172 65.05,65.046 v 0 c -0.976,1.301 -2.015,2.379 -3.097,3.317 -2.696,2.265 -5.797,3.742 -9.25,4.43 v 0 L 187.906,270.289 v 0" /><path
         id="path42"
         style="fill:#231f20;fill-opacity:1;fill-rule:nonzero;stroke:none"
         d="m 361.391,387.578 c -0.254,1.434 -0.508,2.844 -0.793,4.246 -0.828,3.922 -1.981,7.774 -3.493,11.555 v 0 l -48.238,-48.238 2.199,-6.157 v 0 c 0.75,-2.125 1.329,-3.597 1.688,-4.429 0.578,-1.258 1.262,-2.446 2.016,-3.598 v 0 l 46.621,46.621 v 0" /><path
         id="path44"
         style="fill:#231f20;fill-opacity:1;fill-rule:nonzero;stroke:none"
         d="m 342.023,332.133 15.082,15.09 v 0 c 1.657,3.672 2.954,7.918 3.852,12.812 0.793,4.141 1.227,8.32 1.367,12.492 v 0 l -39.023,-39.019 v 0 c 3.383,-1.805 7.023,-2.703 10.836,-2.703 0.179,0 0.359,0 0.508,0 2.593,0.07 5.039,0.504 7.378,1.328 v 0" /><path
         id="path46"
         style="fill:#231f20;fill-opacity:1;fill-rule:nonzero;stroke:none"
         d="m 237.984,212.074 c 3.563,-3.129 7.235,-6.156 10.977,-9.105 v 0 l 74.305,74.301 v 0 c -5.293,0.832 -10.618,2.199 -15.911,4.179 v 0 l -69.371,-69.375 v 0" /><path
         id="path48"
         style="fill:#231f20;fill-opacity:1;fill-rule:nonzero;stroke:none"
         d="m 258.105,196.094 c 3.926,-2.774 7.887,-5.508 11.954,-8.141 v 0 l 95.039,95.043 v 0 c -0.973,-0.398 -1.942,-0.793 -2.914,-1.191 -7.961,-3.094 -15.84,-4.856 -23.653,-5.293 v 0 l -80.426,-80.418 v 0" /><path
         id="path50"
         style="fill:#231f20;fill-opacity:1;fill-rule:nonzero;stroke:none"
         d="m 509.465,566.902 c -5.242,0 -10.817,-1.16 -15.848,-2.562 -12.937,-3.625 -24.027,-12.527 -32.07,-23.305 -6.77,-9.039 -11.602,-20.058 -14.953,-30.765 -3.18,-10.032 -5.543,-20.915 -7.356,-31.211 -2.019,-11.739 -3.593,-24.059 -4.078,-35.969 -0.512,-11.637 0.035,-24.61 0.86,-36.176 0.855,-11.738 2.05,-24.23 3.902,-35.863 2.121,-13.348 5.336,-26.797 10.023,-39.426 4.899,-13.242 12.598,-27.82 23.684,-36.547 10.269,-8.109 23.203,-12.082 36.246,-11.566 13.859,0.441 27.035,5.918 37.199,15.297 9.102,8.347 15.711,20.839 20.262,32.371 5.027,12.8 8.555,26.523 11.019,40.074 2.153,11.844 3.629,23.75 4.481,35.797 0.855,12.836 0.992,25.738 0.582,38.57 -0.375,11.121 -1.23,22.555 -2.875,33.539 -1.605,10.711 -3.969,21.387 -7.395,31.656 -3.523,10.676 -8.484,21.454 -15.296,30.422 -7.801,10.266 -18.375,19.032 -30.766,22.762 -5.645,1.707 -11.738,2.902 -17.621,2.902 v 0" /><path
         id="path52"
         style="fill:#231f20;fill-opacity:1;fill-rule:nonzero;stroke:none"
         d="m 202.883,249.156 c 2.914,-3.746 5.941,-7.418 9.07,-11.015 v 0 l 64.297,64.297 v 0 c -2.914,3.308 -5.687,6.98 -8.281,11.015 -0.106,0.141 -0.215,0.32 -0.321,0.469 v 0 l -64.765,-64.766 v 0" /><path
         id="path54"
         style="fill:#231f20;fill-opacity:1;fill-rule:nonzero;stroke:none"
         d="m 219.551,229.789 c 3.277,-3.457 6.621,-6.805 10.043,-10.082 v 0 l 66.711,66.711 v 0 c -4.356,2.375 -8.356,5.074 -11.989,8.133 v 0 l -64.765,-64.762 v 0" /><path
         id="path56"
         style="fill:#231f20;fill-opacity:1;fill-rule:nonzero;stroke:none"
         d="m 279.957,181.871 c 4.246,-2.48 8.535,-4.859 12.926,-7.164 v 0 L 444.406,326.27 v 0 c -0.359,0.933 -0.754,1.906 -1.113,2.878 -1.441,3.922 -2.773,7.922 -4,12.059 v 0 L 279.957,181.871 v 0" /><path
         id="path58"
         style="fill:#231f20;fill-opacity:1;fill-rule:nonzero;stroke:none"
         d="m 570.012,668.445 c -4.215,2.489 -8.496,4.899 -12.852,7.203 v 0 L 406.246,524.734 v -5.613 h -5.617 l -44.816,-44.82 v 0 c 1.976,-0.574 3.957,-1.227 5.902,-1.942 2.914,-1.121 5.723,-2.343 8.461,-3.746 v 0 l 199.836,199.832 v 0" /><path
         id="path60"
         style="fill:#231f20;fill-opacity:1;fill-rule:nonzero;stroke:none"
         d="m 591.793,654.121 c -3.891,2.809 -7.852,5.543 -11.879,8.168 v 0 L 487.387,569.77 v 0 c 1.441,0.543 2.847,0.972 4.324,1.406 6.73,1.871 12.637,2.808 17.746,2.808 0.719,0 1.441,0 2.16,-0.035 v 0 l 80.176,80.172 v 0" /><path
         id="path62"
         style="fill:#231f20;fill-opacity:1;fill-rule:nonzero;stroke:none"
         d="m 611.879,638.066 c -3.563,3.129 -7.234,6.192 -10.945,9.141 v 0 l -75.422,-75.422 v 0 c 1.191,-0.285 2.414,-0.648 3.64,-1.004 3.743,-1.152 7.375,-2.629 10.907,-4.535 v 0 l 71.82,71.82 v 0" /><path
         id="path64"
         style="fill:#231f20;fill-opacity:1;fill-rule:nonzero;stroke:none"
         d="m 675.598,557.422 c -2.301,4.359 -4.715,8.641 -7.235,12.855 v 0 l -82.152,-82.152 v 0 c 0.504,-2.594 0.937,-5.219 1.332,-7.922 0.465,-3.094 0.898,-6.262 1.262,-9.574 v 0 l 86.793,86.793 v 0" /><path
         id="path66"
         style="fill:#231f20;fill-opacity:1;fill-rule:nonzero;stroke:none"
         d="m 662.207,580.141 c -2.625,3.996 -5.367,7.957 -8.207,11.839 v 0 l -75.348,-75.343 v 0 c 0.395,-1.188 0.825,-2.379 1.223,-3.602 1.258,-3.816 2.41,-7.738 3.457,-11.769 v 0 l 78.875,78.875 v 0" /><path
         id="path68"
         style="fill:#231f20;fill-opacity:1;fill-rule:nonzero;stroke:none"
         d="m 647.051,601.094 c -2.914,3.707 -5.977,7.379 -9.106,10.941 v 0 L 566.77,540.863 v 0 c 2.628,-3.925 5.003,-8.207 7.199,-12.89 v 0 l 73.082,73.121 v 0" /><path
         id="path70"
         style="fill:#231f20;fill-opacity:1;fill-rule:nonzero;stroke:none"
         d="m 630.273,620.426 c -3.277,3.418 -6.585,6.765 -10.043,10.004 v 0 l -70.562,-70.559 v 0 c 3.566,-2.844 6.988,-6.121 10.191,-9.859 v 0 l 70.414,70.414 v 0" /><path
         id="path72"
         style="fill:#231f20;fill-opacity:1;fill-rule:nonzero;stroke:none"
         d="m 435.949,498.242 c 1.184,5 2.481,9.719 3.887,14.145 1.801,5.722 3.816,11.015 6.082,15.914 v 0 l -65.805,-65.813 v 0 c 2.192,-1.547 4.282,-3.234 6.332,-5.07 1.516,-1.367 3.024,-2.773 4.43,-4.25 v 0 l 45.074,45.074 v 0" /><path
         id="path74"
         style="fill:#231f20;fill-opacity:1;fill-rule:nonzero;stroke:none"
         d="m 428.852,455.078 c 0.683,7.344 1.695,15.043 3.027,23.074 v 0 l -33.695,-33.695 v 0 c 2.23,-3.133 4.25,-6.445 6.046,-9.902 0.469,-0.899 0.938,-1.801 1.368,-2.774 v 0 l 23.254,23.297 v 0" /><path
         id="path76"
         style="fill:#231f20;fill-opacity:1;fill-rule:nonzero;stroke:none"
         d="m 428.242,418.395 c -0.254,5.285 -0.359,10.332 -0.359,15.082 0,1.582 0,3.128 0.039,4.644 v 0 l -17.824,-17.824 v 0 c 1.476,-4.535 2.773,-9.469 3.886,-14.754 0.075,-0.398 0.18,-0.797 0.254,-1.191 v 0 l 14.004,14.043 v 0" /><path
         id="path78"
         style="fill:#231f20;fill-opacity:1;fill-rule:nonzero;stroke:none"
         d="m 416.469,390.566 c 0.578,-4.898 0.867,-9.543 0.867,-13.894 0,-0.328 0,-0.688 0,-1.047 -0.035,-1.441 -0.074,-2.914 -0.145,-4.43 v 0 l 13.719,13.715 v 0 c -0.652,5.727 -1.226,11.848 -1.73,18.36 v 0 l -12.711,-12.704 v 0" /><path
         id="path80"
         style="fill:#231f20;fill-opacity:1;fill-rule:nonzero;stroke:none"
         d="m 432.777,370.762 -17.929,-17.926 v 0 c -0.575,-2.879 -1.219,-5.832 -1.977,-8.856 -1.91,-7.378 -4.105,-14.003 -6.699,-19.91 v 0 l 29.844,29.848 v 0 c -1.188,5.145 -2.231,10.512 -3.094,16.02 -0.035,0.285 -0.07,0.574 -0.145,0.824 v 0" /><path
         id="path82"
         style="fill:#ffffff;fill-opacity:1;fill-rule:nonzero;stroke:none"
         d="m 509.723,526.137 c 3.183,0.101 6.293,-0.582 9.066,-2.082 2.738,-1.442 4.926,-4.004 6.606,-6.504 2.703,-4.246 4.621,-10.238 5.886,-15.129 2.157,-8.281 3.832,-16.801 5.137,-25.324 1.297,-8.762 2.254,-17.66 2.871,-26.524 0.586,-9.101 0.961,-18.207 0.891,-27.344 -0.032,-10.265 -0.481,-20.562 -1.407,-30.867 -0.886,-10.304 -2.355,-21.047 -4.582,-31.109 -1.539,-6.981 -3.628,-14.102 -6.336,-20.738 -1.398,-3.422 -3.21,-7.047 -5.406,-10.063 -1.433,-2.015 -3.25,-3.969 -5.367,-5.402 -2.262,-1.442 -4.934,-2.367 -7.703,-2.5 -3.215,-0.207 -6.535,0.547 -9.207,2.429 -1.914,1.297 -3.695,3.458 -4.996,5.407 -2.055,3.148 -3.832,6.57 -5.27,10.097 -2.738,6.465 -4.59,13.926 -5.922,20.84 -1.777,9.824 -3.011,21.629 -3.796,31.551 -0.754,9.793 -1.473,21.117 -1.473,30.871 0,8.996 0.547,18.172 1.473,27.172 0.886,8.93 2.191,17.898 3.761,26.762 1.403,8.043 3.184,16.496 5.34,24.367 1.406,5.133 3.559,11.258 6.535,15.605 1.715,2.465 3.938,4.926 6.61,6.332 2.218,1.161 4.718,2.016 7.289,2.153 v 0" /><path
         id="path84"
         style="fill:#231f20;fill-opacity:1;fill-rule:nonzero;stroke:none"
         d="m 489.551,371.41 43.414,43.379 v 0 c 0.074,2.809 0.109,5.621 0.144,8.465 0,0.574 0,1.148 0,1.726 0,3.239 -0.07,6.512 -0.144,9.899 v 0 L 487.57,389.48 v 0 c 0.575,-6.621 1.223,-12.632 1.981,-18.07 v 0" /><path
         id="path86"
         style="fill:#231f20;fill-opacity:1;fill-rule:nonzero;stroke:none"
         d="m 508.668,518.867 -9.219,-9.215 v 0 c -1.187,-2.593 -2.304,-5.726 -3.312,-9.468 -1.512,-5.438 -2.879,-11.45 -4.172,-18.071 v 0 l 28.945,28.907 v 0 c -0.469,1.046 -0.976,1.91 -1.441,2.66 -1.332,2.019 -2.668,3.39 -4.035,4.109 -1.547,0.863 -3.243,1.293 -4.969,1.293 -0.141,0 -0.289,-0.035 -0.465,-0.035 -0.398,0 -0.863,-0.074 -1.332,-0.18 v 0" /><path
         id="path88"
         style="fill:#231f20;fill-opacity:1;fill-rule:nonzero;stroke:none"
         d="m 524.867,498.961 -36.105,-36.109 v 0 c -0.617,-4.321 -1.121,-8.532 -1.516,-12.637 -0.359,-3.344 -0.609,-6.621 -0.828,-9.789 v 0 l 41.941,41.976 v 0 c -0.972,5.684 -2.164,11.192 -3.492,16.559 v 0" /><path
         id="path90"
         style="fill:#231f20;fill-opacity:1;fill-rule:nonzero;stroke:none"
         d="m 530.445,468.434 -44.64,-44.641 v 0 c 0,-0.039 0,-0.039 0,-0.039 0,-5.399 0.215,-11.84 0.683,-19.363 v 0 l 45.723,45.754 v 0 c -0.395,6.085 -0.969,12.203 -1.766,18.289 v 0" /></g></g></svg>