<?xml version="1.0" encoding="UTF-8" standalone="no"?>
<svg
   xmlns:dc="http://purl.org/dc/elements/1.1/"
   xmlns:cc="http://creativecommons.org/ns#"
   xmlns:rdf="http://www.w3.org/1999/02/22-rdf-syntax-ns#"
   xmlns:svg="http://www.w3.org/2000/svg"
   xmlns="http://www.w3.org/2000/svg"
   viewBox="0 0 113.76 113.76"
   height="113.76"
   width="113.76"
   xml:space="preserve"
   id="svg2"
   version="1.1"><metadata
     id="metadata8"><rdf:RDF><cc:Work
         rdf:about=""><dc:format>image/svg+xml</dc:format><dc:type
           rdf:resource="http://purl.org/dc/dcmitype/StillImage" /></cc:Work></rdf:RDF></metadata><defs
     id="defs6" /><g
     transform="matrix(1.3333333,0,0,-1.3333333,0,113.76)"
     id="g10"><g
       transform="scale(0.1)"
       id="g12"><path
         id="path14"
         style="fill:#ffffff;fill-opacity:1;fill-rule:nonzero;stroke:none"
         d="M 426.617,851.809 C 191.855,851.809 1.41797,661.367 1.41797,426.609 1.41797,191.855 191.855,1.41797 426.617,1.41797 c 234.75,0 425.192,190.43703 425.192,425.19103 0,234.758 -190.442,425.2 -425.192,425.2 v 0" /><path
         id="path16"
         style="fill:none;stroke:#231f20;stroke-width:2.83500004;stroke-linecap:butt;stroke-linejoin:round;stroke-miterlimit:4;stroke-dasharray:none;stroke-opacity:1"
         d="M 426.617,851.809 C 191.855,851.809 1.41797,661.367 1.41797,426.609 1.41797,191.855 191.855,1.41797 426.617,1.41797 c 234.75,0 425.192,190.43703 425.192,425.19103 0,234.758 -190.442,425.2 -425.192,425.2 v 0" /><path
         id="path18"
         style="fill:#231f20;fill-opacity:1;fill-rule:nonzero;stroke:none"
         d="m 493.293,343.977 -35.195,-0.079 -0.09,-12.238 h 312.805 l -0.04,12 -40.949,-0.015 v 0 c 1.074,0.82 2.578,2.031 3.301,3.152 0.93,1.406 1.242,3.273 1.242,4.949 v 0 l -0.039,40.449 8.309,-0.105 v 0 c 0.324,1.426 0.781,3.558 0.91,5.023 0.144,1.485 0.137,3.672 0.098,5.157 -0.02,0.449 -0.02,0.882 -0.02,1.32 -0.02,0.433 -0.02,0.887 -0.02,1.305 0,0.214 0,0.449 0.02,0.668 0,0.214 0,0.414 0.02,0.648 0.144,3.273 0.847,6.656 1.757,9.82 0.496,1.719 1.258,4.196 1.778,5.914 0.203,0.649 0.429,1.371 0.613,2.024 0.195,0.672 0.402,1.34 0.605,2.008 0.149,0.523 0.313,1.05 0.469,1.574 0.149,0.519 0.293,1.027 0.461,1.551 0.906,3.183 1.57,6.421 1.961,9.711 0.168,1.414 0.274,2.824 0.313,4.234 0.039,1.406 0,2.816 -0.086,4.23 -0.207,2.782 -0.95,5.496 -2.188,8.012 -0.723,1.445 -1.574,2.836 -2.519,4.156 -0.969,1.321 -2.043,2.567 -3.204,3.723 -2.257,2.227 -4.941,4.141 -7.929,5.266 -2.668,1.011 -5.957,1.804 -8.762,2.386 v 0 l -27.754,55.313 v 0 c -1.18,2.367 -2.683,4.609 -4.336,6.687 -1.719,2.176 -4.09,4.938 -6.277,6.692 -2.317,1.867 -5.129,3.039 -8.086,3.523 -2.129,0.348 -4.563,0.602 -6.711,0.785 -0.273,0.012 -0.645,0.051 -0.918,0.086 -0.391,0.039 -0.762,0.074 -1.172,0.094 -0.371,0.031 -0.762,0.07 -1.152,0.086 -0.164,0.019 -0.352,0.019 -0.516,0.039 -0.168,0 -0.332,0 -0.519,0 v 0 l -129.942,0.195 v 0 c -2.812,0.02 -5.554,-0.957 -7.898,-2.472 -2.617,-1.684 -4.785,-3.961 -6.301,-6.637 -1.004,-1.754 -2.227,-4.16 -3.137,-5.969 v 0 L 493.41,471.289 v 0 c -2.433,-0.562 -5.285,-1.316 -7.597,-2.207 -2.032,-0.777 -3.946,-1.859 -5.645,-3.219 -1.055,-0.828 -2.082,-1.754 -3.039,-2.711 -0.945,-0.972 -1.836,-1.992 -2.664,-3.054 -2.246,-2.93 -4.024,-6.239 -4.942,-9.785 -0.859,-3.274 -1.132,-6.668 -0.675,-10.016 0.304,-2.246 0.871,-5.516 1.281,-7.738 0.078,-0.403 0.144,-0.817 0.223,-1.211 0.07,-0.434 0.128,-0.797 0.207,-1.215 0.027,-0.195 0.066,-0.414 0.105,-0.61 0.039,-0.222 0.078,-0.382 0.109,-0.601 0.372,-2.223 0.86,-5.492 1.172,-7.738 0.059,-0.438 0.145,-0.993 0.203,-1.45 0.071,-0.519 0.129,-0.921 0.207,-1.445 0.028,-0.23 0.067,-0.469 0.106,-0.719 0.039,-0.222 0.078,-0.492 0.109,-0.711 0.098,-0.629 1.727,-11.371 1.727,-11.988 -0.02,-1.226 -0.164,-12.004 0.644,-12.941 0.618,-0.692 1.504,-1.09 2.442,-1.106 1.777,-0.019 3.562,0.055 5.344,0.215 1.757,0.184 3.515,0.438 5.253,0.777 v 0 l 0.372,-38.906 v 0 c 0.019,-1.883 0.332,-4.687 1.738,-5.937 v 0 l 3.242,-2.95 v -0.031 l -0.019,-0.015 h -0.02 v 0" /><path
         id="path20"
         style="fill:#231f20;fill-opacity:1;fill-rule:nonzero;stroke:none"
         d="M 117.707,343.977 82.5039,343.898 82.418,331.66 h 312.801 l -0.039,12 -40.942,-0.015 v 0 c 1.075,0.82 2.575,2.031 3.297,3.152 0.926,1.406 1.238,3.273 1.238,4.949 v 0 l -0.031,40.449 8.309,-0.105 v 0 c 0.316,1.426 0.781,3.558 0.91,5.023 0.148,1.485 0.129,3.672 0.09,5.157 -0.02,0.449 -0.02,0.882 -0.02,1.32 -0.011,0.433 -0.011,0.887 -0.011,1.305 0,0.214 0,0.449 0.011,0.668 0,0.214 0,0.414 0.02,0.648 0.152,3.273 0.855,6.656 1.758,9.82 0.504,1.719 1.261,4.196 1.785,5.914 0.199,0.649 0.422,1.371 0.609,2.024 0.199,0.672 0.406,1.34 0.61,2.008 0.148,0.523 0.312,1.05 0.464,1.574 0.145,0.519 0.293,1.027 0.457,1.551 0.911,3.183 1.579,6.421 1.965,9.711 0.172,1.414 0.278,2.824 0.317,4.234 0.039,1.406 0,2.816 -0.094,4.23 -0.203,2.782 -0.942,5.496 -2.188,8.012 -0.714,1.445 -1.57,2.836 -2.511,4.156 -0.969,1.321 -2.039,2.567 -3.203,3.723 -2.262,2.227 -4.95,4.141 -7.93,5.266 -2.668,1.011 -5.965,1.804 -8.758,2.386 v 0 l -27.758,55.313 v 0 c -1.187,2.367 -2.683,4.609 -4.336,6.687 -1.722,2.176 -4.09,4.938 -6.277,6.692 -2.316,1.867 -5.129,3.039 -8.094,3.523 -2.129,0.348 -4.554,0.602 -6.703,0.785 -0.277,0.012 -0.644,0.051 -0.922,0.086 -0.39,0.039 -0.762,0.074 -1.168,0.094 -0.371,0.031 -0.761,0.07 -1.148,0.086 -0.168,0.019 -0.356,0.019 -0.52,0.039 -0.168,0 -0.336,0 -0.519,0 v 0 l -129.942,0.195 v 0 c -2.812,0.02 -5.554,-0.957 -7.906,-2.472 -2.609,-1.684 -4.777,-3.961 -6.297,-6.637 -1,-1.754 -2.222,-4.16 -3.129,-5.969 v 0 l -28.797,-57.953 v 0 c -2.425,-0.562 -5.277,-1.316 -7.589,-2.207 -2.039,-0.777 -3.946,-1.859 -5.653,-3.219 -1.054,-0.828 -2.07,-1.754 -3.035,-2.711 -0.941,-0.972 -1.832,-1.992 -2.6679,-3.054 -2.2383,-2.93 -4.0156,-6.239 -4.9414,-9.785 -0.8516,-3.274 -1.1328,-6.668 -0.668,-10.016 0.2969,-2.246 0.8711,-5.516 1.2813,-7.738 0.0703,-0.403 0.1445,-0.817 0.2187,-1.211 0.0742,-0.434 0.1328,-0.797 0.2031,-1.215 0.0391,-0.195 0.0743,-0.414 0.1133,-0.61 0.0352,-0.222 0.0742,-0.382 0.1133,-0.601 0.3672,-2.223 0.8477,-5.492 1.1602,-7.738 0.0586,-0.438 0.1523,-0.993 0.207,-1.45 0.0742,-0.519 0.1328,-0.921 0.2031,-1.445 0.0352,-0.23 0.0742,-0.469 0.1133,-0.719 0.0352,-0.222 0.0742,-0.492 0.1094,-0.711 0.0898,-0.629 1.7226,-11.371 1.7226,-11.988 -0.0195,-1.226 -0.1679,-12.004 0.6485,-12.941 0.6093,-0.692 1.4995,-1.09 2.4415,-1.106 1.781,-0.019 3.558,0.055 5.336,0.215 1.758,0.184 3.515,0.438 5.262,0.777 v 0 l 0.371,-38.906 v 0 c 0.011,-1.883 0.332,-4.687 1.738,-5.937 v 0 l 3.242,-2.95 v -0.031 l -0.019,-0.015 h -0.02 v 0" /><path
         id="path22"
         style="fill:#231f20;fill-opacity:1;fill-rule:nonzero;stroke:none"
         d="m 177.637,99.5117 c 5.328,-4.0625 10.765,-8.0273 16.273,-11.8047 v 0 l 255.672,255.672 0.078,9.004 8.953,0.027 21.028,21.028 -0.071,8.89 v 0 c -0.683,0 -1.445,0 -2.195,0 -3.527,0 -6.477,1.332 -8.82,4 -0.614,0.684 -1.114,1.547 -1.512,2.594 v 0 l -63.289,-63.324 v -2.453 h -2.449 L 177.637,99.5117 v 0" /><path
         id="path24"
         style="fill:#231f20;fill-opacity:1;fill-rule:nonzero;stroke:none"
         d="m 69.9258,222.207 c 3.3867,-5.945 6.9101,-11.738 10.582,-17.5 v 0 L 198.949,323.145 H 170.871 L 69.9258,222.207 v 0" /><path
         id="path26"
         style="fill:#231f20;fill-opacity:1;fill-rule:nonzero;stroke:none"
         d="m 87.7109,193.906 c 3.8125,-5.508 7.7383,-10.945 11.8047,-16.269 v 0 L 245.031,323.145 H 216.949 L 87.7109,193.906 v 0" /><path
         id="path28"
         style="fill:#231f20;fill-opacity:1;fill-rule:nonzero;stroke:none"
         d="m 107.477,167.59 c 4.175,-5.149 8.496,-10.188 12.918,-15.156 v 0 L 291.109,323.145 H 263.031 L 107.477,167.59 v 0" /><path
         id="path30"
         style="fill:#231f20;fill-opacity:1;fill-rule:nonzero;stroke:none"
         d="m 129.07,143.117 c 2.274,-2.414 4.578,-4.758 6.95,-7.101 2.339,-2.371 4.683,-4.676 7.097,-6.942 v 0 L 337.188,323.145 H 309.145 L 129.07,143.117 v 0" /><path
         id="path32"
         style="fill:#231f20;fill-opacity:1;fill-rule:nonzero;stroke:none"
         d="m 152.438,120.391 c 4.968,-4.422 10.007,-8.739 15.156,-12.918 v 0 L 383.273,323.145 H 355.227 L 152.438,120.391 v 0" /><path
         id="path34"
         style="fill:#231f20;fill-opacity:1;fill-rule:nonzero;stroke:none"
         d="m 204.711,80.5078 c 5.758,-3.6719 11.555,-7.1953 17.496,-10.5859 v 0 L 475.43,323.145 h -25.996 l 0.039,2.089 L 204.711,80.5078 v 0" /><path
         id="path36"
         style="fill:#231f20;fill-opacity:1;fill-rule:nonzero;stroke:none"
         d="m 648.516,772.715 c -5.723,3.672 -11.551,7.203 -17.461,10.586 v 0 L 346.73,498.969 l 9.36,-18.68 292.426,292.426 v 0" /><path
         id="path38"
         style="fill:#231f20;fill-opacity:1;fill-rule:nonzero;stroke:none"
         d="m 675.586,753.707 c -5.32,4.066 -10.762,7.992 -16.27,11.805 v 0 L 367.863,474.059 v 0 c 2.157,-1.293 4.172,-2.914 6.117,-4.825 1.551,-1.507 2.918,-3.129 4.141,-4.824 1.192,-1.617 2.195,-3.312 3.094,-5.074 v 0 l 294.371,294.371 v 0" /><path
         id="path40"
         style="fill:#231f20;fill-opacity:1;fill-rule:nonzero;stroke:none"
         d="m 700.793,732.828 c -4.973,4.43 -10.012,8.75 -15.117,12.926 v 0 L 384.531,444.609 v 0 c 0,-0.324 0,-0.683 0,-1.039 0,-0.074 0,-0.148 0,-0.254 0,-0.148 0,-0.214 0,-0.289 0,-1.367 -0.144,-3.093 -0.394,-5.218 -0.434,-3.746 -1.192,-7.454 -2.239,-11.09 -0.031,-0.18 -0.14,-0.43 -0.246,-0.789 -0.074,-0.328 -0.148,-0.543 -0.183,-0.688 -0.106,-0.285 -0.215,-0.679 -0.36,-1.187 -0.07,-0.215 -0.109,-0.399 -0.14,-0.465 -0.074,-0.289 -0.184,-0.649 -0.328,-1.117 -0.141,-0.434 -0.215,-0.719 -0.289,-0.903 -0.106,-0.433 -0.321,-1.117 -0.61,-2.015 0,-0.039 0,-0.071 0,-0.106 -0.035,-0.109 -0.109,-0.254 -0.179,-0.504 -0.758,-2.523 -1.297,-4.289 -1.583,-5.257 -0.468,-1.692 -0.867,-3.278 -1.082,-4.75 v 0 l 323.895,323.89 v 0" /><path
         id="path42"
         style="fill:#231f20;fill-opacity:1;fill-rule:nonzero;stroke:none"
         d="m 724.152,710.113 c -2.265,2.41 -4.57,4.75 -6.945,7.09 -2.344,2.375 -4.676,4.684 -7.059,6.949 v 0 L 538.789,552.828 v 0 c 0.254,0 0.508,0 0.723,0 h 0.031 v 0 l 27.293,-0.035 157.316,157.32 v 0" /><path
         id="path44"
         style="fill:#231f20;fill-opacity:1;fill-rule:nonzero;stroke:none"
         d="m 745.754,685.629 c -4.172,5.152 -8.457,10.191 -12.922,15.125 v 0 l -147.996,-148 28.008,-0.035 132.91,132.91 v 0" /><path
         id="path46"
         style="fill:#231f20;fill-opacity:1;fill-rule:nonzero;stroke:none"
         d="m 765.52,659.316 c -3.782,5.508 -7.747,10.911 -11.809,16.235 v 0 L 630.84,552.68 658.848,552.648 765.52,659.316 v 0" /><path
         id="path48"
         style="fill:#231f20;fill-opacity:1;fill-rule:nonzero;stroke:none"
         d="m 783.301,631.02 c -3.379,5.906 -6.914,11.734 -10.586,17.457 v 0 l -96.367,-96.368 v 0 c 2.05,-0.179 3.886,-0.398 5.468,-0.687 4.571,-0.719 8.606,-2.481 12.063,-5.289 0.75,-0.613 1.582,-1.332 2.41,-2.125 v 0 l 87.012,87.012 v 0" /><path
         id="path50"
         style="fill:#231f20;fill-opacity:1;fill-rule:nonzero;stroke:none"
         d="m 465.637,405.512 c -0.215,1.836 -0.715,5.187 -1.477,10.086 0,0.07 -0.039,0.215 -0.066,0.394 0,0.106 -0.039,0.215 -0.039,0.254 -0.039,0.356 -0.071,0.609 -0.11,0.824 -0.105,0.61 -0.175,1.118 -0.215,1.547 -0.039,0.149 -0.066,0.399 -0.105,0.793 -0.078,0.285 -0.078,0.469 -0.109,0.613 -0.399,2.844 -0.762,5.329 -1.114,7.489 0,0.039 -0.039,0.07 -0.039,0.105 -0.039,0.18 -0.039,0.289 -0.078,0.395 0,0.113 -0.027,0.222 -0.066,0.402 0,0.106 -0.039,0.176 -0.039,0.215 -0.032,0.18 -0.071,0.43 -0.11,0.758 -0.027,0.215 -0.066,0.355 -0.105,0.461 0,0.039 0,0.039 0,0.074 v 0 l -77.762,-77.754 h 19.445 l 0.036,-8.613 61.953,61.957 v 0" /><path
         id="path52"
         style="fill:#231f20;fill-opacity:1;fill-rule:nonzero;stroke:none"
         d="m 460.234,446.195 c 0.149,2.086 0.508,4.176 1.047,6.266 1.192,4.496 3.309,8.785 6.446,12.812 1.043,1.332 2.156,2.633 3.347,3.852 1.153,1.188 2.414,2.305 3.821,3.387 2.41,1.906 5.039,3.422 7.878,4.5 1.407,0.539 2.989,1.078 4.758,1.547 v 0 l 22.676,45.683 -135.109,-135.105 -1.227,-5.657 -4.355,0.075 -2.266,-2.305 v -28.047 l 92.984,92.992 v 0" /><path
         id="path54"
         style="fill:#ffffff;fill-opacity:1;fill-rule:nonzero;stroke:none"
         d="m 513.488,391.82 71.903,0.071 v 0 c 2.187,-2.223 4.757,-4.629 7.257,-6.508 2.02,-1.5 4.266,-2.68 6.668,-3.488 1.465,-0.489 2.961,-0.868 4.504,-1.176 1.512,-0.289 3.055,-0.489 4.61,-0.598 3.593,-0.219 7.207,0.07 10.703,0.863 1.406,0.329 2.793,0.762 4.109,1.34 1.34,0.563 2.61,1.231 3.821,2.028 2.664,1.753 5.976,5.242 8.125,7.613 v 0 l 73.757,0.219 0.254,-40.524 v 0 c 0,-1.719 0.696,-3.371 1.778,-4.715 0.91,-1.105 2.003,-2.187 3.058,-3.156 v 0 l -204.551,-0.051 v 0 c 0.821,0.664 1.649,1.41 2.332,2.207 1.379,1.555 2.102,3.547 2.082,5.586 v 0 l -0.41,40.289 v 0" /><path
         id="path56"
         style="fill:#ffffff;fill-opacity:1;fill-rule:nonzero;stroke:none"
         d="m 705.715,475.738 c -5.891,0.867 -14.59,2.098 -20.5,2.77 -7.012,0.793 -14.051,1.39 -21.102,1.75 -11.445,0.617 -22.91,1.015 -34.375,1.195 -19.875,0.309 -40.332,0.129 -60.168,-0.848 -12.683,-0.632 -26.425,-1.683 -38.972,-3.511 -4.766,-0.688 -11.711,-1.879 -16.426,-2.707 v 0 l 21.883,45.816 v 0 c 1.093,2.277 2.726,4.25 4.707,5.844 1.66,1.336 3.515,2.473 5.5,3.344 0.605,0.265 1.238,0.468 1.902,0.613 0.645,0.129 1.32,0.195 2.004,0.195 v 0 l 118.926,-0.543 v 0 c 2.976,-0.011 6.074,-0.593 8.679,-2.004 1.446,-0.797 2.766,-1.808 3.887,-3.019 0.617,-0.668 1.172,-1.375 1.692,-2.133 0.496,-0.742 0.937,-1.539 1.328,-2.352 v 0 l 21.035,-44.41 v 0" /><path
         id="path58"
         style="fill:#ffffff;fill-opacity:1;fill-rule:nonzero;stroke:none"
         d="m 137.895,391.82 71.91,0.071 v 0 c 2.183,-2.223 4.758,-4.629 7.258,-6.508 2.019,-1.5 4.261,-2.68 6.667,-3.488 1.461,-0.489 2.965,-0.868 4.497,-1.176 1.519,-0.289 3.058,-0.489 4.617,-0.598 3.586,-0.219 7.199,0.07 10.703,0.863 1.406,0.329 2.793,0.762 4.109,1.34 1.332,0.563 2.61,1.231 3.813,2.028 2.668,1.753 5.984,5.242 8.133,7.613 v 0 l 73.753,0.219 0.262,-40.524 v 0 c 0,-1.719 0.684,-3.371 1.778,-4.715 0.906,-1.105 2,-2.187 3.05,-3.156 v 0 l -204.547,-0.051 v 0 c 0.813,0.664 1.649,1.41 2.332,2.207 1.372,1.555 2.094,3.547 2.075,5.586 v 0 l -0.41,40.289 v 0" /><path
         id="path60"
         style="fill:#ffffff;fill-opacity:1;fill-rule:nonzero;stroke:none"
         d="m 330.129,475.738 c -5.891,0.867 -14.59,2.098 -20.5,2.77 -7.016,0.793 -14.051,1.39 -21.109,1.75 -11.446,0.617 -22.911,1.015 -34.368,1.195 -19.875,0.309 -40.332,0.129 -60.168,-0.848 -12.683,-0.632 -26.425,-1.683 -38.98,-3.511 -4.758,-0.688 -11.703,-1.879 -16.426,-2.707 v 0 l 21.887,45.816 v 0 c 1.094,2.277 2.723,4.25 4.707,5.844 1.664,1.336 3.516,2.473 5.496,3.344 0.613,0.265 1.242,0.468 1.91,0.613 0.649,0.129 1.313,0.195 1.996,0.195 v 0 L 293.5,529.656 v 0 c 2.98,-0.011 6.074,-0.593 8.688,-2.004 1.441,-0.797 2.757,-1.808 3.886,-3.019 0.61,-0.668 1.168,-1.375 1.684,-2.133 0.504,-0.742 0.949,-1.539 1.336,-2.352 v 0 l 21.035,-44.41 v 0" /></g></g></svg>