<?xml version="1.0" encoding="UTF-8" standalone="no"?>
<svg
   xmlns:dc="http://purl.org/dc/elements/1.1/"
   xmlns:cc="http://creativecommons.org/ns#"
   xmlns:rdf="http://www.w3.org/1999/02/22-rdf-syntax-ns#"
   xmlns:svg="http://www.w3.org/2000/svg"
   xmlns="http://www.w3.org/2000/svg"
   viewBox="0 0 113.76 113.76"
   height="113.76"
   width="113.76"
   xml:space="preserve"
   id="svg2"
   version="1.1"><metadata
     id="metadata8"><rdf:RDF><cc:Work
         rdf:about=""><dc:format>image/svg+xml</dc:format><dc:type
           rdf:resource="http://purl.org/dc/dcmitype/StillImage" /></cc:Work></rdf:RDF></metadata><defs
     id="defs6" /><g
     transform="matrix(1.3333333,0,0,-1.3333333,0,113.76)"
     id="g10"><g
       transform="scale(0.1)"
       id="g12"><path
         id="path14"
         style="fill:#ffffff;fill-opacity:1;fill-rule:nonzero;stroke:none"
         d="m 851.809,426.609 c 0,234.832 -190.364,425.2 -425.192,425.2 C 191.781,851.809 1.41797,661.441 1.41797,426.609 1.41797,191.777 191.781,1.41797 426.617,1.41797 c 234.828,0 425.192,190.35903 425.192,425.19103 v 0" /><path
         id="path16"
         style="fill:none;stroke:#231f20;stroke-width:2.83500004;stroke-linecap:butt;stroke-linejoin:round;stroke-miterlimit:4;stroke-dasharray:none;stroke-opacity:1"
         d="m 851.809,426.609 c 0,234.832 -190.364,425.2 -425.192,425.2 C 191.781,851.809 1.41797,661.441 1.41797,426.609 1.41797,191.777 191.781,1.41797 426.617,1.41797 c 234.828,0 425.192,190.35903 425.192,425.19103 v 0" /><path
         id="path18"
         style="fill:#1a67bb;fill-opacity:1;fill-rule:nonzero;stroke:none"
         d="m 837.637,426.645 c 0,55.757 -10.762,109.082 -32.293,159.988 -20.801,49.172 -50.168,92.722 -88.086,130.652 -37.93,37.93 -81.485,67.293 -130.656,88.09 -50.907,21.527 -104.227,32.297 -159.985,32.297 -55.758,0 -109.086,-10.77 -159.984,-32.297 -49.176,-20.797 -92.727,-50.16 -130.656,-88.09 C 98.0469,679.355 68.6836,635.805 47.8867,586.633 26.3594,535.727 15.5898,482.402 15.5898,426.645 15.5898,370.895 26.3594,317.57 47.8867,266.66 68.6836,217.492 98.0469,173.938 135.977,136.008 173.906,98.0781 217.457,68.7227 266.633,47.9219 317.531,26.3867 370.859,15.625 426.617,15.625 c 55.758,0 109.078,10.7617 159.985,32.2969 49.171,20.8008 92.726,50.1562 130.656,88.0861 37.93,37.93 67.285,81.484 88.086,130.652 21.531,50.91 32.293,104.235 32.293,159.985 v 0" /><path
         id="path20"
         style="fill:#ffffff;fill-opacity:1;fill-rule:nonzero;stroke:none"
         d="m 476.223,341.582 85.644,-0.078 -13.898,-78.406 v 0 c -0.215,-0.821 -0.321,-1.731 -0.321,-2.629 0,-6.082 4.93,-11.016 11.016,-11.016 2.266,0 4.395,0.684 6.152,1.914 v 0 l 182.918,123.551 v 0 c 2.922,1.977 4.864,5.285 4.864,9.105 0,3.813 -1.981,7.27 -4.903,9.254 v 0 L 564.746,516.824 v 0 c -1.726,1.227 -3.887,1.91 -6.152,1.91 -6.082,0 -11.016,-4.894 -11.016,-10.98 0,-0.934 0.137,-1.836 0.352,-2.66 v 0 l 14.043,-78.516 -87.078,0.031 v 0 c -53.102,-0.32 -101.922,-18.898 -140.403,-49.75 v 185.039 l 78.477,-13.968 v 0 c 0.832,-0.215 1.726,-0.356 2.668,-0.356 6.082,0 10.98,4.93 10.98,11.016 0,2.265 -0.687,4.422 -1.91,6.152 v 0 L 301.152,747.695 v 0 c -1.976,2.914 -5.433,4.899 -9.254,4.899 -3.812,0 -7.121,-1.949 -9.105,-4.864 v 0 L 159.242,564.816 v 0 c -1.222,-1.765 -1.906,-3.886 -1.906,-6.16 0,-6.082 4.93,-11.015 11.016,-11.015 0.898,0 1.8,0.109 2.625,0.328 v 0 l 78.48,13.929 V 121.875 h 85.035 v 77.969 c 0,39.133 13.86,72.539 41.504,100.226 27.688,27.645 61.094,41.512 100.227,41.512 v 0" /></g></g></svg>