<?xml version="1.0" encoding="UTF-8" standalone="no"?>
<svg
   xmlns:dc="http://purl.org/dc/elements/1.1/"
   xmlns:cc="http://creativecommons.org/ns#"
   xmlns:rdf="http://www.w3.org/1999/02/22-rdf-syntax-ns#"
   xmlns:svg="http://www.w3.org/2000/svg"
   xmlns="http://www.w3.org/2000/svg"
   viewBox="0 0 113.76 113.76"
   height="113.76"
   width="113.76"
   xml:space="preserve"
   id="svg2"
   version="1.1"><metadata
     id="metadata8"><rdf:RDF><cc:Work
         rdf:about=""><dc:format>image/svg+xml</dc:format><dc:type
           rdf:resource="http://purl.org/dc/dcmitype/StillImage" /></cc:Work></rdf:RDF></metadata><defs
     id="defs6" /><g
     transform="matrix(1.3333333,0,0,-1.3333333,0,113.76)"
     id="g10"><g
       transform="scale(0.1)"
       id="g12"><path
         id="path14"
         style="fill:#ffffff;fill-opacity:1;fill-rule:nonzero;stroke:none"
         d="m 851.809,426.609 c 0,234.832 -190.364,425.2 -425.192,425.2 C 191.781,851.809 1.41797,661.441 1.41797,426.609 1.41797,191.777 191.781,1.41797 426.617,1.41797 c 234.828,0 425.192,190.35903 425.192,425.19103 v 0" /><path
         id="path16"
         style="fill:none;stroke:#231f20;stroke-width:2.83500004;stroke-linecap:butt;stroke-linejoin:round;stroke-miterlimit:4;stroke-dasharray:none;stroke-opacity:1"
         d="m 851.809,426.609 c 0,234.832 -190.364,425.2 -425.192,425.2 C 191.781,851.809 1.41797,661.441 1.41797,426.609 1.41797,191.777 191.781,1.41797 426.617,1.41797 c 234.828,0 425.192,190.35903 425.192,425.19103 v 0" /><path
         id="path18"
         style="fill:#1a67bb;fill-opacity:1;fill-rule:nonzero;stroke:none"
         d="m 837.637,426.645 c 0,55.757 -10.762,109.082 -32.293,159.988 -20.801,49.172 -50.168,92.722 -88.086,130.652 -37.93,37.93 -81.485,67.293 -130.656,88.09 -50.907,21.527 -104.227,32.297 -159.985,32.297 -55.758,0 -109.086,-10.77 -159.984,-32.297 -49.176,-20.797 -92.727,-50.16 -130.656,-88.09 C 98.0469,679.355 68.6836,635.805 47.8867,586.633 26.3594,535.727 15.5898,482.402 15.5898,426.645 15.5898,370.895 26.3594,317.57 47.8867,266.66 68.6836,217.492 98.0469,173.938 135.977,136.008 173.906,98.0781 217.457,68.7227 266.633,47.9219 317.531,26.3867 370.859,15.625 426.617,15.625 c 55.758,0 109.078,10.7617 159.985,32.2969 49.171,20.8008 92.726,50.1562 130.656,88.0861 37.93,37.93 67.285,81.484 88.086,130.652 21.531,50.91 32.293,104.235 32.293,159.985 v 0" /><path
         id="path20"
         style="fill:#ffffff;fill-opacity:1;fill-rule:nonzero;stroke:none"
         d="m 586.055,431.73 c -28.633,-4.722 -53.778,-17.89 -75.418,-39.535 -27.395,-27.398 -41.223,-60.371 -41.504,-99 0,-0.39 0,-0.793 0,-1.222 V 143.145 h -85.035 v 148.828 c 0,0.429 0,0.832 0,1.261 -0.289,38.59 -14.145,71.602 -41.508,98.961 -21.66,21.664 -46.832,34.84 -75.508,39.547 v 0 l -6.805,-79.332 v 0 c 0,-0.867 -0.121,-1.758 -0.359,-2.652 -1.578,-5.871 -7.602,-9.348 -13.488,-7.774 -2.188,0.594 -4.063,1.817 -5.453,3.426 v 0 L 96.2617,512.109 v 0 c -2.2969,2.668 -3.3203,6.383 -2.3398,10.047 0.9961,3.68 3.8281,6.52 7.1521,7.684 v 0 l 208.672,72 v 0 c 2.012,0.703 4.25,0.824 6.438,0.238 5.882,-1.574 9.367,-7.594 7.793,-13.469 -0.243,-0.894 -0.579,-1.73 -1.012,-2.476 v 0 L 289.07,513.922 v 0 c 56.379,-11.797 105.075,-44.527 137.547,-89.723 32.465,45.192 81.149,77.918 137.524,89.723 v 0 l -33.875,72.211 v 0 c -0.43,0.746 -0.774,1.582 -1.016,2.476 -1.574,5.875 1.914,11.895 7.793,13.469 2.195,0.586 4.434,0.465 6.434,-0.238 v 0 l 208.683,-72 v 0 c 3.32,-1.164 6.153,-4.004 7.149,-7.684 0.984,-3.664 -0.051,-7.379 -2.344,-10.047 v 0 L 612.246,345.41 v 0 c -1.387,-1.609 -3.262,-2.832 -5.449,-3.426 -5.879,-1.574 -11.914,1.903 -13.484,7.774 -0.235,0.894 -0.364,1.785 -0.364,2.652 v 0 l -6.894,79.32 v 0" /></g></g></svg>