<?xml version="1.0" encoding="UTF-8" standalone="no"?>
<svg
   xmlns:dc="http://purl.org/dc/elements/1.1/"
   xmlns:cc="http://creativecommons.org/ns#"
   xmlns:rdf="http://www.w3.org/1999/02/22-rdf-syntax-ns#"
   xmlns:svg="http://www.w3.org/2000/svg"
   xmlns="http://www.w3.org/2000/svg"
   viewBox="0 0 113.76 113.76"
   height="113.76"
   width="113.76"
   xml:space="preserve"
   id="svg2"
   version="1.1"><metadata
     id="metadata8"><rdf:RDF><cc:Work
         rdf:about=""><dc:format>image/svg+xml</dc:format><dc:type
           rdf:resource="http://purl.org/dc/dcmitype/StillImage" /></cc:Work></rdf:RDF></metadata><defs
     id="defs6" /><g
     transform="matrix(1.3333333,0,0,-1.3333333,0,113.76)"
     id="g10"><g
       transform="scale(0.1)"
       id="g12"><path
         id="path14"
         style="fill:#ffffff;fill-opacity:1;fill-rule:nonzero;stroke:none"
         d="M 426.617,851.809 C 191.781,851.809 1.41797,661.441 1.41797,426.609 1.41797,191.777 191.781,1.41797 426.617,1.41797 c 234.828,0 425.192,190.35903 425.192,425.19103 0,234.832 -190.364,425.2 -425.192,425.2 v 0" /><path
         id="path16"
         style="fill:none;stroke:#231f20;stroke-width:2.83500004;stroke-linecap:butt;stroke-linejoin:round;stroke-miterlimit:4;stroke-dasharray:none;stroke-opacity:1"
         d="M 426.617,851.809 C 191.781,851.809 1.41797,661.441 1.41797,426.609 1.41797,191.777 191.781,1.41797 426.617,1.41797 c 234.828,0 425.192,190.35903 425.192,425.19103 0,234.832 -190.364,425.2 -425.192,425.2 v 0" /><path
         id="path18"
         style="fill:#1a67bb;fill-opacity:1;fill-rule:nonzero;stroke:none"
         d="m 426.617,837.637 c -55.758,0 -109.086,-10.766 -159.984,-32.293 C 217.457,784.539 173.906,755.176 135.977,717.25 98.0469,679.32 68.6836,635.766 47.8867,586.598 26.3594,535.695 15.5898,482.363 15.5898,426.609 c 0,-55.754 10.7696,-109.082 32.2969,-159.976 20.7969,-49.18 50.1602,-92.727 88.0903,-130.656 37.929,-37.9301 81.48,-67.2934 130.656,-88.0942 50.898,-21.5351 104.226,-32.2969 159.984,-32.2969 55.758,0 109.078,10.7618 159.985,32.2969 49.171,20.8008 92.726,50.1641 130.656,88.0942 37.93,37.929 67.285,81.476 88.086,130.656 21.531,50.894 32.293,104.222 32.293,159.976 0,55.754 -10.762,109.086 -32.293,159.989 -20.801,49.168 -50.156,92.722 -88.086,130.652 -37.93,37.926 -81.485,67.289 -130.656,88.094 -50.907,21.527 -104.227,32.293 -159.985,32.293 v 0" /><path
         id="path20"
         style="fill:#ffffff;fill-opacity:1;fill-rule:nonzero;stroke:none"
         d="m 65.2109,426.484 c 0.0196,4.817 2.5039,9.211 6.1211,11.715 v 0 l 227.559,156.074 v 0 c 2.187,1.516 4.836,2.399 7.652,2.399 7.578,0 13.703,-6.207 13.703,-13.895 0,-1.168 -0.137,-2.293 -0.418,-3.347 v 0 l -17.656,-100.399 471.707,32.383 -0.07,-169.644 -471.707,32.382 17.656,-100.39 v 0 c 0.277,-1.055 0.418,-2.188 0.418,-3.352 0,-7.683 -6.129,-13.894 -13.707,-13.894 -2.817,0 -5.461,0.879 -7.649,2.402 v 0 L 71.2617,414.988 v 0 c -3.6211,2.508 -6.0508,6.703 -6.0508,11.496 v 0" /></g></g></svg>