<?xml version="1.0" encoding="UTF-8" standalone="no"?>
<svg
   xmlns:dc="http://purl.org/dc/elements/1.1/"
   xmlns:cc="http://creativecommons.org/ns#"
   xmlns:rdf="http://www.w3.org/1999/02/22-rdf-syntax-ns#"
   xmlns:svg="http://www.w3.org/2000/svg"
   xmlns="http://www.w3.org/2000/svg"
   viewBox="0 0 113.76 113.76"
   height="113.76"
   width="113.76"
   xml:space="preserve"
   id="svg2"
   version="1.1"><metadata
     id="metadata8"><rdf:RDF><cc:Work
         rdf:about=""><dc:format>image/svg+xml</dc:format><dc:type
           rdf:resource="http://purl.org/dc/dcmitype/StillImage" /></cc:Work></rdf:RDF></metadata><defs
     id="defs6" /><g
     transform="matrix(1.3333333,0,0,-1.3333333,0,113.76)"
     id="g10"><g
       transform="scale(0.1)"
       id="g12"><path
         id="path14"
         style="fill:#ffffff;fill-opacity:1;fill-rule:nonzero;stroke:none"
         d="m 426.613,851.813 c 234.828,0 425.196,-190.368 425.196,-425.196 C 851.809,191.781 661.441,1.41797 426.613,1.41797 191.781,1.41797 1.41797,191.781 1.41797,426.617 c 0,234.828 190.36303,425.196 425.19503,425.196 v 0" /><path
         id="path16"
         style="fill:none;stroke:#231f20;stroke-width:2.83500004;stroke-linecap:butt;stroke-linejoin:miter;stroke-miterlimit:4;stroke-dasharray:none;stroke-opacity:1"
         d="m 426.613,851.813 c 234.828,0 425.196,-190.368 425.196,-425.196 C 851.809,191.781 661.441,1.41797 426.613,1.41797 191.781,1.41797 1.41797,191.781 1.41797,426.617 c 0,234.828 190.36303,425.196 425.19503,425.196 v 0" /><path
         id="path18"
         style="fill:#1a67bb;fill-opacity:1;fill-rule:nonzero;stroke:none"
         d="m 426.613,837.637 c 55.75,0 109.082,-10.762 159.985,-32.293 49.168,-20.797 92.722,-50.164 130.648,-88.094 37.93,-37.93 67.297,-81.477 88.098,-130.652 21.527,-50.899 32.293,-104.231 32.293,-159.981 0,-55.758 -10.766,-109.086 -32.293,-159.984 C 784.543,217.457 755.176,173.906 717.246,135.977 679.32,98.0469 635.766,68.6836 586.598,47.8867 535.695,26.3594 482.363,15.5898 426.613,15.5898 c -55.758,0 -109.082,10.7696 -159.988,32.2969 -49.168,20.7969 -92.723,50.1602 -130.652,88.0903 -37.93,37.929 -67.2894,81.48 -88.0902,130.656 -21.5312,50.898 -32.2969,104.226 -32.2969,159.984 0,55.75 10.7657,109.082 32.2969,159.981 20.8008,49.175 50.1602,92.722 88.0902,130.652 37.929,37.93 81.484,67.297 130.652,88.094 50.906,21.531 104.23,32.293 159.988,32.293 v 0" /><path
         id="path20"
         style="fill:#ffffff;fill-opacity:1;fill-rule:nonzero;stroke:none"
         d="m 788.012,426.488 c -0.012,4.817 -2.504,9.207 -6.121,11.711 v 0 L 554.336,594.277 v 0 c -2.188,1.512 -4.832,2.399 -7.656,2.399 -7.575,0 -13.7,-6.207 -13.7,-13.899 0,-1.16 0.141,-2.289 0.415,-3.347 v 0 L 551.055,479.039 79.3477,511.422 79.418,341.773 551.125,374.156 533.469,273.762 v 0 c -0.281,-1.055 -0.418,-2.184 -0.418,-3.352 0,-7.683 6.125,-13.89 13.703,-13.89 2.82,0 5.469,0.878 7.656,2.398 v 0 l 227.555,156.078 v 0 c 3.617,2.5 6.047,6.699 6.047,11.492 v 0" /></g></g></svg>