<?xml version="1.0" encoding="UTF-8" standalone="no"?>
<svg
   xmlns:dc="http://purl.org/dc/elements/1.1/"
   xmlns:cc="http://creativecommons.org/ns#"
   xmlns:rdf="http://www.w3.org/1999/02/22-rdf-syntax-ns#"
   xmlns:svg="http://www.w3.org/2000/svg"
   xmlns="http://www.w3.org/2000/svg"
   viewBox="0 0 113.76 113.76"
   height="113.76"
   width="113.76"
   xml:space="preserve"
   id="svg2"
   version="1.1"><metadata
     id="metadata8"><rdf:RDF><cc:Work
         rdf:about=""><dc:format>image/svg+xml</dc:format><dc:type
           rdf:resource="http://purl.org/dc/dcmitype/StillImage" /></cc:Work></rdf:RDF></metadata><defs
     id="defs6" /><g
     transform="matrix(1.3333333,0,0,-1.3333333,0,113.76)"
     id="g10"><g
       transform="scale(0.1)"
       id="g12"><path
         id="path14"
         style="fill:#ffffff;fill-opacity:1;fill-rule:nonzero;stroke:none"
         d="m 125.953,727.27 c -166.0507,-166.047 -166.0507,-435.266 0,-601.321 166.051,-166.0467 435.27,-166.0467 601.324,0 166.043,166.055 166.043,435.274 0,601.321 -166.054,166.05 -435.273,166.05 -601.324,0 v 0" /><path
         id="path16"
         style="fill:none;stroke:#231f20;stroke-width:2.83500004;stroke-linecap:butt;stroke-linejoin:round;stroke-miterlimit:4;stroke-dasharray:none;stroke-opacity:1"
         d="m 125.953,727.27 c -166.0507,-166.047 -166.0507,-435.266 0,-601.321 166.051,-166.0467 435.27,-166.0467 601.324,0 166.043,166.055 166.043,435.274 0,601.321 -166.054,166.05 -435.273,166.05 -601.324,0 v 0" /><path
         id="path18"
         style="fill:#1a67bb;fill-opacity:1;fill-rule:nonzero;stroke:none"
         d="M 135.938,717.25 C 96.5156,677.82 66.418,632.504 45.6445,581.289 25.582,531.813 15.5508,480.25 15.5508,426.609 c 0,-53.64 10.0312,-105.195 30.0937,-154.675 20.7735,-51.211 50.8711,-96.532 90.2935,-135.957 39.425,-39.4223 84.746,-69.52 135.96,-90.2934 49.481,-20.0664 101.036,-30.0977 154.68,-30.0977 53.637,0 105.199,10.0313 154.672,30.0977 51.223,20.7734 96.535,50.8711 135.969,90.2934 39.422,39.425 69.519,84.746 90.281,135.957 20.07,49.48 30.098,101.035 30.098,154.675 0,53.641 -10.028,105.204 -30.098,154.68 -20.762,51.215 -50.859,96.531 -90.281,135.957 -39.434,39.43 -84.746,69.524 -135.969,90.293 -49.473,20.063 -101.035,30.098 -154.672,30.098 -53.644,0 -105.199,-10.035 -154.68,-30.098 -51.214,-20.769 -96.535,-50.863 -135.96,-90.289 v 0" /><path
         id="path20"
         style="fill:#ffffff;fill-opacity:1;fill-rule:nonzero;stroke:none"
         d="m 171.148,170.984 c -3.394,3.411 -4.742,8.286 -3.953,12.61 v 0 l 50.543,271.269 v 0 c 0.477,2.617 1.727,5.114 3.719,7.106 5.359,5.359 14.074,5.301 19.516,-0.133 0.82,-0.824 1.519,-1.719 2.07,-2.664 v 0 L 301.547,375.699 612.195,732.141 732.102,612.129 375.66,301.484 459.133,242.98 v 0 c 0.945,-0.546 1.844,-1.25 2.664,-2.07 5.441,-5.441 5.488,-14.16 0.137,-19.512 -1.993,-2.003 -4.493,-3.242 -7.11,-3.722 v 0 L 183.555,167.129 v 0 c -4.332,-0.781 -9.012,0.461 -12.407,3.855 v 0" /></g></g></svg>