<?xml version="1.0" encoding="UTF-8" standalone="no"?>
<svg
   xmlns:dc="http://purl.org/dc/elements/1.1/"
   xmlns:cc="http://creativecommons.org/ns#"
   xmlns:rdf="http://www.w3.org/1999/02/22-rdf-syntax-ns#"
   xmlns:svg="http://www.w3.org/2000/svg"
   xmlns="http://www.w3.org/2000/svg"
   viewBox="0 0 113.76 113.76"
   height="113.76"
   width="113.76"
   xml:space="preserve"
   id="svg2"
   version="1.1"><metadata
     id="metadata8"><rdf:RDF><cc:Work
         rdf:about=""><dc:format>image/svg+xml</dc:format><dc:type
           rdf:resource="http://purl.org/dc/dcmitype/StillImage" /></cc:Work></rdf:RDF></metadata><defs
     id="defs6" /><g
     transform="matrix(1.3333333,0,0,-1.3333333,0,113.76)"
     id="g10"><g
       transform="scale(0.1)"
       id="g12"><path
         id="path14"
         style="fill:#ffffff;fill-opacity:1;fill-rule:nonzero;stroke:none"
         d="m 727.277,727.27 c 166.043,-166.047 166.043,-435.266 0,-601.321 -166.054,-166.0467 -435.273,-166.0467 -601.324,0 -166.0507,166.055 -166.0507,435.274 0,601.321 166.051,166.05 435.27,166.05 601.324,0 v 0" /><path
         id="path16"
         style="fill:none;stroke:#231f20;stroke-width:2.83500004;stroke-linecap:butt;stroke-linejoin:round;stroke-miterlimit:4;stroke-dasharray:none;stroke-opacity:1"
         d="m 727.277,727.27 c 166.043,-166.047 166.043,-435.266 0,-601.321 -166.054,-166.0467 -435.273,-166.0467 -601.324,0 -166.0507,166.055 -166.0507,435.274 0,601.321 166.051,166.05 435.27,166.05 601.324,0 v 0" /><path
         id="path18"
         style="fill:#1a67bb;fill-opacity:1;fill-rule:nonzero;stroke:none"
         d="m 717.285,717.25 c 39.434,-39.43 69.524,-84.746 90.293,-135.961 20.07,-49.476 30.098,-101.039 30.098,-154.68 0,-53.64 -10.028,-105.195 -30.098,-154.675 C 786.809,220.723 756.719,175.402 717.285,135.977 677.863,96.5547 632.551,66.457 581.328,45.6836 531.855,25.6172 480.293,15.5859 426.652,15.5859 c -53.64,0 -105.195,10.0313 -154.675,30.0977 -51.215,20.7734 -96.536,50.8711 -135.961,90.2934 -39.4222,39.425 -69.5199,84.746 -90.2933,135.957 -20.0625,49.48 -30.0938,101.035 -30.0938,154.675 0,53.641 10.0313,105.204 30.0938,154.68 20.7734,51.215 50.8711,96.531 90.2933,135.957 39.425,39.43 84.746,69.524 135.961,90.293 49.48,20.063 101.035,30.098 154.675,30.098 53.641,0 105.203,-10.035 154.676,-30.098 51.223,-20.769 96.535,-50.863 135.957,-90.289 v 0" /><path
         id="path20"
         style="fill:#ffffff;fill-opacity:1;fill-rule:nonzero;stroke:none"
         d="m 682.082,170.984 c 3.387,3.411 4.734,8.286 3.953,12.61 v 0 l -50.547,271.269 v 0 c -0.476,2.617 -1.718,5.114 -3.718,7.106 -5.352,5.359 -14.075,5.301 -19.512,-0.133 -0.82,-0.824 -1.524,-1.719 -2.07,-2.664 v 0 L 551.68,375.699 241.031,732.141 121.125,612.129 477.57,301.484 394.098,242.98 v 0 c -0.95,-0.546 -1.84,-1.25 -2.668,-2.07 -5.434,-5.441 -5.492,-14.16 -0.137,-19.512 2,-2.003 4.492,-3.242 7.109,-3.722 v 0 L 669.68,167.129 v 0 c 4.324,-0.781 9.011,0.461 12.402,3.855 v 0" /></g></g></svg>