<?xml version="1.0" encoding="UTF-8" standalone="no"?>
<svg
   xmlns:dc="http://purl.org/dc/elements/1.1/"
   xmlns:cc="http://creativecommons.org/ns#"
   xmlns:rdf="http://www.w3.org/1999/02/22-rdf-syntax-ns#"
   xmlns:svg="http://www.w3.org/2000/svg"
   xmlns="http://www.w3.org/2000/svg"
   viewBox="0 0 113.76 113.76"
   height="113.76"
   width="113.76"
   xml:space="preserve"
   id="svg2"
   version="1.1"><metadata
     id="metadata8"><rdf:RDF><cc:Work
         rdf:about=""><dc:format>image/svg+xml</dc:format><dc:type
           rdf:resource="http://purl.org/dc/dcmitype/StillImage" /></cc:Work></rdf:RDF></metadata><defs
     id="defs6" /><g
     transform="matrix(1.3333333,0,0,-1.3333333,0,113.76)"
     id="g10"><g
       transform="scale(0.1)"
       id="g12"><path
         id="path14"
         style="fill:#ffffff;fill-opacity:1;fill-rule:nonzero;stroke:none"
         d="m 426.613,851.809 c 234.832,0 425.196,-190.368 425.196,-425.2 C 851.809,191.777 661.445,1.41797 426.613,1.41797 191.781,1.41797 1.41797,191.777 1.41797,426.609 c 0,234.832 190.36303,425.2 425.19503,425.2 v 0" /><path
         id="path16"
         style="fill:none;stroke:#231f20;stroke-width:2.83500004;stroke-linecap:butt;stroke-linejoin:round;stroke-miterlimit:4;stroke-dasharray:none;stroke-opacity:1"
         d="m 426.613,851.809 c 234.832,0 425.196,-190.368 425.196,-425.2 C 851.809,191.777 661.445,1.41797 426.613,1.41797 191.781,1.41797 1.41797,191.777 1.41797,426.609 c 0,234.832 190.36303,425.2 425.19503,425.2 v 0" /><path
         id="path18"
         style="fill:#1a67bb;fill-opacity:1;fill-rule:nonzero;stroke:none"
         d="m 426.613,837.637 c 55.75,0 109.082,-10.766 159.981,-32.293 49.179,-20.805 92.722,-50.168 130.652,-88.094 37.93,-37.93 67.297,-81.484 88.098,-130.652 21.531,-50.903 32.293,-104.235 32.293,-159.989 0,-55.754 -10.762,-109.082 -32.293,-159.976 C 784.543,217.453 755.176,173.906 717.246,135.977 679.316,98.0469 635.773,68.6836 586.594,47.8828 535.695,26.3477 482.363,15.5859 426.613,15.5859 c -55.754,0 -109.082,10.7618 -159.988,32.2969 -49.168,20.8008 -92.719,50.1641 -130.648,88.0942 -37.9301,37.929 -67.2934,81.476 -88.0942,130.656 -21.5312,50.894 -32.2969,104.222 -32.2969,159.976 0,55.754 10.7657,109.086 32.2969,159.989 20.8008,49.168 50.1641,92.722 88.0942,130.652 37.929,37.926 81.48,67.289 130.648,88.094 50.906,21.527 104.234,32.293 159.988,32.293 v 0" /><path
         id="path20"
         style="fill:#ffffff;fill-opacity:1;fill-rule:nonzero;stroke:none"
         d="m 596.504,565.859 c 13.43,-16.273 24.328,-34.214 32.617,-53.796 11.445,-27.083 17.18,-55.563 17.18,-85.454 0,-26.129 -4.387,-51.187 -13.137,-75.171 v 0 l 79.953,-28.989 v 0 c 12.149,33.305 18.223,68.024 18.223,104.16 0,41.383 -7.969,80.911 -23.899,118.579 -14.472,34.203 -34.55,64.753 -60.234,91.66 v 0 l 49.523,48.097 v 0 c 0.625,0.504 1.18,1.114 1.68,1.801 3.262,4.563 2.156,10.914 -2.461,14.227 -1.73,1.23 -3.711,1.863 -5.695,1.918 v 0 l -205.066,6.812 v 0 c -3.274,0.098 -6.536,-1.336 -8.567,-4.176 -2.039,-2.863 -2.383,-6.55 -1.238,-9.613 v 0 L 548,504.004 v 0 c 0.684,-1.856 1.922,-3.531 3.652,-4.762 4.618,-3.308 10.985,-2.304 14.246,2.258 0.5,0.688 0.891,1.414 1.172,2.168 v 0 l 29.434,62.191 v 0" /><path
         id="path22"
         style="fill:#ffffff;fill-opacity:1;fill-rule:nonzero;stroke:none"
         d="m 462.324,210.332 c -20.801,-3.484 -41.793,-3.965 -62.894,-1.336 -29.176,3.613 -56.711,12.899 -82.59,27.84 -22.629,13.066 -42.149,29.387 -58.539,48.965 v 0 l -65.074,-54.754 v 0 c 22.765,-27.168 49.796,-49.785 81.089,-67.852 35.84,-20.695 74.055,-33.554 114.641,-38.593 36.856,-4.571 73.359,-2.461 109.5,6.336 v 0 l 16.887,-66.9419 v 0 c 0.125,-0.793 0.379,-1.582 0.722,-2.3555 2.325,-5.1054 8.379,-7.332 13.555,-4.9804 1.922,0.8789 3.465,2.2851 4.5,3.9648 v 0 l 108.438,174.191 v 0 c 1.718,2.782 2.109,6.329 0.664,9.512 -1.453,3.192 -4.481,5.332 -7.703,5.879 v 0 l -202.5,33.066 v 0 c -1.954,0.332 -4.032,0.094 -5.954,-0.785 -5.179,-2.34 -7.496,-8.367 -5.175,-13.472 0.351,-0.774 0.785,-1.477 1.293,-2.09 v 0 l 39.14,-56.594 v 0" /><path
         id="path24"
         style="fill:#ffffff;fill-opacity:1;fill-rule:nonzero;stroke:none"
         d="m 221.133,504.094 c 7.383,19.758 17.472,38.172 30.289,55.136 17.723,23.458 39.527,42.657 65.41,57.602 22.633,13.066 46.523,21.801 71.668,26.215 v 0 l -14.875,83.73 v 0 c -34.914,-6.132 -68.02,-18.23 -99.312,-36.297 -35.84,-20.695 -66.09,-47.355 -90.743,-79.988 -22.386,-29.629 -38.808,-62.293 -49.261,-97.996 v 0 l -66.4184,18.848 v 0 c -0.7461,0.281 -1.5586,0.465 -2.4023,0.547 -5.582,0.547 -10.5313,-3.586 -11.082,-9.243 -0.2071,-2.105 0.2382,-4.148 1.1796,-5.886 v 0 l 96.6371,-181 v 0 c 1.55,-2.879 4.418,-5 7.902,-5.332 3.492,-0.332 6.863,1.211 8.941,3.742 v 0 l 129.891,158.832 v 0 c 1.262,1.523 2.094,3.437 2.297,5.543 0.559,5.656 -3.5,10.672 -9.082,11.219 -0.84,0.082 -1.668,0.058 -2.461,-0.075 v 0 l -68.578,-5.597 v 0" /></g></g></svg>