<?xml version="1.0" encoding="UTF-8" standalone="no"?>
<svg
   xmlns:dc="http://purl.org/dc/elements/1.1/"
   xmlns:cc="http://creativecommons.org/ns#"
   xmlns:rdf="http://www.w3.org/1999/02/22-rdf-syntax-ns#"
   xmlns:svg="http://www.w3.org/2000/svg"
   xmlns="http://www.w3.org/2000/svg"
   viewBox="0 0 113.76 113.76"
   height="113.76"
   width="113.76"
   xml:space="preserve"
   id="svg2"
   version="1.1"><metadata
     id="metadata8"><rdf:RDF><cc:Work
         rdf:about=""><dc:format>image/svg+xml</dc:format><dc:type
           rdf:resource="http://purl.org/dc/dcmitype/StillImage" /></cc:Work></rdf:RDF></metadata><defs
     id="defs6" /><g
     transform="matrix(1.3333333,0,0,-1.3333333,0,113.76)"
     id="g10"><g
       transform="scale(0.1)"
       id="g12"><path
         id="path14"
         style="fill:#ffffff;fill-opacity:1;fill-rule:nonzero;stroke:none"
         d="m 426.617,851.809 c 234.789,0 425.192,-190.407 425.192,-425.2 C 851.809,191.816 661.406,1.41797 426.617,1.41797 191.82,1.41797 1.41797,191.816 1.41797,426.609 c 0,234.793 190.40203,425.2 425.19903,425.2 v 0" /><path
         id="path16"
         style="fill:none;stroke:#231f20;stroke-width:2.83500004;stroke-linecap:butt;stroke-linejoin:round;stroke-miterlimit:4;stroke-dasharray:none;stroke-opacity:1"
         d="m 426.617,851.809 c 234.789,0 425.192,-190.407 425.192,-425.2 C 851.809,191.816 661.406,1.41797 426.617,1.41797 191.82,1.41797 1.41797,191.816 1.41797,426.609 c 0,234.793 190.40203,425.2 425.19903,425.2 v 0" /><path
         id="path18"
         style="fill:#1a67bb;fill-opacity:1;fill-rule:nonzero;stroke:none"
         d="m 426.652,837.617 c 55.743,0 109.071,-10.765 159.969,-32.297 49.172,-20.797 92.715,-50.16 130.645,-88.09 37.929,-37.929 67.297,-81.476 88.097,-130.648 21.532,-50.898 32.293,-104.223 32.293,-159.973 0,-55.746 -10.761,-109.07 -32.293,-159.968 -20.8,-49.168 -50.168,-92.715 -88.097,-130.645 C 679.336,98.0664 635.793,68.7031 586.621,47.9023 535.723,26.3672 482.395,15.6055 426.652,15.6055 c -55.75,0 -109.074,10.7617 -159.972,32.2968 -49.168,20.8008 -92.719,50.1641 -130.649,88.0937 -37.9294,37.93 -67.2888,81.477 -88.0896,130.645 -21.5312,50.898 -32.2969,104.222 -32.2969,159.968 0,55.75 10.7657,109.075 32.2969,159.973 20.8008,49.172 50.1602,92.719 88.0896,130.648 37.93,37.93 81.481,67.293 130.649,88.09 50.898,21.532 104.222,32.297 159.972,32.297 v 0" /><path
         id="path20"
         style="fill:#ffffff;fill-opacity:1;fill-rule:nonzero;stroke:none"
         d="m 237.004,535.621 -44.641,41.074 v 0 c 1.078,2.196 2.629,5.368 3.813,7.45 8.75,15.015 24.336,25.742 40.719,32.476 14.613,5.973 30.347,8.82 46.261,8.383 18.899,-0.5 37.442,-5.649 53.496,-15.223 16.594,-9.863 29.875,-24.047 38.305,-40.972 6.766,-13.75 9.93,-28.871 9.824,-44.098 -0.215,-17.461 -4.824,-34.668 -13.859,-49.789 -3.488,-5.797 -7.524,-11.121 -12.133,-16.09 -4.141,-4.394 -8.816,-8.387 -13.855,-11.844 -4.793,-3.383 -12.317,-7.558 -17.571,-10.406 5.254,-2.195 12.887,-5.582 17.676,-8.602 4.824,-2.953 9.289,-6.628 13.32,-10.621 5.364,-5.148 10.258,-11.339 14.508,-17.316 7.774,-10.832 14.508,-22.824 18.793,-35.207 4.465,-12.602 6.442,-26.027 6.332,-39.387 -0.105,-15.761 -3.168,-31.277 -9.179,-46.004 -5.145,-12.812 -12.563,-24.765 -21.817,-35.285 -11.699,-13.347 -26.203,-24.043 -42.586,-31.601 -16.812,-7.782 -35.137,-12.098 -53.785,-12.606 -15.406,-0.539 -30.668,1.551 -45.289,6.082 -15.945,5.051 -34.379,15.235 -48.563,23.731 -1.222,0.754 -4.066,2.519 -5.253,3.273 v 0 l 29.589,52.703 24.664,-15.332 v 0 c 5,-3.027 10.364,-5.867 15.907,-8.066 4.035,-1.582 8.32,-2.735 12.785,-3.387 7.738,-1.152 15.84,-0.605 23.578,0.977 14.184,3.027 27.176,9.968 37.332,19.832 10.797,10.625 18.32,24.16 19.836,38.957 1.332,13.679 -2.809,27.539 -9.902,39.492 -7.883,13.351 -19.223,24.476 -33.297,31.82 -6.121,3.278 -13.539,6.121 -20.199,8.207 -7.633,2.41 -15.95,4.719 -23.793,5.977 -1.622,0.32 -3.926,0.648 -5.543,0.972 v 0 l -0.11,63.43 v 0 c 1.836,0.109 4.465,0.324 6.406,0.399 7.997,0.648 15.95,1.91 23.688,3.707 9.074,1.98 19.223,5.222 26.641,10.476 6.984,4.86 12.457,11.449 16.382,18.723 4.571,8.387 7.196,17.855 6.551,27.394 -0.687,9.973 -4.715,19.977 -12.676,26.676 -5.687,4.75 -13.211,7.449 -20.73,8.637 -9.938,1.441 -20.524,0.617 -29.379,-3.992 -7.527,-4 -13.75,-10.836 -18.215,-17.965 -1.297,-2.016 -2.953,-4.934 -4.031,-7.055 v 0" /><path
         id="path22"
         style="fill:#ffffff;fill-opacity:1;fill-rule:nonzero;stroke:none"
         d="m 566.406,624.469 c 9.18,0 18.645,-1.805 27.434,-4.356 19.258,-5.582 35.672,-18.687 47.84,-34.058 10.547,-13.426 18.32,-29.555 23.8,-45.543 5.321,-15.371 8.993,-31.352 11.512,-47.371 2.492,-16.457 3.821,-33.555 4.465,-50.219 0.613,-19.192 0.359,-38.488 -0.969,-57.711 -1.297,-18.004 -3.601,-35.895 -6.953,-53.57 -3.847,-20.301 -9.324,-40.86 -17.129,-60.008 -7.058,-17.246 -17.324,-35.93 -31.504,-48.457 -15.8,-14.004 -36.328,-22.207 -57.851,-22.891 -20.301,-0.762 -40.43,5.176 -56.375,17.313 -17.246,13.066 -29.231,34.922 -36.828,54.718 -7.278,18.934 -12.278,39.024 -15.586,59.004 -2.879,17.418 -4.754,36.114 -6.082,53.676 -1.262,17.313 -2.129,36.758 -1.34,54.18 0.793,17.781 3.203,36.25 6.34,53.785 2.812,15.441 6.484,31.75 11.445,46.727 5.223,16.054 12.742,32.578 23.262,46.046 12.527,16.125 29.734,29.481 49.851,34.879 7.852,2.125 16.524,3.856 24.668,3.856 v 0" /><path
         id="path24"
         style="fill:#1a67bb;fill-opacity:1;fill-rule:nonzero;stroke:none"
         d="m 566.797,563.34 c 4.933,0.14 9.797,-0.902 14.074,-3.168 4.246,-2.125 7.703,-5.977 10.262,-9.723 4.25,-6.332 7.199,-15.297 9.18,-22.605 3.351,-12.457 5.937,-25.164 7.988,-37.906 2.019,-13.106 3.535,-26.461 4.472,-39.711 0.93,-13.645 1.477,-27.286 1.399,-40.93 -0.07,-15.375 -0.793,-30.82 -2.188,-46.192 -1.406,-15.441 -3.683,-31.496 -7.129,-46.582 -2.414,-10.476 -5.656,-21.093 -9.863,-31.035 -2.199,-5.144 -5.012,-10.547 -8.39,-15.078 -2.274,-3.027 -5.079,-5.945 -8.387,-8.066 -3.496,-2.196 -7.676,-3.524 -11.953,-3.778 -5.039,-0.293 -10.188,0.829 -14.328,3.633 -2.989,1.942 -5.731,5.184 -7.782,8.133 -3.207,4.688 -5.937,9.797 -8.207,15.09 -4.246,9.715 -7.125,20.84 -9.175,31.172 -2.813,14.683 -4.68,32.398 -5.938,47.273 -1.191,14.61 -2.277,31.567 -2.277,46.184 0,13.5 0.871,27.215 2.277,40.683 1.395,13.352 3.445,26.746 5.859,40.028 2.196,12.058 4.93,24.699 8.321,36.468 2.195,7.708 5.547,16.887 10.183,23.368 2.668,3.703 6.086,7.375 10.227,9.5 3.457,1.726 7.383,2.988 11.375,3.242 v 0" /></g></g></svg>