<?xml version="1.0" encoding="UTF-8" standalone="no"?>
<svg
   xmlns:dc="http://purl.org/dc/elements/1.1/"
   xmlns:cc="http://creativecommons.org/ns#"
   xmlns:rdf="http://www.w3.org/1999/02/22-rdf-syntax-ns#"
   xmlns:svg="http://www.w3.org/2000/svg"
   xmlns="http://www.w3.org/2000/svg"
   viewBox="0 0 113.76 113.76"
   height="113.76"
   width="113.76"
   xml:space="preserve"
   id="svg2"
   version="1.1"><metadata
     id="metadata8"><rdf:RDF><cc:Work
         rdf:about=""><dc:format>image/svg+xml</dc:format><dc:type
           rdf:resource="http://purl.org/dc/dcmitype/StillImage" /></cc:Work></rdf:RDF></metadata><defs
     id="defs6" /><g
     transform="matrix(1.3333333,0,0,-1.3333333,0,113.76)"
     id="g10"><g
       transform="scale(0.1)"
       id="g12"><path
         id="path14"
         style="fill:#ffffff;fill-opacity:1;fill-rule:nonzero;stroke:none"
         d="m 851.809,426.609 c 0,234.844 -190.352,425.2 -425.192,425.2 C 191.77,851.809 1.41797,661.453 1.41797,426.609 1.41797,191.77 191.77,1.41797 426.617,1.41797 c 234.84,0 425.192,190.35203 425.192,425.19103 v 0" /><path
         id="path16"
         style="fill:none;stroke:#231f20;stroke-width:2.83500004;stroke-linecap:butt;stroke-linejoin:miter;stroke-miterlimit:4;stroke-dasharray:none;stroke-opacity:1"
         d="m 851.809,426.609 c 0,234.844 -190.352,425.2 -425.192,425.2 C 191.77,851.809 1.41797,661.453 1.41797,426.609 1.41797,191.77 191.77,1.41797 426.617,1.41797 c 234.84,0 425.192,190.35203 425.192,425.19103 v 0" /><path
         id="path18"
         style="fill:#1a67bb;fill-opacity:1;fill-rule:nonzero;stroke:none"
         d="m 837.637,426.609 c 0,-55.754 -10.762,-109.089 -32.293,-159.988 C 784.551,217.453 755.188,173.898 717.258,135.969 679.328,98.0391 635.781,68.6836 586.602,47.8828 535.703,26.3477 482.375,15.5859 426.617,15.5859 c -55.762,0 -109.094,10.7618 -159.996,32.2969 -49.168,20.8008 -92.719,50.1563 -130.648,88.0862 -37.93,37.929 -67.2894,81.484 -88.0902,130.652 -21.5312,50.899 -32.293,104.234 -32.293,159.988 0,55.758 10.7618,109.09 32.293,159.993 20.8008,49.175 50.1602,92.722 88.0902,130.656 37.929,37.922 81.48,67.289 130.648,88.086 50.902,21.527 104.234,32.293 159.996,32.293 55.758,0 109.086,-10.766 159.985,-32.293 49.179,-20.797 92.726,-50.164 130.656,-88.086 37.93,-37.934 67.293,-81.481 88.086,-130.656 21.531,-50.903 32.293,-104.235 32.293,-159.993 v 0" /><path
         id="path20"
         style="fill:#ffffff;fill-opacity:1;fill-rule:nonzero;stroke:none"
         d="m 217.453,365.898 c -2.305,9.036 -2.555,21.524 -2.555,29.692 0,3.137 0.036,6.012 0.106,8.316 0.074,3.098 0.074,7.024 0.074,10.942 0,3.211 0,6.375 -0.039,9.004 0,1.832 -0.035,3.921 -0.035,6.082 0,5.613 0.074,12.023 0.215,16.918 0.039,1.98 0.148,4.5 0.254,6.875 -2.41,3.531 -4.356,8.066 -4.789,13.105 -0.067,0.789 -0.106,1.547 -0.106,2.34 0,5.183 1.512,10.332 4.461,14.793 0.684,1.008 1.367,1.98 2.09,2.914 3.707,32.902 10.293,71.316 21.887,103.672 -0.469,2.34 -0.828,4.933 -0.828,7.597 0,2.52 0.289,5.329 1.113,8.211 2.164,7.52 5.832,11.407 8.785,13.891 1.477,5.039 4.465,8.781 7.269,11.375 18.684,33.008 45.969,76.852 90.247,86.648 0.468,0.106 1.011,0.211 1.8,0.426 1.731,0.473 5.469,1.477 9.543,1.551 v 0 l 131.532,1.547 h 0.468 v 0 c 6.223,0 15.801,-1.442 18.75,-1.91 91.328,-14.614 135.207,-167.563 135.207,-301.508 0,-115.078 -31.679,-237.363 -111.339,-277.606 -3.497,-1.769 -10.653,-5.253 -17.493,-6.847 -0.972,-0.215 -5.007,-1.18 -8.465,-1.219 v 0 L 377.207,132.09 h -0.215 v 0 c -3.457,0 -6.875,0.363 -9.324,0.617 -0.613,0.078 -1.188,0.145 -1.727,0.184 -10.187,0.968 -20.808,3.488 -30.671,8.418 -10.903,5.441 -21.165,13.828 -29.016,20.949 -10.793,9.832 -21.414,21.172 -29.984,33.66 -2.95,4.289 -6.442,10.012 -9.356,14.941 -0.074,0.032 -0.144,0.071 -0.219,0.071 -4.605,1.687 -9.465,5.222 -12.093,11.015 -1.114,2.45 -1.981,5.254 -2.34,8.309 -3.492,3.672 -4.934,8 -5.543,10.988 -0.254,1.434 -0.434,2.949 -0.434,4.531 0,0.977 0.074,1.981 0.219,3.028 -1.117,2.519 -2.27,5.183 -3.133,7.265 -4.465,10.731 -9.469,23.907 -12.457,36.036 -2.519,10.183 -6.769,27.793 -8.277,39.343 0,0.176 -0.039,0.325 -0.039,0.469 -0.789,1.047 -1.618,2.156 -1.832,2.449 -2.161,2.883 -3.528,5.903 -4.36,8.782 -0.57,1.984 -0.933,4.21 -0.933,6.589 0,2.485 0.429,5.403 1.691,8.352 -0.18,1.008 -0.289,2.195 -0.289,3.379 0,0.762 0.039,1.73 0.219,2.812 0.109,0.578 0.215,1.114 0.359,1.621 v 0" /><path
         id="path22"
         style="fill:#231f20;fill-opacity:1;fill-rule:nonzero;stroke:none"
         d="m 505.539,146.75 -128.406,-0.617 v 0 c -3.235,0.187 -6.66,0.402 -9.828,0.722 -8.852,0.833 -17.742,3.028 -25.7,6.985 -9.144,4.57 -18.285,11.875 -25.808,18.75 -10.258,9.324 -20.055,19.871 -27.863,31.211 -3.672,5.398 -8.567,13.64 -11.844,19.258 -1.477,0.214 -3.129,0.574 -4.57,1.043 -1.731,0.683 -3.239,1.875 -3.997,3.527 -0.793,1.766 -1.222,3.641 -1.257,5.586 0,0.535 -0.075,2.801 -0.289,3.269 0,0.11 -3.243,3.204 -3.317,3.282 -1.078,1.047 -1.762,2.55 -2.012,4.062 -0.285,1.301 -0.285,2.707 0.11,3.965 0.14,0.645 0.43,1.367 0.719,1.973 -1.512,3.351 -3.633,8.254 -5.008,11.593 -4.422,10.516 -9.106,22.899 -11.805,33.985 -2.555,10.398 -6.547,27.176 -7.953,37.793 -0.109,1.226 -0.469,3.457 -0.938,4.578 -0.109,0.281 -3.601,4.894 -3.742,5.105 -0.937,1.223 -1.621,2.59 -1.98,4.035 -0.578,1.875 -0.613,4.036 0.254,5.793 0.179,0.399 0.5,0.899 0.715,1.153 0.289,0.398 0.832,1.226 0.906,1.66 0.14,0.828 -0.184,2.195 -0.403,3.016 -0.281,0.937 -0.609,2.453 -0.429,3.425 0.035,0.395 0.363,1.008 0.609,1.371 0.11,0.211 0.438,0.821 0.469,1.114 0.183,0.855 -0.246,2.371 -0.535,3.203 -2.809,8.781 -2.699,26.633 -2.485,35.851 0.106,5.907 0.106,14.508 0.071,20.372 -0.071,6.519 -0.071,15.988 0.144,22.5 0.071,3.312 0.36,8.281 0.5,11.628 -0.929,1.118 -1.797,2.375 -2.625,3.563 -1.332,1.871 -2.265,4.141 -2.445,6.406 -0.254,2.848 0.469,5.723 2.051,8.067 1.117,1.726 2.519,3.382 3.925,4.859 3.672,34.883 10.614,75.949 23.11,108.926 -1.262,3.746 -2.09,8.422 -0.938,12.527 1.977,6.836 5.219,6.949 7.524,9.863 0.429,0.504 0.933,2.918 1.113,3.528 0.613,2.734 2.699,5.004 4.824,6.55 19.367,34.375 44.098,73.688 82.219,82.04 2.773,0.679 5.688,1.152 8.496,1.652 v 0 l 131.492,1.551 v 0 c 4.864,-0.289 13.723,-1.223 16.848,-1.692 143.809,-23.078 176.062,-473.574 19.695,-552.48 -3.496,-1.836 -9.285,-4.539 -14.218,-5.692 -1.551,-0.324 -3.887,-0.859 -5.399,-0.859 v 0" /><path
         id="path24"
         style="fill:#ffffff;fill-opacity:1;fill-rule:nonzero;stroke:none"
         d="m 465,290.82 c 0.793,-0.222 2.16,-0.683 2.871,-1.043 1.484,-0.793 3.176,-2.277 4.434,-3.5 2.558,-2.625 5.254,-5.464 7.668,-8.347 1.765,-2.051 3.347,-4.461 4.285,-7.059 0.109,-0.324 0.324,-1.289 0.39,-1.613 3.352,1.367 7.063,1.836 10.625,1.367 3.528,-0.508 6.875,-1.98 9.68,-4.246 0.106,0.535 0.293,1.687 0.535,2.266 0.469,0.937 1.731,2.339 2.453,3.132 1.688,1.797 3.524,3.672 5.438,5.293 3.566,3.059 7.519,5.938 11.73,8.164 1.473,0.832 3.536,1.836 5.223,2.239 0.613,0.105 1.758,0.215 2.375,0.254 -0.215,0.711 -0.578,1.941 -0.617,2.695 -0.067,0.898 0.332,2.48 0.508,3.348 0.324,1.406 0.683,3.488 0.976,4.851 v 0 l 7.696,27.297 v 0 c 0.722,1.941 1.55,3.848 2.414,5.684 0.683,1.191 1.511,2.304 2.597,3.164 0.574,0.468 1.407,0.937 1.981,1.3 -0.574,0.938 -1.258,1.903 -1.805,2.918 -0.793,1.289 -1.477,2.735 -1.762,4.211 -0.398,1.727 -0.437,3.953 -0.437,5.684 v 0 l 0.722,21.273 v 0 c 0,1.442 0.11,3.711 0.54,5.078 0.507,1.368 1.875,3.309 2.703,4.461 0.644,0.868 1.543,2.161 2.199,2.957 -0.656,0.93 -1.66,2.446 -2.09,3.418 -0.644,1.653 -1.008,4.067 -1.223,5.829 -0.828,7.812 -1.875,20.054 -0.828,27.863 0.321,2.484 1.043,5.324 2.371,7.488 0.645,0.973 1.985,2.41 2.813,3.238 -0.828,0.903 -1.66,1.875 -2.41,2.805 -1.621,2.094 -2.774,4.578 -3.391,7.098 -0.789,3.234 -1.297,6.765 -1.582,10.148 -0.43,4.106 -1.043,8.961 -1.66,13.07 -0.43,3.204 -1.152,9.137 -0.43,12.274 0.403,1.582 1.77,3.848 2.629,5.219 0.684,1.007 1.406,2.05 2.051,2.984 -0.539,0.254 -1.367,0.648 -1.945,0.973 -1.395,0.937 -2.547,2.484 -3.457,3.961 -1.649,2.804 -3.016,5.832 -4.168,8.929 -1.34,3.309 -2.52,6.766 -3.457,10.184 -1.329,4.465 -2.481,9.359 -3.028,13.934 -0.246,1.8 -0.363,3.992 0.254,5.718 0.106,0.328 0.508,1.047 0.684,1.371 0.254,0.434 0.652,1.153 0.789,1.661 0.148,0.32 0.254,0.824 0.363,1.183 -0.617,0.613 -1.516,1.551 -2.09,2.199 -1.547,1.762 -2.91,3.848 -4.14,5.969 -2.911,5.008 -5.723,10.332 -8.313,15.555 -1.328,2.699 -3.309,6.551 -4.609,9.215 -0.723,1.296 -1.621,3.132 -1.985,4.535 -0.465,1.511 -0.465,3.273 -0.386,4.75 0.039,0.722 0.105,1.48 0.144,2.195 -1.082,0.832 -2.664,1.984 -3.672,2.883 -2.488,2.086 -5.078,4.824 -7.168,7.234 -1.082,1.297 -2.226,2.59 -3.347,3.856 -5.539,-1.407 -11.621,-0.758 -16.661,2.051 -1.015,-2.051 -2.382,-4.684 -3.925,-6.266 -1.446,-1.516 -3.567,-2.664 -5.442,-3.418 -1.043,-0.434 -2.09,-0.828 -3.125,-1.227 -0.683,-2.336 -1.66,-5.828 -2.558,-8.132 -1.367,-3.856 -3.672,-8.571 -5.614,-12.204 -1.515,-3.027 -3.175,-6.23 -4.785,-9.218 -0.363,-0.75 -0.976,-1.903 -1.593,-2.52 -0.86,-1.008 -2.266,-1.687 -3.524,-2.191 -0.754,-0.289 -1.652,-0.617 -2.414,-0.832 0.645,-1.004 1.34,-2.051 1.797,-3.094 0.801,-1.582 1.047,-3.352 0.91,-5.113 -0.109,-1.153 -0.441,-2.481 -0.723,-3.567 v 0 l -6.339,-28.683 v 0 c -0.43,-2.02 -1.075,-4.356 -1.903,-6.266 -0.508,-1.117 -1.23,-2.156 -2.051,-3.023 -0.441,-0.434 -1.086,-1.043 -1.593,-1.512 0.332,-0.543 0.722,-1.402 0.976,-2.02 0.832,-1.582 2.051,-4.281 2.453,-6.043 0.321,-1.656 0.243,-4.14 0.137,-5.836 v 0 l -1.184,-24.691 v 0 c -0.253,-1.621 -0.574,-3.746 -1.23,-5.219 -0.215,-0.683 -0.93,-1.73 -1.258,-2.34 -0.176,-0.214 -0.39,-0.609 -0.578,-0.828 -0.32,-0.539 -0.75,-1.297 -1.035,-1.871 1.035,-0.863 2.16,-1.871 3.098,-2.844 1.218,-1.257 2.187,-2.773 2.734,-4.394 0.574,-1.836 0.789,-4.246 0.82,-6.117 0.117,-9.031 0.117,-18.539 -0.246,-27.539 -0.183,-2.914 -0.574,-6.082 -1.551,-8.891 -0.285,-0.824 -1.113,-2.48 -1.476,-3.238 0.578,-0.504 1.262,-0.938 1.875,-1.406 1.367,-0.973 3.379,-2.594 4.316,-3.887 1.66,-2.305 2.481,-5.828 2.883,-8.637 0.723,-5.402 1.258,-11.09 1.648,-16.527 0.118,-1.145 0.227,-2.735 0.333,-3.891 0.214,-2.437 0.5,-5.973 0.5,-8.379 0,-1.48 0,-3.672 -0.071,-5.183 0.723,-0.547 1.438,-1.153 2.16,-1.731 1.297,-1.109 2.703,-2.488 3.633,-3.926 0.828,-1.328 1.59,-3.347 2.09,-4.863 2.625,-7.625 4.785,-15.437 6.484,-23.355 0.606,-2.911 1.258,-6.34 1.649,-9.25 0.324,-2.774 0.187,-5.508 -0.535,-8.211 -0.293,-0.93 -0.832,-2.309 -1.223,-3.235 v 0" /><path
         id="path26"
         style="fill:#231f20;fill-opacity:1;fill-rule:nonzero;stroke:none"
         d="m 476.477,299.855 -5.579,26.856 v 0 c 1.047,1.434 2.59,3.562 3.528,5.074 1.98,3.125 3.562,6.555 4.863,10 2.117,6.125 3.738,12.461 4.781,18.828 2.309,14.078 3.059,29.664 3.168,43.918 0.106,13.032 -0.429,26.098 -1.758,39.059 -1.378,13.394 -3.964,27.109 -7.023,40.176 -2.598,11.015 -6.121,23.644 -10.73,34.011 -2.227,5.004 -6.008,12.063 -8.606,16.887 0.442,3.348 1.34,6.734 2.598,9.899 1.074,2.914 2.519,5.718 4.25,8.386 1.621,-2.484 3.953,-6.226 5.359,-8.816 2.91,-5.328 6.008,-13.035 8.098,-18.758 2.383,-6.223 4.969,-13.5 6.844,-19.871 3.019,-9.934 5.429,-21.598 7.304,-31.75 2.051,-11.266 3.711,-22.676 5,-34.02 1.477,-12.957 2.414,-26.164 2.414,-39.23 0.078,-12.168 -0.793,-24.445 -2.304,-36.539 -1.543,-11.981 -3.743,-24.258 -7.012,-35.891 -2.238,-7.703 -5.586,-14.969 -10.09,-21.558 -1.434,-1.985 -3.633,-4.786 -5.105,-6.661 v 0" /><path
         id="path28"
         style="fill:#ffffff;fill-opacity:1;fill-rule:nonzero;stroke:none"
         d="m 452.891,160.137 0.363,0.109 0.293,0.32 v 0.469 l -0.227,0.363 v 0 c -5.281,4.434 -11.004,8.602 -16.765,12.383 -6.914,4.461 -14.219,13.067 -19.297,19.473 -0.688,0.937 -12.961,16.601 -13.57,17.644 -1.153,1.907 -2.774,4.786 -3.821,6.797 0,-1.797 -0.031,-5.039 -0.535,-6.797 -0.723,-2.382 -3.352,-6.628 -4.719,-8.71 -1.652,-2.637 -3.851,-6.551 -5.293,-9.286 -1.332,-2.382 -3.203,-5.839 -4.64,-8.105 -1.082,-1.758 -9.719,-15.625 -10.657,-17.492 -0.718,-1.336 -2.554,-4.864 -3.418,-6.055 -0.394,-0.574 -1.441,-1.648 -1.875,-2.156 v 0 l 84.161,1.043 v 0" /><path
         id="path30"
         style="fill:#ffffff;fill-opacity:1;fill-rule:nonzero;stroke:none"
         d="m 361.742,167.559 23.867,40.207 v 0 c 0.469,0.718 0.829,1.543 0.899,2.371 0.109,0.793 -0.285,1.554 -0.938,1.875 -0.824,0.429 -1.836,0.324 -2.48,-0.293 -0.539,-0.43 -1.043,-1.043 -1.367,-1.688 v 0 L 355.84,179.035 v 0 c -1.293,-1.652 -2.555,-3.527 -3.348,-5.43 -0.613,-1.476 -0.398,-3.312 0.071,-4.785 0.363,-1.445 1.261,-2.707 2.519,-3.351 2.379,-1.336 5.293,-0.215 6.66,2.09 v 0" /><path
         id="path32"
         style="fill:#ffffff;fill-opacity:1;fill-rule:nonzero;stroke:none"
         d="m 342.09,166.875 c 0.25,0.324 0.25,2.188 0.25,2.59 -0.035,1.797 0,4.785 0.574,6.473 0.652,1.875 2.594,4.464 3.746,6.085 v 0 l 25.524,31.758 v 0 c 1.367,1.649 3.308,3.778 5.004,5.145 0.609,0.5 1.945,1.398 2.589,1.836 v 0 l -38.914,1.543 v 0 c -0.543,-0.575 -1.258,-1.153 -1.906,-1.621 -1.047,-0.645 -2.34,-1.043 -3.602,-1.18 -1.152,-0.109 -2.41,-0.188 -3.562,-0.227 v 0 l -40.855,0.149 v 0 c 2.05,-2.805 5.039,-6.875 7.054,-9.68 3.348,-4.57 7.703,-10.301 11.446,-14.656 3.64,-4.211 8.351,-9.465 12.597,-13.067 1.262,-1.046 2.883,-2.265 4.18,-3.273 3.312,-2.449 6.945,-5.332 9.973,-8.172 1.472,-1.406 3.203,-2.695 4.964,-3.82 v 0 l 0.469,-0.106 0.469,0.223 v 0" /><path
         id="path34"
         style="fill:#ffffff;fill-opacity:1;fill-rule:nonzero;stroke:none"
         d="m 344.32,230.234 35.743,-0.937 v 0 c 0.972,0.324 2.593,0.937 3.277,1.687 0.937,1.047 1.117,2.817 0.937,4.25 -0.144,1.477 -0.832,3.243 -2.125,3.957 -1.367,0.723 -3.597,0.723 -5.109,0.543 v 0 l -33.082,-2.449 v 0 c 0.035,-1.433 0.105,-2.879 0.215,-4.246 0.039,-0.937 0.105,-1.875 0.144,-2.805 v 0" /><path
         id="path36"
         style="fill:#ffffff;fill-opacity:1;fill-rule:nonzero;stroke:none"
         d="m 285.426,229.875 33.187,-0.215 v 0 c 2.414,0.215 4.282,2.266 4.282,4.676 0,2.629 -2.192,4.719 -4.856,4.68 v 0 l -24.051,-0.11 -8.562,-9.031 v 0" /><path
         id="path38"
         style="fill:#ffffff;fill-opacity:1;fill-rule:nonzero;stroke:none"
         d="m 304.473,249.277 20.265,0.286 v 0 c 2.739,0.105 6.047,0.105 8.75,-0.43 2.266,-0.43 4.356,-1.555 6.153,-2.922 0.507,-0.32 1.043,-0.789 1.547,-1.152 0,0 0.289,-0.067 0.328,-0.106 1.218,-0.176 2.699,0.332 3.812,0.762 v 0 l 29.985,3.348 v 0 c 1.48,0.285 3.71,0.578 5.218,0.5 0.907,-0.071 2.274,-0.215 3.203,-0.325 -1.218,2.371 -2.988,5.832 -4.132,8.242 -2.809,5.723 -5.442,11.524 -7.852,17.383 -2.695,6.524 -5.398,13.789 -7.164,20.559 -0.609,2.519 -1.441,6.269 -1.977,8.789 -0.613,-1.152 -1.55,-2.813 -2.089,-4.008 -0.43,-1.004 -1.766,-3.699 -2.375,-4.637 -0.543,-0.832 -1.801,-2.128 -2.52,-2.839 v 0 l -27.539,-26.641 v 0 c -0.973,-0.898 -2.016,-1.77 -3.063,-2.559 -1.507,-1.074 -3.273,-1.797 -5.109,-1.906 -0.828,-0.066 -2.16,0.039 -2.984,0.149 v 0 l -12.457,-12.493 v 0" /><path
         id="path40"
         style="fill:#ffffff;fill-opacity:1;fill-rule:nonzero;stroke:none"
         d="m 270.234,258.098 57.848,47.332 v 0 c 0.723,0.832 1.762,1.98 2.625,2.59 0.617,0.359 1.621,0.867 2.273,1.191 v 0 l -28.222,9.539 v 0 c -0.793,0.148 -1.945,0.508 -2.594,0.859 -0.504,0.293 -1.226,0.832 -1.656,1.153 -1.004,-0.36 -2.051,-0.821 -3.024,-1.184 -1.546,-0.574 -3.203,-0.894 -4.863,-0.789 -1.144,0.109 -2.805,0.574 -3.887,0.899 v 0 L 256.52,329.98 v 0 c -1.508,0.364 -3.852,1.047 -5.329,1.692 -0.972,0.43 -2.41,1.258 -3.418,1.875 0.899,-5.188 2.192,-12.785 3.313,-17.895 1.867,-8.562 4.281,-17.097 7.055,-25.41 2.015,-6.16 4.207,-12.351 6.586,-18.394 1.476,-3.887 3.925,-9.825 5.507,-13.75 v 0" /><path
         id="path42"
         style="fill:#ffffff;fill-opacity:1;fill-rule:nonzero;stroke:none"
         d="m 319.914,285.676 5.18,-8.137 22.574,21.121 v 0 c 0.535,0.512 1.223,1.262 1.547,1.985 0.32,0.832 0.035,1.875 -0.434,2.668 -0.504,0.933 -1.402,1.621 -2.449,1.726 -1.184,0.176 -2.699,-0.254 -3.777,-0.684 v 0 l -22.641,-18.679 v 0" /><path
         id="path44"
         style="fill:#ffffff;fill-opacity:1;fill-rule:nonzero;stroke:none"
         d="m 306.988,265.441 0.067,0.176 v 0.145 l -0.645,1.222 v 0 c -0.613,0.868 -1.332,1.688 -2.09,2.411 -1.117,1.007 -2.664,1.222 -4.031,0.644 -1.976,-0.75 -3.527,-2.547 -4.57,-4.316 -0.832,-1.434 -1.656,-2.91 -2.414,-4.356 -0.899,-1.726 -2.196,-4.031 -3.348,-5.574 -1.402,-1.875 -3.379,-3.137 -5.578,-3.781 -0.863,-0.293 -2.195,-0.43 -3.133,-0.547 -1.113,-0.176 -2.695,-0.391 -3.742,-0.82 -2.195,-0.899 -3.563,-3.028 -3.637,-5.477 0,-1.398 0.828,-2.844 1.946,-3.848 1.152,-0.976 2.699,-1.586 4.171,-1.3 0.868,0.214 1.875,0.722 2.704,1.191 v 0 l 24.3,24.23 v 0" /><path
         id="path46"
         style="fill:#ffffff;fill-opacity:1;fill-rule:nonzero;stroke:none"
         d="m 342.734,317.355 c 1.079,-0.148 2.305,-0.214 3.383,-0.039 1.836,0.254 3.313,1.407 4.102,3.055 0.578,1.445 0.758,3.027 0.148,4.434 -0.504,1.261 -1.441,2.226 -2.594,2.843 -1.406,0.75 -3.062,1.329 -4.609,1.766 v 0 l -33.726,5.723 v 0 c -0.903,0.027 -2.161,0.105 -2.989,-0.293 -0.863,-0.36 -1.437,-1.649 -1.691,-2.586 -0.215,-0.871 -0.289,-1.914 0.215,-2.668 0.648,-1.113 2.121,-2.012 3.312,-2.559 v 0 l 34.449,-9.676 v 0" /><path
         id="path48"
         style="fill:#ffffff;fill-opacity:1;fill-rule:nonzero;stroke:none"
         d="m 282.543,331.719 c 0.973,-0.117 2.48,-0.188 3.418,0.136 1.477,0.547 2.305,2.278 2.555,3.821 0.179,1.363 0.074,2.945 -0.864,3.887 -0.718,0.679 -2.086,1.152 -3.023,1.472 v 0 l -35.457,6.231 v 0 c -0.465,0 -0.973,-0.039 -1.402,-0.149 -0.832,-0.215 -1.516,-0.933 -1.657,-1.758 -0.105,-0.906 0.035,-1.765 0.649,-2.488 0.613,-0.644 1.367,-1.262 2.195,-1.687 v 0 l 33.586,-9.465 v 0" /><path
         id="path50"
         style="fill:#ffffff;fill-opacity:1;fill-rule:nonzero;stroke:none"
         d="m 266.637,354.57 26.133,-4.746 v 0 c 1.585,-0.437 3.347,-0.976 4.898,-1.66 1.941,-0.754 3.703,-2.09 4.75,-3.848 0.359,-0.546 0.828,-1.55 1.078,-2.199 1.547,0.539 3.926,1.328 5.582,1.543 1.512,0.149 3.852,-0.066 5.36,-0.215 v 0 l 27.218,-4.136 v 0 c 2.086,-0.395 4.571,-0.93 6.586,-1.582 1.442,-0.43 2.883,-1.157 4.176,-1.946 0.609,-0.359 1.547,-0.965 2.156,-1.367 -0.504,1.875 -1.219,4.609 -1.687,6.484 -0.938,4.024 -2.27,10.684 -3.098,14.754 -1.258,6.371 -3.348,17.278 -4.281,23.688 -0.797,5.148 -1.371,10.836 -1.621,16.055 -0.039,2.16 -0.106,5.328 -0.106,7.519 -0.328,-0.355 -0.867,-0.969 -1.152,-1.398 -0.149,-0.289 -0.438,-0.688 -0.613,-0.942 -0.254,-0.465 -0.649,-1.043 -0.977,-1.437 -0.43,-0.504 -1.258,-1.114 -1.836,-1.547 v 0 l -35.527,-24.875 v 0 c -1.836,-1.078 -3.813,-2.156 -5.793,-2.914 -1.692,-0.61 -3.457,-0.832 -5.223,-0.61 -1.219,0.106 -2.699,0.426 -3.918,0.789 -0.039,-0.363 -0.222,-0.937 -0.363,-1.226 -0.32,-0.539 -1.152,-1.117 -1.727,-1.371 v 0 L 266.637,354.57 v 0" /><path
         id="path52"
         style="fill:#ffffff;fill-opacity:1;fill-rule:nonzero;stroke:none"
         d="m 244.203,356.121 c 0.543,-0.828 1.336,-1.617 2.266,-2.09 1.301,-0.535 2.847,-0.535 4.215,0 1.871,0.688 3.707,1.77 5.363,2.883 v 0 l 21.562,14.399 v 0 c 0.754,0.683 1.661,1.441 2.161,2.339 0.644,1.043 0.539,2.414 0.144,3.493 -0.363,1.043 -1.152,1.98 -2.199,2.339 -1.149,0.434 -2.735,0.325 -4.027,0.106 v 0 l -26.461,-14.434 v 0 c -0.973,-0.754 -1.977,-1.648 -2.809,-2.586 -0.754,-0.832 -1.258,-1.918 -1.332,-3.031 0,-1.187 0.469,-2.41 1.117,-3.418 v 0" /><path
         id="path54"
         style="fill:#ffffff;fill-opacity:1;fill-rule:nonzero;stroke:none"
         d="m 295.898,384.563 c 0.469,-0.934 1.192,-1.797 2.165,-2.196 1.367,-0.433 2.914,-0.219 4.175,0.578 0.825,0.461 1.653,1.078 2.371,1.723 v 0 l 26.961,18.793 v 0 c 0.688,0.504 1.336,1.078 1.766,1.766 0.723,1.183 0.508,2.699 -0.609,3.562 -0.719,0.535 -1.657,0.824 -2.45,0.504 -0.722,-0.289 -1.511,-0.832 -2.05,-1.332 v 0 l -28.582,-16.059 v 0 c -1.262,-0.574 -3.129,-1.507 -3.887,-2.699 -0.832,-1.258 -0.395,-3.203 0.14,-4.64 v 0" /><path
         id="path56"
         style="fill:#ffffff;fill-opacity:1;fill-rule:nonzero;stroke:none"
         d="m 243.199,372.934 28.008,14.328 v 0 c 1.043,0.543 2.594,1.367 3.746,1.691 1.652,0.539 4.172,0.649 5.938,0.649 1.004,0 2.05,0 3.019,0 -0.105,0.789 -0.246,2.05 -0.105,2.769 0.289,1.188 1.226,2.309 2.156,3.063 2.922,2.339 6.266,4.316 9.578,5.937 1.981,1.047 4.863,2.66 6.84,3.817 1.762,1.042 4.281,2.484 6.082,3.421 2.809,1.403 7.129,3.563 10.078,4.496 0.906,0.29 2.774,0.723 3.641,0.938 v 0 l -30.422,12.812 v 0 c -1.403,0.723 -2.809,1.547 -4.137,2.454 -1.875,1.183 -3.457,2.804 -4.789,4.601 -0.43,0.653 -1.043,1.66 -1.441,2.379 -0.969,0.035 -2.485,0.254 -3.418,0.543 -0.969,0.285 -2.231,0.934 -3.133,1.367 v 0 l -28.324,12.957 v 0 c -1.121,0.25 -2.559,0.684 -3.496,1.367 -0.325,0.25 -0.793,0.868 -1.082,1.188 -0.286,-3.383 -0.61,-8.352 -0.715,-11.773 -0.215,-5.508 0.105,-15.942 0.285,-21.524 0.035,-2.016 0.109,-5.109 0.144,-7.129 0.106,-4.246 0.325,-10.258 0.434,-14.433 0.18,-3.243 0.394,-7.993 0.504,-11.157 0.18,-2.699 0.32,-6.66 0.43,-9.359 0.07,-1.621 0.144,-3.852 0.179,-5.402 v 0" /><path
         id="path58"
         style="fill:#ffffff;fill-opacity:1;fill-rule:nonzero;stroke:none"
         d="m 334.133,421.172 c 0.105,0.543 0.285,1.769 0.18,2.305 -0.403,1.441 -2.09,2.808 -3.317,3.562 -10.547,7.133 -21.851,13.899 -32.898,20.164 -1.153,0.5 -2.414,0.86 -3.672,1.004 -1.188,0.109 -2.34,-0.285 -3.098,-1.117 -0.824,-0.934 -1.152,-2.192 -1.226,-3.418 0,-1.547 0.402,-3.168 1.375,-4.356 1.293,-1.402 3.308,-2.625 5.039,-3.457 v 0 l 33.871,-15.406 3.746,0.719 v 0" /><path
         id="path60"
         style="fill:#ffffff;fill-opacity:1;fill-rule:nonzero;stroke:none"
         d="m 279.301,449.359 c 0.183,0.254 0.394,0.868 0.394,1.192 -0.07,0.793 -0.828,1.73 -1.332,2.265 v 0 l -29.152,18.395 v 0 c -1.012,0.469 -2.09,0.973 -3.203,1.078 -1.086,0.113 -2.235,-0.25 -2.848,-1.144 -0.683,-1.086 -0.683,-2.922 -0.539,-4.18 0.145,-1.582 0.645,-3.781 1.797,-4.969 0.543,-0.574 1.984,-1.152 2.809,-1.406 v 0 l 25.992,-11.731 6.082,0.5 v 0" /><path
         id="path62"
         style="fill:#ffffff;fill-opacity:1;fill-rule:nonzero;stroke:none"
         d="m 342.301,431.617 c 0,3.559 0,8.742 0.105,12.274 0.114,7.089 0.723,19.976 1.121,27.031 0.321,7.023 0.969,18.433 2.051,25.418 0.434,2.984 1.258,7.305 1.801,10.293 -0.609,-0.289 -1.945,-0.934 -2.52,-1.223 -2.089,-0.832 -4.859,-1.586 -6.984,-2.125 v 0 l -38.586,-7.344 v 0 c -0.937,-0.613 -2.922,-1.91 -3.926,-2.41 -3.64,-1.875 -8.57,-3.531 -12.531,-4.609 v 0 l -29.187,-8.391 32.683,-20.945 v 0 c 0.899,0.105 1.762,0.141 2.66,0.25 1.985,0.109 4.25,0.07 6.051,-0.539 1.547,-0.543 3.453,-1.656 4.859,-2.52 v 0 l 42.403,-25.16 v 0" /><path
         id="path64"
         style="fill:#ffffff;fill-opacity:1;fill-rule:nonzero;stroke:none"
         d="m 245.609,487.738 39.309,10.731 v 0 c 1.258,0.394 2.594,1.004 3.672,1.836 0.723,0.535 1.226,1.367 1.367,2.23 0.18,0.934 0.18,2.051 -0.25,2.879 -0.684,1.262 -1.941,1.981 -3.348,2.012 -2.234,0.183 -4.57,-0.43 -6.621,-1.258 v 0 l -29.843,-10.762 v 0 c -1.082,-0.578 -2.52,-1.402 -3.457,-2.265 -0.934,-0.907 -1.442,-2.09 -1.368,-3.352 v 0 l 0.215,-1.867 0.07,-0.109 0.036,-0.075 h 0.218 v 0" /><path
         id="path66"
         style="fill:#ffffff;fill-opacity:1;fill-rule:nonzero;stroke:none"
         d="m 302.523,505.02 31.141,6.48 v 0 c 2.774,0.504 5.578,1.113 8.207,1.867 2.086,0.578 4.141,1.731 5.359,3.531 0.868,1.329 0.653,3.098 -0.355,4.286 -1.191,1.398 -3.242,1.836 -5.039,1.761 -4.359,-0.254 -8.856,-1.515 -12.957,-3.062 -3.961,-1.547 -9.688,-3.238 -13.789,-4.422 -2.051,-0.543 -5.074,-1.406 -7.129,-2.094 -2.086,-0.574 -5.113,-1.512 -7.199,-2.121 0.429,-1.047 0.824,-2.16 1.152,-3.312 0.289,-0.938 0.504,-1.907 0.609,-2.914 v 0" /><path
         id="path68"
         style="fill:#ffffff;fill-opacity:1;fill-rule:nonzero;stroke:none"
         d="m 244.57,501.059 c 0.176,0 1.008,0.644 1.114,0.718 0.148,0.11 0.578,0.504 0.722,0.543 0.973,0.684 2.125,1.258 3.239,1.762 v 0 l 29.769,11.121 v 0 c 1.188,0.504 2.629,1.047 3.852,1.477 2.519,0.832 5.113,1.226 7.742,1.152 0.898,0 2.121,-0.105 2.988,-0.141 0.824,0.321 2.082,0.864 2.914,1.258 v 0 l 0.285,0.11 v 0 c 1.188,0.535 2.953,1.332 4.176,1.796 8.531,3.637 17.317,6.446 26.317,8.497 1.867,0.394 4.5,0.937 6.371,1.332 v 0 l -26.93,17.601 v 0 c -1.902,1.582 -3.887,3.352 -5.723,5.113 -1.582,1.547 -3.054,3.348 -3.961,5.434 -0.215,0.504 -0.461,1.656 -0.644,2.199 -0.613,-0.039 -1.586,-0.215 -2.27,-0.109 -0.535,0.109 -1.367,0.469 -1.91,0.683 v 0 l -25.051,16.559 v 0 c -1.082,0.609 -2.519,1.477 -3.418,2.41 -0.363,0.434 -0.937,1.336 -1.261,1.836 -2.09,-6.008 -5.039,-14.828 -6.875,-20.91 -2.379,-7.812 -5.399,-18.723 -6.661,-26.82 -0.214,-1.551 -3.308,-21.739 -3.671,-23.219 -0.825,-3.203 -1.442,-6.481 -1.836,-9.789 v 0 l 0.074,-0.289 0.141,-0.215 0.218,-0.109 h 0.289 v 0" /><path
         id="path70"
         style="fill:#ffffff;fill-opacity:1;fill-rule:nonzero;stroke:none"
         d="m 349.898,536.051 c 0.321,0.289 0.938,0.828 1.188,1.226 0.613,1.219 0.539,2.625 -0.035,3.778 -1.047,1.976 -2.774,3.633 -4.535,5.004 v 0 l -32.293,23.683 v 0 c -0.938,0.508 -2.051,0.938 -3.094,1.082 -1.188,0.289 -2.484,-0.144 -3.527,-0.797 -1.477,-0.929 -2.344,-2.55 -2.629,-4.242 -0.215,-1.371 -0.071,-2.879 0.722,-3.961 0.938,-1.437 2.52,-2.699 3.957,-3.636 v 0 l 34.27,-22.567 5.976,0.43 v 0" /><path
         id="path72"
         style="fill:#ffffff;fill-opacity:1;fill-rule:nonzero;stroke:none"
         d="m 356.848,547.141 h 0.07 l 0.109,0.07 0.036,0.035 0.07,0.074 0.832,3.493 v 0 c 0.535,3.203 3.238,11.515 4.281,14.613 0.938,2.914 5.938,18.32 7.27,21.129 2.199,4.715 5.547,12.168 7.418,17.062 0.832,2.086 2.914,9.11 1.046,8.785 -13.14,-2.699 -34.343,-6.082 -47.265,-6.765 -2.594,-0.149 -5.074,0.929 -7.164,2.156 -2.594,-0.32 -6.34,-0.828 -8.86,-1.227 -4.355,-0.644 -13.855,-2.41 -18.136,-3.238 -3.098,-0.539 -7.668,-1.363 -10.762,-1.941 v 0 l 21.02,-19.477 v 0 c 1.226,-0.035 4.46,-0.324 5.687,-0.719 3.418,-0.937 6.801,-2.734 9.789,-4.609 10.188,-6.371 20.27,-14.902 29.016,-23.18 v 0 l 4.101,-3.89 v 0 c 0.289,-0.321 0.797,-1.328 1.012,-1.723 0.031,-0.113 0.32,-0.578 0.43,-0.648 v 0" /><path
         id="path74"
         style="fill:#ffffff;fill-opacity:1;fill-rule:nonzero;stroke:none"
         d="m 294.242,571.977 c 0.25,1.336 0.754,2.519 1.477,3.671 0.719,1.122 1.582,2.125 2.699,2.883 v 0 l -24.551,21.125 v 0 c -0.758,0.11 -2.156,0.289 -2.84,0 -1.226,-0.32 -2.703,-2.73 -3.316,-3.777 -0.609,-1.008 -1.113,-2.231 -0.934,-3.383 0.215,-1.297 1.153,-2.844 1.871,-3.961 v 0 l 25.594,-16.558 v 0" /><path
         id="path76"
         style="fill:#ffffff;fill-opacity:1;fill-rule:nonzero;stroke:none"
         d="m 277.145,609.781 37.976,6.258 v 0 c 0.613,0.109 1.262,0.289 1.797,0.578 0.797,0.254 1.441,0.863 1.836,1.586 0.328,0.645 0.543,1.477 0.328,2.192 -0.394,1.121 -1.332,1.945 -2.41,2.378 -1.227,0.43 -2.559,0.649 -3.82,0.825 v 0 l -30.918,-2.051 v 0 c -1.227,-1.258 -2.196,-2.699 -2.989,-4.246 -1.152,-2.34 -1.8,-4.934 -1.8,-7.52 v 0" /><path
         id="path78"
         style="fill:#ffffff;fill-opacity:1;fill-rule:nonzero;stroke:none"
         d="m 286.363,630.297 89.813,6.375 -30.594,30.699 v 0 c -5.687,5.731 -6.875,12.457 -6.875,19.301 -19.766,-14.008 -39.133,-35.133 -52.344,-56.375 v 0" /><path
         id="path80"
         style="fill:#ffffff;fill-opacity:1;fill-rule:nonzero;stroke:none"
         d="m 328.301,620.508 0.074,-0.074 v 0 c 0,-0.039 0,-0.18 0,-0.286 0,-0.832 0.215,-1.589 0.648,-2.304 0.719,-1.262 2.051,-2.02 3.493,-2.199 1.367,-0.11 2.839,0.109 4.207,0.433 v 0 l 38.918,5.508 v 0 c 1.547,0.43 3.418,1.477 3.418,3.238 0.074,3.821 -3.672,3.383 -6.481,3.383 v 0 l -35.961,-2.48 v 0 c -1.656,-0.075 -3.418,-0.286 -5.039,-0.688 -1.187,-0.25 -2.484,-0.898 -2.988,-1.976 -0.289,-0.579 -0.289,-1.911 -0.289,-2.555 v 0" /><path
         id="path82"
         style="fill:#ffffff;fill-opacity:1;fill-rule:nonzero;stroke:none"
         d="m 399.078,645.059 c 13.067,19.152 38.656,39.453 59.508,49.636 v 0 l -96.336,-0.394 36.828,-49.242 v 0" /><path
         id="path84"
         style="fill:#ffffff;fill-opacity:1;fill-rule:nonzero;stroke:none"
         d="m 385.859,644.805 c 0.289,0.218 0.395,0.617 0.329,0.972 v 0 l -32.004,40.532 v 0 c -3.204,0.468 -6.008,-2.266 -5.579,-5.469 v 0 l 33.477,-35.387 v 0 c 1.043,-0.719 2.844,-1.473 3.777,-0.648 v 0" /><path
         id="path86"
         style="fill:#ffffff;fill-opacity:1;fill-rule:nonzero;stroke:none"
         d="m 493.859,240.742 c 1.875,0.11 3.563,0.754 5.079,1.906 1.472,1.153 2.519,2.704 3.027,4.54 0.535,1.796 0.469,3.671 -0.188,5.429 -0.605,1.77 -1.687,3.242 -3.23,4.356 -5.188,3.566 -12.356,0.871 -13.828,-5.176 -1.438,-5.828 3.133,-11.336 9.14,-11.055 v 0" /><path
         id="path88"
         style="fill:#ffffff;fill-opacity:1;fill-rule:nonzero;stroke:none"
         d="m 511.895,255.215 c 1.984,0.508 4.464,1.152 6.445,1.945 3.351,1.258 6.379,3.164 9.074,5.574 0.938,0.911 4.102,3.75 4.93,4.797 0.832,1.074 1.113,2.481 0.683,3.739 -0.496,1.3 -1.511,2.265 -2.8,2.558 -1.446,0.215 -5.012,-1.015 -6.407,-1.512 -3.672,-1.261 -6.992,-3.605 -9.113,-6.914 -1.219,-1.984 -2.051,-4.25 -2.371,-6.554 -0.215,-1.219 -0.332,-2.41 -0.441,-3.633 v 0" /><path
         id="path90"
         style="fill:#ffffff;fill-opacity:1;fill-rule:nonzero;stroke:none"
         d="m 548.078,291.57 c 1.258,2.844 2.305,6.047 3.094,9.075 1.152,4.464 2.48,8.964 3.965,13.281 0.754,2.129 1.691,5.117 1.972,7.383 0.11,1.3 -0.105,3.027 -1.152,3.847 -1.367,1.043 -3.23,0.938 -4.531,-0.176 -1.875,-1.691 -3.164,-5.617 -3.887,-7.988 -0.535,-1.914 -1.152,-4.609 -1.551,-6.484 -0.539,-2.52 -1.328,-6.016 -2.16,-8.418 -1.152,-3.645 -2.305,-8.211 -1.902,-11.953 0.105,-1.258 0.75,-2.918 1.98,-3.028 1.692,-0.214 3.449,2.879 4.172,4.461 v 0" /><path
         id="path92"
         style="fill:#ffffff;fill-opacity:1;fill-rule:nonzero;stroke:none"
         d="m 558.809,338.73 c 0.793,0 1.73,0.184 2.265,0.762 0.938,1.113 1.477,2.774 1.692,4.207 0.293,1.516 1.218,9.36 1.367,10.871 0.293,2.278 0.508,5.508 0.613,7.774 0.07,1.086 0.176,2.746 0.215,3.855 0.176,2.524 0,5.328 -0.859,7.703 -0.508,1.371 -1.551,2.629 -2.989,2.844 -1.484,0.25 -2.918,-0.469 -3.672,-1.691 -1.121,-1.692 -1.66,-3.961 -1.804,-5.938 -0.254,-2.164 -0.364,-5.219 -0.391,-7.379 0,-1.875 -0.109,-4.57 -0.215,-6.445 -0.336,-3.848 -0.468,-7.957 0,-11.699 0.215,-1.438 0.75,-2.879 1.688,-3.926 0.539,-0.535 1.328,-0.859 2.09,-0.938 v 0" /><path
         id="path94"
         style="fill:#ffffff;fill-opacity:1;fill-rule:nonzero;stroke:none"
         d="m 565.246,393.164 c 0.293,2.379 0.574,4.863 0.801,7.277 0.105,1.039 0.215,2.52 0.32,3.629 0.43,4.285 0.938,10.227 0.754,14.582 -0.109,2.414 -0.832,4.86 -2.199,6.875 -0.82,1.332 -2.195,2.555 -3.738,2.668 -1.582,0.141 -3.243,-0.507 -3.965,-1.949 -1.367,-2.519 -1.262,-7.269 -1.074,-10.078 0.039,-0.684 0.859,-14.508 0.859,-15.227 -0.137,-2.804 -0.031,-6.046 0.723,-8.75 0.398,-1.257 1.328,-2.304 2.519,-2.804 1.152,-0.434 2.703,-0.614 3.602,0.144 0.859,0.789 1.261,2.481 1.398,3.633 v 0" /><path
         id="path96"
         style="fill:#ffffff;fill-opacity:1;fill-rule:nonzero;stroke:none"
         d="m 561.613,439.535 c 1.473,0.645 2.196,2.414 2.371,3.996 0.442,4.571 -0.214,9.754 -1.113,14.219 -0.144,0.973 -1.648,12.488 -1.797,13.461 -0.215,1.762 -0.722,3.746 -1.765,5.254 -0.715,0.937 -1.946,1.371 -3.098,1.48 -1.473,0.141 -3.055,-0.289 -3.992,-1.441 -1.223,-1.547 -1.653,-3.746 -1.653,-5.762 0.032,-2.48 0.539,-6.012 0.93,-8.496 0.254,-1.687 0.723,-4.281 0.867,-6.047 0.391,-4.066 1.114,-8.922 2.668,-12.777 0.684,-1.692 2.078,-3.02 3.848,-3.672 0.75,-0.285 1.98,-0.609 2.734,-0.215 v 0" /><path
         id="path98"
         style="fill:#ffffff;fill-opacity:1;fill-rule:nonzero;stroke:none"
         d="m 555.031,490.906 c 0.352,0.11 0.86,0.324 1.035,0.649 0.438,1.008 0.145,2.914 -0.07,4.031 -0.43,2.305 -2.519,10.227 -3.055,12.523 -0.468,1.547 -1.125,3.746 -1.621,5.219 -0.468,1.731 -1.261,4.145 -1.691,5.836 -0.547,2.34 -1.336,4.68 -2.305,6.91 -0.683,1.406 -1.765,2.848 -3.281,3.352 -1.18,0.429 -2.547,0.105 -3.348,-0.899 -0.968,-1.41 -1.261,-3.277 -1.035,-5.047 0.496,-4.027 3.016,-11.191 4.383,-14.968 0.898,-2.305 2.277,-5.223 3.312,-7.492 0.801,-1.582 1.875,-3.918 2.598,-5.54 0.723,-1.656 2.051,-4.035 3.672,-4.683 0.469,-0.176 1.004,-0.07 1.406,0.109 v 0" /><path
         id="path100"
         style="fill:#ffffff;fill-opacity:1;fill-rule:nonzero;stroke:none"
         d="m 540.734,539.797 c 0.723,0.07 1.329,0.648 1.551,1.363 0.352,1.156 0.535,2.555 0.137,3.746 -0.32,1.153 -2.91,6.875 -3.379,7.989 -1.512,3.351 -3.992,9.074 -4.973,12.671 -0.718,2.414 -1.687,5.153 -3.093,7.309 -0.938,1.441 -2.481,2.414 -4.168,2.52 -1.231,0.074 -2.598,-0.215 -3.321,-1.153 -1.367,-1.687 -1.367,-4.172 -0.715,-6.262 v 0 l 6.446,-12.816 v 0 c 1.945,-4.031 4.211,-8.062 6.652,-11.805 1.016,-1.511 2.988,-3.781 4.863,-3.562 v 0" /><path
         id="path102"
         style="fill:#ffffff;fill-opacity:1;fill-rule:nonzero;stroke:none"
         d="m 516.223,583.93 c 2.011,1.691 7.09,4.211 8.965,4.39 -0.938,0.973 -2.278,2.414 -3.215,3.457 -2.735,3.094 -6.075,6.84 -10.184,6.985 -1.691,0 -3.164,-1.082 -3.594,-2.703 -0.468,-1.582 -0.293,-3.278 0.535,-4.711 1.329,-2.164 2.95,-4.067 4.825,-5.727 0.468,-0.394 2.265,-2.051 2.668,-1.691 v 0" /><path
         id="path104"
         style="fill:#ffffff;fill-opacity:1;fill-rule:nonzero;stroke:none"
         d="m 488.898,598.941 c 1.942,-0.324 3.848,-0.035 5.614,0.723 1.758,0.824 3.242,2.082 4.277,3.742 1.047,1.657 1.555,3.528 1.484,5.438 -0.039,1.976 -0.652,3.812 -1.726,5.398 -4.141,5.906 -13.067,5.469 -16.602,-0.828 -3.273,-5.937 0.215,-13.32 6.953,-14.473 v 0" /><path
         id="path106"
         style="fill:#ffffff;fill-opacity:1;fill-rule:nonzero;stroke:none"
         d="m 475.5,597.969 c -1.758,1.761 -3.203,3.851 -4.277,5.941 -2.168,-0.902 -5.078,-2.305 -6.953,-3.312 1.835,-1.797 3.132,-4.137 3.75,-6.657 2.695,0.86 5.32,2.266 7.48,4.028 v 0" /><path
         id="path108"
         style="fill:#ffffff;fill-opacity:1;fill-rule:nonzero;stroke:none"
         d="m 460.449,583.965 c 0.332,0.644 0.832,1.547 0.977,2.265 0.39,1.586 -0.215,3.243 -1.367,4.321 -0.762,0.683 -1.875,1.512 -2.84,1.551 -2.051,0.105 -4.114,-0.543 -5.371,-2.09 v 0 l -7.59,-15.801 v 0 c -2.235,-4.719 -4.285,-9.832 -5.977,-14.797 -0.468,-1.332 -1.043,-3.309 -0.789,-4.68 0.215,-0.933 1.113,-1.66 1.973,-2.086 1.121,-0.543 2.488,-0.832 3.64,-0.289 1.622,0.789 3.098,2.914 3.958,4.536 3.308,5.722 6.296,11.66 8.964,17.636 1.082,2.453 3.164,7.129 4.422,9.434 v 0" /><path
         id="path110"
         style="fill:#ffffff;fill-opacity:1;fill-rule:nonzero;stroke:none"
         d="m 439.355,533.418 c 0.293,1.152 0.508,2.484 0.508,3.711 0,1.476 -0.722,2.809 -1.941,3.672 -1.192,0.933 -2.844,1.148 -4.289,0.609 -1.258,-0.504 -2.485,-1.332 -3.055,-2.519 -0.832,-1.657 -1.406,-6.336 -1.621,-8.282 -0.328,-3.019 -0.973,-7.125 -1.551,-10.218 -0.789,-4.899 -1.586,-10.008 -2.015,-14.977 -0.18,-1.875 0,-4 1.047,-5.613 0.429,-0.723 1.257,-1.086 2.05,-1.153 1.078,-0.109 2.231,0.18 2.95,1.004 0.828,0.973 1.335,3.024 1.582,4.215 0.574,2.594 1.406,6.332 1.98,8.852 0.723,3.097 1.73,7.492 2.344,10.586 0.136,0.867 0.429,2.16 0.578,3.023 0.391,2.09 0.937,5.074 1.433,7.09 v 0" /><path
         id="path112"
         style="fill:#ffffff;fill-opacity:1;fill-rule:nonzero;stroke:none"
         d="m 426.324,451.234 c 0.903,-0.214 1.766,0.071 2.27,0.793 0.719,0.938 1.226,2.305 1.547,3.383 0.937,3.203 1.187,6.516 1.047,9.754 -0.11,1.551 -0.18,3.457 0.035,5.008 0.613,4.242 1.113,9.789 0.359,13.965 -0.359,1.836 -1.656,3.383 -3.383,4.031 -1.695,0.609 -3.636,0.504 -5.004,-0.648 -1.55,-1.332 -2.414,-3.493 -2.734,-5.508 -0.793,-4.356 -0.504,-10.692 -0.184,-15.047 0.289,-3.453 0.832,-6.985 1.766,-10.328 0.613,-2.199 2.051,-4.973 4.281,-5.403 v 0" /><path
         id="path114"
         style="fill:#ffffff;fill-opacity:1;fill-rule:nonzero;stroke:none"
         d="m 432.305,403.176 c -0.039,1.726 0.07,3.851 0.175,5.578 0.04,0.934 0.11,2.301 0.11,3.238 0.039,2.16 -0.11,6.336 -0.215,8.461 -0.07,2.125 -0.18,5.399 -0.07,7.488 0.109,2.047 0.39,6.766 -0.11,8.711 -0.504,1.692 -2.086,2.844 -3.781,3.348 -1.976,0.504 -4.25,0.07 -5.508,-1.586 -1.113,-1.441 -1.582,-3.203 -1.582,-4.969 0.035,-2.699 0.645,-6.586 1.078,-9.285 0.289,-1.871 0.719,-4.676 0.899,-6.551 0.433,-4.789 1.078,-10.113 1.91,-14.867 0.32,-1.875 1.113,-3.996 2.594,-5.183 0.929,-0.684 2.304,-0.864 3.093,-0.11 1.184,1.223 1.407,4.031 1.407,5.727 v 0" /><path
         id="path116"
         style="fill:#ffffff;fill-opacity:1;fill-rule:nonzero;stroke:none"
         d="m 441.191,349.172 c -0.214,2.957 -0.828,6.48 -1.433,9.394 -0.871,4.469 -1.555,8.934 -1.875,13.5 -0.149,2.411 -0.43,5.332 -0.969,7.629 -0.293,1.442 -0.906,2.922 -2.059,3.821 -0.968,0.824 -2.304,0.972 -3.562,0.648 -1.004,-0.254 -2.805,-0.863 -3.418,-1.691 -0.754,-1.114 -0.613,-2.989 -0.395,-4.25 0.579,-2.914 1.547,-7.09 2.266,-9.903 0.649,-2.586 1.547,-6.328 2.09,-8.847 0.285,-1.446 0.715,-3.243 1.047,-4.649 0.43,-1.648 1.004,-3.886 1.367,-5.613 0.281,-1.301 0.828,-3.637 1.863,-4.426 1.153,-1.015 2.922,-0.722 3.926,0.469 0.871,1.113 1.262,2.551 1.152,3.918 v 0" /><path
         id="path118"
         style="fill:#ffffff;fill-opacity:1;fill-rule:nonzero;stroke:none"
         d="m 456.602,299.68 c -0.536,3.23 -1.622,6.875 -2.704,10 -1.261,3.75 -2.91,8.965 -3.781,12.82 -0.429,2.117 -1.367,6.223 -2.156,8.313 -0.645,1.765 -1.906,3.523 -3.742,4.07 -1.192,0.351 -2.449,-0.106 -3.387,-0.977 -1.008,-1.004 -1.836,-2.304 -1.945,-3.672 -0.282,-3.996 1.593,-9.539 3.027,-13.281 0.539,-1.367 1.438,-3.308 2.051,-4.676 1.152,-2.519 2.707,-6.125 3.418,-8.82 0.762,-2.773 1.914,-6.191 3.562,-8.574 0.727,-1.004 1.875,-1.863 3.098,-1.582 1.262,0.32 2.09,1.582 2.414,2.844 0.254,1.121 0.32,2.3 0.145,3.535 v 0" /><path
         id="path120"
         style="fill:#ffffff;fill-opacity:1;fill-rule:nonzero;stroke:none"
         d="m 473.273,261.984 c 1.043,1.004 1.864,2.586 1.434,3.954 -0.574,1.554 -3.926,5.078 -5.078,6.23 -1.035,1.113 -2.41,2.734 -3.34,3.887 -0.937,1.3 -2.273,2.883 -3.426,3.925 -1.476,1.329 -3.418,2.161 -5.39,2.2 -1.379,0.066 -2.961,-0.215 -3.965,-1.196 -0.832,-0.828 -1.192,-2.046 -0.86,-3.164 0.215,-0.972 2.305,-4.07 2.84,-4.89 2.59,-3.778 5.832,-7.207 9.356,-10.117 0.937,-0.762 2.304,-1.805 3.418,-2.266 1.699,-0.652 3.672,0.109 5.011,1.437 v 0" /><path
         id="path122"
         style="fill:#ffffff;fill-opacity:1;fill-rule:nonzero;stroke:none"
         d="m 473.77,248.332 c -1.075,-0.148 -2.657,-0.363 -3.778,-0.254 -2.16,0.145 -4.172,1.152 -5.898,2.41 -1.086,0.832 -2.199,1.77 -3.242,2.707 v 0 l -13.243,13.75 v 0 c -1.015,1.328 -2.05,2.801 -2.812,4.317 -0.832,1.511 -1.262,3.277 -1.262,5.039 -0.066,1.109 0.039,2.265 0.149,3.347 v 0 l -26.317,-25.957 v 0 c 1.551,-4.636 1.621,-9.57 0.11,-14.14 -1.407,-4.395 -4.176,-8.242 -7.848,-11.016 1.441,-2.703 3.457,-6.66 5.004,-9.258 3.312,-5.613 7.703,-11.472 11.844,-16.55 5.546,-6.954 11.589,-13.43 18.035,-19.551 4.57,-4.278 9.894,-8.848 15.183,-12.168 5.297,-3.274 13.832,-6.985 19.66,-9.399 0.149,2.055 0.391,4.184 0.618,6.235 0.457,3.847 1.394,7.703 2.91,11.336 1.082,2.734 2.812,5.761 5.222,7.531 1.036,0.711 2.805,1.543 3.958,2.078 v 0 l -3.204,40.578 v 0 c -4.179,0.496 -8.027,2.481 -10.761,5.535 -3.313,3.645 -4.864,8.536 -4.328,13.43 v 0" /><path
         id="path124"
         style="fill:#ffffff;fill-opacity:1;fill-rule:nonzero;stroke:none"
         d="m 440.938,290.461 c -0.43,0.644 -1.649,2.441 -1.973,3.16 -0.723,1.406 -2.918,7.602 -3.457,9.113 -0.293,0.684 -5.942,16.551 -6.192,17.278 -0.687,2.449 -1.082,5.039 -1.043,7.703 0,1.687 0.18,3.562 0.715,5.144 0.215,0.618 0.578,1.438 0.832,2.051 -0.722,1.328 -1.695,3.242 -2.379,4.574 -1.402,2.95 -2.66,6.012 -3.597,9.137 -0.61,1.875 -1.332,4.719 -1.762,6.699 v 0 l -34.309,-23.543 v 0 c -0.105,-1.543 -0.289,-3.847 -0.609,-5.398 -0.863,-3.781 -2.848,-7.199 -5.508,-10.078 -2.199,-2.375 -4.683,-4.68 -7.129,-6.692 0.973,-3.203 2.446,-7.812 3.563,-10.988 2.305,-6.766 5.113,-13.965 7.812,-20.547 0.43,-1.043 1.114,-2.664 1.551,-3.711 1.219,-2.945 2.988,-7.3 4.133,-10.289 0.363,-0.976 0.937,-2.453 1.301,-3.457 1.152,0.43 2.445,0.828 3.597,1.153 2.125,0.644 4.68,1.152 6.875,1.043 2.305,-0.145 5.219,-1.043 7.418,-1.766 v 0 l 30.161,29.414 v 0" /><path
         id="path126"
         style="fill:#ffffff;fill-opacity:1;fill-rule:nonzero;stroke:none"
         d="m 419.738,365.156 c -0.613,2.266 -1.222,4.68 -1.691,7.024 -0.613,2.949 -1.012,6.148 -0.828,9.172 0.105,1.589 0.359,3.211 0.863,4.683 0.289,0.824 0.543,1.656 0.898,2.41 -0.503,0.539 -1.292,1.442 -1.617,2.051 -0.648,1.082 -1.043,2.703 -1.258,3.961 -0.328,1.805 -0.617,3.746 -0.867,5.617 -0.105,0.5 -0.179,1.188 -0.285,1.696 -0.398,2.585 -1.012,6.406 -1.441,8.957 v 0 l -38.949,1.656 v 0 c -0.11,-0.75 -0.29,-1.547 -0.399,-2.301 -0.539,-2.699 -1.867,-5.184 -3.851,-7.055 -1.762,-1.695 -3.852,-3.062 -6.227,-3.785 -1.981,-0.609 -4.211,-1.113 -6.266,-1.433 0.219,-2.809 0.614,-6.95 0.942,-9.758 0.715,-6.805 1.582,-13.895 2.804,-20.656 1.008,-5.618 2.844,-13.79 4.141,-19.407 1.797,0.176 3.848,0.285 5.652,0.254 3.129,-0.105 6.157,-0.937 8.817,-2.597 1.547,-1.004 3.062,-2.2 4.465,-3.309 v 0 l 35.097,22.82 v 0" /><path
         id="path128"
         style="fill:#ffffff;fill-opacity:1;fill-rule:nonzero;stroke:none"
         d="m 412.863,420.816 c -0.183,1.942 -0.398,4.606 -0.718,6.547 -0.403,2.633 -1.047,7.598 -1.047,10.227 0.035,2.051 0.867,4.14 1.98,5.828 0.469,0.723 1.043,1.516 1.586,2.234 -0.434,0.793 -1.047,2.012 -1.371,2.918 -0.828,1.977 -1.367,4.711 -1.766,6.875 -1.043,6.266 -1.437,12.629 -1.332,18.969 0,2.266 0.18,5.723 0.832,7.922 0.215,0.898 1.118,2.551 1.547,3.383 v 0 l -32.758,20.336 v 0 c -0.644,-0.825 -1.582,-1.801 -2.414,-2.52 -1.328,-1.113 -2.914,-1.976 -4.57,-2.414 -2.305,-0.609 -4.715,-1.004 -7.164,-1.148 -1.258,-0.075 -3.059,-0.184 -4.32,-0.25 -0.176,-1.985 -0.395,-4.825 -0.575,-6.809 -0.324,-3.961 -0.867,-9.754 -1.187,-13.715 -0.289,-2.808 -0.684,-6.875 -0.898,-9.683 -0.833,-9.5 -1.547,-19.364 -1.911,-28.907 -0.074,-2.011 -0.179,-5.039 -0.214,-7.089 1.582,-0.141 3.382,-0.43 4.933,-0.825 2.805,-0.648 5.434,-2.199 7.703,-3.961 1.328,-0.968 2.66,-2.269 3.528,-3.562 0.539,-0.902 1.222,-2.27 1.652,-3.203 v 0 l 38.484,-1.153 v 0" /><path
         id="path130"
         style="fill:#ffffff;fill-opacity:1;fill-rule:nonzero;stroke:none"
         d="m 416.32,495.297 c -0.215,0.758 -0.832,2.594 -0.937,3.351 -0.145,1.547 0,4.422 0.07,5.938 0.289,3.961 0.758,7.887 1.477,11.805 0.289,1.589 0.613,3.672 0.828,5.261 0.719,5.5 1.691,11.192 2.808,16.625 0.543,2.879 1.368,5.793 2.7,8.356 0.867,1.652 2.304,3.055 4.07,3.703 0.394,0.148 0.937,0.289 1.332,0.398 -0.109,0.969 -0.289,2.411 -0.289,3.348 -0.145,3.418 0.504,6.984 1.547,10.227 0.828,2.765 1.871,5.613 2.847,8.382 0.286,0.684 0.715,1.801 1.008,2.52 v 0 l -24.336,27.504 v 0 c -0.832,-0.434 -1.695,-0.828 -2.519,-1.192 -2.594,-1.152 -5.438,-1.761 -8.211,-1.328 -2.485,0.325 -5.324,1.368 -7.629,2.301 -1.047,-2.125 -2.555,-5.219 -3.527,-7.379 -3.637,-7.633 -6.989,-15.512 -9.864,-23.433 -3.093,-8.676 -5.722,-17.707 -7.918,-26.641 -0.617,-2.301 -1.367,-5.723 -1.945,-8.027 1.441,-0.715 2.988,-1.547 4.356,-2.371 2.914,-1.762 5.289,-4.25 7.164,-7.09 1.441,-2.164 2.593,-4.684 2.988,-7.278 0.215,-1.152 0.215,-2.914 0.215,-4.066 v 0 l 33.765,-20.914 v 0" /><path
         id="path132"
         style="fill:#ffffff;fill-opacity:1;fill-rule:nonzero;stroke:none"
         d="m 437.492,585.406 0.145,-0.109 h 0.176 l 0.175,0.074 0.117,0.141 v 0 c 1.368,2.668 2.52,5.441 3.555,8.211 0.977,2.73 2.922,5.183 5.617,6.226 0.293,0.11 4.356,1.692 4.61,1.906 0.398,0.219 1.015,0.833 1.336,1.118 0.429,0.429 1.113,1.047 1.652,1.367 0.43,0.289 1.152,0.543 1.66,0.719 0.606,0.218 1.543,0.617 2.09,0.972 0.535,0.469 1.863,2.055 2.305,2.59 1.824,2.199 4.023,4.07 6.472,5.512 1.438,0.902 3.821,1.762 5.403,2.375 0.828,6.59 6.23,12.097 12.703,13.027 v 0 l 0.07,43.809 v 0 c -7.199,0.328 -14.863,5.332 -18.535,11.633 -22.246,-12.168 -46.223,-30.922 -60.871,-51.586 1.582,-1.797 5.648,-3.164 6.984,-5.149 1.586,-2.34 2.625,-4.965 3.02,-7.738 0.328,-2.414 0.183,-4.899 -0.535,-7.238 -0.328,-1.043 -0.723,-2.157 -1.118,-3.129 v 0 l 22.969,-24.731 v 0" /><path
         id="path134"
         style="fill:#ffffff;fill-opacity:1;fill-rule:nonzero;stroke:none"
         d="m 495.957,629.246 c 8.176,-1.039 14.504,-9.066 13.789,-17.168 1.152,0 3.274,0 4.317,-0.32 1.906,-0.613 4.289,-2.41 5.832,-3.672 3.347,-2.809 6.445,-6.051 8.894,-9.688 1.152,-1.656 4.063,-6.011 4.426,-8.062 0.039,-0.32 0,-1.473 0,-1.836 0.644,-0.395 1.902,-1.223 2.449,-1.727 1.184,-1.152 2.551,-3.312 3.379,-4.679 0.363,-0.649 0.977,-1.547 1.367,-2.196 v 0 l 23.762,24.586 v 0 c -0.215,1.297 -0.469,3.168 -0.469,4.465 0,2.481 0.75,5.11 1.688,7.453 1.047,2.52 2.519,5.254 4.57,7.196 1.379,1.367 3.32,2.808 4.902,3.961 -1.55,2.734 -3.777,6.765 -5.398,9.468 -4.824,8.028 -10.402,15.621 -16.485,22.715 -4.824,5.613 -10.089,11.016 -15.703,15.801 -6.152,5.219 -13.996,10.691 -21.738,12.816 -2.305,0.684 -9.074,3.633 -9.035,1.438 0.215,-6.367 -4.891,-11.734 -10.184,-15.227 v 0 l -0.363,-45.324 v 0" /><path
         id="path136"
         style="fill:#ffffff;fill-opacity:1;fill-rule:nonzero;stroke:none"
         d="m 543.652,570.352 -0.281,-0.536 0.067,-0.617 v 0 c 0.507,-1.152 1.152,-2.265 1.984,-3.203 1.687,-1.871 3.562,-7.953 4.273,-10.398 0.188,-0.653 0.512,-1.696 0.805,-2.344 0.32,-1.188 0.859,-2.809 1.141,-3.996 0.507,-1.977 0.722,-4.067 0.617,-6.153 -0.07,-1.257 -0.363,-3.132 -0.578,-4.394 1.222,-1.047 3.527,-3.129 4.433,-4.465 1.797,-2.59 3.34,-7.375 4.207,-10.402 1.008,-3.418 1.875,-6.946 2.446,-10.403 0.359,-2.304 0.761,-4.714 1.082,-6.98 v 0 l 26.816,14.324 v 0 c 0,1.078 0.039,2.77 0.324,3.887 0.438,2.199 1.766,4.5 3.094,6.336 1.984,2.738 4.328,5.078 7.102,6.984 1.367,0.934 2.839,1.946 4.277,2.809 -1.223,4.785 -3.02,11.734 -4.277,16.449 -1.954,7.305 -4.036,14.648 -6.231,21.852 -1.223,4.14 -3.098,10.078 -4.355,14.144 -3.996,-1.437 -8.352,-1.691 -12.598,-0.828 -3.312,0.648 -6.484,2.09 -9.258,4.066 v 0 l -25.09,-26.132 v 0" /><path
         id="path138"
         style="fill:#ffffff;fill-opacity:1;fill-rule:nonzero;stroke:none"
         d="m 566.047,496.734 c 0,-1.984 -0.109,-4.539 -0.645,-6.406 -0.214,-0.723 -0.898,-2.015 -1.23,-2.594 0.762,-0.832 1.66,-1.836 2.305,-2.773 1.152,-1.477 1.98,-3.238 2.488,-5.039 1.367,-4.934 2.265,-10.367 2.805,-15.445 0.183,-1.797 0.507,-4.387 0.722,-6.153 0.391,-2.953 0.86,-7.269 1.074,-10.187 0.184,-2.016 0.293,-4.93 -0.031,-6.985 -0.293,-1.441 -1.043,-2.808 -1.941,-3.996 -0.332,-0.359 -0.832,-0.894 -1.153,-1.222 v 0 l 27.782,0.507 v 0 c 1.73,3.344 4.25,6.223 7.382,8.317 3.243,2.117 6.985,3.379 10.84,3.664 0.11,5.402 0.176,13.289 -0.117,18.613 -0.32,6.445 -1.394,15.735 -2.187,22.067 -0.438,3.457 -1.043,8.347 -1.473,11.839 -4.473,-0.461 -8.859,0.579 -12.676,2.957 -2.949,1.868 -5.402,4.461 -7.09,7.555 v 0 l -26.855,-14.719 v 0" /><path
         id="path140"
         style="fill:#ffffff;fill-opacity:1;fill-rule:nonzero;stroke:none"
         d="m 574.25,425.629 -0.109,-0.031 -0.071,-0.075 -0.035,-0.109 0.035,-0.105 1.477,-2.2 v 0 c 1.223,-1.328 0.937,-4.171 0.578,-5.937 -0.684,-2.914 -0.684,-7.09 -0.617,-10.078 0.039,-1.653 0.039,-4.141 0,-5.832 -0.215,-2.918 -0.606,-8.856 -1.258,-11.735 -0.215,-0.867 -0.898,-2.734 -1.223,-3.566 0.645,-2.051 1.477,-4.641 1.875,-6.727 0.43,-2.453 0.5,-5.152 0.325,-7.707 -0.149,-1.8 -0.325,-3.746 -0.539,-5.543 v 0 l 21.671,-13.211 v 0 c 1.329,1.004 2.774,1.985 4.141,2.879 2.52,1.516 5.43,2.414 8.348,2.778 1.543,0.175 3.164,0.281 4.64,0.359 0.508,4.57 1.192,11.227 1.551,15.762 0.578,7.558 0.969,16.234 1.184,23.793 0.183,3.672 0.293,9.144 0.398,12.89 -4.461,0.145 -8.75,1.797 -12.207,4.606 -3.418,2.773 -5.789,6.445 -6.941,10.691 v 0 l -23.223,-0.902 v 0" /><path
         id="path142"
         style="fill:#ffffff;fill-opacity:1;fill-rule:nonzero;stroke:none"
         d="m 573.176,353.594 -0.254,0.039 -0.215,-0.039 -0.109,-0.176 -0.039,-0.215 v 0 c 0,-2.519 0.214,-5.117 0.644,-7.598 0.442,-2.917 0.078,-6.16 -1.863,-8.347 -0.762,-0.91 -2.629,-2.309 -3.567,-3.028 0.5,-1.554 0.938,-3.417 1.262,-5 0.535,-3.136 0.43,-6.449 -0.215,-9.652 -1.047,-4.715 -2.597,-10.074 -4.074,-14.683 -1.621,-5.012 -3.484,-10.227 -5.469,-15.161 -1.582,-3.668 -3.738,-8.281 -6.297,-11.445 -0.683,-0.789 -2.343,-2.41 -3.097,-3.172 v 0 l 19.152,-14.863 v 0 c 0.535,0.402 1.113,0.832 1.649,1.223 1.914,1.367 4.355,2.703 6.66,2.957 3.176,0.39 7.597,-0.653 10.656,-1.551 1.445,-0.43 3.426,-0.969 4.863,-1.367 1.114,3.027 2.625,7.449 3.739,10.476 2.023,5.828 4.355,12.598 6.23,18.469 1.984,6.434 3.781,13.172 5.227,19.754 0.644,3.137 1.543,7.781 2.078,10.906 -5,1.809 -10.789,4.465 -14.571,8.215 -2.089,2.012 -3.242,4.934 -3.711,7.812 -0.253,1.868 -0.359,3.957 -0.429,5.832 v 0 l -18.25,10.614 v 0" /><path
         id="path144"
         style="fill:#ffffff;fill-opacity:1;fill-rule:nonzero;stroke:none"
         d="m 546.172,265.832 c -0.684,-1.125 -2.344,-3.711 -3.27,-4.582 -2.238,-2.078 -9.113,-5.574 -11.886,-6.941 -1.473,-0.754 -3.633,-1.985 -5.078,-2.805 -2.333,-1.375 -5.829,-3.32 -8.348,-4.246 -1.328,-0.469 -4.277,-1.153 -5.656,-1.485 0.039,-3.449 -1.036,-6.875 -3.016,-9.679 -2.375,-3.418 -5.91,-5.828 -9.941,-6.836 v 0 l 3.925,-39.707 v 0 c 1.446,-0.36 3.641,-0.938 4.903,-1.66 2.371,-1.258 4.355,-3.524 5.722,-5.828 2.157,-3.418 3.668,-7.161 4.676,-11.086 0.5,-2.09 1.047,-4.325 1.477,-6.485 3.242,1.477 7.918,3.645 11.015,5.403 5.938,3.418 11.551,7.812 16.563,12.488 5.828,5.508 11.121,11.555 15.691,18.039 3.996,5.683 7.59,11.629 10.832,17.781 1.551,2.988 3.133,6.152 4.676,9.141 -2.625,2.375 -5.398,4.89 -7.801,7.414 -1.379,1.445 -2.597,3.094 -3.566,4.863 -1.551,2.625 -2.168,5.723 -1.77,8.75 0.11,0.938 0.325,1.981 0.539,2.84 v 0 l -19.687,14.621 v 0" /><path
         id="path146"
         style="fill:#ffffff;fill-opacity:1;fill-rule:nonzero;stroke:none"
         d="m 508.223,159.746 c 0.402,0.715 -0.645,6.543 -0.828,7.375 -0.215,1.121 -0.325,2.734 -0.352,3.777 -0.188,1.875 -0.508,3.75 -1.301,5.481 -1.152,2.625 -3.855,4.383 -6.765,4.355 -2.305,0 -4.317,-1.554 -5.442,-3.535 -1.543,-2.765 -2.265,-5.937 -2.41,-9.101 -0.109,-2.668 -0.215,-5.547 -0.324,-8.282 2.707,-0.578 5.441,-1.007 8.137,-1.406 2.371,-0.324 8.105,-0.754 9.285,1.336 v 0" /><path
         id="path148"
         style="fill:#ffffff;fill-opacity:1;fill-rule:nonzero;stroke:none"
         d="m 405.625,236.496 c 0.289,0 2.484,3.418 2.594,3.633 1.332,2.019 1.761,4.57 1.043,6.875 -0.614,1.766 -1.801,3.426 -3.563,4.141 -1.656,0.652 -3.492,0.828 -5.219,0.546 -1.011,-0.187 -2.05,-0.332 -3.062,-0.546 1.297,-2.09 2.664,-4.465 3.527,-6.77 1.047,-2.547 2.309,-5.066 3.707,-7.371 v 0 l 0.438,-0.441 0.535,-0.067 v 0" /><path
         id="path150"
         style="fill:#ffffff;fill-opacity:1;fill-rule:nonzero;stroke:none"
         d="m 371.641,319.297 c 1.226,0.832 2.453,1.758 3.531,2.695 1.836,1.555 3.203,3.633 3.707,5.938 0.539,2.304 -0.074,4.687 -1.656,6.445 -1.442,1.582 -3.418,2.629 -5.582,2.844 -1.153,0.105 -2.411,0.105 -3.563,0.078 0.395,-3.137 0.902,-6.27 1.477,-9.395 0.613,-2.882 1.328,-5.722 2.086,-8.605 v 0" /><path
         id="path152"
         style="fill:#ffffff;fill-opacity:1;fill-rule:nonzero;stroke:none"
         d="m 357.531,407.457 c 1.653,0.508 3.414,1.117 4.965,1.875 1.981,1.004 3.563,2.734 4.141,4.891 0.543,2.304 -0.578,4.683 -2.555,5.906 -1.512,0.937 -3.348,1.476 -5.113,1.766 -0.649,0.109 -1.293,0.214 -1.977,0.324 0.071,-1.981 0.176,-4.899 0.215,-6.949 0.074,-2.266 0.215,-5.543 0.324,-7.813 v 0" /><path
         id="path154"
         style="fill:#ffffff;fill-opacity:1;fill-rule:nonzero;stroke:none"
         d="m 362.461,508.402 c 0.832,-0.863 4.789,0.25 5.941,0.614 2.59,0.789 4.786,2.699 5.618,5.293 0.718,2.156 -0.04,4.461 -1.657,6.117 -1.695,1.801 -4.066,3.168 -6.336,4.215 -0.109,-2.453 -0.429,-5.328 -1.261,-7.633 -0.321,-0.863 -2.914,-7.922 -2.305,-8.606 v 0" /><path
         id="path156"
         style="fill:#ffffff;fill-opacity:1;fill-rule:nonzero;stroke:none"
         d="m 396.266,611.578 c 0.433,-0.719 3.347,-0.719 4.175,-0.644 2.664,0 5.184,1.367 6.336,3.777 1.043,2.086 0.43,4.68 -0.832,6.59 -0.824,1.293 -1.867,2.476 -2.914,3.523 -1.043,-2.23 -2.304,-4.715 -3.738,-6.765 -0.723,-1.047 -3.746,-5.438 -3.027,-6.481 v 0" /><path
         id="path158"
         style="fill:#ffffff;fill-opacity:1;fill-rule:nonzero;stroke:none"
         d="m 477.52,688.832 c -0.614,-5.578 11.23,-8.168 15.41,-4.246 1.867,1.762 3.312,5.184 4.172,7.633 -6.157,0.254 -12.454,0.285 -18.039,-1.516 v 0 l -1.543,-1.871 v 0" /><path
         id="path160"
         style="fill:#ffffff;fill-opacity:1;fill-rule:nonzero;stroke:none"
         d="m 579.07,619.711 c -1.297,-1.227 -2.476,-2.555 -3.523,-3.852 -1.836,-2.304 -2.988,-5.218 -2.559,-8.132 0.293,-2.02 1.446,-3.817 3.059,-5.075 1.98,-1.586 4.609,-2.593 7.098,-2.089 0.968,0.214 2.375,0.863 3.234,1.296 -0.93,2.985 -2.051,5.907 -3.203,8.782 -1.262,3.058 -2.629,6.082 -4.106,9.07 v 0" /><path
         id="path162"
         style="fill:#ffffff;fill-opacity:1;fill-rule:nonzero;stroke:none"
         d="m 607.805,531.047 c -1.797,0.574 -4.895,-3.387 -6.016,-4.934 -1.516,-2.16 -2.226,-4.859 -1.797,-7.484 0.391,-2.524 2.09,-4.609 4.461,-5.727 1.875,-0.898 3.992,-1.441 6.047,-1.765 -0.43,2.883 -0.82,6.121 -0.859,9.039 -0.078,3.269 -0.403,6.656 -0.938,9.824 v 0 l -0.293,0.684 -0.605,0.363 v 0" /><path
         id="path164"
         style="fill:#ffffff;fill-opacity:1;fill-rule:nonzero;stroke:none"
         d="m 617.09,438.887 c -1.152,0.824 -4.61,-0.723 -5.828,-1.332 -1.914,-0.899 -3.528,-2.414 -4.395,-4.356 -0.898,-1.91 -0.832,-4.176 -0.07,-6.16 0.605,-1.726 1.836,-3.309 3.488,-4.066 2.02,-0.938 4.57,-1.332 6.805,-1.442 -0.254,4.25 3.418,14.907 0,17.356 v 0" /><path
         id="path166"
         style="fill:#ffffff;fill-opacity:1;fill-rule:nonzero;stroke:none"
         d="m 611.008,331.465 c 1.512,0.574 1.512,6.769 1.512,8.312 -0.079,2.918 0.363,6.082 0.859,8.961 -1.797,-0.211 -3.777,-0.504 -5.535,-1.004 -2.383,-0.617 -4.543,-2.019 -5.801,-4.101 -1.152,-1.875 -1.367,-4.246 -0.285,-6.192 1.183,-2.019 3.019,-3.64 5.148,-4.609 0.645,-0.32 3.457,-1.66 4.102,-1.367 v 0" /><path
         id="path168"
         style="fill:#ffffff;fill-opacity:1;fill-rule:nonzero;stroke:none"
         d="m 590.344,251.758 c -2.883,1.543 -6.379,3.027 -9.649,3.058 -1.515,0 -3.027,-0.753 -4.062,-1.906 -1.153,-1.258 -1.594,-3.027 -1.301,-4.754 0.363,-2.441 1.621,-4.785 3.633,-6.367 1.367,-1.152 2.949,-2.199 4.426,-3.137 1.121,1.875 2.168,3.782 3.211,5.723 1.261,2.414 2.519,4.902 3.742,7.383 v 0" /><path
         id="path170"
         style="fill:#1a67bb;fill-opacity:1;fill-rule:nonzero;stroke:none"
         d="m 467.871,340.723 c 3.809,0 12.637,35.781 10.938,83.726 -1.473,41.684 -18.067,92.656 -21.954,90.102 -3.816,-2.52 -7.917,-38.805 -4.968,-89.707 2.988,-51.797 12.996,-84.121 15.984,-84.121 v 0" /></g></g></svg>