<?xml version="1.0" encoding="UTF-8" standalone="no"?>
<svg
   xmlns:dc="http://purl.org/dc/elements/1.1/"
   xmlns:cc="http://creativecommons.org/ns#"
   xmlns:rdf="http://www.w3.org/1999/02/22-rdf-syntax-ns#"
   xmlns:svg="http://www.w3.org/2000/svg"
   xmlns="http://www.w3.org/2000/svg"
   viewBox="0 0 133.62666 133.62666"
   height="133.62666"
   width="133.62666"
   xml:space="preserve"
   id="svg2"
   version="1.1"><metadata
     id="metadata8"><rdf:RDF><cc:Work
         rdf:about=""><dc:format>image/svg+xml</dc:format><dc:type
           rdf:resource="http://purl.org/dc/dcmitype/StillImage" /></cc:Work></rdf:RDF></metadata><defs
     id="defs6" /><g
     transform="matrix(1.3333333,0,0,-1.3333333,0,133.62667)"
     id="g10"><g
       transform="scale(0.1)"
       id="g12"><path
         id="path14"
         style="fill:#231f20;fill-opacity:1;fill-rule:nonzero;stroke:none"
         d="M 501.086,0 1002.17,501.086 501.086,1002.21 0,501.086 501.086,0" /><path
         id="path16"
         style="fill:#ffffff;fill-opacity:1;fill-rule:nonzero;stroke:none"
         d="M 701.535,601.309 801.758,501.125 501.086,200.449 400.895,300.676 325.688,225.508 501.086,50.1172 952.09,501.125 776.738,676.516 701.535,601.309" /><path
         id="path18"
         style="fill:#ffffff;fill-opacity:1;fill-rule:nonzero;stroke:none"
         d="M 300.668,400.898 200.41,501.125 501.086,801.758 601.309,701.531 676.516,776.738 501.086,952.129 50.0742,501.125 225.504,325.691 l 75.164,75.207" /><path
         id="path20"
         style="fill:#fcd213;fill-opacity:1;fill-rule:nonzero;stroke:none"
         d="M 689.543,589.32 412.883,312.695 501.086,224.504 777.707,501.125 689.543,589.32" /><path
         id="path22"
         style="fill:#fcd213;fill-opacity:1;fill-rule:nonzero;stroke:none"
         d="m 312.695,412.883 276.621,276.664 -88.23,88.199 -276.629,-276.621 88.238,-88.242" /></g></g></svg>