<?xml version="1.0" encoding="UTF-8" standalone="no"?>
<svg
   xmlns:dc="http://purl.org/dc/elements/1.1/"
   xmlns:cc="http://creativecommons.org/ns#"
   xmlns:rdf="http://www.w3.org/1999/02/22-rdf-syntax-ns#"
   xmlns:svg="http://www.w3.org/2000/svg"
   xmlns="http://www.w3.org/2000/svg"
   viewBox="0 0 113.38667 113.38667"
   height="113.38667"
   width="113.38667"
   xml:space="preserve"
   id="svg2"
   version="1.1"><metadata
     id="metadata8"><rdf:RDF><cc:Work
         rdf:about=""><dc:format>image/svg+xml</dc:format><dc:type
           rdf:resource="http://purl.org/dc/dcmitype/StillImage" /></cc:Work></rdf:RDF></metadata><defs
     id="defs6" /><g
     transform="matrix(1.3333333,0,0,-1.3333333,0,113.38667)"
     id="g10"><g
       transform="scale(0.1)"
       id="g12"><path
         id="path14"
         style="fill:#ee2c30;fill-opacity:1;fill-rule:nonzero;stroke:none"
         d="m 425.195,850.395 c 234.832,0 425.196,-190.368 425.196,-425.2 C 850.391,190.371 660.027,0 425.195,0 190.367,0 0,190.371 0,425.195 c 0,234.832 190.367,425.2 425.195,425.2 v 0" /><path
         id="path16"
         style="fill:#ffffff;fill-opacity:1;fill-rule:nonzero;stroke:none"
         d="m 425.23,708.695 c 38.508,0 75.278,-7.402 110.297,-22.215 33.899,-14.335 63.946,-34.605 90.149,-60.804 26.199,-26.203 46.465,-56.25 60.797,-90.149 14.816,-35.019 22.218,-71.781 22.218,-110.293 0,-38.511 -7.402,-75.273 -22.218,-110.293 C 672.141,281.047 651.875,250.996 625.676,224.797 599.473,198.594 569.426,178.32 535.527,163.984 500.508,149.18 463.738,141.77 425.23,141.77 c -38.507,0 -75.273,7.41 -110.292,22.214 -33.899,14.336 -63.946,34.61 -90.149,60.813 -26.199,26.199 -46.469,56.25 -60.805,90.144 -14.808,35.02 -22.218,71.782 -22.218,110.293 0,38.512 7.41,75.274 22.218,110.293 14.336,33.899 34.606,63.946 60.805,90.149 26.203,26.199 56.25,46.469 90.149,60.804 35.019,14.813 71.785,22.215 110.292,22.215 v 0" /><path
         id="path18"
         style="fill:#231f20;fill-opacity:1;fill-rule:nonzero;stroke:none"
         d="m 297.281,602.348 -0.14,-253.977 -36.903,10.738 v 0 c -2.175,0.727 -4.531,-0.808 -5.953,-2.593 -1.703,-2.161 -2.027,-5.422 -0.484,-7.805 v 0 l 66.023,-96.992 v 0 c 1.375,-1.973 3.512,-3.672 5.93,-3.672 2.434,-0.027 4.629,1.726 5.949,3.601 v 0 l 61.496,97.192 v 0 c 1.543,2.183 1.824,5.418 0.442,7.801 -1.157,2.058 -4.137,3.222 -6.129,2.722 v 0 l -36.516,-10.625 0.141,253.61 h -53.856 v 0" /><path
         id="path20"
         style="fill:#ee2c30;fill-opacity:1;fill-rule:nonzero;stroke:none"
         d="m 500.43,248.066 -0.149,253.985 -36.89,-10.742 v 0 c -2.18,-0.723 -4.536,0.812 -5.961,2.597 -1.7,2.164 -2.032,5.418 -0.489,7.805 v 0 l 66.028,96.988 v 0 c 1.386,1.977 3.515,3.668 5.926,3.668 2.445,0.031 4.64,-1.722 5.957,-3.601 v 0 l 61.496,-97.184 v 0 c 1.543,-2.191 1.828,-5.418 0.437,-7.797 -1.148,-2.07 -4.14,-3.226 -6.133,-2.73 v 0 l -36.511,10.621 0.144,-253.61 H 500.43 v 0" /></g></g></svg>