<?xml version="1.0" encoding="UTF-8" standalone="no"?>
<svg
   xmlns:dc="http://purl.org/dc/elements/1.1/"
   xmlns:cc="http://creativecommons.org/ns#"
   xmlns:rdf="http://www.w3.org/1999/02/22-rdf-syntax-ns#"
   xmlns:svg="http://www.w3.org/2000/svg"
   xmlns="http://www.w3.org/2000/svg"
   viewBox="0 0 94.866669 94.866669"
   height="94.866669"
   width="94.866669"
   xml:space="preserve"
   id="svg2"
   version="1.1"><metadata
     id="metadata8"><rdf:RDF><cc:Work
         rdf:about=""><dc:format>image/svg+xml</dc:format><dc:type
           rdf:resource="http://purl.org/dc/dcmitype/StillImage" /></cc:Work></rdf:RDF></metadata><defs
     id="defs6" /><g
     transform="matrix(1.3333333,0,0,-1.3333333,0,94.866667)"
     id="g10"><g
       transform="scale(0.1)"
       id="g12"><path
         id="path14"
         style="fill:#ffffff;fill-opacity:1;fill-rule:nonzero;stroke:none"
         d="m 1.41797,1.41797 h 708.66 v 708.656 h -708.66 z" /><path
         id="path16"
         style="fill:none;stroke:#231f20;stroke-width:2.83500004;stroke-linecap:butt;stroke-linejoin:miter;stroke-miterlimit:4;stroke-dasharray:none;stroke-opacity:1"
         d="M 1.41797,1.41797 H 710.078 V 710.074 H 1.41797 V 1.41797" /><path
         id="path18"
         style="fill:#1a67bb;fill-opacity:1;fill-rule:nonzero;stroke:none"
         d="m 15.6016,15.5977 h 680.289 v 680.293 H 15.6016 Z" /><path
         id="path20"
         style="fill:#ffffff;fill-opacity:1;fill-rule:nonzero;stroke:none"
         d="m 230.773,255.07 18.754,356.075 h -99.394 l 19.586,-356.075 -67.36,15.262 v 0 c -2.6676,0.508 -5.3277,-0.32 -6.984,-2.48 -2.1602,-2.305 -2.3047,-5.801 -0.5,-8.606 v 0 l 96.727,-146.668 v 0 c 1.836,-2.84 5.003,-4.637 8.316,-4.637 3.637,-0.187 6.949,1.649 8.965,4.637 v 0 l 96.23,147.141 v 0 c 1.657,2.519 1.473,5.828 -0.179,8.133 -1.657,2.48 -4.645,3.484 -7.313,2.988 v 0 l -66.848,-15.77 v 0" /><path
         id="path22"
         style="fill:#ffffff;fill-opacity:1;fill-rule:nonzero;stroke:none"
         d="m 542.461,456.629 18.75,-356.07 h -99.395 l 19.59,356.07 -67.363,-15.262 v 0 c -2.656,-0.504 -5.32,0.328 -6.98,2.485 -2.161,2.304 -2.305,5.796 -0.5,8.605 v 0 l 96.73,146.664 v 0 c 1.836,2.84 5,4.645 8.32,4.645 3.633,0.179 6.942,-1.657 8.953,-4.645 v 0 l 96.231,-147.133 v 0 c 1.66,-2.519 1.476,-5.832 -0.176,-8.136 -1.66,-2.485 -4.648,-3.489 -7.312,-2.989 v 0 l -66.848,15.766 v 0" /><path
         id="path24"
         style="fill:#ee2c30;fill-opacity:1;fill-rule:nonzero;stroke:none"
         d="m 223.215,246.035 18.828,358.02 h -84.426 l 19.692,-357.95 -76.391,17.313 v 0 c -0.035,-0.027 -0.105,-0.145 -0.18,-0.176 v 0 l 0.075,-0.105 96.73,-146.672 v 0 c 0.645,-1.004 1.656,-1.473 2.375,-1.473 1.512,0 2.484,0.653 3.027,1.446 v 0 l 96.192,147.167 v 0 c 0.035,0.106 -0.039,0.215 -0.039,0.243 v 0 l -0.071,0.039 -75.812,-17.852 v 0" /></g></g></svg>