<?xml version="1.0" encoding="UTF-8" standalone="no"?>
<svg
   xmlns:dc="http://purl.org/dc/elements/1.1/"
   xmlns:cc="http://creativecommons.org/ns#"
   xmlns:rdf="http://www.w3.org/1999/02/22-rdf-syntax-ns#"
   xmlns:svg="http://www.w3.org/2000/svg"
   xmlns="http://www.w3.org/2000/svg"
   viewBox="0 0 56.693333 51.599998"
   height="51.599998"
   width="56.693333"
   xml:space="preserve"
   id="svg2"
   version="1.1"><metadata
     id="metadata8"><rdf:RDF><cc:Work
         rdf:about=""><dc:format>image/svg+xml</dc:format><dc:type
           rdf:resource="http://purl.org/dc/dcmitype/StillImage" /></cc:Work></rdf:RDF></metadata><defs
     id="defs6" /><g
     transform="matrix(1.3333333,0,0,-1.3333333,0,51.6)"
     id="g10"><g
       transform="scale(0.1)"
       id="g12"><path
         id="path14"
         style="fill:#ee2c30;fill-opacity:1;fill-rule:nonzero;stroke:none"
         d="M 70.9609,0 H 354.211 v 0 c 54.559,0 88.652,59.0625 61.375,106.289 v 0 L 273.965,351.594 v 0 c -27.285,47.254 -95.469,47.254 -122.758,0 v 0 L 9.58594,106.289 v 0 C -17.6836,59.0625 16.4063,0 70.9609,0 v 0" /><path
         id="path16"
         style="fill:#ffffff;fill-opacity:1;fill-rule:nonzero;stroke:none"
         d="M 70.9609,21.2617 H 354.211 v 0 c 28.777,0 49.715,23.5821 49.715,49.7149 0,8.1172 -2.051,16.5625 -6.746,24.6757 v 0 L 255.559,340.957 v 0 c -9.563,16.582 -26.125,24.824 -42.969,24.824 -16.852,0 -33.41,-8.242 -42.969,-24.824 v 0 L 27.9961,95.6523 v 0 c -4.6953,-8.1132 -6.75,-16.5585 -6.75,-24.6757 0,-26.1328 20.9375,-49.7149 49.7148,-49.7149 v 0" /><path
         id="path18"
         style="fill:#231f20;fill-opacity:1;fill-rule:nonzero;stroke:none"
         d="M 70.9609,42.5195 H 354.211 v 0 c 16.309,0 28.457,13.3203 28.457,28.4571 0,4.4453 -1.094,9.1992 -3.906,14.0429 v 0 L 237.141,330.324 v 0 c -5.508,9.539 -14.758,14.196 -24.551,14.196 -9.797,0 -19.043,-4.657 -24.551,-14.196 v 0 L 46.4102,85.0195 v 0 c -2.8047,-4.8437 -3.9063,-9.5976 -3.9063,-14.0429 0,-15.1368 12.1484,-28.4571 28.457,-28.4571 v 0" /><path
         id="path20"
         style="fill:#ee2c30;fill-opacity:1;fill-rule:nonzero;stroke:none"
         d="m 212.57,227.988 c 39.129,0 70.868,-31.738 70.868,-70.867 0,-39.121 -31.739,-70.8593 -70.868,-70.8593 -39.132,0 -70.867,31.7383 -70.867,70.8593 0,39.129 31.735,70.867 70.867,70.867 v 0" /></g></g></svg>