<?xml version="1.0" encoding="UTF-8" standalone="no"?>
<svg
   xmlns:dc="http://purl.org/dc/elements/1.1/"
   xmlns:cc="http://creativecommons.org/ns#"
   xmlns:rdf="http://www.w3.org/1999/02/22-rdf-syntax-ns#"
   xmlns:svg="http://www.w3.org/2000/svg"
   xmlns="http://www.w3.org/2000/svg"
   viewBox="0 0 113.38667 101.21333"
   height="101.21333"
   width="113.38667"
   xml:space="preserve"
   id="svg2"
   version="1.1"><metadata
     id="metadata8"><rdf:RDF><cc:Work
         rdf:about=""><dc:format>image/svg+xml</dc:format><dc:type
           rdf:resource="http://purl.org/dc/dcmitype/StillImage" /></cc:Work></rdf:RDF></metadata><defs
     id="defs6" /><g
     transform="matrix(1.3333333,0,0,-1.3333333,0,101.21333)"
     id="g10"><g
       transform="scale(0.1)"
       id="g12"><path
         id="path14"
         style="fill:#ee2c30;fill-opacity:1;fill-rule:nonzero;stroke:none"
         d="M 85.1523,0 H 765.227 v 0 c 65.468,0 106.386,70.8672 73.66,127.566 v 0 l -340.039,589 v 0 c -32.743,56.661 -114.571,56.661 -147.293,-0.039 v 0 L 11.5156,127.566 v 0 C -21.2305,70.8672 19.6875,0 85.1523,0 v 0" /><path
         id="path16"
         style="fill:#ffffff;fill-opacity:1;fill-rule:nonzero;stroke:none"
         d="M 85.1328,28.3516 H 765.207 v 0 c 32.891,0 56.863,26.9297 56.863,56.8242 0,9.2773 -2.351,18.9262 -7.722,28.2222 v 0 L 474.277,702.383 v 0 c -10.886,18.894 -29.793,28.308 -49.031,28.308 -19.316,0 -38.234,-9.414 -49.121,-28.308 v 0 L 36.0469,113.398 v 0 c -5.3633,-9.296 -7.7227,-18.9449 -7.7227,-28.2222 0,-29.8945 23.9766,-56.8242 56.8086,-56.8242 v 0" /><path
         id="path18"
         style="fill:#231f20;fill-opacity:1;fill-rule:nonzero;stroke:none"
         d="M 85.1328,56.6875 H 765.227 v 0 c 16.308,0 28.457,13.3008 28.457,28.4609 0,4.3829 -1.075,9.1407 -3.868,14.0899 v 0 L 449.738,688.18 v 0 c -5.508,9.519 -14.629,14.164 -24.492,14.164 -9.937,0 -19.062,-4.645 -24.57,-14.164 v 0 L 60.6172,99.2383 v 0 c -2.8789,-4.9492 -3.9609,-9.707 -3.9609,-14.0899 0,-15.1601 12.207,-28.4609 28.4765,-28.4609 v 0" /><path
         id="path20"
         style="fill:#ffffff;fill-opacity:1;fill-rule:nonzero;stroke:none"
         d="m 230.27,244.531 c 39.128,0 70.898,-31.765 70.898,-70.898 0,-39.129 -31.77,-70.906 -70.898,-70.906 -39.137,0 -70.903,31.777 -70.903,70.906 0,39.133 31.766,70.898 70.903,70.898 v 0" /><path
         id="path22"
         style="fill:#ee2c30;fill-opacity:1;fill-rule:nonzero;stroke:none"
         d="m 620.078,244.531 c 39.133,0 70.899,-31.765 70.899,-70.898 0,-39.129 -31.766,-70.906 -70.899,-70.906 -39.129,0 -70.906,31.777 -70.906,70.906 0,39.133 31.777,70.898 70.906,70.898 v 0" /></g></g></svg>