<?xml version="1.0" encoding="UTF-8" standalone="no"?>
<!DOCTYPE svg PUBLIC "-//W3C//DTD SVG 1.0//EN" "http://www.w3.org/TR/2001/REC-SVG-20010904/DTD/svg10.dtd">
<svg
   xmlns:svg="http://www.w3.org/2000/svg"
   xmlns="http://www.w3.org/2000/svg"
   version="1.0"
   width="159.80334"
   height="53.504032"
   id="svg1895">
  <defs
     id="defs1897" />
  <g
     transform="translate(-185.8127,-397.0388)"
     id="layer1">
    <g
       transform="matrix(1.249992,0,0,-1.249992,-104.9333,954.8249)"
       style="font-style:normal;font-variant:normal;font-weight:normal;font-stretch:normal;letter-spacing:normal;word-spacing:normal;text-anchor:start;fill:none;fill-opacity:1;stroke:black;stroke-linecap:butt;stroke-linejoin:miter;stroke-miterlimit:10.43299961;stroke-dasharray:none;stroke-dashoffset:0;stroke-opacity:1"
       id="g10"
       xml:space="preserve">
<polygon
   points="232.74,403.57 360.3,403.57 360.3,446.09 232.74,446.09 232.74,403.57 "
   style="fill:white;fill-rule:nonzero;stroke:white;stroke-width:0"
   id="polygon12" />
<polygon
   points="232.74,403.57 360.3,403.57 360.3,446.09 232.74,446.09 232.74,403.57 "
   style="stroke-width:0.28349999"
   id="polygon14" />
<path
   d="M 267.45,425.68 L 267.19,425.56 L 266.94,425.44 L 266.7,425.32 L 266.46,425.19 L 266.22,425.06 L 266,424.92 L 265.78,424.78 L 265.56,424.64 L 265.35,424.49 L 265.15,424.33 L 264.95,424.18 L 264.76,424.02 L 264.58,423.85 L 264.4,423.68 L 264.23,423.51 L 264.07,423.33 C 263.22,422.34 262.79,421.02 262.79,419.35 C 262.79,418.39 262.97,417.47 263.33,416.65 C 263.64,415.83 264.14,415.09 264.78,414.48 C 265.42,413.88 266.2,413.38 267.13,413.06 C 268.05,412.71 269.08,412.54 270.25,412.54 C 271.36,412.54 272.39,412.68 273.35,413.03 C 274.27,413.35 275.05,413.77 275.73,414.38 C 276.4,414.98 276.9,415.69 277.29,416.54 C 277.65,417.39 277.82,418.36 277.82,419.42 L 277.82,419.42 L 277.82,419.42 L 277.82,419.42 C 277.82,420.98 277.39,422.3 276.55,423.37 C 275.66,424.39 274.52,425.21 273.13,425.82 C 274.48,426.49 275.51,427.38 276.19,428.48 C 276.86,429.55 277.22,430.68 277.22,431.89 C 277.22,432.79 277.04,433.6 276.72,434.34 C 276.37,435.09 275.87,435.73 275.27,436.27 C 274.66,436.8 273.91,437.19 273.1,437.51 C 272.25,437.79 271.32,437.93 270.32,437.93 C 269.26,437.93 268.3,437.79 267.45,437.47 C 266.6,437.15 265.88,436.69 265.28,436.12 C 264.68,435.55 264.21,434.88 263.89,434.13 C 263.57,433.35 263.39,432.5 263.39,431.61 C 263.39,430.33 263.71,429.2 264.39,428.2 C 265.07,427.17 266.06,426.35 267.45,425.68 z "
   style="fill:#111112;fill-rule:nonzero;stroke:#111112;stroke-width:0;stroke-linejoin:round"
   id="path16" />
<path
   d="M 283.14,416.15 L 283.25,415.94 L 283.37,415.74 L 283.49,415.54 L 283.62,415.34 L 283.75,415.16 L 283.89,414.98 L 284.03,414.8 L 284.17,414.63 L 284.32,414.47 L 284.48,414.31 L 284.63,414.16 L 284.79,414.01 L 284.96,413.87 L 285.13,413.74 L 285.3,413.61 L 285.48,413.49 C 286.44,412.85 287.58,412.54 288.96,412.54 C 290.35,412.54 291.52,412.85 292.48,413.52 C 293.44,414.16 294.22,415.05 294.83,416.19 C 295.43,417.32 295.86,418.68 296.11,420.2 C 296.36,421.73 296.5,423.4 296.5,425.21 L 296.5,425.21 L 296.5,425.21 L 296.5,425.21 C 296.5,427.03 296.36,428.7 296.11,430.26 C 295.86,431.79 295.43,433.14 294.83,434.27 C 294.22,435.41 293.44,436.3 292.48,436.98 C 291.52,437.61 290.35,437.93 288.96,437.93 C 287.58,437.93 286.41,437.61 285.45,436.98 C 284.49,436.3 283.74,435.41 283.14,434.27 C 282.54,433.14 282.11,431.79 281.86,430.26 C 281.61,428.7 281.47,427.03 281.47,425.21 C 281.47,423.4 281.61,421.73 281.86,420.2 C 282.11,418.64 282.54,417.29 283.14,416.15 z "
   style="fill:#111112;fill-rule:nonzero;stroke:#111112;stroke-width:0;stroke-linejoin:round"
   id="path18" />
<path
   d="M 307.64,412.81 L 311.33,412.81 L 311.33,423.97 L 311.33,423.97 C 311.33,425.32 311.62,426.35 312.15,427.1 C 312.68,427.84 313.5,428.2 314.53,428.2 C 316.24,428.2 317.09,427.06 317.09,424.82 L 317.09,424.82 L 317.09,412.81 L 320.79,412.81 L 320.79,423.97 L 320.79,423.97 C 320.79,425.32 321.07,426.35 321.6,427.1 C 322.13,427.84 322.95,428.2 323.98,428.2 C 325.69,428.2 326.54,427.06 326.54,424.82 L 326.54,424.82 L 326.54,412.81 L 330.24,412.81 L 330.24,424.75 L 330.24,424.75 C 330.24,426.88 329.81,428.52 328.96,429.62 C 328.07,430.72 326.76,431.29 324.98,431.29 C 323.8,431.29 322.85,431 322.1,430.44 C 321.35,429.84 320.79,429.16 320.32,428.41 C 320.14,428.77 319.93,429.12 319.68,429.48 C 319.43,429.8 319.11,430.12 318.76,430.4 C 318.4,430.65 317.98,430.86 317.52,431.04 C 317.05,431.22 316.48,431.29 315.88,431.29 C 314.74,431.29 313.82,431 313.07,430.44 C 312.33,429.84 311.72,429.12 311.33,428.23 L 311.33,428.23 L 311.26,428.23 L 311.26,428.23 C 311.26,428.34 311.26,428.55 311.26,428.84 C 311.23,429.09 311.23,429.37 311.23,429.66 C 311.19,429.94 311.19,430.22 311.19,430.47 C 311.15,430.72 311.15,430.94 311.15,431.04 L 311.15,431.04 L 307.5,431.04 L 307.5,431.04 C 307.53,430.54 307.56,430.01 307.6,429.44 C 307.64,428.88 307.64,428.27 307.64,427.59 L 307.64,427.59 L 307.64,412.81 z "
   style="fill:#111112;fill-rule:nonzero;stroke:#111112;stroke-width:0;stroke-linejoin:round"
   id="path20" />
<path
   d="M 270.61,427.03 L 270.4,427.13 L 270.19,427.24 L 270,427.35 L 269.8,427.47 L 269.62,427.58 L 269.44,427.7 L 269.26,427.82 L 269.1,427.94 L 268.93,428.06 L 268.78,428.18 L 268.63,428.31 L 268.49,428.44 L 268.35,428.57 L 268.22,428.71 L 268.1,428.84 L 267.98,428.98 C 267.34,429.69 267.02,430.51 267.02,431.43 C 267.02,432.5 267.34,433.35 267.98,434.02 C 268.59,434.66 269.37,434.99 270.32,434.99 C 271.36,434.99 272.17,434.66 272.74,434.06 C 273.31,433.43 273.59,432.6 273.59,431.64 L 273.59,431.64 L 273.59,431.64 L 273.59,431.64 C 273.59,431.15 273.53,430.68 273.35,430.26 C 273.17,429.8 272.96,429.41 272.67,429.02 C 272.39,428.62 272.07,428.27 271.71,427.95 C 271.36,427.63 271,427.31 270.61,427.03 z "
   style="fill:white;fill-rule:nonzero;stroke:white;stroke-width:0"
   id="path22" />
<path
   d="M 270.08,424.39 L 270.28,424.29 L 270.47,424.18 L 270.66,424.07 L 270.85,423.97 L 271.04,423.86 L 271.23,423.75 L 271.61,423.54 C 272.07,423.23 272.49,422.91 272.89,422.51 C 273.24,422.12 273.53,421.7 273.74,421.23 C 273.95,420.74 274.06,420.17 274.06,419.53 L 274.06,419.53 L 274.06,419.53 L 274.06,419.53 C 274.06,418.32 273.74,417.32 273.1,416.58 C 272.43,415.8 271.54,415.41 270.4,415.41 C 269.15,415.41 268.23,415.8 267.55,416.62 C 266.88,417.43 266.56,418.39 266.56,419.56 C 266.56,420.17 266.67,420.7 266.84,421.16 C 267.02,421.62 267.23,422.05 267.55,422.44 C 267.88,422.83 268.23,423.15 268.69,423.47 C 269.12,423.79 269.58,424.08 270.08,424.39 z "
   style="fill:white;fill-rule:nonzero;stroke:white;stroke-width:0"
   id="path24" />
<path
   d="M 286.05,418.04 L 285.95,418.36 L 285.86,418.7 L 285.78,419.05 L 285.7,419.43 L 285.62,419.82 L 285.56,420.22 L 285.5,420.65 L 285.44,421.09 L 285.39,421.55 L 285.35,422.02 L 285.32,422.52 L 285.29,423.02 L 285.26,423.55 L 285.25,424.09 L 285.24,424.64 L 285.23,425.21 C 285.23,428.3 285.52,430.72 286.05,432.43 C 286.58,434.13 287.58,434.99 288.96,434.99 C 290.38,434.99 291.38,434.13 291.91,432.46 C 292.45,430.76 292.73,428.34 292.73,425.21 L 292.73,425.21 L 292.73,425.21 L 292.73,425.21 C 292.73,422.12 292.45,419.7 291.91,418.04 C 291.35,416.33 290.35,415.48 288.96,415.48 C 287.58,415.48 286.58,416.33 286.05,418.04 z "
   style="fill:white;fill-rule:nonzero;stroke:white;stroke-width:0"
   id="path26" />
</g>  </g>
</svg>
