<?xml version="1.0" encoding="UTF-8" standalone="no"?>
<!DOCTYPE svg PUBLIC "-//W3C//DTD SVG 1.0//EN" "http://www.w3.org/TR/2001/REC-SVG-20010904/DTD/svg10.dtd">
<svg
   xmlns:svg="http://www.w3.org/2000/svg"
   xmlns="http://www.w3.org/2000/svg"
   version="1.0"
   width="159.80334"
   height="53.504032"
   id="svg1897">
  <defs
     id="defs1899" />
  <g
     transform="translate(-205.8126,-368.4673)"
     id="layer1">
    <g
       transform="matrix(1.249992,0,0,-1.249992,-84.93334,926.2534)"
       style="font-style:normal;font-variant:normal;font-weight:normal;font-stretch:normal;letter-spacing:normal;word-spacing:normal;text-anchor:start;fill:none;fill-opacity:1;stroke:black;stroke-linecap:butt;stroke-linejoin:miter;stroke-miterlimit:10.43299961;stroke-dasharray:none;stroke-dashoffset:0;stroke-opacity:1"
       id="g10"
       xml:space="preserve">
<polygon
   points="232.74,403.57 360.3,403.57 360.3,446.09 232.74,446.09 232.74,403.57 "
   style="fill:white;fill-rule:nonzero;stroke:white;stroke-width:0"
   id="polygon12" />
<polygon
   points="232.74,403.57 360.3,403.57 360.3,446.09 232.74,446.09 232.74,403.57 "
   style="stroke-width:0.28349999"
   id="polygon14" />
<path
   d="M 351.06,407.85 L 349.46,431.96 L 354.04,430.75 L 354.04,430.75 C 354.23,430.7 354.41,430.77 354.53,430.94 C 354.66,431.12 354.67,431.39 354.55,431.6 L 354.55,431.6 L 348.05,442.89 L 348.05,442.89 C 347.93,443.11 347.71,443.25 347.5,443.25 C 347.26,443.25 347.04,443.11 346.91,442.88 L 346.91,442.88 L 340.54,431.5 L 340.54,431.5 C 340.43,431.31 340.44,431.05 340.55,430.86 C 340.67,430.68 340.86,430.6 341.05,430.66 L 341.05,430.66 L 345.68,431.88 L 344.38,407.82 L 351.06,407.85 z "
   style="fill:black;fill-rule:nonzero;stroke-width:0"
   id="path16" />
<path
   d="M 249.01,407.85 L 247.42,431.96 L 252,430.75 L 252,430.75 C 252.18,430.7 252.36,430.77 252.48,430.93 C 252.61,431.12 252.62,431.39 252.5,431.6 L 252.5,431.6 L 246,442.88 L 246,442.88 C 245.89,443.11 245.66,443.25 245.45,443.25 C 245.21,443.25 244.99,443.11 244.86,442.88 L 244.86,442.88 L 238.49,431.5 L 238.49,431.5 C 238.38,431.31 238.39,431.05 238.51,430.86 C 238.62,430.68 238.81,430.59 239,430.65 L 239,430.65 L 243.63,431.88 L 242.34,407.82 L 249.01,407.85 z "
   style="fill:black;fill-rule:nonzero;stroke-width:0"
   id="path18" />
<path
   d="M 259.95,412.79 L 271.24,412.79 L 271.24,415.95 L 263.47,415.95 L 264.24,416.95 L 264.24,416.95 C 265.16,418.15 266.05,419.39 266.88,420.68 C 267.68,421.92 268.39,423.2 269.02,424.44 C 269.64,425.69 270.11,426.89 270.46,428.1 C 270.82,429.28 271,430.41 271,431.48 C 271,432.37 270.88,433.18 270.68,433.96 C 270.44,434.75 270.08,435.42 269.64,436.03 C 269.16,436.59 268.57,437.05 267.89,437.41 C 267.18,437.73 266.35,437.91 265.4,437.91 C 264.42,437.91 263.5,437.77 262.7,437.52 C 261.87,437.24 261.1,436.88 260.42,436.45 L 260.42,436.45 L 260.75,432.83 L 260.75,432.83 C 261.22,433.29 261.81,433.75 262.5,434.14 C 263.18,434.53 263.95,434.75 264.81,434.75 C 265.73,434.75 266.46,434.39 266.97,433.65 C 267.47,432.9 267.74,431.98 267.74,430.8 C 267.74,429.98 267.59,429.1 267.29,428.14 C 266.97,427.18 266.55,426.15 265.99,425.12 C 265.43,424.05 264.78,422.95 264.04,421.78 C 263.27,420.61 262.43,419.39 261.52,418.15 L 261.52,418.15 L 259.95,415.98 L 259.95,412.79 z "
   style="fill:black;fill-rule:nonzero;stroke-width:0"
   id="path20" />
<polygon
   points="273.8,408.53 276.35,408.53 278.46,417.05 275.32,417.05 273.8,408.53 "
   style="fill:black;fill-rule:nonzero;stroke-width:0"
   id="polygon22" />
<path
   d="M 281.81,413.36 L 281.9,413.32 L 281.98,413.28 L 282.07,413.24 L 282.16,413.21 L 282.26,413.17 L 282.35,413.13 L 282.45,413.1 L 282.54,413.06 L 282.64,413.03 L 282.75,413 L 282.85,412.96 L 282.96,412.93 L 283.06,412.9 L 283.17,412.87 L 283.29,412.84 L 283.4,412.81 C 284,412.65 284.66,412.56 285.34,412.56 C 287.1,412.56 288.45,413.18 289.4,414.41 C 290.35,415.66 290.82,417.34 290.82,419.47 L 290.82,419.47 L 290.82,419.47 L 290.82,419.47 C 290.82,420.43 290.7,421.31 290.47,422.05 C 290.2,422.82 289.88,423.45 289.47,423.96 C 289.07,424.47 288.57,424.84 288.02,425.1 C 287.45,425.35 286.86,425.49 286.25,425.49 C 285.87,425.49 285.51,425.46 285.2,425.41 C 284.87,425.38 284.59,425.3 284.37,425.21 L 284.37,425.21 L 284.37,430.21 L 290.04,430.21 L 290.04,432.63 L 282.05,432.63 L 282.05,422.51 L 282.05,422.51 C 282.45,422.65 282.88,422.79 283.31,422.94 C 283.73,423.08 284.23,423.13 284.78,423.13 C 285.91,423.13 286.77,422.77 287.36,422.05 C 287.93,421.34 288.21,420.38 288.21,419.21 C 288.21,417.99 287.93,416.99 287.34,416.23 C 286.75,415.43 285.94,415.03 284.92,415.03 C 284.32,415.03 283.78,415.14 283.28,415.34 C 282.79,415.54 282.34,415.77 281.95,416.03 L 281.95,416.03 L 281.81,413.36 z "
   style="fill:black;fill-rule:nonzero;stroke-width:0"
   id="path24" />
<polygon
   points="299.52,412.79 302.61,412.79 302.61,421.81 302.67,421.81 307.74,412.79 311.41,412.79 305.25,422.81 310.88,431.02 307.47,431.02 302.61,423.62 302.61,439.44 299.52,439.44 299.52,412.79 "
   style="fill:black;fill-rule:nonzero;stroke-width:0"
   id="polygon26" />
<path
   d="M 314.79,412.79 L 317.88,412.79 L 317.88,423.95 L 317.88,423.95 C 317.88,425.3 318.12,426.32 318.56,427.07 C 319,427.82 319.69,428.18 320.55,428.18 C 321.97,428.18 322.68,427.04 322.68,424.8 L 322.68,424.8 L 322.68,412.79 L 325.76,412.79 L 325.76,423.95 L 325.76,423.95 C 325.76,425.3 326,426.32 326.44,427.07 C 326.89,427.82 327.57,428.18 328.43,428.18 C 329.85,428.18 330.57,427.04 330.57,424.8 L 330.57,424.8 L 330.57,412.79 L 333.64,412.79 L 333.64,424.73 L 333.64,424.73 C 333.64,426.86 333.29,428.49 332.58,429.59 C 331.84,430.7 330.74,431.26 329.26,431.26 C 328.28,431.26 327.48,430.98 326.86,430.41 C 326.24,429.81 325.76,429.13 325.38,428.39 C 325.23,428.74 325.05,429.1 324.84,429.45 C 324.63,429.77 324.37,430.09 324.07,430.38 C 323.77,430.62 323.42,430.84 323.04,431.02 C 322.65,431.2 322.18,431.26 321.67,431.26 C 320.72,431.26 319.95,430.98 319.33,430.41 C 318.71,429.81 318.2,429.1 317.88,428.21 L 317.88,428.21 L 317.82,428.21 L 317.82,428.21 C 317.82,428.32 317.82,428.53 317.82,428.81 C 317.79,429.06 317.79,429.34 317.79,429.63 C 317.76,429.91 317.76,430.2 317.76,430.45 C 317.73,430.7 317.73,430.91 317.73,431.02 L 317.73,431.02 L 314.68,431.02 L 314.68,431.02 C 314.71,430.52 314.73,429.98 314.76,429.42 C 314.79,428.85 314.79,428.24 314.79,427.57 L 314.79,427.57 L 314.79,412.79 z "
   style="fill:black;fill-rule:nonzero;stroke-width:0"
   id="path28" />
</g>  </g>
</svg>
