<?xml version="1.0" encoding="UTF-8" standalone="no"?>
<svg
   xmlns:dc="http://purl.org/dc/elements/1.1/"
   xmlns:cc="http://creativecommons.org/ns#"
   xmlns:rdf="http://www.w3.org/1999/02/22-rdf-syntax-ns#"
   xmlns:svg="http://www.w3.org/2000/svg"
   xmlns="http://www.w3.org/2000/svg"
   viewBox="0 0 113.76 38.173332"
   height="38.173332"
   width="113.76"
   xml:space="preserve"
   id="svg2"
   version="1.1"><metadata
     id="metadata8"><rdf:RDF><cc:Work
         rdf:about=""><dc:format>image/svg+xml</dc:format><dc:type
           rdf:resource="http://purl.org/dc/dcmitype/StillImage" /></cc:Work></rdf:RDF></metadata><defs
     id="defs6" /><g
     transform="matrix(1.3333333,0,0,-1.3333333,0,38.173333)"
     id="g10"><g
       transform="scale(0.1)"
       id="g12"><path
         id="path14"
         style="fill:#ffffff;fill-opacity:1;fill-rule:nonzero;stroke:none"
         d="m 1.41797,1.41797 h 850.391 v 283.461 H 1.41797 Z" /><path
         id="path16"
         style="fill:none;stroke:#231f20;stroke-width:2.83500004;stroke-linecap:butt;stroke-linejoin:miter;stroke-miterlimit:4;stroke-dasharray:none;stroke-opacity:1"
         d="M 1.41797,1.41797 H 851.809 V 284.879 H 1.41797 V 1.41797" /><path
         id="path18"
         style="fill:#231f20;fill-opacity:1;fill-rule:nonzero;stroke:none"
         d="m 327.398,83.5234 h 47.774 V 98.6875 H 342.34 l 3.238,4.7855 v 0 c 3.891,5.797 7.668,11.773 11.16,17.89 3.383,5.977 6.407,12.133 9.035,18.11 2.629,5.937 4.649,11.734 6.157,17.57 1.48,5.613 2.23,11.086 2.23,16.199 0,4.246 -0.504,8.168 -1.367,11.914 -1.004,3.782 -2.52,7.024 -4.391,9.903 -2.015,2.734 -4.5,4.964 -7.382,6.656 -3.02,1.551 -6.512,2.379 -10.547,2.379 -4.141,0 -8.028,-0.688 -11.41,-1.871 -3.493,-1.368 -6.766,-3.063 -9.649,-5.114 v 0 l 1.367,-17.386 v 0 c 2.016,2.191 4.535,4.425 7.418,6.297 2.879,1.871 6.117,2.918 9.754,2.918 3.887,0 7.024,-1.731 9.18,-5.293 2.125,-3.602 3.242,-8.032 3.242,-13.645 0,-3.926 -0.613,-8.207 -1.875,-12.816 -1.367,-4.606 -3.129,-9.539 -5.508,-14.473 -2.371,-5.148 -5.144,-10.402 -8.281,-16.055 -3.273,-5.617 -6.766,-11.41 -10.652,-17.386 v 0 L 327.398,98.8633 V 83.5234" /><path
         id="path20"
         style="fill:#231f20;fill-opacity:1;fill-rule:nonzero;stroke:none"
         d="m 388.922,99.5469 c 2.125,-5.4688 4.898,-9.7188 8.281,-12.7774 3.383,-3.0976 7.379,-4.5742 12.274,-4.5742 4.898,0 9.039,1.4766 12.421,4.7188 3.387,3.0976 6.122,7.3437 8.243,12.8125 2.164,5.4414 3.64,11.9184 4.539,19.2614 0.859,7.344 1.367,15.34 1.367,24.051 v 0 c 0,8.711 -0.508,16.703 -1.367,24.227 -0.899,7.343 -2.375,13.824 -4.539,19.257 -2.121,5.473 -4.856,9.723 -8.243,12.957 -3.382,3.098 -7.523,4.614 -12.421,4.614 -4.895,0 -9.036,-1.516 -12.422,-4.614 -3.383,-3.234 -6.008,-7.484 -8.133,-12.957 -2.125,-5.433 -3.633,-11.914 -4.496,-19.257 -0.906,-7.524 -1.406,-15.516 -1.406,-24.227 0,-8.711 0.5,-16.707 1.406,-24.051 0.863,-7.488 2.371,-14.004 4.496,-19.4411 v 0" /><path
         id="path22"
         style="fill:#231f20;fill-opacity:1;fill-rule:nonzero;stroke:none"
         d="m 451.242,130.473 c 1.512,-3.817 3.418,-6.805 5.789,-8.93 2.383,-2.156 5.188,-3.238 8.606,-3.238 3.426,0 6.336,1.082 8.679,3.343 2.375,2.165 4.317,5.114 5.793,8.965 1.512,3.821 2.559,8.356 3.172,13.469 0.606,5.145 0.969,10.762 0.969,16.848 v 0 c 0,6.082 -0.363,11.699 -0.969,16.957 -0.613,5.144 -1.66,9.679 -3.172,13.496 -1.476,3.816 -3.418,6.805 -5.793,9.07 -2.343,2.125 -5.253,3.211 -8.679,3.211 -3.418,0 -6.301,-1.086 -8.672,-3.211 -2.375,-2.265 -4.211,-5.254 -5.723,-9.07 -1.476,-3.817 -2.519,-8.352 -3.137,-13.496 -0.613,-5.258 -0.976,-10.875 -0.976,-16.957 0,-6.086 0.363,-11.703 0.976,-16.848 0.618,-5.258 1.661,-9.793 3.137,-13.609 v 0" /><path
         id="path24"
         style="fill:#231f20;fill-opacity:1;fill-rule:nonzero;stroke:none"
         d="m 494.297,130.473 c 1.504,-3.817 3.418,-6.805 5.793,-8.93 2.371,-2.156 5.183,-3.238 8.601,-3.238 3.418,0 6.301,1.082 8.684,3.343 2.371,2.165 4.316,5.114 5.789,8.965 1.477,3.821 2.559,8.356 3.176,13.469 0.605,5.145 0.965,10.762 0.965,16.848 v 0 c 0,6.082 -0.36,11.699 -0.965,16.957 -0.617,5.144 -1.699,9.679 -3.176,13.496 -1.473,3.816 -3.418,6.805 -5.789,9.07 -2.383,2.125 -5.266,3.211 -8.684,3.211 -3.418,0 -6.336,-1.086 -8.671,-3.211 -2.372,-2.265 -4.219,-5.254 -5.723,-9.07 -1.477,-3.817 -2.559,-8.352 -3.172,-13.496 -0.605,-5.258 -0.937,-10.875 -0.937,-16.957 0,-6.086 0.332,-11.703 0.937,-16.848 0.613,-5.258 1.695,-9.793 3.172,-13.609 v 0" /><path
         id="path26"
         style="fill:#231f20;fill-opacity:1;fill-rule:nonzero;stroke:none"
         d="m 544.875,124.281 h 28.047 v 14.828 h -28.047 v -14.828" /><path
         id="path28"
         style="fill:#231f20;fill-opacity:1;fill-rule:nonzero;stroke:none"
         d="m 596.105,99.5469 c 2.157,-5.4688 4.891,-9.7188 8.282,-12.7774 3.379,-3.0976 7.41,-4.5742 12.273,-4.5742 4.895,0 9.035,1.4766 12.422,4.7188 3.379,3.0976 6.152,7.3437 8.273,12.8125 2.129,5.4414 3.641,11.9184 4.5,19.2614 0.899,7.344 1.407,15.34 1.407,24.051 v 0 c 0,8.711 -0.508,16.703 -1.407,24.227 -0.859,7.343 -2.371,13.824 -4.5,19.257 -2.121,5.473 -4.894,9.723 -8.273,12.957 -3.387,3.098 -7.527,4.614 -12.422,4.614 -4.863,0 -9.004,-1.516 -12.383,-4.614 -3.386,-3.234 -6.015,-7.484 -8.172,-12.957 -2.128,-5.433 -3.644,-11.914 -4.503,-19.257 -0.86,-7.524 -1.368,-15.516 -1.368,-24.227 0,-8.711 0.508,-16.707 1.368,-24.051 0.859,-7.488 2.375,-14.004 4.503,-19.4411 v 0" /><path
         id="path30"
         style="fill:#231f20;fill-opacity:1;fill-rule:nonzero;stroke:none"
         d="m 664.102,145.953 -0.243,0.145 v 0 c 0.106,5.289 0.496,10.582 1.258,15.875 0.754,5.113 1.973,9.722 3.742,13.824 1.621,4.066 3.887,7.488 6.512,10.043 2.629,2.558 6.016,3.781 9.902,3.781 2.883,0 5.508,-0.539 7.922,-1.551 2.371,-1.183 4.356,-2.371 6.016,-3.597 v 0 l 0.605,15.875 v 0 c -1.757,0.863 -3.886,1.695 -6.371,2.558 -2.664,0.864 -5.543,1.188 -8.922,1.188 -6.125,0 -11.269,-1.516 -15.41,-4.754 -4.25,-3.242 -7.636,-7.703 -10.265,-13.5 -2.664,-5.797 -4.637,-12.777 -5.789,-20.805 -1.125,-8.176 -1.731,-17.215 -1.731,-27.109 0,-8.207 0.5,-15.699 1.367,-22.535 0.86,-6.805 2.375,-12.602 4.5,-17.5707 2.121,-4.9297 4.895,-8.8555 8.422,-11.5898 3.387,-2.7071 7.637,-4.0352 12.781,-4.0352 7.774,0 13.899,3.3477 18.536,10.1875 4.648,6.6602 6.914,16.3832 6.914,28.8402 v 0 c 0,5.613 -0.496,10.726 -1.653,15.336 -1.121,4.605 -2.742,8.711 -4.754,12.093 -2.121,3.243 -4.5,5.977 -7.382,7.848 -2.911,1.875 -5.899,2.738 -9.286,2.738 -4.14,0 -7.668,-1.191 -10.293,-3.562 -2.734,-2.563 -4.863,-5.797 -6.378,-9.723 v 0" /><path
         id="path32"
         style="fill:#231f20;fill-opacity:1;fill-rule:nonzero;stroke:none"
         d="m 719.043,130.473 c 1.477,-3.817 3.418,-6.805 5.793,-8.93 2.383,-2.156 5.184,-3.238 8.602,-3.238 3.429,0 6.308,1.082 8.683,3.343 2.371,2.165 4.285,5.114 5.789,8.965 1.477,3.821 2.52,8.356 3.176,13.469 0.605,5.145 0.937,10.762 0.937,16.848 v 0 c 0,6.082 -0.332,11.699 -0.937,16.957 -0.656,5.144 -1.699,9.679 -3.176,13.496 -1.504,3.816 -3.418,6.805 -5.789,9.07 -2.375,2.125 -5.254,3.211 -8.683,3.211 -3.418,0 -6.329,-1.086 -8.711,-3.211 -2.372,-2.265 -4.207,-5.254 -5.684,-9.07 -1.512,-3.817 -2.559,-8.352 -3.172,-13.496 -0.605,-5.258 -0.969,-10.875 -0.969,-16.957 0,-6.086 0.364,-11.703 0.969,-16.848 0.613,-5.258 1.66,-9.793 3.172,-13.609 v 0" /><path
         id="path34"
         style="fill:#231f20;fill-opacity:1;fill-rule:nonzero;stroke:none"
         d="m 762.102,130.473 c 1.472,-3.817 3.418,-6.805 5.761,-8.93 2.371,-2.156 5.176,-3.238 8.602,-3.238 3.418,0 6.328,1.082 8.711,3.343 2.336,2.165 4.277,5.114 5.762,8.965 1.503,3.821 2.55,8.356 3.164,13.469 0.617,5.145 0.976,10.762 0.976,16.848 v 0 c 0,6.082 -0.359,11.699 -0.976,16.957 -0.614,5.144 -1.661,9.679 -3.164,13.496 -1.485,3.816 -3.426,6.805 -5.762,9.07 -2.383,2.125 -5.293,3.211 -8.711,3.211 -3.426,0 -6.297,-1.086 -8.68,-3.211 -2.375,-2.265 -4.211,-5.254 -5.683,-9.07 -1.516,-3.817 -2.559,-8.352 -3.176,-13.496 -0.606,-5.258 -0.965,-10.875 -0.965,-16.957 0,-6.086 0.359,-11.703 0.965,-16.848 0.617,-5.258 1.66,-9.793 3.176,-13.609 v 0" /><path
         id="path36"
         style="fill:#ffffff;fill-opacity:1;fill-rule:nonzero;stroke:none"
         d="m 399.18,108.586 c -1.871,8.023 -2.875,19.617 -2.875,34.453 0,14.828 1.004,26.418 2.875,34.629 1.91,8.172 5.402,12.277 10.297,12.277 5.007,0 8.531,-4.105 10.406,-12.097 1.871,-8.207 2.883,-19.801 2.883,-34.809 v 0 c 0,-14.836 -1.012,-26.43 -2.883,-34.453 -2.016,-8.176 -5.508,-12.2774 -10.406,-12.2774 -4.895,0 -8.387,4.1014 -10.297,12.2774 v 0" /><path
         id="path38"
         style="fill:#ffffff;fill-opacity:1;fill-rule:nonzero;stroke:none"
         d="m 458.438,136.809 c -1.297,5.613 -2.012,13.714 -2.012,24.121 0,10.402 0.715,18.504 2.012,24.226 1.328,5.723 3.781,8.606 7.199,8.606 3.535,0 5.976,-2.883 7.273,-8.465 1.328,-5.754 2.051,-13.856 2.051,-24.367 v 0 c 0,-10.407 -0.723,-18.508 -2.051,-24.121 -1.406,-5.723 -3.847,-8.606 -7.273,-8.606 -3.418,0 -5.871,2.883 -7.199,8.606 v 0" /><path
         id="path40"
         style="fill:#ffffff;fill-opacity:1;fill-rule:nonzero;stroke:none"
         d="m 501.496,136.809 c -1.328,5.613 -2.012,13.714 -2.012,24.121 0,10.402 0.684,18.504 2.012,24.226 1.324,5.723 3.777,8.606 7.195,8.606 3.497,0 5.977,-2.883 7.278,-8.465 1.328,-5.754 2.011,-13.856 2.011,-24.367 v 0 c 0,-10.407 -0.683,-18.508 -2.011,-24.121 -1.406,-5.723 -3.86,-8.606 -7.278,-8.606 -3.418,0 -5.871,2.883 -7.195,8.606 v 0" /><path
         id="path42"
         style="fill:#ffffff;fill-opacity:1;fill-rule:nonzero;stroke:none"
         d="m 606.398,108.586 c -1.875,8.023 -2.882,19.617 -2.882,34.453 0,14.828 1.007,26.418 2.882,34.629 1.875,8.172 5.399,12.277 10.262,12.277 5.039,0 8.528,-4.105 10.403,-12.097 1.902,-8.207 2.878,-19.801 2.878,-34.809 v 0 c 0,-14.836 -0.976,-26.43 -2.878,-34.453 -1.985,-8.176 -5.508,-12.2774 -10.403,-12.2774 -4.863,0 -8.387,4.1014 -10.262,12.2774 v 0" /><path
         id="path44"
         style="fill:#ffffff;fill-opacity:1;fill-rule:nonzero;stroke:none"
         d="m 668.496,103.473 c -1.152,2.195 -1.902,4.789 -2.41,7.672 -0.469,2.914 -0.723,5.968 -0.723,9.394 0,3.234 0.254,6.477 0.867,9.359 0.508,2.915 1.262,5.469 2.375,7.665 1.004,2.234 2.266,3.925 3.887,5.292 1.621,1.188 3.387,1.872 5.508,1.872 2.129,0 4.031,-0.684 5.652,-1.872 1.621,-1.367 2.883,-3.058 3.887,-5.292 1.008,-2.196 1.77,-4.93 2.277,-7.844 0.457,-2.883 0.711,-5.946 0.711,-9.18 v 0 c 0,-3.426 -0.254,-6.48 -0.711,-9.394 -0.507,-2.883 -1.269,-5.477 -2.277,-7.672 -1.113,-2.235 -2.371,-4.1019 -4.031,-5.2933 -1.621,-1.1875 -3.379,-1.8711 -5.508,-1.8711 -2.121,0 -3.996,0.6836 -5.617,1.8711 -1.649,1.1914 -2.91,3.0583 -3.887,5.2933 v 0" /><path
         id="path46"
         style="fill:#ffffff;fill-opacity:1;fill-rule:nonzero;stroke:none"
         d="m 726.242,136.809 c -1.328,5.613 -2.012,13.714 -2.012,24.121 0,10.402 0.684,18.504 2.012,24.226 1.297,5.723 3.778,8.606 7.196,8.606 3.496,0 5.949,-2.883 7.277,-8.465 1.297,-5.754 2.019,-13.856 2.019,-24.367 v 0 c 0,-10.407 -0.722,-18.508 -2.019,-24.121 -1.406,-5.723 -3.848,-8.606 -7.277,-8.606 -3.418,0 -5.899,2.883 -7.196,8.606 v 0" /><path
         id="path48"
         style="fill:#ffffff;fill-opacity:1;fill-rule:nonzero;stroke:none"
         d="m 769.258,136.809 c -1.289,5.613 -2.012,13.714 -2.012,24.121 0,10.402 0.723,18.504 2.012,24.226 1.34,5.723 3.781,8.606 7.207,8.606 3.527,0 5.976,-2.883 7.305,-8.465 1.3,-5.754 2.011,-13.856 2.011,-24.367 v 0 c 0,-10.407 -0.711,-18.508 -2.011,-24.121 -1.407,-5.723 -3.887,-8.606 -7.305,-8.606 -3.426,0 -5.867,2.883 -7.207,8.606 v 0" /><path
         id="path50"
         style="fill:#1a67bb;fill-opacity:1;fill-rule:nonzero;stroke:none"
         d="M 58.1211,249.453 H 270.734 V 36.8359 H 58.1211 V 249.453" /><path
         id="path52"
         style="fill:#ffffff;fill-opacity:1;fill-rule:nonzero;stroke:none"
         d="m 146.535,63.625 h -26.75 v 150.727 h 75.387 v 0 c 6.191,0 12.957,-2.414 16.992,-7.813 5.399,-7.059 5.145,-13.785 5.145,-13.785 v -50.508 c 0,-3.531 -1.079,-11.09 -6.477,-16.488 -4.859,-4.86 -10.012,-6.77 -15.66,-6.77 H 146.535 V 63.625" /><path
         id="path54"
         style="fill:#1a67bb;fill-opacity:1;fill-rule:nonzero;stroke:none"
         d="m 146.535,142.172 v 48.351 h 38.379 v 0 c 1.613,0 3.488,0 4.57,-1.085 1.079,-1.079 1.368,-2.157 1.368,-4.571 v -37.008 c 0,-1.906 -0.543,-3.527 -1.622,-4.32 -1.082,-1.078 -2.16,-1.367 -4.07,-1.367 h -38.625 v 0" /></g></g></svg>